<svg width="752" height="194" viewBox="0 0 752 194" fill="none" xmlns="http://www.w3.org/2000/svg">
<path d="M300.709 48.6775C300.709 52.8498 302.023 56.8676 304.65 60.7308C307.277 64.4395 310.213 68.38 313.458 72.5523C316.703 76.5701 319.639 80.8969 322.266 85.5328C324.893 90.0142 326.207 95.1909 326.207 101.063V146.495C326.207 149.585 325.434 152.29 323.889 154.607C322.498 156.925 320.644 158.857 318.326 160.402C316.008 161.948 313.304 163.107 310.213 163.879C307.277 164.652 304.264 165.038 301.173 165.038C298.237 165.038 295.301 164.652 292.365 163.879C289.429 163.107 286.802 161.948 284.484 160.402C282.32 158.857 280.543 156.925 279.153 154.607C277.762 152.29 277.066 149.585 277.066 146.495V101.758C277.066 100.059 277.916 99.2087 279.616 99.2087H297.696C299.396 99.2087 300.246 100.059 300.246 101.758V144.177H303.027V104.308C303.027 99.9813 301.714 95.8863 299.087 92.023C296.46 88.1598 293.524 84.3738 290.279 80.6651C287.034 76.9564 284.097 73.2477 281.47 69.539C278.843 65.6758 277.53 61.5807 277.53 57.2539V18.5443C277.53 15.4537 278.225 12.7494 279.616 10.4315C281.161 8.11352 283.093 6.18191 285.411 4.63661C287.729 3.09132 290.356 1.93235 293.292 1.1597C296.383 0.387052 299.473 0.000732422 302.564 0.000732422C305.654 0.000732422 308.59 0.387052 311.372 1.1597C314.308 1.93235 316.858 3.09132 319.021 4.63661C321.339 6.18191 323.193 8.11352 324.584 10.4315C325.975 12.7494 326.67 15.4537 326.67 18.5443V50.3001C326.67 51.9999 325.82 52.8498 324.121 52.8498H306.041C304.341 52.8498 303.491 51.9999 303.491 50.3001V20.6304H283.788V22.7166H287.729C290.974 22.7166 293.447 23.4119 295.146 24.8027C297.001 26.0389 298.314 27.5842 299.087 29.4386C300.014 31.2929 300.478 33.3791 300.478 35.697C300.632 37.8604 300.709 39.8693 300.709 41.7237V48.6775Z" fill="white"/>
<path d="M221.834 18.3125C221.834 15.2219 222.529 12.5949 223.92 10.4315C225.465 8.11352 227.397 6.18191 229.715 4.63661C232.033 3.09132 234.66 1.93235 237.596 1.1597C240.687 0.387052 243.777 0.000732422 246.868 0.000732422C249.958 0.000732422 252.894 0.387052 255.676 1.1597C258.612 1.93235 261.162 3.09132 263.325 4.63661C265.643 6.02738 267.497 7.88173 268.888 10.1997C270.279 12.5176 270.974 15.2219 270.974 18.3125V146.726C270.974 149.663 270.202 152.29 268.656 154.607C267.266 156.925 265.411 158.857 263.093 160.402C260.775 161.948 258.071 163.107 254.981 163.879C252.044 164.652 249.031 165.038 245.941 165.038C243.005 165.038 240.068 164.652 237.132 163.879C234.196 163.107 231.569 162.025 229.251 160.634C227.088 159.089 225.311 157.157 223.92 154.839C222.529 152.521 221.834 149.817 221.834 146.726V18.3125ZM245.013 144.177H247.795V20.6304H228.092V22.7166H232.033C235.278 22.7166 237.751 23.4119 239.45 24.8027C241.305 26.0389 242.618 27.5842 243.391 29.4386C244.318 31.2929 244.782 33.3791 244.782 35.697C244.936 37.8604 245.013 39.8693 245.013 41.7237V144.177Z" fill="white"/>
<path d="M189.792 48.6775C189.792 52.8498 191.106 56.8676 193.733 60.7308C196.36 64.4395 199.296 68.38 202.541 72.5523C205.786 76.5701 208.722 80.8969 211.349 85.5328C213.976 90.0142 215.29 95.1909 215.29 101.063V146.495C215.29 149.585 214.517 152.29 212.972 154.607C211.581 156.925 209.727 158.857 207.409 160.402C205.091 161.948 202.387 163.107 199.296 163.879C196.36 164.652 193.347 165.038 190.256 165.038C187.32 165.038 184.384 164.652 181.448 163.879C178.512 163.107 175.885 161.948 173.567 160.402C171.403 158.857 169.626 156.925 168.236 154.607C166.845 152.29 166.149 149.585 166.149 146.495V101.758C166.149 100.059 166.999 99.2087 168.699 99.2087H186.779C188.479 99.2087 189.329 100.059 189.329 101.758V144.177H192.11V104.308C192.11 99.9813 190.797 95.8863 188.17 92.023C185.543 88.1598 182.607 84.3738 179.362 80.6651C176.117 76.9564 173.18 73.2477 170.553 69.539C167.926 65.6758 166.613 61.5807 166.613 57.2539V18.5443C166.613 15.4537 167.308 12.7494 168.699 10.4315C170.244 8.11352 172.176 6.18191 174.494 4.63661C176.812 3.09132 179.439 1.93235 182.375 1.1597C185.466 0.387052 188.556 0.000732422 191.647 0.000732422C194.737 0.000732422 197.673 0.387052 200.455 1.1597C203.391 1.93235 205.941 3.09132 208.104 4.63661C210.422 6.18191 212.276 8.11352 213.667 10.4315C215.058 12.7494 215.753 15.4537 215.753 18.5443V50.3001C215.753 51.9999 214.903 52.8498 213.204 52.8498H195.124C193.424 52.8498 192.574 51.9999 192.574 50.3001V20.6304H172.871V22.7166H176.812C180.057 22.7166 182.53 23.4119 184.229 24.8027C186.084 26.0389 187.397 27.5842 188.17 29.4386C189.097 31.2929 189.561 33.3791 189.561 35.697C189.715 37.8604 189.792 39.8693 189.792 41.7237V48.6775Z" fill="white"/>
<path d="M134.107 48.6775C134.107 52.8498 135.42 56.8676 138.047 60.7308C140.674 64.4395 143.61 68.38 146.856 72.5523C150.101 76.5701 153.037 80.8969 155.664 85.5328C158.291 90.0142 159.604 95.1909 159.604 101.063V146.495C159.604 149.585 158.832 152.29 157.286 154.607C155.896 156.925 154.041 158.857 151.723 160.402C149.405 161.948 146.701 163.107 143.61 163.879C140.674 164.652 137.661 165.038 134.57 165.038C131.634 165.038 128.698 164.652 125.762 163.879C122.826 163.107 120.199 161.948 117.881 160.402C115.718 158.857 113.941 156.925 112.55 154.607C111.159 152.29 110.464 149.585 110.464 146.495V101.758C110.464 100.059 111.314 99.2087 113.014 99.2087H131.094C132.793 99.2087 133.643 100.059 133.643 101.758V144.177H136.425V104.308C136.425 99.9813 135.111 95.8863 132.484 92.023C129.857 88.1598 126.921 84.3738 123.676 80.6651C120.431 76.9564 117.495 73.2477 114.868 69.539C112.241 65.6758 110.927 61.5807 110.927 57.2539V18.5443C110.927 15.4537 111.623 12.7494 113.014 10.4315C114.559 8.11352 116.491 6.18191 118.808 4.63661C121.126 3.09132 123.753 1.93235 126.689 1.1597C129.78 0.387052 132.871 0.000732422 135.961 0.000732422C139.052 0.000732422 141.988 0.387052 144.769 1.1597C147.705 1.93235 150.255 3.09132 152.419 4.63661C154.737 6.18191 156.591 8.11352 157.982 10.4315C159.372 12.7494 160.068 15.4537 160.068 18.5443V50.3001C160.068 51.9999 159.218 52.8498 157.518 52.8498H139.438C137.738 52.8498 136.888 51.9999 136.888 50.3001V20.6304H117.186V22.7166H121.126C124.372 22.7166 126.844 23.4119 128.544 24.8027C130.398 26.0389 131.712 27.5842 132.484 29.4386C133.411 31.2929 133.875 33.3791 133.875 35.697C134.03 37.8604 134.107 39.8693 134.107 41.7237V48.6775Z" fill="white"/>
<path d="M55.2324 18.3125C55.2324 15.2219 55.9278 12.5949 57.3186 10.4315C58.8639 8.11352 60.7955 6.18191 63.1134 4.63661C65.4314 3.09132 68.0584 1.93235 70.9944 1.1597C74.085 0.387052 77.1756 0.000732422 80.2662 0.000732422C83.3568 0.000732422 86.2929 0.387052 89.0744 1.1597C92.0104 1.93235 94.5602 3.09132 96.7236 4.63661C99.0415 6.02738 100.896 7.88173 102.287 10.1997C103.677 12.5176 104.373 15.2219 104.373 18.3125V146.726C104.373 149.663 103.6 152.29 102.055 154.607C100.664 156.925 98.8097 158.857 96.4918 160.402C94.1739 161.948 91.4696 163.107 88.379 163.879C85.4429 164.652 82.4296 165.038 79.339 165.038C76.403 165.038 73.4669 164.652 70.5308 163.879C67.5948 163.107 64.9678 162.025 62.6498 160.634C60.4864 159.089 58.7093 157.157 57.3186 154.839C55.9278 152.521 55.2324 149.817 55.2324 146.726V18.3125ZM78.4118 144.177H81.1934V20.6304H61.4909V22.7166H65.4314C68.6765 22.7166 71.149 23.4119 72.8488 24.8027C74.7031 26.0389 76.0166 27.5842 76.7893 29.4386C77.7165 31.2929 78.1801 33.3791 78.1801 35.697C78.3346 37.8604 78.4118 39.8693 78.4118 41.7237V144.177Z" fill="white"/>
<path d="M25.961 20.6303H6.25844V22.7165H10.1989C13.4441 22.7165 15.9165 23.4118 17.6164 24.8026C19.4707 26.0389 20.7842 27.5841 21.5569 29.4385C22.484 31.2929 22.9476 33.379 22.9476 35.6969C23.1022 37.8604 23.1794 39.8692 23.1794 41.7236V161.098C23.1794 162.797 22.3295 163.647 20.6297 163.647H2.54974C0.849912 163.647 0 162.797 0 161.098V3.94113C0 2.2413 0.849912 1.39139 2.54974 1.39139H17.6164C18.6981 1.39139 19.548 2.2413 20.1661 3.94113L23.1794 11.8221C24.5702 8.26795 26.1927 5.48643 28.0471 3.47754C30.056 1.31413 33.1466 0.232422 37.3189 0.232422C40.2549 0.232422 42.9592 1.1596 45.4317 3.01396C47.9041 4.86831 49.1404 7.80436 49.1404 11.8221V161.098C49.1404 162.797 48.2905 163.647 46.5906 163.647H28.5107C26.8109 163.647 25.961 162.797 25.961 161.098V20.6303Z" fill="white"/>
<path d="M725.799 48.6768C725.799 52.8491 727.113 56.8668 729.74 60.7301C732.367 64.4388 735.303 68.3793 738.548 72.5516C741.793 76.5694 744.729 80.8962 747.356 85.5321C749.983 90.0134 751.297 95.1902 751.297 101.062V146.494C751.297 149.585 750.524 152.289 748.979 154.607C747.588 156.925 745.734 158.856 743.416 160.402C741.098 161.947 738.393 163.106 735.303 163.879C732.367 164.651 729.353 165.037 726.263 165.037C723.327 165.037 720.391 164.651 717.455 163.879C714.519 163.106 711.892 161.947 709.574 160.402C707.41 158.856 705.633 156.925 704.242 154.607C702.852 152.289 702.156 149.585 702.156 146.494V101.758C702.156 100.058 703.006 99.2079 704.706 99.2079H722.786C724.486 99.2079 725.336 100.058 725.336 101.758V144.176H728.117V104.307C728.117 99.9806 726.804 95.8855 724.177 92.0223C721.55 88.1591 718.614 84.3731 715.369 80.6644C712.123 76.9557 709.187 73.247 706.56 69.5383C703.933 65.675 702.62 61.58 702.62 57.2532V18.5435C702.62 15.4529 703.315 12.7487 704.706 10.4307C706.251 8.11279 708.183 6.18117 710.501 4.63588C712.819 3.09059 715.446 1.93161 718.382 1.15897C721.472 0.38632 724.563 0 727.654 0C730.744 0 733.68 0.38632 736.462 1.15897C739.398 1.93161 741.948 3.09059 744.111 4.63588C746.429 6.18117 748.283 8.11279 749.674 10.4307C751.065 12.7487 751.76 15.4529 751.76 18.5435V50.2993C751.76 51.9992 750.91 52.8491 749.21 52.8491H731.131C729.431 52.8491 728.581 51.9992 728.581 50.2993V20.6297H708.878V22.7158H712.819C716.064 22.7158 718.536 23.4112 720.236 24.802C722.091 26.0382 723.404 27.5835 724.177 29.4379C725.104 31.2922 725.567 33.3784 725.567 35.6963C725.722 37.8597 725.799 39.8686 725.799 41.723V48.6768Z" fill="white"/>
<path d="M646.925 18.3117C646.925 15.2212 647.62 12.5942 649.011 10.4307C650.556 8.11279 652.488 6.18117 654.806 4.63588C657.124 3.09059 659.751 1.93161 662.687 1.15897C665.777 0.38632 668.868 0 671.959 0C675.049 0 677.985 0.38632 680.767 1.15897C683.703 1.93161 686.253 3.09059 688.416 4.63588C690.734 6.02665 692.588 7.881 693.979 10.1989C695.37 12.5169 696.065 15.2212 696.065 18.3117V146.726C696.065 149.662 695.293 152.289 693.747 154.607C692.356 156.925 690.502 158.856 688.184 160.402C685.866 161.947 683.162 163.106 680.071 163.879C677.135 164.651 674.122 165.037 671.031 165.037C668.095 165.037 665.159 164.651 662.223 163.879C659.287 163.106 656.66 162.024 654.342 160.633C652.179 159.088 650.402 157.156 649.011 154.839C647.62 152.521 646.925 149.816 646.925 146.726V18.3117ZM670.104 144.176H672.886V20.6297H653.183V22.7158H657.124C660.369 22.7158 662.841 23.4112 664.541 24.802C666.396 26.0382 667.709 27.5835 668.482 29.4379C669.409 31.2922 669.872 33.3784 669.872 35.6963C670.027 37.8597 670.104 39.8686 670.104 41.723V144.176Z" fill="white"/>
<path d="M614.87 144.176H617.651V99.9033C617.651 98.2035 618.501 97.3536 620.201 97.3536H638.281C639.981 97.3536 640.831 98.2035 640.831 99.9033V146.726C640.831 149.662 640.058 152.289 638.513 154.607C637.122 156.925 635.268 158.856 632.95 160.402C630.632 161.947 627.928 163.106 624.837 163.879C621.901 164.651 618.888 165.037 615.797 165.037C612.861 165.037 609.925 164.651 606.989 163.879C604.053 163.106 601.426 162.024 599.108 160.633C596.944 159.088 595.167 157.156 593.777 154.839C592.386 152.521 591.69 149.816 591.69 146.726V18.3117C591.69 15.2212 592.386 12.5942 593.777 10.4307C595.322 8.11279 597.253 6.18117 599.571 4.63588C601.889 3.09059 604.516 1.93161 607.452 1.15897C610.543 0.38632 613.634 0 616.724 0C619.815 0 622.751 0.38632 625.532 1.15897C628.468 1.93161 631.018 3.09059 633.182 4.63588C635.5 6.02665 637.354 7.881 638.745 10.1989C640.135 12.5169 640.831 15.2212 640.831 18.3117V57.0214C640.831 58.7212 639.981 59.5711 638.281 59.5711H620.201C618.501 59.5711 617.651 58.7212 617.651 57.0214V20.8615H597.949V22.9476H601.889C605.134 22.9476 607.607 23.643 609.307 25.0338C611.161 26.27 612.475 27.8153 613.247 29.6697C614.174 31.524 614.638 33.6102 614.638 35.9281C614.793 38.0915 614.87 40.1004 614.87 41.9548V144.176Z" fill="white"/>
<path d="M562.491 3.94037C562.491 2.24054 563.341 1.39062 565.041 1.39062H583.121C584.821 1.39062 585.671 2.24054 585.671 3.94037V161.097C585.671 162.797 584.821 163.647 583.121 163.647H565.041C563.341 163.647 562.491 162.797 562.491 161.097V3.94037Z" fill="white"/>
<path d="M548.636 142.09C545.391 142.09 542.841 141.472 540.987 140.235C539.287 138.845 537.973 137.222 537.046 135.368C536.273 133.513 535.81 131.504 535.655 129.341C535.655 127.023 535.655 124.937 535.655 123.083V3.94037C535.655 2.24054 536.505 1.39062 538.205 1.39062H556.285C557.985 1.39062 558.835 2.24054 558.835 3.94037L552.344 160.402C552.344 161.174 552.035 161.947 551.417 162.719C550.799 163.338 549.717 163.647 548.172 163.647H520.357C518.812 163.647 517.73 163.338 517.112 162.719C516.494 161.947 516.185 161.174 516.185 160.402L509.694 3.94037C509.694 2.24054 510.544 1.39062 512.244 1.39062H530.324C532.024 1.39062 532.874 2.24054 532.874 3.94037V144.176H548.636V142.09Z" fill="white"/>
<path d="M479.96 55.1669H482.741V20.6295H479.96V55.1669ZM463.039 74.4058V76.492H466.979C470.224 76.492 472.697 77.1874 474.397 78.5781C476.251 79.8144 477.564 81.3596 478.337 83.214C479.264 85.0684 479.728 87.1545 479.728 89.4724C479.882 91.6359 479.96 93.6447 479.96 95.4991V161.097C479.96 162.797 479.11 163.647 477.41 163.647H459.33C457.63 163.647 456.78 162.797 456.78 161.097V3.94037C456.78 2.24054 457.63 1.39062 459.33 1.39062H480.887C483.977 1.39062 486.991 1.77695 489.927 2.54959C493.017 3.32224 495.722 4.48122 498.04 6.02652C500.358 7.41728 502.212 9.27164 503.603 11.5896C505.148 13.9075 505.921 16.6118 505.921 19.7024V52.3854C505.921 53.9307 505.38 55.3987 504.298 56.7895L497.808 64.6705L504.298 72.5515C505.38 73.9422 505.921 75.4103 505.921 76.9556V161.097C505.921 162.797 505.071 163.647 503.371 163.647H485.291C483.591 163.647 482.741 162.797 482.741 161.097V74.4058H463.039Z" fill="white"/>
<path d="M438.535 20.8613V57.0213H445.952C447.652 57.0213 448.502 57.8712 448.502 59.571V75.333C448.502 77.0328 447.652 77.8827 445.952 77.8827H421.614V79.9689H425.554C428.8 79.9689 431.272 80.6643 432.972 82.055C434.826 83.2913 436.14 84.8366 436.912 86.6909C437.84 88.5453 438.303 90.6314 438.303 92.9494C438.458 95.1128 438.535 97.1217 438.535 98.976V144.176H449.429C451.129 144.176 451.979 145.026 451.979 146.726V161.097C451.979 162.797 451.129 163.647 449.429 163.647H417.905C416.205 163.647 415.355 162.797 415.355 161.097V3.94037C415.355 2.24054 416.205 1.39062 417.905 1.39062H449.429C451.129 1.39062 451.979 2.24054 451.979 3.94037V18.3116C451.979 20.0114 451.129 20.8613 449.429 20.8613H438.535Z" fill="white"/>
<path d="M383.314 48.6768C383.314 52.8491 384.627 56.8668 387.254 60.7301C389.881 64.4388 392.817 68.3793 396.063 72.5516C399.308 76.5694 402.244 80.8962 404.871 85.5321C407.498 90.0134 408.811 95.1902 408.811 101.062V146.494C408.811 149.585 408.039 152.289 406.493 154.607C405.103 156.925 403.248 158.856 400.93 160.402C398.612 161.947 395.908 163.106 392.817 163.879C389.881 164.651 386.868 165.037 383.778 165.037C380.841 165.037 377.905 164.651 374.969 163.879C372.033 163.106 369.406 161.947 367.088 160.402C364.925 158.856 363.148 156.925 361.757 154.607C360.366 152.289 359.671 149.585 359.671 146.494V101.758C359.671 100.058 360.521 99.2079 362.221 99.2079H380.301C382 99.2079 382.85 100.058 382.85 101.758V144.176H385.632V104.307C385.632 99.9806 384.318 95.8855 381.691 92.0223C379.064 88.1591 376.128 84.3731 372.883 80.6644C369.638 76.9557 366.702 73.247 364.075 69.5383C361.448 65.675 360.134 61.58 360.134 57.2532V18.5435C360.134 15.4529 360.83 12.7487 362.221 10.4307C363.766 8.11279 365.698 6.18117 368.015 4.63588C370.333 3.09059 372.96 1.93161 375.896 1.15897C378.987 0.38632 382.078 0 385.168 0C388.259 0 391.195 0.38632 393.976 1.15897C396.913 1.93161 399.462 3.09059 401.626 4.63588C403.944 6.18117 405.798 8.11279 407.189 10.4307C408.579 12.7487 409.275 15.4529 409.275 18.5435V50.2993C409.275 51.9992 408.425 52.8491 406.725 52.8491H388.645C386.945 52.8491 386.095 51.9992 386.095 50.2993V20.6297H366.393V22.7158H370.333C373.579 22.7158 376.051 23.4112 377.751 24.802C379.605 26.0382 380.919 27.5835 381.691 29.4379C382.619 31.2922 383.082 33.3784 383.082 35.6963C383.237 37.8597 383.314 39.8686 383.314 41.723V48.6768Z" fill="white"/>
<path d="M616.506 159.139C616.506 160.369 617.55 161.554 619.637 162.694C621.724 163.787 624.056 164.95 626.634 166.18C629.212 167.365 631.544 168.641 633.631 170.009C635.718 171.331 636.761 172.857 636.761 174.589V187.989C636.761 188.901 636.148 189.698 634.92 190.382C633.815 191.066 632.342 191.635 630.501 192.091C628.659 192.547 626.511 192.889 624.056 193.117C621.724 193.344 619.33 193.458 616.875 193.458C614.542 193.458 612.21 193.344 609.878 193.117C607.545 192.889 605.458 192.547 603.617 192.091C601.898 191.635 600.487 191.066 599.382 190.382C598.277 189.698 597.725 188.901 597.725 187.989V174.794C597.725 174.293 598.4 174.042 599.75 174.042H614.113C615.463 174.042 616.138 174.293 616.138 174.794V187.305H618.348V175.546C618.348 174.27 617.304 173.062 615.217 171.923C613.131 170.784 610.798 169.667 608.22 168.573C605.642 167.479 603.31 166.385 601.223 165.291C599.136 164.152 598.093 162.944 598.093 161.668V150.251C598.093 149.339 598.645 148.542 599.75 147.858C600.978 147.174 602.512 146.605 604.353 146.149C606.195 145.693 608.282 145.351 610.614 145.123C613.069 144.896 617.182 146.698 619.637 146.698C622.092 146.698 622.767 144.896 624.977 145.123C627.309 145.351 629.335 145.693 631.053 146.149C632.895 146.605 634.368 147.174 635.472 147.858C636.577 148.542 637.13 149.339 637.13 150.251L637.496 152.494C632.068 146.529 631.856 159.07 624.977 160.369C618.097 161.668 620.742 160.369 620.742 160.369C619.391 160.369 618.716 160.118 618.716 159.617V150.866H603.065V151.481H606.195C608.773 151.481 610.737 151.687 612.087 152.097C613.56 152.461 614.604 152.917 615.217 153.464C615.954 154.011 616.322 154.626 616.322 155.31C616.445 155.948 616.506 156.541 616.506 157.088V159.139Z" fill="white"/>
</svg>
