<svg xmlns="http://www.w3.org/2000/svg" viewBox="0 0 364.98 104.26"><defs><style>.cls-1{fill:#fff;}</style></defs><g id="Camada_2" data-name="Camada 2"><g id="Camada_1-2" data-name="Camada 1"><path class="cls-1" d="M64.82,17l0,.66c2.32,1,4.59,2,6.75,3.14l.23.12.06-.68C69.18,18.86,66.71,17.76,64.82,17ZM42.29,96.06h0l-.58.12c-.52.1-.95.16-1.38.21h-.09l-.65.07-.33,0a20.78,20.78,0,0,1-8.28-1,24.61,24.61,0,0,1-10-6.6c-.62-.66-1.15-1.25-1.65-1.87s-.94-1.2-1.39-1.84l-.42-.37c-.27-.23-.53-.46-.78-.7s-.49-.47-.73-.71a36.73,36.73,0,0,0,2.84,4c.48.61,1,1.22,1.66,1.91a25.37,25.37,0,0,0,10.28,6.76,21.31,21.31,0,0,0,8.53,1c.34,0,.68-.06,1-.11.5-.05,1-.13,1.51-.22l.26-.06h0l.27,0c0-.19,0-.37,0-.56V96Z"/><path class="cls-1" d="M93.67,43.71a29.86,29.86,0,0,1-.51,5.3c-.12.66-.28,1.38-.49,2.17a43.57,43.57,0,0,1-3.9,9.65,65.88,65.88,0,0,1-7.91,11.56l-.7.85-.23.29a2.3,2.3,0,0,0-.17.2l-.18.22-1,1.16c-.76.91-1.54,1.83-2.36,2.71C74.17,80.05,72,82.17,70,84.16a95.38,95.38,0,0,1-7.49,6.55c-1,.76-2,1.53-3,2.27l-.09.07-1.3.79a52.42,52.42,0,0,1-13.67,5.45l-.13,0-.56.13h-.16l-1.27.05-.57,0h-.43c-.26,0-.54,0-.79,0h-.77l-.61,0h0c-.3,0-.6,0-.9,0-.81,0-1.61-.14-2.39-.25a40.15,40.15,0,0,1-9.55-2.47h0L26,96.55a29.86,29.86,0,0,1-7.21-5.61c-.7-.76-1.28-1.41-1.79-2a42.31,42.31,0,0,1-4.92-7.71l0,0a74.1,74.1,0,0,1-3.75-9c.14.33.28.66.44,1l.43.88a1.51,1.51,0,0,0,.11.22c.12.24.26.49.38.71s.12.23.17.34c.16.3.34.6.51.9s.39.66.6,1,.41.63.63,1,.39.57.6.86l.08.12.58.76a1.81,1.81,0,0,0,.18.23l.56.7a.29.29,0,0,0,.09.11q.33.41.69.81c.23.25.46.52.7.77l.23.24c.19.2.37.4.58.59l.12.12h0a36.73,36.73,0,0,0,2.84,4c.48.61,1,1.22,1.66,1.91a25.37,25.37,0,0,0,10.28,6.76,21.31,21.31,0,0,0,8.53,1c.34,0,.68-.06,1-.11.5-.05,1-.13,1.51-.22l.26-.06h0l.27,0c0-.19,0-.37,0-.56V96h0l.49-.1.1,0a48.07,48.07,0,0,0,13.25-5.19c.35-.19.68-.39,1-.59l.16-.1.73-.54s0,0,0,0a33.49,33.49,0,0,0,3.4-2.07l.85-.62c.35-.25.68-.51,1-.78s.55-.44.82-.67h0l.86-.75a.08.08,0,0,0,0,0L66,83.8c.36-.35.69-.69,1-1,.19-.2.38-.39.55-.59s.38-.42.57-.63.35-.41.52-.62.32-.38.47-.58a.52.52,0,0,0,.1-.11l.55-.72c.07-.1.15-.19.21-.29a2.6,2.6,0,0,0,.27-.38c1.16-1.14,2.27-2.28,3.36-3.45s2.17-2.47,3.2-3.73l1.28-1.56c.9-1.07,1.68-2,2.39-3a1.33,1.33,0,0,0,.14-.19l.12-.14c.28-.37.55-.74.8-1.11a55.25,55.25,0,0,0,4-6.49,40.69,40.69,0,0,0,3.59-8.88c.18-.69.33-1.33.44-1.94A20.7,20.7,0,0,0,88,34.84c-.2-.41-.44-.83-.75-1.37l-.12-.2a20,20,0,0,0-1.68-2.35L85,30.47l-.27-.29c-3-3.21-7.32-6.32-13-9.27l.06-.68c-2.65-1.37-5.12-2.47-7-3.24,0-.83,0-1.68,0-2.53l0-.69.26.09c1.6.62,4,1.64,6.9,3l.29.14c4.47,2.2,10.72,5.82,15.09,10.55l.42.45h0l.5.58a22.4,22.4,0,0,1,2,2.76,2.1,2.1,0,0,1,.19.31c.32.53.61,1.05.85,1.55A23,23,0,0,1,93.67,43.71Z"/><path class="cls-1" d="M55.11,10.43c-.23.14-.46.28-.69.44a23,23,0,0,0-2.36,1.69l-.6.48c-1.87-.6-3.46-1-5-1.45l-.25-.06c-.89-.22-1.83-.46-2.79-.68l-.38-.08c-1.61-.37-3-.63-4.37-.81a91.31,91.31,0,0,0-9.88-.81,34.8,34.8,0,0,0-5,.35h-.13l-1.29.15a24.19,24.19,0,0,0-9.2,2.86,14.89,14.89,0,0,0-4.84,4.25,13.45,13.45,0,0,0-.93,1.47l-.25.36L7,18.93C6.3,20,3.76,24.49,3.61,32.83a47.25,47.25,0,0,0,.23,5.62c.36,2.49.7,4.65,1,6.42l.06.34c0,.24.09.48.13.73l.12.72,0,.08.1.52c.25,1.35.5,2.75.79,4.22.1.48.19,1,.29,1.48H5.83c0,.11,0,.22,0,.32a38.17,38.17,0,0,0-.34,4.9A35.07,35.07,0,0,0,6.11,65h0l-.62.15C4.65,62.05,3.88,58.73,3.11,55L3,54.5c-.16-.78-.32-1.57-.47-2.35-.26-1.32-.5-2.62-.73-3.85l-.15-.85L1.6,47.1q-.08-.42-.15-.81l-.14-.79c-.34-1.88-.7-4.18-1-6.62A49.31,49.31,0,0,1,0,32.77C.19,22.83,3.48,17.64,4.2,16.63a21.48,21.48,0,0,1,1.23-2,18.57,18.57,0,0,1,6-5.29A28.2,28.2,0,0,1,22,6.08l1.37-.15a37.36,37.36,0,0,1,5.54-.37,95.44,95.44,0,0,1,10.25.83,64.53,64.53,0,0,1,6.66,1.34l.46.11,1.09.28c2.66.68,5.26,1.51,7.23,2.15Z"/><path class="cls-1" d="M26,96.55l.26.14a38.7,38.7,0,0,1-4.13-1.92.56.56,0,0,1-.16-.12,30.82,30.82,0,0,1-3.63-3.28c-.72-.76-1.3-1.42-1.84-2.08a43,43,0,0,1-5-7.76l0-.09a73.42,73.42,0,0,1-3.79-9.11h0l0-.06C7,70.39,6.41,68.41,5.79,66.21v0l-.18-.63.59-.11c0,.22.09.42.14.62a.1.1,0,0,0,.07,0c.78-.13,1.55-.24,2.33-.32.21,0,.43,0,.64-.06.59,2.08,1.23,4.08,1.89,5.95l.06.19-.66,0a21,21,0,0,0-2.39.25h0l0,0h0a74.1,74.1,0,0,0,3.75,9l0,0A42.31,42.31,0,0,0,17,88.9c.51.63,1.09,1.28,1.79,2A29.86,29.86,0,0,0,26,96.55Z"/><path class="cls-1" d="M34.14,93.09h0Zm0,0h0Zm0,0h0Zm0,0h0Zm0,0h0ZM9.65,74.92a6,6,0,0,1-.38-.71C9.39,74.45,9.53,74.7,9.65,74.92ZM9.16,74l-.43-.88C8.86,73.4,9,73.7,9.16,74Zm-.43-.88c-.16-.33-.3-.66-.44-1C8.43,72.45,8.57,72.78,8.73,73.11Zm25.41,20h0Zm0,0h0Zm0,0h0Z"/><path class="cls-1" d="M48.48,93h0l.21-.05Z"/><path class="cls-1" d="M74.09,72s0,0,0,.08a.15.15,0,0,0,0-.08Z"/><path class="cls-1" d="M81.28,49.44c-.18-.83-.38-1.64-.61-2.44l-1.23-.13c-1.08-.1-2.21-.15-3.36-.15h-.15a35.3,35.3,0,0,0-22.34,7.91A36.57,36.57,0,0,0,44.47,65.7V52.24a41,41,0,0,0,15.26-8.06,34.45,34.45,0,0,0,12-23.27l.06-.68c0-.23,0-.45,0-.68s0-.61,0-.92v0c0-.1,0-.2,0-.3v-.69c0-.24,0-.48,0-.71a35.72,35.72,0,0,0-.2-3.7v0s0,0,0,0a45.29,45.29,0,0,0-1.15-6.34c-.18-.71-.38-1.43-.59-2.14A6.64,6.64,0,0,0,66.76.94,6.74,6.74,0,0,0,61.88.18c-.73.19-1.44.4-2.14.63a42.57,42.57,0,0,0-6,2.37s0,0-.05,0h0a38.88,38.88,0,0,0-4.73,2.69l0,0c-.9.6-1.77,1.24-2.61,1.91l-.61.5-.6.5c-.32.28-.64.58-1,.87l-.55.52-.52.54A33.5,33.5,0,0,0,35.65,22.2a26.73,26.73,0,0,0-4.85-3.11s0,0,0,0a25.57,25.57,0,0,0-3.67-1.55h0a35.4,35.4,0,0,0-4.61-1.22L20.85,16a4.84,4.84,0,0,0-3.5,1,4.91,4.91,0,0,0-2,3c-.1.55-.18,1.09-.24,1.64a33.11,33.11,0,0,0-.27,4.73v.06a28.73,28.73,0,0,0,.33,4v0a25.73,25.73,0,0,0,4.62,11.31,25.3,25.3,0,0,0,6.35,6.12A30.36,30.36,0,0,0,38.3,52.6h0V65.92a0,0,0,0,0,0,0,36,36,0,0,0-9.66-11.64A35.35,35.35,0,0,0,6.75,46.72H6.37l-1.18,0-.63,0-.64,0-1.06.1h0L2.22,47,1.78,47h0c0,.13-.08.27-.11.4-.18.67-.34,1.35-.49,2a41.17,41.17,0,0,0,.12,17.94c.24,1.06.51,2.12.84,3.17s.64,1.89,1,2.82.75,1.82,1.17,2.72L5,77.45c.19.37.39.73.59,1.08s.39.7.61,1c.4.68.83,1.36,1.27,2h0q.92,1.33,1.92,2.61l.85,1c.29.34.58.66.88,1s.53.56.79.85.5.51.76.75a40.71,40.71,0,0,0,9.47,7,38.7,38.7,0,0,0,4.13,1.92h0a40.15,40.15,0,0,0,9.55,2.47c.78.11,1.58.2,2.39.25.3,0,.6,0,.9,0h0l.61,0h.77c.25,0,.53,0,.79,0h.43l.57,0,1.27-.05h.16l.74-.06c.79-.06,1.59-.15,2.41-.25a41.17,41.17,0,0,0,31.74-24c.3-.65.57-1.31.82-2s.45-1.18.65-1.78c.09-.28.19-.57.27-.86.19-.61.37-1.24.54-1.86.1-.44.21-.88.31-1.33,0,0,0-.12,0-.17.1-.5.21-1,.29-1.48a41.2,41.2,0,0,0,.67-7.45A41.81,41.81,0,0,0,81.28,49.44ZM44.17,21.73A30,30,0,0,1,51.46,13l.6-.48a23,23,0,0,1,2.36-1.69c.23-.16.46-.3.69-.44A36.06,36.06,0,0,1,62.27,7l1.36-.47c.12.48.23.94.32,1.41a36.8,36.8,0,0,1,.82,5.8l0,.69c0,.85,0,1.7,0,2.53l0,.66A30.52,30.52,0,0,1,61,31,32,32,0,0,1,45.08,44.89a29.23,29.23,0,0,0-1-9.75,25.54,25.54,0,0,0-2.77-6.41A30.28,30.28,0,0,1,44.17,21.73ZM34.7,46.44a23.07,23.07,0,0,1-10.46-7.92A23.82,23.82,0,0,1,20,21.9c0-.35.08-.69.12-1,.34.07.7.13,1,.22a24.4,24.4,0,0,1,12.74,7,22,22,0,0,1,1.8,2.15A24.13,24.13,0,0,1,39.8,47.9c-.3,0-.58-.11-.87-.18A26.67,26.67,0,0,1,34.7,46.44Zm-28.51,19c0-.14-.05-.28-.07-.44h0a35.07,35.07,0,0,1-.66-6.8,38.17,38.17,0,0,1,.34-4.9c0-.1,0-.21,0-.32h.92A29.48,29.48,0,0,1,35.57,76.81,30.29,30.29,0,0,0,11.93,65.54c-.85,0-1.71,0-2.56.11-.21,0-.43,0-.64.06-.78.08-1.55.19-2.33.32a.1.1,0,0,1-.07,0C6.28,65.85,6.24,65.65,6.19,65.43Zm6.05,13.64L12.16,79c-.21-.29-.4-.57-.6-.86s-.43-.63-.63-1-.4-.65-.6-1-.35-.6-.51-.9c-.05-.11-.12-.22-.17-.34a6,6,0,0,1-.38-.71A1.51,1.51,0,0,1,9.16,74c-.15-.29-.3-.59-.43-.88s-.3-.66-.44-1h0l0,0h0a21,21,0,0,1,2.39-.25l.66,0h.61A24.1,24.1,0,0,1,35.24,89.67c.08.23.13.47.19.7a25.78,25.78,0,0,1,.54,3c-.61-.09-1.2-.19-1.79-.32h-.11L33.84,93l-1-.22L32,92.6l-.27-.07-.85-.25-.3-.1c-.34-.09-.68-.21-1-.32l-.06,0c-.34-.11-.68-.24-1-.36l-.1-.06a8.74,8.74,0,0,1-.92-.36,36.92,36.92,0,0,1-4.41-2.19l-.64-.4A33.74,33.74,0,0,1,18.87,86l-.62-.49-.34-.3-.42-.37c-.27-.23-.53-.46-.78-.7s-.49-.47-.73-.71h0l-.12-.12c-.21-.19-.39-.39-.58-.59L15,82.45c-.24-.25-.47-.52-.7-.77s-.47-.54-.69-.81a.29.29,0,0,1-.09-.11l-.56-.7a1.81,1.81,0,0,1-.18-.23Zm61.8-7s0,0,0,.08h0c-.14.35-.29.68-.45,1,0,.11-.1.24-.16.35s-.24.5-.38.74a1.47,1.47,0,0,1-.06.14l-.52,1c-.14.25-.28.52-.45.77s-.27.47-.42.7a3.7,3.7,0,0,1-.21.33,6.06,6.06,0,0,1-.35.53,3.89,3.89,0,0,1-.34.52,2.28,2.28,0,0,1-.21.3,3.3,3.3,0,0,1-.22.3,2.6,2.6,0,0,1-.27.38c-.06.1-.14.19-.21.29l-.55.72a.52.52,0,0,1-.1.11c-.15.2-.31.39-.47.58s-.34.42-.52.62-.37.43-.57.63-.36.39-.55.59c-.35.36-.68.7-1,1l-.79.73a.08.08,0,0,1,0,0l-.86.75h0c-.27.23-.54.46-.82.67s-.66.53-1,.78l-.85.62a33.49,33.49,0,0,1-3.4,2.07s0,0,0,0l-.08,0a5.75,5.75,0,0,1-.65.34l-.92.47c-.33.16-.68.31-1,.46s-.7.3-1,.44l-1,.39,0,0c-.23.09-.48.17-.72.25l-.48.16c-.18.07-.38.12-.58.18l-.59.18-.82.22-.08,0c-.34.09-.68.18-1,.24l-.15,0-.21,0-.21.05h0c-.58.13-1.17.23-1.76.33a22.8,22.8,0,0,1,.53-3c.06-.24.11-.47.18-.71A24.12,24.12,0,0,1,70.75,71.78a23.44,23.44,0,0,1,3.34.23h0A.15.15,0,0,1,74,72.09Zm-3.29-6.55A30.31,30.31,0,0,0,47.11,76.81,29.48,29.48,0,0,1,75.93,53h.56a34.78,34.78,0,0,1,.39,5.22A35.81,35.81,0,0,1,76,66,30.82,30.82,0,0,0,70.75,65.54Z"/><path class="cls-1" d="M99.67,16.17a1,1,0,0,1,1-1h12.38c9,0,13.47,4,13.47,11.88v1.17c0,8-4.47,11.94-13.47,11.94h-4.93a1,1,0,0,0-1,1v9.07a1,1,0,0,1-1,1H100.7a1,1,0,0,1-1-1Zm7.45,6.68v9.61a1,1,0,0,0,1,1h5.33c3.93,0,5.62-1.48,5.62-5.25V27c0-3.66-1.79-5.19-5.62-5.19h-5.33A1,1,0,0,0,107.12,22.85Z"/><path class="cls-1" d="M149,26.51c1.64,1.54,2.49,4,2.49,7.43V50.23a1,1,0,0,1-1,1H147.2a1,1,0,0,1-.83-.41l-1.06-1.4a1,1,0,0,0-1.48-.17,10.26,10.26,0,0,1-6.64,2.51c-5,0-7.8-2.75-7.8-8.11v-1c0-5,3.52-7.69,8.54-7.69a21.9,21.9,0,0,1,5.41.62,1,1,0,0,0,1.3-1v-.71c0-3.18-1.54-4.4-5.17-4.4a30.43,30.43,0,0,0-6.88.67,1,1,0,0,1-1.27-1V26a1,1,0,0,1,.82-1,38.53,38.53,0,0,1,7.93-.83C144.39,24.18,147.37,25,149,26.51ZM136.24,42.8v.53c0,1.91,1.25,2.86,3.78,2.86a8.64,8.64,0,0,0,4.11-1.08,1,1,0,0,0,.51-.87V41.47a1,1,0,0,0-.71-1,12,12,0,0,0-3.81-.57C137.78,39.94,136.24,41.05,136.24,42.8Z"/><path class="cls-1" d="M165.35,30.07a1,1,0,0,0-1,1v11.4c0,2.6.6,3.71,3.18,3.71a14.4,14.4,0,0,0,1.91-.14,1,1,0,0,1,1.17,1V50.4a1,1,0,0,1-.84,1,24.88,24.88,0,0,1-4.23.37c-3.23,0-5.36-.79-6.41-2.33s-1.64-3.82-1.64-7V31.08a1,1,0,0,0-1-1h-.87a1,1,0,0,1-1-1V27a1,1,0,0,1,.51-.86l2.06-1.2a1,1,0,0,0,.47-.61L159.29,18a1,1,0,0,1,1-.75h3a1,1,0,0,1,1,1V23.7a1,1,0,0,0,1,1h4.2a1,1,0,0,1,1,1v3.34a1,1,0,0,1-1,1Z"/><path class="cls-1" d="M194.45,40.47h-13a1,1,0,0,0-1,1.07c.27,3.14,1.66,4.87,6,4.87a36,36,0,0,0,6.93-.76,1,1,0,0,1,1.22,1v3.3a1,1,0,0,1-.81,1,37.36,37.36,0,0,1-7.53.83c-5,0-8.6-1.32-10.39-3.55s-2.48-4.67-2.48-8V35.74c0-7.69,3.77-11.56,11.28-11.56,4.12,0,6.95,1,8.54,2.92s2.39,4.72,2.39,8.22v4.14A1,1,0,0,1,194.45,40.47Zm-6.66-5a1,1,0,0,0,1-1h0c0-3.18-1.09-4.93-4.27-4.93s-4.23,1.75-4.23,4.93h0a1,1,0,0,0,1,1Z"/><path class="cls-1" d="M222.11,31.87V50.23a1,1,0,0,1-1,1h-4.79a1,1,0,0,1-1-1V32.88c0-2.12-1-2.92-3.43-2.92a9.07,9.07,0,0,0-4.52,1.3,1,1,0,0,0-.5.86V50.23a1,1,0,0,1-1,1H201a1,1,0,0,1-1-1V25.72a1,1,0,0,1,1-1h3.26a1.05,1.05,0,0,1,.84.42l1,1.39a1,1,0,0,0,1.48.19,11.3,11.3,0,0,1,7.23-2.53C219.68,24.18,222.11,26.73,222.11,31.87Z"/><path class="cls-1" d="M246,26v3.34a1,1,0,0,1-1.23,1,36.81,36.81,0,0,0-6.87-.76c-2.74,0-4.08.69-4.08,2.07v.53c0,2.17,4.72,2.28,8.4,3.45a6.7,6.7,0,0,1,4.57,6.73v1c0,5.67-3.58,8.48-10.78,8.48a39.52,39.52,0,0,1-8.71-.81,1,1,0,0,1-.78-1V46.65a1,1,0,0,1,1.25-1,38.81,38.81,0,0,0,7.49.75c3,0,4.53-.85,4.53-2.5v-.53c0-3.76-13-.26-13-10.61V31.61c0-4.72,3.77-7.43,10.53-7.43a34.49,34.49,0,0,1,7.87.81A1,1,0,0,1,246,26Z"/><path class="cls-1" d="M272.24,40.47H258.82a1,1,0,0,0-1.06,1.07c.28,3.14,1.71,4.87,6.14,4.87a38.11,38.11,0,0,0,7.12-.76,1,1,0,0,1,1.26,1v3.3a1,1,0,0,1-.84,1,39.42,39.42,0,0,1-7.75.83c-5.16,0-8.84-1.32-10.68-3.55s-2.56-4.67-2.56-8V35.74c0-7.69,3.89-11.56,11.61-11.56,4.24,0,7.16,1,8.79,2.92s2.46,4.72,2.46,8.22v4.14A1,1,0,0,1,272.24,40.47Zm-6.85-5a1,1,0,0,0,1.06-1h0c0-3.18-1.12-4.93-4.39-4.93s-4.35,1.75-4.35,4.93h0a1,1,0,0,0,1.06,1Z"/><path class="cls-1" d="M105.57,84.11h-10a1,1,0,0,0-1,.73l-1.88,6.52a1,1,0,0,1-1,.73H86.33a1,1,0,0,1-1-1.28L95.49,56.59a1,1,0,0,1,1-.73h8.21a1,1,0,0,1,1,.73l10.15,34.22a1,1,0,0,1-1,1.28h-5.4a1,1,0,0,1-1-.73l-1.89-6.52A1,1,0,0,0,105.57,84.11Zm-1.5-8-2.47-8.52a1,1,0,0,0-2,0l-2.47,8.52a1,1,0,0,0,1,1.28h4.94A1,1,0,0,0,104.07,76.16Z"/><path class="cls-1" d="M140.06,65.65a1,1,0,0,1,1,1V92.73c0,6.14-2.26,11.53-12.66,11.53a35.26,35.26,0,0,1-7.38-.83,1,1,0,0,1-.81-1V99.17a1,1,0,0,1,1.23-1,33.8,33.8,0,0,0,6.77.73c4.9,0,6.08-2.22,6.08-6.19V91.12a1,1,0,0,0-1.64-.8,9.64,9.64,0,0,1-5.62,1.88q-8.4,0-8.39-11.11V76.23q0-11.12,8.39-11.11a10,10,0,0,1,6.44,2.5,1,1,0,0,0,1.49-.17l1-1.39a1.06,1.06,0,0,1,.84-.41Zm-5.74,18.63V73a1,1,0,0,0-.45-.83,7.44,7.44,0,0,0-4.06-1.29c-3.19,0-4.18,1.59-4.18,5.35v4.86c0,3.65,1,5.29,4.18,5.29a7.22,7.22,0,0,0,4.09-1.28A1,1,0,0,0,134.32,84.28Z"/><path class="cls-1" d="M159.68,71.32a14.8,14.8,0,0,0-6.09,1.26,1,1,0,0,0-.57.9V91.09a1,1,0,0,1-1,1h-4.67a1,1,0,0,1-1-1V66.65a1,1,0,0,1,1-1h3.16a1,1,0,0,1,.87.47l1,1.53a1.06,1.06,0,0,0,1.61.18,9.49,9.49,0,0,1,5.62-2.65,1,1,0,0,1,1.13,1v4.14A1,1,0,0,1,159.68,71.32Z"/><path class="cls-1" d="M210.32,81.36H197.46a1,1,0,0,0-1,1.07c.26,3.13,1.63,4.85,5.88,4.85a35.62,35.62,0,0,0,6.82-.75,1,1,0,0,1,1.23,1v3.29a1,1,0,0,1-.81,1,36.37,36.37,0,0,1-7.43.83c-5,0-8.49-1.32-10.26-3.54s-2.45-4.66-2.45-8V76.65c0-7.67,3.73-11.53,11.14-11.53,4.07,0,6.87.95,8.44,2.91s2.35,4.7,2.35,8.2v4.12A1,1,0,0,1,210.32,81.36Zm-6.57-5a1,1,0,0,0,1-1h0c0-3.17-1.08-4.92-4.22-4.92s-4.17,1.75-4.17,4.92h0a1,1,0,0,0,1,1Z"/><path class="cls-1" d="M234.81,66.93v3.28a1,1,0,0,1-1.24,1,30.83,30.83,0,0,0-6.27-.73c-3.73,0-5,2.12-5,6.19v4.44c0,4.08,1.28,6.19,5,6.19a33.43,33.43,0,0,0,6.27-.74,1,1,0,0,1,1.24,1v3.29a1,1,0,0,1-.82,1,35.61,35.61,0,0,1-7.28.83c-7.6,0-11.38-3.86-11.38-11.53V76.65c0-7.67,3.78-11.53,11.38-11.53A35.61,35.61,0,0,1,234,66,1,1,0,0,1,234.81,66.93Z"/><path class="cls-1" d="M261.3,76.65v4.44c0,7.67-3.87,11.53-11.63,11.53s-11.58-3.86-11.58-11.53V76.65c0-7.67,3.88-11.53,11.58-11.53S261.3,69,261.3,76.65Zm-11.63-6.19c-1.81,0-3,.53-3.68,1.59a9.37,9.37,0,0,0-.93,4.6v4.44c0,4,.93,6.19,4.61,6.19s4.67-2.33,4.67-6.19V76.65a9,9,0,0,0-.94-4.55C252.77,71,251.49,70.46,249.67,70.46Z"/><path class="cls-1" d="M186,76.65v4.44c0,7.67-3.88,11.53-11.63,11.53s-11.58-3.86-11.58-11.53V76.65c0-7.67,3.87-11.53,11.58-11.53S186,69,186,76.65Zm-11.63-6.19c-1.82,0-3,.53-3.68,1.59a9.26,9.26,0,0,0-.93,4.6v4.44c0,4,.93,6.19,4.61,6.19S179,85,179,81.09V76.65a9.05,9.05,0,0,0-.93-4.55C177.43,71,176.15,70.46,174.34,70.46Z"/><path class="cls-1" d="M265.77,91.09v-35a1,1,0,0,1,1-1h4.66a1,1,0,0,1,1,1v35a1,1,0,0,1-1,1H266.8A1,1,0,0,1,265.77,91.09Z"/><path class="cls-1" d="M300.21,76.65v4.44c0,7.67-3.87,11.53-11.63,11.53S277,88.76,277,81.09V76.65c0-7.67,3.87-11.53,11.57-11.53S300.21,69,300.21,76.65Zm-11.63-6.19c-1.81,0-3,.53-3.68,1.59a9.37,9.37,0,0,0-.93,4.6v4.44c0,4,.93,6.19,4.61,6.19s4.67-2.33,4.67-6.19V76.65a9,9,0,0,0-.94-4.55C291.68,71,290.4,70.46,288.58,70.46Z"/><path class="cls-1" d="M325.58,65.65a1,1,0,0,1,1,1V92.73c0,6.14-2.26,11.53-12.66,11.53a35.26,35.26,0,0,1-7.38-.83,1,1,0,0,1-.81-1V99.17a1,1,0,0,1,1.23-1,33.8,33.8,0,0,0,6.77.73c4.9,0,6.08-2.22,6.08-6.19V91.12a1,1,0,0,0-1.64-.8,9.64,9.64,0,0,1-5.62,1.88q-8.38,0-8.39-11.11V76.23q0-11.12,8.39-11.11a10,10,0,0,1,6.44,2.5,1,1,0,0,0,1.49-.17l1-1.39a1.06,1.06,0,0,1,.84-.41Zm-5.74,18.63V73a1,1,0,0,0-.45-.83,7.44,7.44,0,0,0-4.06-1.29c-3.19,0-4.17,1.59-4.17,5.35v4.86c0,3.65,1,5.29,4.17,5.29a7.22,7.22,0,0,0,4.09-1.28A1,1,0,0,0,319.84,84.28Z"/><path class="cls-1" d="M335.35,61.41c-2.6,0-3.88-1.32-3.88-4s1.28-3.92,3.88-3.92,3.87,1.33,3.87,3.92S338,61.41,335.35,61.41ZM332,91.09V66.65a1,1,0,0,1,1-1h4.66a1,1,0,0,1,1,1V91.09a1,1,0,0,1-1,1H333A1,1,0,0,1,332,91.09Z"/><path class="cls-1" d="M362.53,67.44c1.62,1.54,2.45,4,2.45,7.41V91.09a1,1,0,0,1-1,1h-3.2a1,1,0,0,1-.83-.41l-1-1.38a1,1,0,0,0-1.5-.17,10.09,10.09,0,0,1-6.54,2.49c-5,0-7.7-2.75-7.7-8.09v-1c0-5,3.48-7.67,8.44-7.67a21.23,21.23,0,0,1,5.32.61,1,1,0,0,0,1.3-1v-.71c0-3.17-1.52-4.39-5.1-4.39a30.18,30.18,0,0,0-6.78.66,1,1,0,0,1-1.27-1V66.93a1,1,0,0,1,.81-1,38.25,38.25,0,0,1,7.83-.82C358,65.12,360.91,65.91,362.53,67.44ZM349.92,83.68v.53c0,1.91,1.23,2.86,3.73,2.86A8.42,8.42,0,0,0,357.7,86a1,1,0,0,0,.51-.87V82.36a1,1,0,0,0-.71-1,11.61,11.61,0,0,0-3.75-.57C351.44,80.83,349.92,81.94,349.92,83.68Z"/></g></g></svg>