<svg xmlns="http://www.w3.org/2000/svg" viewBox="0 0 284.02 128"><defs><style>.cls-1,.cls-2{fill:#fff;}.cls-2{fill-rule:evenodd;}</style></defs><g id="Camada_2" data-name="Camada 2"><g id="Camada_1-2" data-name="Camada 1"><path class="cls-1" d="M152.61,80.15H132.33V30c0-4.7-1.4-8.15-4.23-10.31a15.32,15.32,0,0,0-9.52-3.25,14.65,14.65,0,0,0-9.34,3.25c-2.73,2.16-4.11,5.61-4.11,10.31V80.15H84.55v-46q0-20,10.42-26.82A45.47,45.47,0,0,1,118,0a59.33,59.33,0,0,1,13.22,1.48A27.91,27.91,0,0,1,143,7.37a25.79,25.79,0,0,1,10.42-5.46A58,58,0,0,1,165.89,0a44.16,44.16,0,0,1,23.79,6.77q10.84,6.8,10.86,27.42v46H190.25a9.59,9.59,0,0,1-10-10V30c0-4.7-1.43-8.15-4.26-10.31a15.7,15.7,0,0,0-19.13,0c-2.83,2.16-4.26,5.61-4.26,10.31V80.15Z"/><path class="cls-1" d="M58.9,30.94H69.27c2.75,0,4.22-4.84,6.21-3.73S79,33.17,79.33,40c.63,11.16.46,35.5.47,40.16l-21.2.23Z"/><path class="cls-1" d="M283.14,121.25a6.45,6.45,0,0,1-.64,3,5.82,5.82,0,0,1-1.75,2.09,7.88,7.88,0,0,1-2.64,1.26,12,12,0,0,1-3.22.42,25.78,25.78,0,0,1-4.4-.4,13.4,13.4,0,0,1-4.12-1.36.83.83,0,0,1-.38-.36.64.64,0,0,1,.07-.57l.83-1.81a.76.76,0,0,1,.33-.44.88.88,0,0,1,.64.09,15.42,15.42,0,0,0,3.62,1.21,17.5,17.5,0,0,0,3.41.38,5.74,5.74,0,0,0,3.33-.86,2.82,2.82,0,0,0,1.23-2.45,2.92,2.92,0,0,0-1.4-2.56,19.3,19.3,0,0,0-4-1.85,28.1,28.1,0,0,1-3.18-1.33,9.3,9.3,0,0,1-2.2-1.43,4.76,4.76,0,0,1-1.25-1.74,6.13,6.13,0,0,1-.39-2.29,5.85,5.85,0,0,1,2-4.57,8.5,8.5,0,0,1,5.82-1.79,21,21,0,0,1,3.49.29,15.76,15.76,0,0,1,3.4,1,.64.64,0,0,1,.36.84l-.84,2.07c-.09.18-.18.27-.28.27a1,1,0,0,1-.38-.09,17.33,17.33,0,0,0-3-.88,16.27,16.27,0,0,0-2.79-.22,4.56,4.56,0,0,0-3,.84,2.51,2.51,0,0,0-1,2,2.84,2.84,0,0,0,.28,1.31,3.11,3.11,0,0,0,.9,1,8,8,0,0,0,1.63.9c.67.3,1.48.62,2.41,1s1.8.73,2.66,1.11a9.58,9.58,0,0,1,2.28,1.39,6.56,6.56,0,0,1,1.6,1.92,5.31,5.31,0,0,1,.62,2.64m-25.47-5.11h-5.09a15.85,15.85,0,0,0-1.82.11,5.49,5.49,0,0,0-1.95.57,4.09,4.09,0,0,0-1.56,1.37,4.21,4.21,0,0,0-.64,2.49,4.26,4.26,0,0,0,.44,2,3.24,3.24,0,0,0,1.19,1.27,5.28,5.28,0,0,0,1.75.67,11.71,11.71,0,0,0,2.2.19c.26,0,.6,0,1,0a12.79,12.79,0,0,0,1.4-.13c.52-.07,1-.16,1.56-.26a10.42,10.42,0,0,0,1.49-.42Zm3.91,9.21a1.11,1.11,0,0,1-.66,1.15,15.12,15.12,0,0,1-4.28,1.19,32.42,32.42,0,0,1-4.41.31,15.53,15.53,0,0,1-4.67-.59,7.48,7.48,0,0,1-2.88-1.62,5.57,5.57,0,0,1-1.47-2.35,9.13,9.13,0,0,1-.42-2.78,8.7,8.7,0,0,1,.51-2.94,6.26,6.26,0,0,1,1.64-2.53,8.39,8.39,0,0,1,3-1.74,12.87,12.87,0,0,1,4.45-.67h5.36v-1a8.21,8.21,0,0,0-.2-1.88,3.11,3.11,0,0,0-.77-1.44,3.53,3.53,0,0,0-1.6-.94,8.91,8.91,0,0,0-2.66-.33,21.31,21.31,0,0,0-3.27.26,18.67,18.67,0,0,0-2.83.62,1.05,1.05,0,0,1-.57.09c-.14,0-.25-.16-.31-.4l-.52-1.9a.56.56,0,0,1,0-.42c0-.13.18-.24.41-.33a14.81,14.81,0,0,1,3.82-1,30.38,30.38,0,0,1,4-.29q4.39,0,6.41,2a7.58,7.58,0,0,1,2,5.71ZM238,126.85c0,.3-.05.48-.15.56a1,1,0,0,1-.55.11h-2.41a1,1,0,0,1-.53-.11c-.12-.08-.18-.26-.18-.56V115.14a16.09,16.09,0,0,0-.33-3.47,5.82,5.82,0,0,0-1.14-2.47,4.81,4.81,0,0,0-2.19-1.49,10.84,10.84,0,0,0-3.49-.48c-.32,0-.87,0-1.63.06s-1.61.14-2.54.29v19.27c0,.3-.06.48-.18.56a1,1,0,0,1-.53.11H219.7a1,1,0,0,1-.53-.11c-.12-.08-.17-.26-.17-.56V107.62a3.83,3.83,0,0,1,.59-2.31,3.06,3.06,0,0,1,2.17-1c.32-.06.73-.11,1.21-.15l1.51-.14c.53,0,1-.07,1.54-.08l1.27,0a16.62,16.62,0,0,1,4.83.62,7.65,7.65,0,0,1,3.32,2,8.27,8.27,0,0,1,1.91,3.47A18.48,18.48,0,0,1,238,115Zm-25.64,0c0,.3,0,.48-.15.56a1,1,0,0,1-.55.11h-2.37a1.19,1.19,0,0,1-.55-.11c-.13-.08-.2-.26-.2-.56V105c0-.29.07-.48.2-.55a1.19,1.19,0,0,1,.55-.11h2.37a1,1,0,0,1,.55.11c.1.07.15.26.15.55ZM213,98.18a2.56,2.56,0,0,1-2.55,2.56,2.52,2.52,0,0,1-1.82-.75,2.41,2.41,0,0,1-.77-1.81,2.46,2.46,0,0,1,.77-1.85,2.52,2.52,0,0,1,1.82-.75,2.45,2.45,0,0,1,1.8.75A2.52,2.52,0,0,1,213,98.18Zm-16.78,26.47a10.61,10.61,0,0,0,2.92-.4,13.31,13.31,0,0,0,2.4-.88c.26-.15.45-.19.57-.11a1,1,0,0,1,.31.33l.87,1.86a.61.61,0,0,1-.22.94,10.94,10.94,0,0,1-3.64,1.27,22,22,0,0,1-3.78.34c-3.22,0-5.67-1-7.37-3s-2.55-4.93-2.55-8.84a16.47,16.47,0,0,1,.73-5.09,11.46,11.46,0,0,1,2.06-3.89,9,9,0,0,1,3.27-2.47,10.65,10.65,0,0,1,4.35-.86,15.31,15.31,0,0,1,3.36.36,11,11,0,0,1,3.09,1.19.58.58,0,0,1,.26.92l-.92,1.81a1.1,1.1,0,0,1-.28.38c-.11.07-.29,0-.55-.11a12.85,12.85,0,0,0-2.29-.8,11,11,0,0,0-2.63-.31,6,6,0,0,0-3,.73,6.12,6.12,0,0,0-2.06,2,8.67,8.67,0,0,0-1.19,2.81,15.08,15.08,0,0,0-.37,3.35,16.51,16.51,0,0,0,.31,3.3,7.53,7.53,0,0,0,1.07,2.7,5.41,5.41,0,0,0,2,1.83A7,7,0,0,0,196.25,124.65ZM177,116.14h-5.09a15.85,15.85,0,0,0-1.82.11,5.49,5.49,0,0,0-2,.57,4.09,4.09,0,0,0-1.56,1.37,4.21,4.21,0,0,0-.64,2.49,4.26,4.26,0,0,0,.44,2,3.24,3.24,0,0,0,1.19,1.27,5.28,5.28,0,0,0,1.75.67,11.71,11.71,0,0,0,2.2.19c.26,0,.6,0,1,0a12.79,12.79,0,0,0,1.4-.13c.52-.07,1-.16,1.56-.26A10.42,10.42,0,0,0,177,124Zm3.91,9.21a1.11,1.11,0,0,1-.66,1.15,15.12,15.12,0,0,1-4.28,1.19,32.42,32.42,0,0,1-4.41.31,15.65,15.65,0,0,1-4.68-.59,7.51,7.51,0,0,1-2.87-1.62,5.57,5.57,0,0,1-1.47-2.35,9.13,9.13,0,0,1-.42-2.78,8.7,8.7,0,0,1,.51-2.94,6.26,6.26,0,0,1,1.64-2.53,8.39,8.39,0,0,1,3-1.74,12.87,12.87,0,0,1,4.45-.67h5.36v-1a8.21,8.21,0,0,0-.2-1.88,3.11,3.11,0,0,0-.77-1.44,3.53,3.53,0,0,0-1.6-.94,8.91,8.91,0,0,0-2.66-.33,21.31,21.31,0,0,0-3.27.26,18.67,18.67,0,0,0-2.83.62,1.05,1.05,0,0,1-.57.09c-.15,0-.25-.16-.31-.4l-.52-1.9a.61.61,0,0,1,0-.42.68.68,0,0,1,.42-.33,14.81,14.81,0,0,1,3.82-1,30.38,30.38,0,0,1,3.95-.29q4.4,0,6.41,2a7.58,7.58,0,0,1,2,5.71Zm-29.76.53a3.38,3.38,0,0,1-.68,1.24,2,2,0,0,1-1.26.4h-1.88a2.77,2.77,0,0,1-1.45-.31,2.58,2.58,0,0,1-.84-1.33l-10-28.71a.55.55,0,0,1,0-.4.35.35,0,0,1,.35-.17h3.17a.74.74,0,0,1,.74.53c0,.05.15.52.44,1.39s.65,2,1.08,3.26.89,2.73,1.4,4.28,1,3,1.49,4.45.91,2.69,1.28,3.79.62,1.85.77,2.23l.37,1.15.72,2.2.75,2.23a12.61,12.61,0,0,0,.44,1.21h.22l2.11-6.74,6.54-19.45a.78.78,0,0,1,.37-.47,2,2,0,0,1,.55-.06h3c.35,0,.45.19.31.57Z"/><path class="cls-2" d="M39.67,21.18A19.19,19.19,0,1,1,20.49,40.37,19.19,19.19,0,0,1,39.67,21.18M39.67.7A39.67,39.67,0,1,1,0,40.37,39.67,39.67,0,0,1,39.67.7Z"/><path class="cls-2" d="M244.36.7A39.67,39.67,0,1,0,284,40.37,39.67,39.67,0,0,0,244.36.7Zm24.36,38.89c-3.48,7.85-15.16,17.76-22.07,22.55-4.56,3-25.16-13.29-28-26.95-1.83-13.13,10.59-20.33,20-15.39,6.69,3.5,4.25,5.34,7.17,2.85C259.41,11.09,275.38,24.53,268.72,39.59Z"/></g></g></svg>