<svg width="274" height="118" viewBox="0 0 274 118" fill="none" xmlns="http://www.w3.org/2000/svg">
<path d="M57.1059 27.0895C57.1059 23.2032 53.9536 20.0274 50.0959 20.0274C46.2382 20.0274 43.0858 23.2032 43.0858 27.0895V43.5039H7.01006C3.15236 43.5039 0 46.6796 0 50.566C0 54.4523 3.15236 57.628 7.01006 57.628H57.1059V27.0895Z" fill="#FEFEFE"/>
<path d="M91.7222 57.5296C95.5799 57.5296 98.7322 54.3539 98.7322 50.4676C98.7322 46.5812 95.5799 43.4055 91.7222 43.4055H75.4287V7.06207C75.4287 3.17575 72.2763 0 68.4186 0C64.5609 0 61.4086 3.17575 61.4086 7.06207V57.5296H91.7222Z" fill="#FEFEFE"/>
<path d="M111.7 60.372H61.6039V91.0034C61.6039 94.8897 64.7562 98.0655 68.6139 98.0655C72.4716 98.0655 75.624 94.8897 75.624 91.0034V74.4961H111.7C115.552 74.4961 118.71 71.3204 118.71 67.434C118.71 63.5477 115.557 60.372 111.7 60.372Z" fill="#FEFEFE"/>
<path d="M26.9876 60.4703C23.1299 60.4703 19.9776 63.6461 19.9776 67.5324C19.9776 71.4187 23.1299 74.5945 26.9876 74.5945H43.2812V110.938C43.2812 114.824 46.4335 118 50.2912 118C54.1489 118 57.3013 114.824 57.3013 110.938V60.4703H26.9876Z" fill="#FEFEFE"/>
<path d="M143.256 87.8605C143.788 87.8605 144.233 87.9753 144.547 88.1283L144.748 87.4505C144.531 87.3357 144.026 87.1608 143.229 87.1608C141.243 87.1608 139.881 88.5328 139.881 90.5497C139.881 92.5667 141.243 93.8184 143.044 93.8184C143.826 93.8184 144.433 93.6654 144.737 93.5123L144.563 92.8509C144.233 93.0149 143.717 93.1188 143.212 93.1188C141.655 93.1188 140.749 92.1021 140.749 90.5224C140.749 88.828 141.748 87.8605 143.25 87.8605H143.256Z" fill="#FEFEFE"/>
<path d="M146.604 90.6919H149.094V90.0031H146.604V87.9643H149.235V87.2647H145.773V93.72H149.376V93.0204H146.604V90.6919Z" fill="#FEFEFE"/>
<path d="M154.482 89.9649C154.482 90.9706 154.503 91.7577 154.579 92.6159L154.558 92.6268C154.254 91.9654 153.885 91.2877 153.407 90.5279L151.357 87.2592H150.45V93.7146H151.232V90.9542C151.232 89.8829 151.21 89.1067 151.167 88.2923L151.194 88.2813C151.519 88.981 151.943 89.7189 152.393 90.435L154.427 93.7091H155.263V87.2537H154.482V89.9649Z" fill="#FEFEFE"/>
<path d="M155.974 87.9753H157.927V93.72H158.763V87.9753H160.721V87.2647H155.974V87.9753Z" fill="#FEFEFE"/>
<path d="M164.172 90.6481V90.6208C164.845 90.3912 165.382 89.8282 165.382 88.9755C165.382 88.4781 165.203 88.0354 164.877 87.7511C164.476 87.3849 163.906 87.2264 163.022 87.2264C162.452 87.2264 161.85 87.2756 161.432 87.3631V93.7309H162.257V90.9324H163.038C163.787 90.9597 164.129 91.2986 164.324 92.1895C164.503 92.993 164.65 93.5506 164.753 93.7309H165.61C165.474 93.4795 165.322 92.8619 165.116 91.96C164.964 91.2877 164.671 90.8285 164.178 90.6591L164.172 90.6481ZM162.262 90.2928V87.937C162.398 87.8987 162.68 87.8605 163.082 87.8605C163.955 87.8714 164.557 88.2322 164.557 89.0685C164.557 89.8064 163.999 90.2928 163.114 90.2928H162.262Z" fill="#FEFEFE"/>
<path d="M169.169 87.1608C167.46 87.1608 166.196 88.5 166.196 90.5497C166.196 92.5995 167.384 93.8239 169.077 93.8239C170.77 93.8239 172.05 92.6432 172.05 90.424C172.05 88.5109 170.916 87.1554 169.169 87.1554V87.1608ZM169.12 93.1461C167.818 93.1461 167.075 91.9108 167.075 90.5333C167.075 89.1559 167.759 87.8441 169.131 87.8441C170.504 87.8441 171.177 89.1832 171.177 90.4678C171.177 91.9326 170.433 93.1516 169.126 93.1516L169.12 93.1461Z" fill="#FEFEFE"/>
<path d="M176.901 87.2155C176.244 87.2155 175.648 87.2756 175.143 87.3521V93.7036C175.561 93.7528 176.055 93.7802 176.646 93.7802C177.894 93.7802 178.881 93.4522 179.478 92.8509C180.075 92.2551 180.401 91.397 180.401 90.342C180.401 89.2871 180.07 88.5492 179.5 88.0244C178.941 87.4997 178.095 87.221 176.906 87.221L176.901 87.2155ZM176.803 93.1078C176.478 93.1078 176.174 93.0969 175.968 93.0586V87.9643C176.185 87.9151 176.51 87.8769 176.939 87.8769C178.686 87.8769 179.543 88.8444 179.532 90.3694C179.532 92.113 178.572 93.1078 176.803 93.1078Z" fill="#FEFEFE"/>
<path d="M182.3 90.6919H184.79V90.0031H182.3V87.9643H184.931V87.2647H181.475V93.72H185.077V93.0204H182.3V90.6919Z" fill="#FEFEFE"/>
<path d="M189.858 87.2647L187.682 93.72H188.539L189.207 91.6921H191.48L192.164 93.72H193.048L190.861 87.2647H189.858ZM189.375 91.0362L190.004 89.1668C190.129 88.7733 190.232 88.3797 190.33 87.9971H190.351C190.449 88.3688 190.541 88.7514 190.682 89.1778L191.312 91.0362H189.375Z" fill="#FEFEFE"/>
<path d="M192.522 87.9753H194.469V93.72H195.305V87.9753H197.264V87.2647H192.522V87.9753Z" fill="#FEFEFE"/>
<path d="M198.805 90.6919H201.295V90.0031H198.805V87.9643H201.436V87.2647H197.975V93.72H201.583V93.0204H198.805V90.6919Z" fill="#FEFEFE"/>
<path d="M206.688 89.9649C206.688 90.9706 206.71 91.7577 206.786 92.6159L206.764 92.6268C206.46 91.9654 206.091 91.2877 205.614 90.5279L203.563 87.2592H202.657V93.7146H203.438V90.9542C203.438 89.8829 203.417 89.1067 203.373 88.2923L203.4 88.2813C203.726 88.981 204.149 89.7189 204.599 90.435L206.634 93.7091H207.47V87.2537H206.688V89.9649Z" fill="#FEFEFE"/>
<path d="M211.902 87.8605C212.434 87.8605 212.884 87.9753 213.194 88.1283L213.394 87.4505C213.177 87.3357 212.673 87.1608 211.875 87.1608C209.889 87.1608 208.528 88.5328 208.528 90.5497C208.528 92.5667 209.651 93.5943 211.219 93.7856L210.817 94.5235C211.262 94.5727 211.561 94.6766 211.561 94.9335C211.561 95.1357 211.382 95.2232 211.159 95.2232C210.937 95.2232 210.768 95.174 210.627 95.0975L210.492 95.5293C210.654 95.6277 210.92 95.6933 211.164 95.6933C211.658 95.6933 212.141 95.4746 212.141 94.9171C212.141 94.5235 211.826 94.2666 211.474 94.201L211.691 93.8184C212.472 93.8184 213.069 93.6654 213.373 93.5123L213.199 92.8509C212.868 93.0149 212.353 93.1188 211.848 93.1188C210.291 93.1188 209.385 92.1021 209.385 90.5224C209.385 88.828 210.383 87.8605 211.886 87.8605H211.902Z" fill="#FEFEFE"/>
<path d="M216.156 87.2647L213.98 93.72H214.838L215.505 91.6921H217.778L218.462 93.72H219.346L217.16 87.2647H216.156ZM215.673 91.0362L216.303 89.1668C216.427 88.7733 216.531 88.3797 216.628 87.9971H216.65C216.742 88.3688 216.84 88.7514 216.981 89.1778L217.61 91.0362H215.673Z" fill="#FEFEFE"/>
<path d="M217.16 86.2589C217.019 86.2589 216.867 86.1715 216.715 86.084C216.514 85.9802 216.352 85.8927 216.145 85.8927C215.738 85.8927 215.489 86.2863 215.5 86.8711H215.945C215.972 86.6142 216.042 86.4502 216.194 86.4502C216.335 86.4502 216.46 86.5377 216.639 86.6306C216.851 86.7345 217.019 86.811 217.22 86.811C217.665 86.811 217.876 86.483 217.865 85.8818H217.42C217.404 86.1879 217.317 86.2535 217.165 86.2535L217.16 86.2589Z" fill="#FEFEFE"/>
<path d="M222.732 87.1608C221.023 87.1608 219.759 88.5 219.759 90.5497C219.759 92.5995 220.947 93.8239 222.64 93.8239C224.333 93.8239 225.613 92.6432 225.613 90.424C225.613 88.5109 224.479 87.1554 222.732 87.1554V87.1608ZM222.683 93.1461C221.381 93.1461 220.638 91.9108 220.638 90.5333C220.638 89.1559 221.321 87.8441 222.689 87.8441C224.056 87.8441 224.734 89.1832 224.734 90.4678C224.734 91.9326 223.991 93.1516 222.683 93.1516V93.1461Z" fill="#FEFEFE"/>
<path d="M230.719 86.9094H231.392L230.518 85.7998H229.503L230.719 86.9094Z" fill="#FEFEFE"/>
<path d="M230.393 87.2647L228.218 93.72H229.075L229.742 91.6921H232.016L232.699 93.72H233.584L231.397 87.2647H230.393ZM229.91 91.0362L230.54 89.1668C230.665 88.7733 230.768 88.3797 230.865 87.9971H230.887C230.979 88.3688 231.077 88.7514 231.218 89.1778L231.847 91.0362H229.91Z" fill="#FEFEFE"/>
<path d="M238.456 90.0633C237.572 89.7189 237.181 89.4238 237.181 88.817C237.181 88.3743 237.512 87.8495 238.391 87.8495C238.971 87.8495 239.4 88.0408 239.606 88.1556L239.834 87.4779C239.547 87.3139 239.075 87.1608 238.418 87.1608C237.17 87.1608 236.345 87.9097 236.345 88.9154C236.345 89.8228 236.991 90.3694 238.038 90.7465C238.901 91.0799 239.248 91.4243 239.248 92.031C239.248 92.6815 238.754 93.1297 237.908 93.1297C237.338 93.1297 236.796 92.9384 236.427 92.7088L236.215 93.4085C236.557 93.638 237.23 93.8184 237.848 93.8184C239.362 93.8184 240.095 92.9548 240.095 91.96C240.095 90.9652 239.541 90.4842 238.461 90.0633H238.456Z" fill="#FEFEFE"/>
<path d="M242.916 87.2647L240.74 93.72H241.597L242.265 91.6921H244.538L245.222 93.72H246.106L243.92 87.2647H242.916ZM242.433 91.0362L243.062 89.1668C243.187 88.7733 243.29 88.3797 243.388 87.9971H243.41C243.507 88.3688 243.6 88.7514 243.741 89.1778L244.37 91.0362H242.433Z" fill="#FEFEFE"/>
<path d="M249.335 86.9203L250.55 85.7998H249.535L248.656 86.9203H249.335Z" fill="#FEFEFE"/>
<path d="M250.653 91.0854C250.653 92.512 250.045 93.1461 249.096 93.1461C248.239 93.1461 247.604 92.5339 247.604 91.0854V87.2647H246.768V91.069C246.768 93.0696 247.756 93.8293 249.069 93.8293C250.458 93.8293 251.494 93.0149 251.494 91.0307V87.2647H250.658V91.0854H250.653Z" fill="#FEFEFE"/>
<path d="M254.684 87.2155C254.028 87.2155 253.431 87.2756 252.926 87.3521V93.7036C253.344 93.7528 253.838 93.7802 254.429 93.7802C255.677 93.7802 256.665 93.4522 257.262 92.8509C257.858 92.2551 258.184 91.397 258.184 90.342C258.184 89.2871 257.853 88.5492 257.278 88.0244C256.719 87.4997 255.873 87.221 254.684 87.221V87.2155ZM254.587 93.1078C254.261 93.1078 253.957 93.0969 253.751 93.0586V87.9643C253.968 87.9151 254.294 87.8769 254.722 87.8769C256.469 87.8769 257.327 88.8444 257.316 90.3694C257.316 92.113 256.355 93.1078 254.587 93.1078Z" fill="#FEFEFE"/>
<path d="M260.088 90.6919H262.579V90.0031H260.088V87.9643H262.72V87.2647H259.258V93.72H262.861V93.0204H260.088V90.6919Z" fill="#FEFEFE"/>
<path d="M142.475 66.4939C144.2 67.4286 146.126 67.8932 148.258 67.8932C150.071 67.8932 151.715 67.5707 153.19 66.9312C154.666 66.2862 155.903 65.357 156.896 64.1326L153.787 61.2411C152.371 62.9082 150.619 63.739 148.524 63.739C147.228 63.739 146.072 63.4548 145.057 62.8809C144.043 62.3069 143.25 61.5089 142.681 60.4868C142.111 59.4646 141.829 58.3003 141.829 56.994C141.829 55.6876 142.111 54.5233 142.681 53.5012C143.25 52.4791 144.043 51.681 145.057 51.1071C146.072 50.5332 147.228 50.2489 148.524 50.2489C150.619 50.2489 152.371 51.0743 153.787 52.7196L156.896 49.8281C155.898 48.6255 154.672 47.7018 153.201 47.0568C151.736 46.4118 150.098 46.0948 148.286 46.0948C146.132 46.0948 144.195 46.5594 142.469 47.4941C140.744 48.4288 139.387 49.7242 138.405 51.3804C137.418 53.0366 136.924 54.9114 136.924 56.9994C136.924 59.0875 137.418 60.9623 138.405 62.6185C139.393 64.2747 140.749 65.5701 142.469 66.5048L142.475 66.4939Z" fill="#FEFEFE"/>
<path d="M178.757 63.012H188.474L190.33 67.5324H195.414L186.054 46.4501H181.269L171.942 67.5324H176.906L178.762 63.012H178.757ZM183.629 51.2328L186.949 59.3061H180.314L183.634 51.2328H183.629Z" fill="#FEFEFE"/>
<path d="M222.499 63.3619C221.842 63.7718 220.822 63.9795 219.45 63.9795C218.213 63.9795 216.975 63.7773 215.744 63.3783C214.507 62.9792 213.443 62.4436 212.543 61.7822L210.899 65.4553C211.837 66.1768 213.074 66.7672 214.621 67.2154C216.167 67.6691 217.762 67.8932 219.417 67.8932C221.332 67.8932 222.955 67.6035 224.289 67.0186C225.624 66.4338 226.628 65.6467 227.295 64.6518C227.963 63.657 228.299 62.5584 228.299 61.3558C228.299 59.9511 227.935 58.836 227.208 58.0106C226.481 57.1853 225.608 56.584 224.593 56.2014C223.579 55.8188 222.271 55.4362 220.676 55.059C219.14 54.7201 218.001 54.3703 217.252 54.0205C216.503 53.6706 216.129 53.1295 216.129 52.408C216.129 51.6865 216.455 51.1016 217.1 50.6589C217.746 50.2161 218.75 49.9975 220.106 49.9975C222.038 49.9975 223.975 50.5496 225.906 51.6537L227.404 47.9477C226.449 47.3465 225.331 46.8819 224.056 46.5648C222.781 46.2424 221.473 46.0838 220.139 46.0838C218.223 46.0838 216.607 46.3735 215.277 46.9584C213.953 47.5433 212.96 48.3304 212.304 49.3252C211.647 50.32 211.316 51.4296 211.316 52.654C211.316 54.0587 211.68 55.1847 212.407 56.0265C213.134 56.8683 214.008 57.4804 215.022 57.8631C216.037 58.2457 217.344 58.6283 218.94 59.0055C219.976 59.246 220.801 59.4701 221.408 59.6669C222.016 59.8691 222.515 60.1315 222.906 60.4649C223.296 60.7983 223.486 61.2137 223.486 61.7166C223.486 62.3998 223.155 62.9464 222.499 63.3564V63.3619Z" fill="#FEFEFE"/>
<path d="M250.637 63.012H260.354L262.21 67.5324H267.294L257.934 46.4501H253.149L243.822 67.5324H248.787L250.642 63.012H250.637ZM255.509 51.2328L258.83 59.3061H252.194L255.515 51.2328H255.509Z" fill="#FEFEFE"/>
<path d="M274 77.3493C249.79 77.1034 225.586 77.087 201.376 77.0487C177.167 77.0815 152.963 77.0979 128.753 77.3493C152.963 77.6008 177.167 77.6117 201.376 77.65C225.586 77.6117 249.79 77.5953 274 77.3493Z" fill="#FEFEFE"/>
</svg>
