<svg xmlns="http://www.w3.org/2000/svg" viewBox="0 0 477.62 239.78"><defs><style>.cls-1{fill:#fff;}</style></defs><g id="Camada_2" data-name="Camada 2"><g id="Camada_1-2" data-name="Camada 1"><path class="cls-1" d="M0,154.9V66.17H28.52c14.13,0,25.33,4.08,33.48,12.22S74.35,97.23,74.35,110.6s-4.08,24.06-12.23,32.21S42.77,154.9,28.64,154.9Zm9.93-9.16h18c23.93,0,36.54-13.75,36.54-35.14S51.81,75.34,27.75,75.34H9.93Z"/><path class="cls-1" d="M86.69,110.6q0-19.66,13.37-32.84A45.4,45.4,0,0,1,132.9,64.52a44.93,44.93,0,0,1,32.72,13.24c9,8.78,13.49,19.73,13.49,32.84s-4.45,24.19-13.49,33-19.86,13.12-32.72,13.12-23.81-4.33-32.84-13.12S86.69,123.71,86.69,110.6Zm9.8,0c0,10.57,3.44,19.48,10.31,26.48s15.66,10.44,26.1,10.44,19.1-3.44,26-10.44,10.31-15.91,10.31-26.48-3.44-19.35-10.31-26.35-15.53-10.57-26-10.57-19.1,3.57-26.1,10.57S96.49,100,96.49,110.6Z"/><path class="cls-1" d="M271.15,79.54l-6.75,6.11c-6.88-8-15.91-12-27.12-12-10.44,0-19.09,3.57-26,10.57S201,100,201,110.6s3.44,19.48,10.31,26.48,15.53,10.44,26,10.44c11.46,0,20.63-4.2,27.5-12.48l6.75,6.11c-8.91,10.32-20.37,15.54-34.25,15.54-12.86,0-23.8-4.33-32.84-13.12s-13.37-19.86-13.37-33,4.46-24.06,13.37-32.84a45.42,45.42,0,0,1,32.84-13.24C250.9,64.52,262.23,69.48,271.15,79.54Z"/><path class="cls-1" d="M282.85,154.9V66.17H324.1A23.67,23.67,0,0,1,341,72.66a21.1,21.1,0,0,1,6.87,16.17c0,8.53-4.2,14.9-11.33,17.82,11.59,2.42,17.83,10.7,17.83,22,0,7.51-2.55,13.87-7.77,18.84s-11.46,7.38-19.22,7.38ZM307,101.56h11.71c4.46,0,7.51-3.31,7.51-8a7.5,7.5,0,0,0-7.51-7.76H307ZM307,135h15c5.22,0,9-3.69,9-8.65,0-4.71-3.69-8.28-9.17-8.28H307Z"/><path class="cls-1" d="M365.47,154.9V66.17h24.18V154.9Z"/><path class="cls-1" d="M401.49,154.9V138.1l43.66-50h-40V66.17h71.55V84.89L434.59,133h43V154.9Z"/><path class="cls-1" d="M202.51,12.34h69.64A21.28,21.28,0,0,1,293.4,33.59V44.41h12.35V33.59A33.63,33.63,0,0,0,272.15,0H202.51a33.63,33.63,0,0,0-33.59,33.59V44.41h12.34V33.59A21.28,21.28,0,0,1,202.51,12.34Z"/><path class="cls-1" d="M293.4,185.87v20.32a21.27,21.27,0,0,1-21.24,21.25H202.51a21.28,21.28,0,0,1-21.25-21.25V185.87H168.92v20.32a33.63,33.63,0,0,0,33.59,33.59h69.65a33.63,33.63,0,0,0,33.59-33.59V185.87Zm-47.55,49.65a2.83,2.83,0,0,1-2,.82H230.81a2.81,2.81,0,0,1,0-5.62h13.05a2.83,2.83,0,0,1,2.81,2.81A2.78,2.78,0,0,1,245.85,235.52Z"/><circle class="cls-1" cx="237.33" cy="110.29" r="14.55"/><path class="cls-1" d="M85.32,176.3,90.1,165h1l4.78,11.3H94.49l-1.17-2.79H87.85l-1.17,2.79Zm3-4h4.51L90.58,167Z"/><path class="cls-1" d="M97.34,179.42V168.13h1.2v1.22a3.14,3.14,0,0,1,2.9-1.46,3.94,3.94,0,0,1,2.93,1.24,4.58,4.58,0,0,1,0,6.18,3.89,3.89,0,0,1-2.93,1.23,3.14,3.14,0,0,1-2.9-1.46v4.34Zm6.19-4.91a3.22,3.22,0,0,0,.84-2.3,3.17,3.17,0,0,0-.84-2.28,2.67,2.67,0,0,0-2.09-.92,2.89,2.89,0,0,0-2.19.92,3.22,3.22,0,0,0-.85,2.28,3.27,3.27,0,0,0,.85,2.3,3,3,0,0,0,2.19.91A2.73,2.73,0,0,0,103.53,174.51Z"/><path class="cls-1" d="M107.06,176.3v-8.17h1.2v1.38a2.68,2.68,0,0,1,2.52-1.51c.17,0,.35,0,.5,0v1.3a3.62,3.62,0,0,0-.81-.08,2.17,2.17,0,0,0-2.21,2.3v4.75Z"/><path class="cls-1" d="M111.83,172.21a4.15,4.15,0,0,1,1.26-3.08,4.45,4.45,0,0,1,6.16,0,4.42,4.42,0,0,1,0,6.18,4.34,4.34,0,0,1-7.42-3.1Zm1.2,0a3.13,3.13,0,0,0,.89,2.3,3.24,3.24,0,0,0,4.5,0,3.14,3.14,0,0,0,.9-2.3,3.09,3.09,0,0,0-.9-2.28,3.21,3.21,0,0,0-4.5,0A3.08,3.08,0,0,0,113,172.21Z"/><path class="cls-1" d="M121.24,176.3l3.12-4.35-2.86-3.82h1.33L125,171l2.15-2.9h1.33l-2.83,3.81,3.11,4.36h-1.32L125,172.88l-2.44,3.42Z"/><path class="cls-1" d="M130.12,166.54a.81.81,0,0,1,0-1.15.8.8,0,0,1,1.14,0,.81.81,0,0,1-1.14,1.15Zm0,1.59h1.2v6.42c0,.6.16.86.62.86a3.29,3.29,0,0,0,.42,0v1a2.07,2.07,0,0,1-.76.13c-1,0-1.48-.58-1.48-1.73Z"/><path class="cls-1" d="M133.51,176.3v-8.17h1.2v1.38a2.55,2.55,0,0,1,4.7.11A2.57,2.57,0,0,1,142,168c1.64,0,2.66,1.22,2.66,3.08v3.37c0,.65.11.86.57.86l.3,0v1a1.41,1.41,0,0,1-.51.09c-.64,0-1.56-.18-1.56-1.82v-3.19c0-1.36-.68-2.22-1.78-2.22a2.07,2.07,0,0,0-1.95,2.3v4.88h-1.2v-5c0-1.38-.66-2.22-1.81-2.22a2.07,2.07,0,0,0-2,2.3v4.88Z"/><path class="cls-1" d="M153.34,169.35v-1.22h1.2v6.34c0,.71.16,1,.62,1a3.29,3.29,0,0,0,.42,0v.91a2,2,0,0,1-.76.13,1.46,1.46,0,0,1-.86-.23,1.59,1.59,0,0,1-.55-1.16,3.28,3.28,0,0,1-3,1.44,3.89,3.89,0,0,1-2.93-1.23,4.58,4.58,0,0,1,0-6.18,3.94,3.94,0,0,1,2.93-1.24A3.13,3.13,0,0,1,153.34,169.35Zm-.73,5.16a3.16,3.16,0,0,0,.88-2.3,3.11,3.11,0,0,0-.88-2.28,2.79,2.79,0,0,0-2.17-.92,2.7,2.7,0,0,0-2.1.92,3.25,3.25,0,0,0-.83,2.28,3.3,3.3,0,0,0,.83,2.3,2.76,2.76,0,0,0,2.1.91A2.85,2.85,0,0,0,152.61,174.51Z"/><path class="cls-1" d="M156.86,176.3v-8.17h1.2v1.38a2.74,2.74,0,0,1,2.58-1.51,2.84,2.84,0,0,1,3,3.08v3.37c0,.66.1.86.56.86l.31,0v1a1.47,1.47,0,0,1-.52.09c-.63,0-1.55-.18-1.55-1.82v-3.19a2,2,0,0,0-2.09-2.22,2.18,2.18,0,0,0-2.27,2.3v4.88Z"/><path class="cls-1" d="M172.35,169.35V165h1.2v9.47c0,.71.16,1,.62,1a3.29,3.29,0,0,0,.42,0v.91a2,2,0,0,1-.76.13,1.46,1.46,0,0,1-.86-.23,1.59,1.59,0,0,1-.55-1.16,3.3,3.3,0,0,1-3,1.44,3.89,3.89,0,0,1-2.93-1.23,4.58,4.58,0,0,1,0-6.18,3.94,3.94,0,0,1,2.93-1.24A3.13,3.13,0,0,1,172.35,169.35Zm-.73,5.16a3.16,3.16,0,0,0,.88-2.3,3.11,3.11,0,0,0-.88-2.28,2.79,2.79,0,0,0-2.17-.92,2.7,2.7,0,0,0-2.1.92,3.25,3.25,0,0,0-.83,2.28,3.3,3.3,0,0,0,.83,2.3,2.76,2.76,0,0,0,2.1.91A2.85,2.85,0,0,0,171.62,174.51Z"/><path class="cls-1" d="M175.19,172.21a4.15,4.15,0,0,1,1.26-3.08,4.45,4.45,0,0,1,6.16,0,4.42,4.42,0,0,1,0,6.18,4.34,4.34,0,0,1-7.42-3.1Zm1.2,0a3.13,3.13,0,0,0,.89,2.3,3.24,3.24,0,0,0,4.5,0,3.14,3.14,0,0,0,.9-2.3,3.09,3.09,0,0,0-.9-2.28,3.21,3.21,0,0,0-4.5,0A3.08,3.08,0,0,0,176.39,172.21Z"/><path class="cls-1" d="M198.39,169.35V165h1.2v9.47c0,.71.16,1,.62,1a3.29,3.29,0,0,0,.42,0v.91a2,2,0,0,1-.76.13,1.46,1.46,0,0,1-.86-.23,1.59,1.59,0,0,1-.55-1.16,3.3,3.3,0,0,1-3,1.44,3.89,3.89,0,0,1-2.93-1.23,4.58,4.58,0,0,1,0-6.18,3.94,3.94,0,0,1,2.93-1.24A3.13,3.13,0,0,1,198.39,169.35Zm-.73,5.16a3.16,3.16,0,0,0,.88-2.3,3.11,3.11,0,0,0-.88-2.28,2.79,2.79,0,0,0-2.17-.92,2.7,2.7,0,0,0-2.1.92,3.25,3.25,0,0,0-.83,2.28,3.3,3.3,0,0,0,.83,2.3,2.76,2.76,0,0,0,2.1.91A2.85,2.85,0,0,0,197.66,174.51Z"/><path class="cls-1" d="M201.23,172.21a4.15,4.15,0,0,1,1.26-3.08,4.45,4.45,0,0,1,6.16,0,4.42,4.42,0,0,1,0,6.18,4.34,4.34,0,0,1-7.42-3.1Zm1.2,0a3.13,3.13,0,0,0,.89,2.3,3.24,3.24,0,0,0,4.5,0,3.14,3.14,0,0,0,.9-2.3,3.09,3.09,0,0,0-.9-2.28,3.21,3.21,0,0,0-4.5,0A3.08,3.08,0,0,0,202.43,172.21Z"/><path class="cls-1" d="M211.31,168.13h1.2v5a2,2,0,0,0,2,2.22,2.16,2.16,0,0,0,2.22-2.3v-4.88H218v6.27c0,.71.16,1,.62,1l.42,0v.91a1.86,1.86,0,0,1-.76.13,1.31,1.31,0,0,1-1-.38,1.49,1.49,0,0,1-.37-.81,2.87,2.87,0,0,1-2.61,1.19,2.81,2.81,0,0,1-2.93-3.08Z"/><path class="cls-1" d="M220.47,169.25h-1v-1.12h1V165h1.19v3.13h1.9v1.12h-1.9V174c0,1,.35,1.41,1.14,1.41a4.13,4.13,0,0,0,.76,0v1a2.43,2.43,0,0,1-.91.13c-1.46,0-2.18-.84-2.18-2.53Z"/><path class="cls-1" d="M224.42,172.21a4.15,4.15,0,0,1,1.26-3.08,4.45,4.45,0,0,1,6.16,0,4.42,4.42,0,0,1,0,6.18,4.34,4.34,0,0,1-7.42-3.1Zm1.2,0a3.13,3.13,0,0,0,.89,2.3,3.24,3.24,0,0,0,4.5,0,3.14,3.14,0,0,0,.9-2.3,3.09,3.09,0,0,0-.9-2.28,3.21,3.21,0,0,0-4.5,0A3.08,3.08,0,0,0,225.62,172.21Z"/><path class="cls-1" d="M234.6,176.3v-8.17h1.19v1.38a2.68,2.68,0,0,1,2.52-1.51c.17,0,.35,0,.5,0v1.3a3.62,3.62,0,0,0-.81-.08,2.17,2.17,0,0,0-2.21,2.3v4.75Z"/><path class="cls-1" d="M239.36,172.25a4.37,4.37,0,0,1,1.15-3.16,3.88,3.88,0,0,1,2.93-1.2,3.43,3.43,0,0,1,2.71,1.18,4.14,4.14,0,0,1,1,2.88c0,.18,0,.36,0,.52h-6.63a2.81,2.81,0,0,0,2.92,2.95,3.1,3.1,0,0,0,2.51-1.13l.79.77a4.24,4.24,0,0,1-3.3,1.45,4.09,4.09,0,0,1-3-1.15,4.14,4.14,0,0,1-1.13-3.05Zm6.56-.83a2.27,2.27,0,0,0-.73-1.7,2.42,2.42,0,0,0-1.75-.71,2.82,2.82,0,0,0-1.92.71,2.43,2.43,0,0,0-.88,1.7Z"/><path class="cls-1" d="M249,174.14a2,2,0,0,0,2.06,1.23c1.35,0,1.8-.61,1.8-1.24a1,1,0,0,0-.45-.93,8.6,8.6,0,0,0-1.59-.78c-1.49-.58-2.22-1.19-2.22-2.38a2.23,2.23,0,0,1,2.46-2.15,2.45,2.45,0,0,1,2.37,1.41l-1,.5a1.47,1.47,0,0,0-1.38-.81c-.76,0-1.28.39-1.28,1s.55,1,1.78,1.48c1.69.65,2.48,1.36,2.48,2.61s-1.05,2.36-3,2.36a2.91,2.91,0,0,1-3.08-2Z"/><path class="cls-1" d="M268.38,169.35V165h1.2v9.47c0,.71.16,1,.62,1a3.29,3.29,0,0,0,.42,0v.91a2.07,2.07,0,0,1-.76.13,1.46,1.46,0,0,1-.86-.23,1.59,1.59,0,0,1-.55-1.16,3.3,3.3,0,0,1-3,1.44,3.89,3.89,0,0,1-2.93-1.23,4.58,4.58,0,0,1,0-6.18,3.94,3.94,0,0,1,2.93-1.24A3.13,3.13,0,0,1,268.38,169.35Zm-.73,5.16a3.16,3.16,0,0,0,.88-2.3,3.11,3.11,0,0,0-.88-2.28,2.79,2.79,0,0,0-2.17-.92,2.7,2.7,0,0,0-2.1.92,3.2,3.2,0,0,0-.83,2.28,3.25,3.25,0,0,0,.83,2.3,2.76,2.76,0,0,0,2.1.91A2.85,2.85,0,0,0,267.65,174.51Z"/><path class="cls-1" d="M271.38,172.25a4.37,4.37,0,0,1,1.15-3.16,3.88,3.88,0,0,1,2.93-1.2,3.43,3.43,0,0,1,2.71,1.18,4.14,4.14,0,0,1,1.05,2.88c0,.18,0,.36,0,.52h-6.63a2.81,2.81,0,0,0,2.92,2.95,3.1,3.1,0,0,0,2.51-1.13l.79.77a4.24,4.24,0,0,1-3.3,1.45,4.09,4.09,0,0,1-3-1.15,4.14,4.14,0,0,1-1.13-3.05Zm6.56-.83a2.27,2.27,0,0,0-.73-1.7,2.42,2.42,0,0,0-1.75-.71,2.82,2.82,0,0,0-1.92.71,2.43,2.43,0,0,0-.88,1.7Z"/><path class="cls-1" d="M287.73,174.14a2,2,0,0,0,2.06,1.23c1.34,0,1.8-.61,1.8-1.24a1,1,0,0,0-.46-.93,8.42,8.42,0,0,0-1.58-.78c-1.5-.58-2.22-1.19-2.22-2.38a2.23,2.23,0,0,1,2.46-2.15,2.44,2.44,0,0,1,2.36,1.41l-1,.5a1.45,1.45,0,0,0-1.38-.81c-.76,0-1.28.39-1.28,1s.56,1,1.79,1.48c1.68.65,2.48,1.36,2.48,2.61s-1.06,2.36-3,2.36a2.89,2.89,0,0,1-3.08-2Z"/><path class="cls-1" d="M293.69,172.25a4.37,4.37,0,0,1,1.15-3.16,3.9,3.9,0,0,1,2.94-1.2,3.4,3.4,0,0,1,2.7,1.18,4.15,4.15,0,0,1,1.06,2.88,4.35,4.35,0,0,1,0,.52h-6.63a2.82,2.82,0,0,0,2.92,2.95,3.09,3.09,0,0,0,2.51-1.13l.8.77a4.26,4.26,0,0,1-3.31,1.45,4,4,0,0,1-3-1.15,4.14,4.14,0,0,1-1.14-3.05Zm6.57-.83a2.31,2.31,0,0,0-.73-1.7,2.44,2.44,0,0,0-1.75-.71,2.82,2.82,0,0,0-1.93.71,2.43,2.43,0,0,0-.88,1.7Z"/><path class="cls-1" d="M302.88,168.13h1.2v5a2,2,0,0,0,2,2.22,2.17,2.17,0,0,0,2.22-2.3v-4.88h1.2v6.27c0,.71.16,1,.61,1a3.07,3.07,0,0,0,.42,0v.91a1.86,1.86,0,0,1-.76.13,1.27,1.27,0,0,1-1-.38,1.43,1.43,0,0,1-.38-.81,2.87,2.87,0,0,1-2.61,1.19,2.82,2.82,0,0,1-2.93-3.08Z"/><path class="cls-1" d="M312.23,174.14a2,2,0,0,0,2.06,1.23c1.34,0,1.8-.61,1.8-1.24a1,1,0,0,0-.46-.93,8.42,8.42,0,0,0-1.58-.78c-1.49-.58-2.22-1.19-2.22-2.38a2.23,2.23,0,0,1,2.46-2.15,2.45,2.45,0,0,1,2.37,1.41l-1,.5a1.44,1.44,0,0,0-1.37-.81c-.77,0-1.28.39-1.28,1s.55,1,1.78,1.48c1.68.65,2.48,1.36,2.48,2.61s-1.06,2.36-3,2.36a2.9,2.9,0,0,1-3.08-2Z"/><path class="cls-1" d="M325.07,176.3v-8.17h1.2v1.38a2.73,2.73,0,0,1,2.57-1.51,2.84,2.84,0,0,1,3,3.08v3.37c0,.66.1.86.57.86l.31,0v1a1.47,1.47,0,0,1-.52.09c-.63,0-1.56-.18-1.56-1.82v-3.19a2,2,0,0,0-2.09-2.22,2.17,2.17,0,0,0-2.26,2.3v4.88Z"/><path class="cls-1" d="M333.61,172.25a4.32,4.32,0,0,1,1.15-3.16,3.88,3.88,0,0,1,2.93-1.2,3.4,3.4,0,0,1,2.7,1.18,4.15,4.15,0,0,1,1.06,2.88,4.35,4.35,0,0,1,0,.52h-6.62a2.81,2.81,0,0,0,2.91,2.95,3.09,3.09,0,0,0,2.51-1.13l.8.77a4.25,4.25,0,0,1-3.31,1.45,4.06,4.06,0,0,1-3-1.15,4.14,4.14,0,0,1-1.13-3.05Zm6.56-.83a2.31,2.31,0,0,0-.73-1.7,2.44,2.44,0,0,0-1.75-.71,2.84,2.84,0,0,0-1.93.71,2.42,2.42,0,0,0-.87,1.7Z"/><path class="cls-1" d="M343.46,177.66a5.39,5.39,0,0,0,3.24,1.08,3.06,3.06,0,0,0,2-.6,3.12,3.12,0,0,0,.85-2.52v-.68a3.15,3.15,0,0,1-2.9,1.45,4,4,0,0,1-2.94-1.2,4.46,4.46,0,0,1,0-6.09,4,4,0,0,1,2.94-1.21,3.14,3.14,0,0,1,2.9,1.46v-1.22h1.2v6.81a10.09,10.09,0,0,1-.25,2.49,2.75,2.75,0,0,1-1,1.57,4.33,4.33,0,0,1-2.76.86,6.44,6.44,0,0,1-3.87-1.25Zm5.38-3.28a3.31,3.31,0,0,0,0-4.47,2.87,2.87,0,0,0-2.17-.9,2.77,2.77,0,0,0-2.11.9,3.42,3.42,0,0,0,0,4.47,2.77,2.77,0,0,0,2.11.9A2.87,2.87,0,0,0,348.84,174.38Z"/><path class="cls-1" d="M352.26,172.21a4.15,4.15,0,0,1,1.26-3.08,4.45,4.45,0,0,1,6.16,0,4.42,4.42,0,0,1,0,6.18,4.34,4.34,0,0,1-7.42-3.1Zm1.2,0a3.13,3.13,0,0,0,.89,2.3,3.24,3.24,0,0,0,4.5,0,3.13,3.13,0,0,0,.89-2.3,3.08,3.08,0,0,0-.89-2.28,3.21,3.21,0,0,0-4.5,0A3.08,3.08,0,0,0,353.46,172.21Zm2.69-4.86L357,165h1.61l-1.51,2.35Z"/><path class="cls-1" d="M369.51,169.12l-.72.84a3.19,3.19,0,0,0-2.37-1,3,3,0,0,0-2.25.92,3.08,3.08,0,0,0-.89,2.28,3.13,3.13,0,0,0,.89,2.3,3,3,0,0,0,2.25.91,3.19,3.19,0,0,0,2.37-.95l.72.84a4.08,4.08,0,0,1-3.09,1.23,4.25,4.25,0,0,1-4.34-4.33,4.15,4.15,0,0,1,1.26-3.08,4.26,4.26,0,0,1,3.08-1.24A4.08,4.08,0,0,1,369.51,169.12Z"/><path class="cls-1" d="M370.86,166.54a.81.81,0,0,1,0-1.15.81.81,0,1,1,1.13,1.15A.8.8,0,0,1,370.86,166.54Zm0,1.59H372v6.42c0,.6.16.86.61.86a3.13,3.13,0,0,0,.42,0v1a2,2,0,0,1-.76.13c-1,0-1.47-.58-1.47-1.73Z"/><path class="cls-1" d="M373.73,172.21a4.15,4.15,0,0,1,1.26-3.08,4.45,4.45,0,0,1,6.16,0,4.42,4.42,0,0,1,0,6.18,4.34,4.34,0,0,1-7.42-3.1Zm1.2,0a3.13,3.13,0,0,0,.89,2.3,3.24,3.24,0,0,0,4.5,0,3.13,3.13,0,0,0,.89-2.3,3.08,3.08,0,0,0-.89-2.28,3.21,3.21,0,0,0-4.5,0A3.08,3.08,0,0,0,374.93,172.21Z"/><path class="cls-1" d="M384.29,174.14a2,2,0,0,0,2.06,1.23c1.35,0,1.8-.61,1.8-1.24a1.06,1.06,0,0,0-.45-.93,8.94,8.94,0,0,0-1.59-.78c-1.49-.58-2.22-1.19-2.22-2.38a2.23,2.23,0,0,1,2.46-2.15,2.45,2.45,0,0,1,2.37,1.41l-1,.5a1.47,1.47,0,0,0-1.38-.81c-.76,0-1.28.39-1.28,1s.55,1,1.78,1.48c1.69.65,2.48,1.36,2.48,2.61s-1.05,2.36-3,2.36a2.91,2.91,0,0,1-3.08-2Z"/></g></g></svg>