<svg xmlns="http://www.w3.org/2000/svg" viewBox="0 0 333.6 105.05"><defs><style>.cls-1,.cls-2,.cls-3{fill:#fff;}.cls-2{fill-rule:evenodd;}.cls-3{font-size:11.92px;font-family:Corbel;letter-spacing:0.2em;}.cls-10,.cls-4,.cls-6,.cls-7,.cls-9{font-size:9.46px;}.cls-4{letter-spacing:0.2em;}.cls-5{letter-spacing:0.2em;}.cls-6{letter-spacing:0.2em;}.cls-7{letter-spacing:0.16em;}.cls-8{letter-spacing:0.2em;}.cls-9{letter-spacing:0.2em;}.cls-10{letter-spacing:0.15em;}</style></defs><g id="Camada_2" data-name="Camada 2"><g id="Camada_1-2" data-name="Camada 1"><path class="cls-1" d="M36.79,36a10,10,0,0,0-6.91,2.37c-2.07,1.73-2.24,6.57-2.24,8.29-4.15,6.39-8.21,14.25-8.21,18,0,.35.09.69.78.69.26,0,.69-.17.69-.86,0-.52.26-4.66,8.12-15.89l5.44-8a3,3,0,0,0,.34-1.3c0-.43-.34-1.47-.94-1.47-.26,0-.52.09-.78.61,0,0-2,2.85-4.41,6.65.35-2.16.61-4.84,1.73-5.79C32.73,37.13,34.89,37,37.65,37c6,.52,9.16,4.93,9.16,10.62,0,13-15.2,19.44-26.6,19.44-5.7,0-13.21-1.39-16.75-4.32-.33-.17-.5-4.2-2.52-4.2a1.6,1.6,0,0,0-.42.05c-.35.09-.52.26-.52.61,0,4.14,7.25,7.16,10.28,7.68a37.53,37.53,0,0,0,10.36,1.47c11.92,0,28.67-6.91,28.67-20.73C49.31,40.41,44.05,36.35,38,36l-1.21,0"/><path class="cls-1" d="M54.26,49.11c-2.76,0-5.66,6.4-8.58,12.63a4.55,4.55,0,0,0-.43,2.16c0,.69.17,1.12.43,1.12.61,0,.78-1,2.08-3.19,2.59-4.4,6.3-8.81,10.7-11.23a2.06,2.06,0,0,1,.89-.27c.28,0,.49.12.49.45A14.54,14.54,0,0,1,58.12,55c-.18.43-.35,1.56.43,1.56.43,0,2.68-1,2.68-4.93,0-1.73-.78-2.5-1.82-2.5-2.24,0-5.78,3.45-7.42,5.18.95-1.47,3-3.71,3-4.75,0-.26-.17-.34-.43-.43a1.73,1.73,0,0,0-.32,0"/><path class="cls-1" d="M60.39,63.75l-.11,0c-.26-.08-.26-.43-.26-.6,0-2.51,3.63-6.31,3.63-6.31,1-1.12,4.92-5.61,6.39-5.61.86,0,.95,1.21.95,2,0,4.15-7.69,9.07-8,9.33a6.68,6.68,0,0,1-2.56,1.23M75.91,49.13c-2,0-3.11,1.9-4,3.2.35-1.95-.7-3.16-2-3.16a2.48,2.48,0,0,0-1,.22s-2.59.43-7.42,6.39c0,0-3.11,3.89-3.11,6.91,0,.78.08,2.33,1.72,2.33a3.58,3.58,0,0,0,2-.6,42.38,42.38,0,0,0,5.57-4,8.53,8.53,0,0,0-.47,2.9,1.93,1.93,0,0,0,1.9,1.9c0-.09,1.47.43,6.47-3.89,0,0,.61-.69.61-1A.19.19,0,0,0,76,60.1c-.69,0-5.26,4-6.73,4-.26,0-.69-.09-.69-.78s.26-2.76,7.69-12.78a1.78,1.78,0,0,0,.26-.86c0-.26-.09-.52-.61-.52"/><path class="cls-1" d="M77.81,64.42c-.61,0-.87,1.47-.78,2.07s.21.74.39.74c.53,0,1.34-1.69,1.34-2a.89.89,0,0,0-1-.86"/><path class="cls-1" d="M102.45,49.42a2.94,2.94,0,0,1-1.86-.55,3,3,0,0,1,1.07-.12c.75,0,1.59.11,1.44.47-.06.14-.31.2-.65.2M109,44.21c-2.24,0-4.23-1.38-6.56-2.24-.09,0-.18-.09-.26-.09a13,13,0,0,1,6.56-3.11h.41c1.34,0,4.95.13,4.95,2.33s-3,3.11-5.1,3.11M83.06,36.35c-7.17,0-9.17,1.72-11.92,5.45C75.59,37.52,77,37.29,83,37.39c5.53.09,11.23,2.07,16.49,4.4-1.81,1.39-3.1,3.89-1.46,6.31-5.79.86-14.34,5.09-14.34,12.44,0,4.57,3.28,6.73,7,6.73,4.79,0,11.69-3.67,14.8-5.81a9.62,9.62,0,0,1,.36-1.12c-3.33,1.27-10.84,5.81-15.16,5.81-1.9,0-4.75-1.3-4.75-5.18,0-5.1,7.08-10.88,13.13-11.92a4.56,4.56,0,0,0,3.11,1.38c.26,0,1.9-.08,1.9-1.38,0-.86-1-1.21-2.07-1.21a19.52,19.52,0,0,0-2.42.09c-.86-1.9.43-4,1.73-5.27,2.33.78,5,2.59,7.94,2.59,1.9,0,5.88-1,5.88-4.15,0-2.68-2.85-3.45-4.58-3.45A18.1,18.1,0,0,0,100.43,41C95.07,38.6,89,36.35,83.06,36.35"/><path class="cls-1" d="M121.49,38.25a1.15,1.15,0,0,0-.77.44c-.46,0-12,13.76-14.91,21.65-.14.39-.26.76-.35,1.12a6.91,6.91,0,0,0-.29,1.84,1.69,1.69,0,0,0,1.77,1.9h.24c.4,0,1.84-.18,5.45-3.18a10.9,10.9,0,0,1,.32-1.35c-1.25,1-4.47,3.4-5.71,3.4-.34,0-.69-.08-.69-.69s.18-2.93,9.16-14.94l6.13-7.51a3.14,3.14,0,0,0,.43-1.47c0-.34-.17-1.21-.78-1.21"/><path class="cls-1" d="M121,61.12c-.34.27-.66.51-.94.71a.61.61,0,0,0,.07.1c.23-.19.47-.4.71-.62l.16-.19m-.33-.75c-.18.16-.48.42-.86.71a.74.74,0,0,0,.08.24c.22-.29.49-.61.78-1m.6-11.24a4.45,4.45,0,0,0-2.76,1.39A39.84,39.84,0,0,0,113,60.67a10.9,10.9,0,0,0-.32,1.35,7.35,7.35,0,0,0-.12,1.28,1.83,1.83,0,0,0,1.9,1.9h0c.25,0,1.63-.06,4.86-2.63a1.64,1.64,0,0,1-.14-.22,4.48,4.48,0,0,1-.29-.58c-1.47,1.08-3.38,2.31-4.2,2.31h-.09a.62.62,0,0,1-.69-.69,1.63,1.63,0,0,1,.09-.61s.6-2.76,7.51-12.26a1.61,1.61,0,0,0,.35-.86c0-.35-.17-.53-.61-.53m2.42-6c-1,0-2.33,1.9-2.33,3.1,0,.35.09.61.35.69.08.09.17.09.34.09.86,0,2.25-1.73,2.25-3.11,0-.51-.26-.77-.61-.77"/><path class="cls-1" d="M134.12,61c-.09.18-.17.36-.25.54a.9.9,0,0,0,.32-.46c0-.08,0-.08-.07-.08M121,61.12c.71-.58,1.5-1.3,2.26-2A51.34,51.34,0,0,0,128,62.18,4,4,0,0,1,124.51,64a5.78,5.78,0,0,1-4.43-2.06l-.06-.1c.29-.2.6-.44.94-.71m-1.19,0a1.21,1.21,0,0,1,0-.2,2.52,2.52,0,0,1,2.08-2.42c.17,0,.26.09.43.09-.55.6-1.13,1.24-1.64,1.82-.29.34-.56.66-.78.94a.63.63,0,0,1-.08-.23m8.89.15a41.22,41.22,0,0,1-4.66-3c.17-.08.26-.26.43-.43a51,51,0,0,0,4.66-6.21c.69.08,1.13,7-.43,9.67m.64-12.33c-1.1,0-.65.94-.73,1a55,55,0,0,1-5.52,7.77,3.91,3.91,0,0,0-1.3-.25,3.15,3.15,0,0,0-3.11,3.1,3.3,3.3,0,0,0,.23,1.24,6.27,6.27,0,0,0,.29.58l.14.22a5.77,5.77,0,0,0,4.87,2.55h.26c1.72-.09,3.19.09,5.35-2.24a1.55,1.55,0,0,0,.6.08,4.67,4.67,0,0,0,1.47-.25h0a5.73,5.73,0,0,1,.1-1,5,5,0,0,1-1.32.22h-.16c2.33-3.54,1.47-12.52-.6-12.95a3.35,3.35,0,0,0-.57-.06"/><path class="cls-1" d="M134.12,61a20.39,20.39,0,0,1,3-4.15c1-1.12,4.93-5.61,6.39-5.61.87,0,1,1.21,1,2,0,4.15-7.68,9.07-8,9.33a7,7,0,0,1-2.56,1.23l-.12,0c-.25-.08-.25-.43-.25-.6a4.39,4.39,0,0,1,.37-1.62c.08-.18.16-.36.25-.54m15.27-11.84c-2,0-3.11,1.9-4,3.2.35-1.95-.7-3.16-2-3.16a2.48,2.48,0,0,0-1,.22s-2.59.43-7.43,6.39a16.67,16.67,0,0,0-3,5.92,5.73,5.73,0,0,0-.1,1h0c0,.78.1,2.32,1.73,2.32a3.55,3.55,0,0,0,2-.6,41.23,41.23,0,0,0,5.58-4,8.33,8.33,0,0,0-.48,2.9,1.94,1.94,0,0,0,1.9,1.9c0-.08,1.07.29,4.49-2.28a6.81,6.81,0,0,1,.35-1.17c.07-.18.13-.35.21-.52-1.66,1.18-3.92,2.85-4.87,2.85-.26,0-.69-.09-.69-.78s.26-2.77,7.68-12.78a1.68,1.68,0,0,0,.26-.87c0-.26-.09-.52-.6-.52m-2-6a1.21,1.21,0,0,0-.6.17c-.78.35-4.93,2.51-4.93,2.59s.09.35.69.35a11.9,11.9,0,0,0,4.23-1c1.9,2.33,3.2,2.68,3.89,2.68s.34-.17.52-.35c-1.64-.86-1.9-2.16-2.77-3.71-.34-.61-.68-.78-1-.78"/><path class="cls-1" d="M163,49.11a6.61,6.61,0,0,0-1.51.2,24.29,24.29,0,0,0-8.55,6.13c1.21-1.73,3.8-4.66,3.8-5.79,0-.26-.09-.52-.43-.52-3,0-6.14,5.82-8.69,12.1l-.21.51a6,6,0,0,0-.34,1.18,5,5,0,0,0-.09,1c0,.69.17,1.12.43,1.12.69,0,.95-1.29,2.16-3.28,2.85-4.66,7.17-9.41,12.18-11.31a2.45,2.45,0,0,1,.78-.18c.17.26-.26.87-.78,1.56-3,4.58-5.09,8-5.09,10.88,0,1.73,1,2.51,2,2.51,0,0,0,0,.05,0,.28,0,1.49-.27,5-2.86A7.42,7.42,0,0,1,163.9,61c-1.63,1.14-4.54,3.06-5.1,3.06-.34,0-.69-.08-.69-1.29,0-.26.18-2.07,6.65-11a1.55,1.55,0,0,0,.18-.86c0-.9-.34-1.84-1.95-1.84"/><path class="cls-1" d="M158.8,74.87c-1.47,0-3.54-.78-3.54-2.76,0-3.11,5.09-3.89,8-3.89a42.86,42.86,0,0,1,4.75.52c-2.25,3.19-5.36,6.13-9.16,6.13m6.82-11.14c-.26,0-.26-.43-.26-.6,0-2.51,3.63-6.31,3.63-6.31,1-1,4.92-5.61,6.39-5.61,1,.08.86,2,.86,2.5-2.07,5.45-8,8.81-8,8.81a6.63,6.63,0,0,1-2.59,1.21m15.81-14.6c-2.25,0-3.37,2-4.06,3.37v-.34c0-.78-.18-2.94-2.33-2.94a4.25,4.25,0,0,0-.87.17s-2.59.44-7.43,6.39A18,18,0,0,0,163.9,61a6.65,6.65,0,0,0-.25,1.35c0,.11,0,.23,0,.33,0,1,.17,2.33,2.07,2.33a3.68,3.68,0,0,0,1.72-.6,40.75,40.75,0,0,0,5.62-4.06,63.71,63.71,0,0,1-4.32,7.52,27,27,0,0,0-5.27-.61c-3.45,0-9.41.61-9.41,4.93,0,2.5,3.19,3.8,4.92,3.8,4.58,0,8-2.68,11.23-6.74,6.47,1.38,11.4,2.33,16.49,2.33a40,40,0,0,0,18.68-3.94,4.67,4.67,0,0,0-.55-.64,42.14,42.14,0,0,1-17.61,3.63c-5,0-9.93-1.12-16.41-2.33,2.59-3.71,6.48-12,10.8-17.79a1.79,1.79,0,0,0,.25-.86c0-.27-.08-.53-.42-.53"/><path class="cls-1" d="M180.3,59.84a21.78,21.78,0,0,1,6.39-7.94,3.59,3.59,0,0,1,1.71-.9.39.39,0,0,1,.37.21c1,4.14-4.49,7-8.47,8.63M187.81,49a3.56,3.56,0,0,0-1.63.44c-3.72,1.73-9.33,10-8.29,13.9a2.39,2.39,0,0,0,2.54,1.87c1.88,0,4.23-1.23,5.4-1.87a16.22,16.22,0,0,0,3.62-2.65,24,24,0,0,1,1.33-3.1,6.17,6.17,0,0,0-1.06,1.17,19.11,19.11,0,0,1-4.41,3.55,12.15,12.15,0,0,1-4.94,1.78c-.46,0-.8-.11-.93-.4a4.47,4.47,0,0,1,.26-2.51c.35-.08.6-.17,1-.26,3.8-1.81,11.23-4.75,9.15-10.53a2,2,0,0,0-2-1.39"/><path class="cls-1" d="M205.26,38.25a1.19,1.19,0,0,0-.78.44c-.4,0-9.68,11-13.7,19a23.38,23.38,0,0,0-1.33,3.09,8.25,8.25,0,0,0-.51,2.57,1.7,1.7,0,0,0,1.77,1.9H191c.38,0,1.72-.16,5-2.8a6.51,6.51,0,0,1,.23-1.28c-1.47,1.15-4.07,3-5.16,3-.34,0-.69-.09-.69-.69s.18-2.94,9.16-14.94l6.13-7.52a3.13,3.13,0,0,0,.43-1.46c0-.35-.17-1.22-.78-1.22"/><path class="cls-1" d="M197.94,63.75l-.11,0c-.26-.08-.26-.43-.26-.6,0-2.51,3.63-6.31,3.63-6.31,1-1.12,4.93-5.61,6.39-5.61.87,0,.95,1.21.95,2,0,4.15-7.69,9.07-8,9.33a6.76,6.76,0,0,1-2.57,1.23m15.53-14.62c-2,0-3.11,1.9-4,3.2.35-1.95-.7-3.16-2-3.16a2.48,2.48,0,0,0-1,.22s-2.59.43-7.43,6.39a17.76,17.76,0,0,0-2.87,5.33,6.51,6.51,0,0,0-.23,1.28c0,.1,0,.2,0,.3,0,.78.09,2.33,1.73,2.33a3.68,3.68,0,0,0,2-.6,41.83,41.83,0,0,0,5.57-4,8.33,8.33,0,0,0-.48,2.9,1.94,1.94,0,0,0,1.9,1.9h.11c-.11,0-.8-.28-.62-2a1.91,1.91,0,0,1,.05-.36v0a.13.13,0,0,1,0-.06c.28-1.17,1.59-4.07,7.62-12.2a1.75,1.75,0,0,0,.25-.86c0-.26-.09-.52-.6-.52"/><path class="cls-1" d="M259.86,37.07a2.7,2.7,0,0,0-1.14.32c-9.07,6.31-14.5,15.63-21.07,23.93a12.61,12.61,0,0,1-1.56,2c.44-1.55,2.16-5.87,7.86-15.11L247.58,42c.26-.78.43-2.85-.86-2.85a56.12,56.12,0,0,1-3.54,5.1c-7.6,9.32-15.72,20-27.3,23.75a6.47,6.47,0,0,1-1.61.24h0l-3.44.18a7.58,7.58,0,0,0,3.3.8l.55,0a7.33,7.33,0,0,0,1.38-.17c10.19-3.37,17.27-11.14,23.84-19-3,5.27-5.36,10.71-5.36,14.16,0,.44.09.87.69.87s1.64-1,3.28-3.11c6.48-8.12,12.18-17.71,20.64-23.49a1.11,1.11,0,0,1,.56-.21c.53,0,.48.89.48,1.51C256.91,44.3,248,57,248,63.13a2.8,2.8,0,0,0,.09.86s.26,1.73,1.81,1.73a3.32,3.32,0,0,0,1.38-.34,25.24,25.24,0,0,0,4.54-3.26A7.28,7.28,0,0,1,256,61a60,60,0,0,1-5.91,3.65c-.26,0-.6-.18-.6-.87,0-.51.08-2.93,7.86-15.54l5.44-8c.34-.61.43-2.77-.61-2.77-.25,0-.43.26-1.12,1.21-.1-1.15-.59-1.53-1.19-1.53"/><path class="cls-1" d="M258.38,59.84a21.78,21.78,0,0,1,6.39-7.94,3.63,3.63,0,0,1,1.71-.9.38.38,0,0,1,.37.21c1,4.14-4.5,7-8.47,8.63M265.89,49a3.59,3.59,0,0,0-1.64.44C261.2,50.9,256.87,56.75,256,61a8.2,8.2,0,0,0-.15,1.16,4.29,4.29,0,0,0,.12,1.27,2.41,2.41,0,0,0,2.55,1.87c1.88,0,4.23-1.23,5.4-1.87a18.55,18.55,0,0,0,2.64-1.77c.37-.91.75-1.82,1.14-2.7a18.77,18.77,0,0,1-4.3,3.43,12,12,0,0,1-4.94,1.79c-.46,0-.8-.12-.93-.4a4.38,4.38,0,0,1,.26-2.51c.34-.08.6-.17,1-.26,3.8-1.81,11.22-4.75,9.15-10.54a2,2,0,0,0-2-1.38"/><path class="cls-1" d="M282.08,49.11a6.6,6.6,0,0,0-1.5.2A24.33,24.33,0,0,0,272,55.44c1.21-1.73,3.81-4.66,3.81-5.79,0-.26-.09-.52-.44-.52-2.57,0-5.34,4.46-7.7,9.78-.4.89-.77,1.79-1.14,2.71l-.05.13a5.52,5.52,0,0,0-.44,2.16c0,.68.18,1.12.44,1.12.69,0,.95-1.3,2.16-3.28,2.85-4.67,7.17-9.42,12.18-11.32a2.6,2.6,0,0,1,.77-.17c.18.26-.26.86-.77,1.55-3,4.58-5.1,8-5.1,10.88,0,1.73,1,2.51,2,2.51,0,0,0,0,0,0,.3,0,1.6-.29,5.46-3.22a6.87,6.87,0,0,1,.2-1.29c-1.5,1.07-4.93,3.37-5.53,3.37-.34,0-.69-.09-.69-1.3,0-.26.17-2.07,6.65-11A1.55,1.55,0,0,0,284,51c0-.9-.33-1.84-1.95-1.84"/><path class="cls-1" d="M285.76,59.84a21.58,21.58,0,0,1,6.39-7.94,3.61,3.61,0,0,1,1.7-.9.37.37,0,0,1,.37.21c1,4.14-4.49,7-8.46,8.63m7.5-10.8a3.56,3.56,0,0,0-1.63.44c-3,1.39-7.23,7.05-8.21,11.23a7.8,7.8,0,0,0-.2,1.29,4.37,4.37,0,0,0,.11,1.38,2.41,2.41,0,0,0,2.55,1.87c1.88,0,4.23-1.23,5.4-1.87A15.55,15.55,0,0,0,296,59.5a8.91,8.91,0,0,0,.65-1,1.18,1.18,0,0,1-.81-.55,7.41,7.41,0,0,0-.7.84,19.11,19.11,0,0,1-4.41,3.55,12.15,12.15,0,0,1-4.94,1.78c-.46,0-.8-.11-.93-.4a4.38,4.38,0,0,1,.26-2.51c.34-.08.6-.17,1-.26,3.8-1.81,11.22-4.75,9.15-10.53a2,2,0,0,0-2-1.39"/><path class="cls-1" d="M297.07,77.55c-.35,0-.61-.18-.61-.87,0-2.41,2.16-6.82,4.15-10.45A18.28,18.28,0,0,1,301,70c0,2.25-1.29,7.52-4,7.52m1.65-14a2,2,0,0,1-.44-.06.44.44,0,0,1-.35-.43c0-.17.09-.26.35-.26a1.32,1.32,0,0,1,1,.6,1.38,1.38,0,0,1-.59.15m1.43-14.62c-.13,0-.23.1-.23.31,0,2.68-4.23,5.36-4.23,8a1.63,1.63,0,0,0,.18.8,1.17,1.17,0,0,0,.82.54,1.64,1.64,0,0,0,.38,0c.17,0,.95,0,.52-.78.08-4,6.65-7.42,10-7.51-3.46,6.13-2.42,3.89-7.6,12.26a2.16,2.16,0,0,0-1.64-1A1.5,1.5,0,0,0,296.73,63a1.54,1.54,0,0,0,1.64,1.64,1.2,1.2,0,0,0,.52-.08c-2.34,4.23-4,8.55-4,11.74,0,.87.26,2.33,2,2.33,3.89,0,5.27-5.7,5.27-8.63a14.11,14.11,0,0,0-.78-5.19,9.62,9.62,0,0,0,.6-.94c.09.6.61,1.2,1.73,1.29h.08c1,0,3.14-1.27,5.5-3.15a9,9,0,0,1,.19-1.28c-1.42,1.09-4.55,3.32-5.52,3.32h-.08c-.25,0-.69-.08-.69-1.29,0-.69.78-2.77,6.74-11a1.69,1.69,0,0,0,.17-.87c0-.86-.43-1.81-2.59-1.81a11.42,11.42,0,0,0-6.82,2.33,3.43,3.43,0,0,0,.26-1.21c0-.84-.5-1.35-.81-1.35"/><path class="cls-1" d="M321.74,59.92a24.69,24.69,0,0,1-2.3,1.91l.09.16a14.84,14.84,0,0,0,2.21-2.07m-.27-1.41-.22.3a24.17,24.17,0,0,1-2.07,1.93v.14a.86.86,0,0,0,.08.44c.61-.78,1.56-1.82,2.42-2.77a.6.6,0,0,1-.21,0m1.26-1.17a2.4,2.4,0,0,0-.41.29l.14.06.27-.35m-10.89,2.5a21.58,21.58,0,0,1,6.39-7.94,3.61,3.61,0,0,1,1.7-.9.37.37,0,0,1,.37.21c1,4.14-4.49,7-8.46,8.63m7.5-10.8a3.56,3.56,0,0,0-1.63.44c-3,1.4-7.26,7.1-8.22,11.29A7.52,7.52,0,0,0,309.3,62a4.11,4.11,0,0,0,.12,1.34A2.4,2.4,0,0,0,312,65.25c1.88,0,4.23-1.23,5.4-1.87.5-.29.94-.55,1.35-.82l-.14-.21a4.48,4.48,0,0,1-.39-.88c-.37.26-.8.54-1.33.88a12.19,12.19,0,0,1-5,1.78c-.46,0-.8-.11-.93-.4a4.47,4.47,0,0,1,.26-2.51c.35-.08.61-.17.95-.26,3.8-1.81,11.23-4.75,9.16-10.53a2,2,0,0,0-2-1.39"/><path class="cls-1" d="M321.74,59.92c.3-.27.6-.56.89-.85a51.34,51.34,0,0,0,4.75,3.11A4,4,0,0,1,323.93,64a5.79,5.79,0,0,1-4.4-2,1.19,1.19,0,0,1-.09-.15,24.69,24.69,0,0,0,2.3-1.91m-2.56.82a2.52,2.52,0,0,1,2.07-2.28.71.71,0,0,1,.22,0,.65.65,0,0,0,.21,0c-.86,1-1.81,2-2.42,2.77a.86.86,0,0,1-.08-.44v-.14m8.89.49a41.22,41.22,0,0,1-4.66-3c.17-.08.26-.26.43-.43a50,50,0,0,0,4.66-6.21c.69.08,1.13,7-.43,9.67m.64-12.33c-1.1,0-.65.94-.72,1a53.83,53.83,0,0,1-5.26,7.43l-.27.34-.14,0a3.77,3.77,0,0,0-1.16-.2,3.14,3.14,0,0,0-3.1,3.1,3.45,3.45,0,0,0,.12.94,4.23,4.23,0,0,0,.39.88l.14.22a5.75,5.75,0,0,0,4.87,2.55h.26c1.73-.08,3.2.09,5.35-2.24a1.63,1.63,0,0,0,.61.08c2.07,0,3.8-1.55,3.8-1.9,0-.08,0-.08-.09-.08a14.65,14.65,0,0,1-3.46,1h-.16c2.33-3.55,1.46-12.53-.61-13a3.35,3.35,0,0,0-.57-.06"/><path class="cls-1" d="M126.48,98.25a3.25,3.25,0,0,0-1.14.19,2.53,2.53,0,0,0-.92.58,2.64,2.64,0,0,0-.61,1,3.38,3.38,0,0,0-.23,1.32,3.65,3.65,0,0,0,.21,1.3,2.43,2.43,0,0,0,.59.91,2.53,2.53,0,0,0,.93.54,4.11,4.11,0,0,0,1.21.17l.38,0,.41,0,.4-.09a2.47,2.47,0,0,0,.35-.1v.78a3.44,3.44,0,0,1-.74.2,6.13,6.13,0,0,1-.87.07,4.73,4.73,0,0,1-1.61-.26,3.16,3.16,0,0,1-1.17-.72,3,3,0,0,1-.72-1.15,4.87,4.87,0,0,1,0-3.11,3.38,3.38,0,0,1,.75-1.22,3.45,3.45,0,0,1,1.17-.79,4.05,4.05,0,0,1,1.56-.29l.45,0,.43.06.37.08.3.1v.78a6.31,6.31,0,0,0-.72-.18A4.15,4.15,0,0,0,126.48,98.25Z"/><path class="cls-1" d="M132.08,101.85v3h-.89V97.6h1.88q.48,0,.81,0a4.48,4.48,0,0,1,.61.11,2.1,2.1,0,0,1,1.16.71,1.89,1.89,0,0,1,.41,1.24,2.18,2.18,0,0,1-.14.79,1.91,1.91,0,0,1-.4.6,2.07,2.07,0,0,1-.61.42,4.31,4.31,0,0,1-.79.24v0l2.15,3.1h-.88l-2.24-3h-1.07Zm0-3.45v2.65H133c.27,0,.51,0,.7,0a2.43,2.43,0,0,0,.51-.1,1.46,1.46,0,0,0,.72-.45,1.3,1.3,0,0,0,.24-.81,1.13,1.13,0,0,0-.24-.75,1.25,1.25,0,0,0-.64-.41,2.62,2.62,0,0,0-.47-.09,6.47,6.47,0,0,0-.69,0h-1Z"/><path class="cls-1" d="M143.29,104.86h-.41l-1.83-4.34c-.25-.59-.5-1.24-.76-2h0c.05,1,.08,1.94.08,2.78v3.51h-.89V97.6h1.28l1.71,4.11c.19.47.41,1,.64,1.7h0c.26-.74.48-1.3.65-1.7l1.71-4.11h1.27v7.26h-.88v-3.51c0-.82,0-1.75.08-2.78h-.05c-.27.74-.52,1.39-.76,2Z"/><path class="cls-1" d="M158,104.86h-.41l-1.83-4.34c-.25-.59-.51-1.24-.76-2h0c.05,1,.07,1.94.07,2.78v3.51h-.88V97.6h1.27l1.71,4.11c.2.47.41,1,.65,1.7h0c.26-.74.47-1.3.65-1.7l1.7-4.11h1.28v7.26h-.88v-3.51c0-.82,0-1.75.07-2.78h0c-.27.74-.52,1.39-.76,2Z"/><path class="cls-1" d="M169.69,101.92H168v-.79h2.54v3.51a1.83,1.83,0,0,1-.34.12l-.5.12c-.19,0-.39.06-.6.09l-.64,0a4.93,4.93,0,0,1-1.65-.26,3.43,3.43,0,0,1-1.2-.72,3.11,3.11,0,0,1-.73-1.13,4.43,4.43,0,0,1-.25-1.49,4.67,4.67,0,0,1,.27-1.62,3.49,3.49,0,0,1,.8-1.24,3.44,3.44,0,0,1,1.25-.8,4.67,4.67,0,0,1,1.62-.28l.48,0a3.4,3.4,0,0,1,.46.06l.4.08.31.1v.78a5.92,5.92,0,0,0-.75-.18,4.8,4.8,0,0,0-.85-.07,3.88,3.88,0,0,0-1.18.18,3,3,0,0,0-1,.57,2.78,2.78,0,0,0-.68,1,3.28,3.28,0,0,0-.26,1.35,3.65,3.65,0,0,0,.22,1.3,2.39,2.39,0,0,0,.59.91,2.7,2.7,0,0,0,.94.53,4.3,4.3,0,0,0,1.23.17c.21,0,.42,0,.62,0a3.36,3.36,0,0,0,.54-.09v-2.16Z"/><path class="cls-1" d="M178.47,102.08v0l.8,0h1.19v-1.65h.84v1.65h1.07v.72H181.3v2.1h-.84v-2.1h-3v-.61l2.14-4.54h.9Z"/><path class="cls-1" d="M186,102.08v0l.8,0H188v-1.65h.84v1.65h1.07v.72h-1.07v2.1H188v-2.1h-3v-.61l2.14-4.54H188Z"/><path class="cls-1" d="M192.48,98.42v-.77h4.26v.56l-3,6.7h-.88l2.9-6.49Z"/><path class="cls-1" d="M203.49,102.74a2.32,2.32,0,0,1-.18.92,2,2,0,0,1-.53.73,2.35,2.35,0,0,1-.83.48,3.31,3.31,0,0,1-1.13.18A4,4,0,0,1,200,105a2.43,2.43,0,0,1-.67-.24V104a3.15,3.15,0,0,0,.76.24,4,4,0,0,0,.66.06,2.47,2.47,0,0,0,.81-.12,1.59,1.59,0,0,0,.57-.33,1.49,1.49,0,0,0,.34-.49,1.51,1.51,0,0,0,.11-.59,1.8,1.8,0,0,0-.11-.65,1.1,1.1,0,0,0-.37-.46,1.79,1.79,0,0,0-.64-.27,4.31,4.31,0,0,0-1-.09,8.92,8.92,0,0,0-.94.06l.51-3.72h3.47v.77H201l-.3,2.16h.3a3.52,3.52,0,0,1,1.08.15,2.18,2.18,0,0,1,.8.42,2,2,0,0,1,.49.68A2.4,2.4,0,0,1,203.49,102.74Z"/><path class="cls-1" d="M208.67,100.54a2.82,2.82,0,0,1,.89.13,1.92,1.92,0,0,1,.71.41,1.86,1.86,0,0,1,.46.67,2.43,2.43,0,0,1,.17.92,2.93,2.93,0,0,1-.16,1,2,2,0,0,1-.45.75,2,2,0,0,1-.71.49,2.45,2.45,0,0,1-1,.17,2.22,2.22,0,0,1-1-.22,2.18,2.18,0,0,1-.76-.66,3.2,3.2,0,0,1-.47-1,5.1,5.1,0,0,1-.16-1.35,8.09,8.09,0,0,1,.08-1.12,5.15,5.15,0,0,1,.27-1,3.94,3.94,0,0,1,.44-.87,3,3,0,0,1,.59-.68,2.57,2.57,0,0,1,.77-.44,2.51,2.51,0,0,1,.92-.16,2.84,2.84,0,0,1,.71.08,2.21,2.21,0,0,1,.5.18v.7a3.7,3.7,0,0,0-.52-.15,2.59,2.59,0,0,0-.63-.07,2,2,0,0,0-.76.15,2.06,2.06,0,0,0-.66.5,2.85,2.85,0,0,0-.51.84,4.55,4.55,0,0,0-.29,1.22h0a3.73,3.73,0,0,1,.74-.31A2.83,2.83,0,0,1,208.67,100.54Zm0,3.79a1.62,1.62,0,0,0,.54-.1,1.18,1.18,0,0,0,.43-.31,1.48,1.48,0,0,0,.29-.49,2.06,2.06,0,0,0,.11-.68,2,2,0,0,0-.11-.69,1.34,1.34,0,0,0-.31-.45,1.11,1.11,0,0,0-.45-.25,1.93,1.93,0,0,0-.55-.07,2.47,2.47,0,0,0-.79.13,3.66,3.66,0,0,0-.72.33,4.37,4.37,0,0,0,.11,1.14,2.49,2.49,0,0,0,.32.81,1.32,1.32,0,0,0,.5.47A1.23,1.23,0,0,0,208.65,104.33Z"/><path class="cls-2" d="M204.65,67.08c32.49-14.86,33.36-37.77,20.9-46,13,8.46,12.46,30.84-20.33,46.65Z"/><path class="cls-1" d="M222.07,5.5A4.32,4.32,0,0,1,224.9.87,18.14,18.14,0,0,0,222.07,5.5Z"/><path class="cls-1" d="M217,6.73a4.35,4.35,0,0,0-5.39-.7A18.12,18.12,0,0,1,217,6.73Z"/><path class="cls-1" d="M222.08,16.06l.75-.31L219.2,5.91c-1.89-2.22-4-2.74-6.43-1.58a8.54,8.54,0,0,1,5.51,2Z"/><path class="cls-1" d="M223.38,15.52l.82-.34-3.44-9.7a10.87,10.87,0,0,1,3-5.48c-2.4.67-4.13,2.15-4.07,5.8Z"/><path class="cls-1" d="M236,8.19a4.35,4.35,0,0,1,5.35-1A18.72,18.72,0,0,0,236,8.19Z"/><path class="cls-1" d="M231.69,5.19A4.32,4.32,0,0,0,228.64.7,18,18,0,0,1,231.69,5.19Z"/><path class="cls-1" d="M228.1,15.21l.73.36,4.95-9.26c.41-2.88-.61-4.83-3.08-5.85a8.56,8.56,0,0,1,2.15,5.46Z"/><path class="cls-1" d="M229.37,15.83l.8.39,5-9a10.84,10.84,0,0,1,6.12-1.36c-2.09-1.35-4.35-1.67-7,.8Z"/><path class="cls-1" d="M242.25,19.67a4.33,4.33,0,0,1,4.25,3.38A18.14,18.14,0,0,0,242.25,19.67Z"/><path class="cls-1" d="M241.66,14.46A4.32,4.32,0,0,0,243,9.2,17.88,17.88,0,0,1,241.66,14.46Z"/><path class="cls-1" d="M231.76,18.39l.22.78,10.22-2.4q3.65-2.38,2.35-6.18a8.55,8.55,0,0,1-2.67,5.22Z"/><path class="cls-1" d="M232.14,19.75l.24.86,10.05-2.23a10.77,10.77,0,0,1,5.07,3.69c-.37-2.47-1.63-4.37-5.26-4.76Z"/><path class="cls-1" d="M237.69,32.82a4.33,4.33,0,0,1-.06,5.43A18.2,18.2,0,0,0,237.69,32.82Z"/><path class="cls-1" d="M241.45,29.16a4.33,4.33,0,0,0,5-2.16A18.16,18.16,0,0,1,241.45,29.16Z"/><path class="cls-1" d="M232.28,23.75l-.49.65L240,31q4.13,1.41,6.33-1.93a8.58,8.58,0,0,1-5.77,1.09Z"/><path class="cls-1" d="M231.43,24.88l-.53.72,7.92,6.57a10.77,10.77,0,0,1,.19,6.27c1.73-1.8,2.46-4,.54-7.07Z"/><path class="cls-1" d="M222.34,36.16A4.33,4.33,0,0,1,217.71,39,18.2,18.2,0,0,0,222.34,36.16Z"/><path class="cls-1" d="M227.44,37.4a4.33,4.33,0,0,0,4.47,3.08A18.36,18.36,0,0,1,227.44,37.4Z"/><path class="cls-1" d="M227.15,26.76l-.81-.07-1.26,10.43c.66,2.82,2.33,4.27,5,4.33a8.55,8.55,0,0,1-4-4.31Z"/><path class="cls-1" d="M225.75,26.65l-.89-.07-1.36,10.2a10.87,10.87,0,0,1-5.21,3.49c2.44.5,4.65,0,6.27-3.3Z"/><path class="cls-1" d="M210.83,27.71a4.34,4.34,0,0,1-5.07-1.95A18.32,18.32,0,0,0,210.83,27.71Z"/><path class="cls-1" d="M213,32.51a4.32,4.32,0,0,0,.28,5.42A18.19,18.19,0,0,1,213,32.51Z"/><path class="cls-1" d="M221.22,25.8l-.44-.68-9,5.35c-1.84,2.24-2,4.44-.4,6.6a8.55,8.55,0,0,1,1-5.78Z"/><path class="cls-1" d="M220.45,24.62l-.49-.75L211,29a10.81,10.81,0,0,1-5.94-2c1.09,2.24,2.85,3.68,6.44,3Z"/><path class="cls-1" d="M226.4,21.53a1.57,1.57,0,0,1,1.67.17,4.79,4.79,0,0,0-1-1.24l1.39.35A3.94,3.94,0,0,0,227,19.75a12.31,12.31,0,0,1-2.07-1.12c-1.05-.53-2.63.41-1.15,1.84l1.31,1.17a4.59,4.59,0,0,0,1,2.14,7.07,7.07,0,0,1-.21-1.93A1.36,1.36,0,0,1,226.4,21.53Z"/><path class="cls-1" d="M181.22,18.54c-.31-2.63,1.24-5.07,3.23-5.63A21.94,21.94,0,0,0,181.22,18.54Z"/><path class="cls-1" d="M175.18,20.17c-2-1.79-4.84-2-6.46-.65A21.54,21.54,0,0,1,175.18,20.17Z"/><path class="cls-1" d="M181.59,31.15l.88-.4-4.66-11.64q-3.48-3.87-7.72-1.67a10.18,10.18,0,0,1,6.64,2.23Z"/><path class="cls-1" d="M183.12,30.46l1-.44-4.43-11.46a13,13,0,0,1,3.45-6.65c-2.84.88-4.86,2.7-4.67,7.06Z"/><path class="cls-1" d="M191.78,17.3a3.43,3.43,0,0,1,.39-4.27A14.75,14.75,0,0,0,191.78,17.3Z"/><path class="cls-1" d="M188.6,19.94a3.41,3.41,0,0,0-4,1.39A14.33,14.33,0,0,1,188.6,19.94Z"/><path class="cls-1" d="M195.47,24.77l.42-.49-6-5.7q-3.15-1.36-5.09,1.12a6.79,6.79,0,0,1,4.6-.49Z"/><path class="cls-1" d="M196.2,23.93l.47-.53-5.82-5.66a8.53,8.53,0,0,1,.24-4.94c-1.46,1.31-2.17,3-.86,5.53Z"/><path class="cls-2" d="M184.14,26.37c18,3.51,18-9.71,29-7.84C202.53,16.31,200.8,29.58,184.14,26.37Z"/><path class="cls-2" d="M196.23,21.53c5.75-5.24,11.43-5.23,17.78-.94C207,15.81,201,18,196.23,21.53Z"/><text class="cls-3" transform="translate(56.84 90.68) scale(1.03 1)">A<tspan class="cls-4" x="9.95" y="0">LERGIA, </tspan><tspan class="cls-5" x="59.85" y="0">I</tspan><tspan class="cls-6" x="65.16" y="0">MUNO</tspan><tspan class="cls-7" x="100.34" y="0">L</tspan><tspan class="cls-6" x="106.78" y="0">OGIA E </tspan><tspan class="cls-8" x="150.58" y="0">P</tspan><tspan class="cls-9" x="159.76" y="0">EDI</tspan><tspan class="cls-10" x="179.31" y="0">A</tspan><tspan class="cls-6" x="186.7" y="0">TRIA</tspan></text></g></g></svg>