<svg width="132" height="163" viewBox="0 0 132 163" fill="none" xmlns="http://www.w3.org/2000/svg">
<path d="M28.3702 110.284C30.0453 111.26 31.8262 111.67 33.5013 111.807C35.1452 111.981 36.8576 111.913 38.4144 111.739C39.9711 111.534 41.5092 111.31 43.0348 110.986C46.0985 110.371 49.1124 109.512 52.0702 108.437C52.2944 108.35 52.5185 108.269 52.7365 108.182C53.0603 108.076 53.3716 107.939 53.6954 107.821C55.7504 107.037 57.7866 106.148 59.7855 105.203C61.9275 104.195 64.0323 103.12 66.0996 101.988C67.1084 101.44 68.1172 100.875 69.1135 100.296C69.6117 99.9915 70.1223 99.6806 70.6204 99.3572C72.2955 98.3311 73.9581 97.2552 75.602 96.1421C76.8661 95.2901 78.1364 94.4133 79.3694 93.5115C79.5064 93.4245 79.662 93.325 79.799 93.2006C81.2562 92.1559 82.6946 91.0613 84.077 89.9544C89.0773 86.0055 93.7164 81.7519 97.8573 77.2557C99.8936 75.0854 101.724 72.7906 103.406 70.4151C104.228 69.2024 105.031 67.9897 105.716 66.69C106.401 65.4898 107.136 63.7361 107.428 62.6043C107.484 62.4364 107.478 62.4364 107.478 62.4364C107.478 62.4364 107.478 62.4364 107.478 62.4115L107.497 62.3431L107.534 62.2249L107.584 61.9513L107.702 61.4414C107.771 61.0807 107.87 60.7387 107.908 60.3842C107.995 59.669 108.132 58.985 108.151 58.2449C108.269 56.8271 108.113 55.3408 107.827 53.9229C107.484 52.505 106.868 51.1369 106.046 49.974C105.224 48.7738 104.128 47.872 103.051 47.1382C100.828 45.683 98.4614 45.0674 96.2757 44.7129C94.0838 44.3709 92.0164 44.3211 90.0798 44.3709C87.8879 44.4393 85.889 44.6632 84.0894 44.9679V35.3101H67.2641V0H45.015V65.7572C43.1656 67.5171 41.011 69.675 38.7693 72.3056C36.3221 75.1973 33.632 78.5616 31.1163 82.5416C29.8523 84.5254 28.6006 86.6585 27.4549 88.9656C26.3091 91.2728 25.2443 93.7541 24.5468 96.5214C24.1857 97.9082 23.9117 99.3758 23.8432 100.949C23.7747 102.523 23.9304 104.233 24.6153 105.974C25.3003 107.715 26.7014 109.345 28.3827 110.284H28.3702ZM84.0832 46.4915C85.914 46.3733 87.9191 46.3547 90.0549 46.4915C91.867 46.5972 93.8036 46.8335 95.7402 47.331C97.6768 47.8099 99.6071 48.581 101.201 49.775C102.795 50.9566 103.835 52.6605 104.159 54.6816C104.277 55.7077 104.346 56.7649 104.159 57.8967C104.128 58.4626 103.954 59.0409 103.848 59.6068C103.692 60.1354 103.555 60.6827 103.406 61.2299C102.907 62.6167 102.515 63.3008 101.811 64.445C101.145 65.4898 100.373 66.5283 99.5698 67.5731C97.9072 69.6439 96.0079 71.6215 94.0402 73.6239C90.9952 76.6836 87.6202 79.6251 84.077 82.4608V46.4977L84.0832 46.4915ZM50.0215 102.914C49.5732 103.088 49.1497 103.256 48.7014 103.412V101.994H52.3317C51.5596 102.317 50.7937 102.628 50.0215 102.914ZM58.0855 99.3572H48.7076V96.1421H64.0945C62.1081 97.2677 60.1093 98.3622 58.0855 99.3572ZM68.4721 93.5115H48.7014V90.2964H73.4849C71.8409 91.4096 70.1659 92.4855 68.4721 93.5115ZM79.8053 85.7692C78.9646 86.4159 78.1115 87.0503 77.2522 87.6659H48.7014V84.4508H79.799V85.7692H79.8053ZM79.8053 81.8203H48.7076V78.6052H79.8053V81.8203ZM79.8053 75.9746H48.7076V72.7595H79.8053V75.9746ZM79.8053 70.129H48.7076V66.9139H79.8053V70.129ZM48.7076 64.302V61.0683H79.8053V64.302H48.7076ZM79.8053 58.4564H48.7076V55.2413H79.8053V58.4564ZM79.8053 52.6107H48.7076V49.3956H79.8053V52.6107ZM79.8053 46.7651H48.7076V43.55H79.8053V46.7651ZM79.8053 37.7044V40.9195H48.7076V37.7044H79.8053ZM46.9952 2.43776H64.8231V4.69517H46.9952V2.43776ZM46.9952 6.47373H64.8231V8.73114H46.9952V6.47373ZM46.9952 10.5097H64.8231V12.7671H46.9952V10.5097ZM46.9952 14.5457H64.8231V16.8031H46.9952V14.5457ZM46.9952 18.5817H64.8231V20.8391H46.9952V18.5817ZM46.9952 22.6176H64.8231V24.8751H46.9952V22.6176ZM46.9952 26.6536H64.8231V28.911H46.9952V26.6536ZM46.9952 30.6896H64.8231V32.947H46.9952V30.6896ZM28.8123 97.5227C29.8211 92.7342 31.876 88.2069 33.9994 84.2394C36.154 80.2594 38.3646 76.7022 40.5191 73.6737C42.1132 71.4349 43.6202 69.4201 45.0025 67.7099V104.68C43.944 105.022 42.8791 105.315 41.8206 105.57C40.4506 105.912 39.0682 106.167 37.7294 106.391C36.6895 106.534 35.7305 106.621 34.784 106.621C34.4976 106.621 34.2174 106.614 33.9309 106.596C32.7354 106.527 31.6519 106.272 30.8361 105.881C30.0142 105.452 29.4662 104.892 29.0552 104.071C28.2332 102.398 28.3391 99.8485 28.8123 97.5227Z" fill="white"/>
<path d="M17.2737 140.364H17.6785V135.737H17.2737C17.1305 136.29 16.8129 136.57 16.3272 136.57H4.74498V131.67H12.0493C12.535 131.67 12.8463 131.95 12.9895 132.503H13.4192V127.957H12.9895C12.8463 128.529 12.5287 128.815 12.0493 128.815H4.74498V124.537H16.0096C16.4953 124.537 16.8067 124.817 16.9499 125.37H17.3796V120.744H16.9499C16.8067 121.297 16.4891 121.577 16.0096 121.577H0V122.006C0.554203 122.149 0.834418 122.466 0.834418 122.945V138.15C0.834418 138.635 0.554203 138.946 0 139.089V139.518H16.3272C16.8129 139.518 17.1243 139.798 17.2737 140.351V140.364Z" fill="white"/>
<path d="M37.3745 137.621C39.2799 135.992 40.2327 133.629 40.2327 130.544C40.2327 127.46 39.2799 125.109 37.3745 123.492C35.8675 122.217 33.5635 121.583 30.475 121.583H20.4806V122.012C21.0348 122.155 21.315 122.472 21.315 122.951V138.156C21.315 138.641 21.0348 138.952 20.4806 139.095V139.524H30.475C33.5822 139.524 35.88 138.89 37.3745 137.615V137.621ZM25.2194 136.57V124.543H30.1511C32.3431 124.543 33.8998 125.066 34.8276 126.117C35.7492 127.167 36.2162 128.641 36.2162 130.544C36.2162 132.447 35.7555 133.971 34.8276 135.009C33.8998 136.048 32.3431 136.57 30.1511 136.57H25.2194Z" fill="white"/>
<path d="M48.6391 122.012V121.583H43.0597V122.012C43.6139 122.155 43.8941 122.472 43.8941 122.951V138.156C43.8941 138.641 43.6139 138.952 43.0597 139.095V139.524H48.6391V139.095C48.0787 138.952 47.8047 138.635 47.8047 138.156V122.951C47.8047 122.466 48.0849 122.155 48.6391 122.012Z" fill="white"/>
<path d="M63.9389 128.822H56.6346V124.543H67.7872C68.2729 124.543 68.5842 124.823 68.7274 125.376H69.1571V120.75H68.7274C68.5842 121.303 68.2666 121.583 67.7872 121.583H51.8896V122.012C52.4438 122.155 52.724 122.472 52.724 122.951V138.156C52.724 138.641 52.4438 138.952 51.8896 139.095V139.524H57.469V139.095C56.9148 138.952 56.6346 138.635 56.6346 138.156V131.67H63.9389C64.4246 131.67 64.7359 131.956 64.8791 132.528H65.3088V127.982H64.8791C64.7359 128.536 64.4183 128.815 63.9389 128.815V128.822Z" fill="white"/>
<path d="M77.0654 122.012V121.583H71.486V122.012C72.0402 122.155 72.3204 122.472 72.3204 122.951V138.156C72.3204 138.641 72.0402 138.952 71.486 139.095V139.524H77.0654V139.095C76.505 138.952 76.231 138.635 76.231 138.156V122.951C76.231 122.466 76.5112 122.155 77.0654 122.012Z" fill="white"/>
<path d="M77.52 117.062C77.7005 116.832 77.9621 116.701 78.2983 116.683V116.334H74.2819V116.683C74.531 116.72 74.6618 116.807 74.6618 116.95C74.6618 117.006 74.6431 117.068 74.6057 117.137L73.7464 119.263C73.6219 119.587 73.3852 119.749 73.0427 119.749V120.097H75.9009V119.749H75.8449C75.6643 119.749 75.5771 119.68 75.5771 119.531C75.5771 119.444 75.602 119.369 75.6581 119.313L77.52 117.056V117.062Z" fill="white"/>
<path d="M97.7577 127.746L100.236 124.008L99.9123 123.766C99.6445 124.002 99.439 124.114 99.2958 124.114C99.1526 124.114 98.9471 124.033 98.6731 123.872C97.6643 123.299 97.135 123.001 97.0852 122.982C95.0178 121.832 92.8259 121.26 90.5095 121.26C87.67 121.26 85.3348 121.931 83.5041 123.281C81.1129 125.022 79.9236 127.441 79.9236 130.544C79.9236 133.647 81.1192 136.079 83.5041 137.839C85.3348 139.182 87.6637 139.86 90.4846 139.86C92.9256 139.86 95.2794 139.207 97.546 137.895C98.5672 137.304 99.1526 137.006 99.2958 137.006C99.439 137.006 99.6445 137.124 99.9123 137.354L100.236 137.111L97.7577 133.374L97.409 133.616V133.965C97.409 134.412 96.9046 134.922 95.9021 135.501C94.3578 136.377 92.7201 136.819 90.9952 136.819C88.9465 136.819 87.315 136.309 86.0883 135.283C84.6499 134.083 83.9338 132.503 83.9338 130.544C83.9338 128.585 84.6499 127.037 86.0883 125.837C87.3088 124.817 88.9465 124.301 90.9952 124.301C92.7014 124.301 94.3391 124.742 95.9021 125.619C96.9108 126.191 97.409 126.695 97.409 127.124V127.503L97.7577 127.746Z" fill="white"/>
<path d="M102.932 122.012C103.487 122.155 103.767 122.472 103.767 122.951V138.156C103.767 138.641 103.487 138.952 102.932 139.095V139.524H108.512V139.095C107.958 138.952 107.677 138.635 107.677 138.156V122.951C107.677 122.466 107.958 122.155 108.512 122.012V121.583H102.932V122.012Z" fill="white"/>
<path d="M121.682 139.854C124.789 139.854 127.261 139.002 129.092 137.298C131.035 135.507 132 133.299 132 130.681C132 127.883 131.029 125.588 129.092 123.791C127.274 122.105 124.795 121.26 121.657 121.26C118.519 121.26 116.14 122.105 114.272 123.791C112.329 125.551 111.364 127.802 111.364 130.544C111.364 133.287 112.335 135.507 114.272 137.298C116.102 139.002 118.575 139.854 121.682 139.854ZM117.142 126.061C118.319 124.885 119.826 124.301 121.657 124.301C123.488 124.301 125.044 124.891 126.221 126.061C127.398 127.236 127.984 128.766 127.984 130.65C127.984 132.429 127.386 133.896 126.19 135.065C124.995 136.234 123.488 136.813 121.676 136.813C119.864 136.813 118.332 136.228 117.149 135.053C115.965 133.878 115.368 132.385 115.368 130.575C115.368 128.766 115.953 127.242 117.13 126.067L117.142 126.061Z" fill="white"/>
<path d="M12.1364 152.378H11.7068V156.551H12.1364C12.2796 155.998 12.5972 155.718 13.0767 155.718H17.5228V158.168C16.0283 159.026 14.2162 159.462 12.0804 159.462C9.94452 159.462 8.31928 158.889 7.04274 157.751C5.7662 156.613 5.13105 155.108 5.13105 153.243C5.13105 151.377 5.75998 149.885 7.01783 148.709C8.27569 147.534 9.90093 146.949 11.8936 146.949C12.8089 146.949 13.7866 147.092 14.8327 147.378C15.8726 147.665 16.6572 148.007 17.1803 148.398C17.5726 148.703 17.7719 149.07 17.7719 149.499L18.1517 149.686L20.2564 145.382L19.9077 145.196C19.6711 145.413 19.4594 145.519 19.2601 145.519C18.9924 145.519 18.5627 145.401 17.9649 145.171C15.8104 144.325 13.8053 143.908 11.9558 143.908C8.66799 143.908 6.04019 144.754 4.07246 146.439C2.10473 148.125 1.12086 150.376 1.12086 153.193C1.12086 156.01 2.07982 158.286 4.00396 159.971C5.92811 161.657 8.4874 162.503 11.6819 162.503C14.8763 162.503 18.2389 161.526 21.5952 159.567V159.244C21.041 159.082 20.7608 158.759 20.7608 158.274V154.586C20.7608 154.101 21.041 153.79 21.5952 153.647V153.218H13.0829C12.5972 153.218 12.2859 152.938 12.1427 152.385L12.1364 152.378Z" fill="white"/>
<path d="M34.5287 143.902C31.4775 143.902 29.0116 144.748 27.1435 146.433C25.2007 148.193 24.2355 150.444 24.2355 153.187C24.2355 155.929 25.2069 158.149 27.1435 159.94C28.9742 161.644 31.4464 162.496 34.5536 162.496C37.6609 162.496 40.133 161.644 41.9638 159.94C43.9066 158.149 44.8718 155.942 44.8718 153.324C44.8718 150.525 43.9004 148.23 41.9638 146.433C40.1517 144.748 37.6671 143.902 34.5287 143.902ZM39.0682 157.708C37.8726 158.877 36.3719 159.455 34.5536 159.455C32.7354 159.455 31.2097 158.871 30.0266 157.695C28.8435 156.52 28.2457 155.028 28.2457 153.218C28.2457 151.408 28.831 149.885 30.0079 148.709C31.1848 147.534 32.6918 146.949 34.5225 146.949C36.3532 146.949 37.9162 147.54 39.0869 148.709C40.2638 149.885 40.8491 151.414 40.8491 153.299C40.8491 155.077 40.2513 156.545 39.0558 157.714L39.0682 157.708Z" fill="white"/>
<path d="M63.5217 159.213H52.45V145.594C52.45 145.109 52.7303 144.798 53.2845 144.655V144.226H47.7051V144.655C48.2593 144.798 48.5395 145.115 48.5395 145.594V160.799C48.5395 161.284 48.2593 161.595 47.7051 161.738V162.167H63.5217C64.0074 162.167 64.3187 162.447 64.4619 163H64.8916V158.373H64.4619C64.3187 158.927 64.0011 159.207 63.5217 159.207V159.213Z" fill="white"/>
<path d="M83.6785 146.135C82.1715 144.86 79.8675 144.226 76.7789 144.226H66.7846V144.655C67.3388 144.798 67.619 145.115 67.619 145.594V160.799C67.619 161.284 67.3388 161.595 66.7846 161.738V162.167H76.7789C79.8862 162.167 82.184 161.532 83.6785 160.258C85.5839 158.628 86.5367 156.265 86.5367 153.181C86.5367 150.096 85.5839 147.745 83.6785 146.129V146.135ZM81.1316 157.652C80.2038 158.69 78.647 159.213 76.4551 159.213H71.5234V147.186H76.4551C78.647 147.186 80.2038 147.708 81.1316 148.759C82.0594 149.81 82.5202 151.284 82.5202 153.187C82.5202 155.09 82.0594 156.613 81.1316 157.652Z" fill="white"/>
<path d="M105.691 159.213H94.1025V154.312H101.407C101.892 154.312 102.204 154.592 102.347 155.146H102.777V150.6H102.347C102.204 151.172 101.886 151.458 101.407 151.458H94.1025V147.179H105.367C105.853 147.179 106.164 147.459 106.307 148.013H106.737V143.386H106.307C106.164 143.94 105.847 144.219 105.367 144.219H89.3637V144.648C89.9179 144.791 90.1981 145.109 90.1981 145.587V160.792C90.1981 161.277 89.9179 161.588 89.3637 161.731V162.16H105.691C106.177 162.16 106.488 162.44 106.631 162.994H107.036V158.367H106.631C106.488 158.921 106.17 159.2 105.691 159.2V159.213Z" fill="white"/>
<path d="M124.826 144.655C125.381 144.798 125.661 145.115 125.661 145.594V156.253L115.748 145.948C115.511 145.699 115.399 145.463 115.399 145.245C115.399 144.922 115.586 144.723 115.965 144.655V144.226H109.851V144.655C110.405 144.798 110.685 145.115 110.685 145.594V160.799C110.685 161.284 110.405 161.595 109.851 161.738V162.167H115.106V161.738C114.552 161.595 114.272 161.277 114.272 160.799V149.872L124.378 160.258C124.789 160.687 125.001 160.991 125.001 161.172C125.001 161.476 124.82 161.663 124.459 161.738V162.167H130.088V161.738C129.534 161.595 129.254 161.277 129.254 160.799V145.594C129.254 145.109 129.534 144.798 130.088 144.655V144.226H124.833V144.655H124.826Z" fill="white"/>
</svg>
