<svg xmlns="http://www.w3.org/2000/svg" xmlns:xlink="http://www.w3.org/1999/xlink" viewBox="0 0 263.36 134.34"><defs><style>.cls-1{fill:#f3f3f3;}.cls-2{clip-path:url(#clip-path);}.cls-3{clip-path:url(#clip-path-2);}</style><clipPath id="clip-path" transform="translate(0.08)"><path class="cls-1" d="M37.54,40.33V37.56a1.37,1.37,0,0,1,1.38-1.37H40a1.37,1.37,0,0,1,1.38,1.37v2.77A1.38,1.38,0,0,1,40,41.71H38.92a1.38,1.38,0,0,1-1.38-1.38m7.86,0V37.56a1.37,1.37,0,0,1,1.38-1.37h1.06a1.37,1.37,0,0,1,1.38,1.37v2.77a1.38,1.38,0,0,1-1.38,1.38H46.78a1.38,1.38,0,0,1-1.38-1.38m7.86,0V37.56a1.37,1.37,0,0,1,1.37-1.37H55.7a1.37,1.37,0,0,1,1.38,1.37v2.77a1.38,1.38,0,0,1-1.38,1.38H54.63a1.37,1.37,0,0,1-1.37-1.38M47.21,0a1.14,1.14,0,0,0-1.1,1.14V13.69a16.84,16.84,0,0,0-15.57,14.7H27.9a.9.9,0,0,0-.9.9v2.38a.9.9,0,0,0,.9.9h3.85V45.32h-8.3a1.39,1.39,0,0,0-1.29,1.92l1.41,3.48a1.39,1.39,0,0,0,1.29.87h6.89l-1.33,19a10.91,10.91,0,0,0,.26,3.27c.78,3.28,2.59,9.2,4.4,14.9,2.39,7.51,4.79,14.64,4.82,14.8a31.86,31.86,0,0,0,6.44-4.5l.39-.35c2.29-2.06,4.65-4.18,6.73-6.43,2.65-2.86,5.2-5.93,7.67-8.9l1.11-1.33C63.1,81,64,80,64.77,78.86l-1.9-27.27h6.89a1.39,1.39,0,0,0,1.29-.87l1.41-3.48a1.39,1.39,0,0,0-1.29-1.92h-8.3V32.57h3.85a.9.9,0,0,0,.9-.9V29.29a.9.9,0,0,0-.9-.9H64a16.83,16.83,0,0,0-15.56-14.7V1.21a1.18,1.18,0,0,0-1-1.2h-.16Z"/></clipPath><clipPath id="clip-path-2" transform="translate(0.08)"><path class="cls-1" d="M27.38,38.67a33.06,33.06,0,0,0-27,30.91A4.82,4.82,0,0,0,.05,72.2c.29,2.18.59,4.2.92,6.18A100.49,100.49,0,0,0,4.09,91.81c.84,2.73,1.75,5.64,2.77,8.48.61,1.69,1.32,3.33,2,4.92.24.56.48,1.11.71,1.67a68.35,68.35,0,0,0,6.66,12.42,41.56,41.56,0,0,0,8.53,9.45A24,24,0,0,0,40,134.34c.7,0,1.41,0,2.12-.09A31.1,31.1,0,0,0,54.4,130c.6-.33,3.78-2.14,4.43-2.63l.86-.63c1-.76,2.09-1.54,3.12-2.41,2.44-2.05,4.62-3.92,6.75-5.92s4.24-4.19,6.15-6.2,3.74-4,5.58-6.17a73.35,73.35,0,0,0,5.08-6.65,101.75,101.75,0,0,0,5.17-8.87,38.06,38.06,0,0,0,2.12-5.26l0-.08c.13-.39.27-.79.41-1.18a32,32,0,0,0,1.22-4.37h0a21.74,21.74,0,0,0,.55-5.23c0-.58,0-1.16,0-1.73a20,20,0,0,0-2.08-8.17A27.73,27.73,0,0,0,90,59a27,27,0,0,0-5.5-4.82,45.15,45.15,0,0,0-8.77-5.28l-1,2.34C83.65,55.44,92.42,63,93.34,73a27.07,27.07,0,0,1-1.63,10.23l-.42,1.21,0,.09a37.12,37.12,0,0,1-2,4.92A98.13,98.13,0,0,1,84.24,98a65.78,65.78,0,0,1-4.9,6.41c-1.79,2.15-3.69,4.17-5.47,6s-3.9,4.09-6,6.1-4.25,3.8-6.65,5.84c-1,.81-2,1.56-3,2.3l-.87.63a3.46,3.46,0,0,1-1.14.61,1.79,1.79,0,0,1-.86,0l-1.24-.29A9.54,9.54,0,0,1,55.15,124c2.49-3.32,5.08-6.55,7.59-9.86A85.59,85.59,0,0,0,72.2,99c1.47-3.12,2.55-6.31,2.49-9,0-5.26-1.85-8.75-5.62-11.29-.44-.29-.7-.25-1,.23-1,1.38-1.94,2.75-3,4-3.34,4-6.61,8-10.14,11.86-2.25,2.44-4.76,4.67-7.24,6.89A32,32,0,0,1,37.44,108a13.64,13.64,0,0,1-12.52-1.32,23.08,23.08,0,0,1-6.21-5.77,65.47,65.47,0,0,1-7-11.47C9.48,84.77,7.47,80,5.36,75.32A25.59,25.59,0,0,0,3.47,71.2a6.18,6.18,0,0,1-.25-.57,3.93,3.93,0,0,1-.28-1.76,30.53,30.53,0,0,1,24.9-27.72c.54-.1,1.1-.19,1.65-.26l-.32-2.5h0c-.6.08-1.2.17-1.79.28"/></clipPath></defs><g id="Camada_2" data-name="Camada 2"><g id="Camada_1-2" data-name="Camada 1"><polygon class="cls-1" points="103.72 57.2 127.24 57.2 127.24 65.21 113.53 65.21 113.53 71.97 126.43 71.97 126.43 79.9 113.53 79.9 113.53 93.83 103.72 93.83 103.72 57.2"/><path class="cls-1" d="M139.49,85.34l-2.07,8.49H127.27L137.9,57.2H151l10.92,36.63h-10.6L149,85.34Zm8.12-7.25-1.7-6.59c-.56-2.06-1.25-5-1.82-7.21H144c-.54,2.16-1.08,5.18-1.61,7.26l-1.58,6.54Z" transform="translate(0.08)"/><path class="cls-1" d="M166.58,57.7a80.63,80.63,0,0,1,11.83-.79c5.61,0,9.63.78,12.39,2.86,2.35,1.79,3.61,4.4,3.61,8a9.76,9.76,0,0,1-6.27,8.86v.19c2.43,1,3.75,3.39,4.68,6.57,1.1,3.72,2.31,9,3,10.46h-10a46.28,46.28,0,0,1-2.56-8.44c-1-4.39-2.34-5.3-5.37-5.3h-1.59V93.83h-9.71Zm9.71,15.35h2.55c3.7,0,5.83-1.8,5.83-4.55s-1.8-4.3-5.07-4.33a15.25,15.25,0,0,0-3.31.22Z" transform="translate(0.08)"/><path class="cls-1" d="M234.11,75.15c0,11.77-7.08,19.27-18.38,19.27s-17.59-8.51-17.59-18.69c0-10.67,7-19.13,18.2-19.13,11.78,0,17.77,8.74,17.77,18.55m-25.59.4c0,6.89,3,11.1,7.69,11.1s7.52-4.59,7.52-11.19c0-6.31-2.82-11.09-7.58-11.09s-7.63,4.44-7.63,11.18" transform="translate(0.08)"/><polygon class="cls-1" points="239.42 57.2 249.23 57.2 249.23 85.61 263.33 85.61 263.33 93.83 239.42 93.83 239.42 57.2"/><path class="cls-1" d="M103.55,100.45a12,12,0,0,1,2.06-.17,3.45,3.45,0,0,1,2.33.69,2.27,2.27,0,0,1,.73,1.74,2.44,2.44,0,0,1-.65,1.77,3.4,3.4,0,0,1-2.53.91,3.83,3.83,0,0,1-.87-.07v3.32h-1.07Zm1.07,4a3.26,3.26,0,0,0,.89.1c1.3,0,2.08-.64,2.08-1.77s-.78-1.64-2-1.64a5.13,5.13,0,0,0-1,.09Z" transform="translate(0.08)"/><path class="cls-1" d="M111.8,100.46a11.19,11.19,0,0,1,2.06-.18,3.41,3.41,0,0,1,2.4.69,2.05,2.05,0,0,1,.65,1.57,2.2,2.2,0,0,1-1.56,2.12v0a2.1,2.1,0,0,1,1.21,1.68,14.48,14.48,0,0,0,.64,2.27h-1.11a10.42,10.42,0,0,1-.54-2c-.25-1.14-.7-1.58-1.67-1.61h-1v3.59H111.8Zm1.07,3.78H114c1.15,0,1.87-.63,1.87-1.58s-.77-1.54-1.9-1.54a4.55,4.55,0,0,0-1.06.09Z" transform="translate(0.08)"/><path class="cls-1" d="M127.24,104.41c0,2.85-1.73,4.37-3.84,4.37s-3.73-1.71-3.73-4.21,1.62-4.36,3.84-4.36,3.73,1.74,3.73,4.2m-6.44.13c0,1.78,1,3.37,2.65,3.37s2.66-1.57,2.66-3.45c0-1.65-.86-3.38-2.64-3.38s-2.67,1.65-2.67,3.46" transform="translate(0.08)"/><polygon class="cls-1" points="131.68 101.25 129.16 101.25 129.16 100.35 135.3 100.35 135.3 101.25 132.76 101.25 132.76 108.64 131.68 108.64 131.68 101.25"/><polygon class="cls-1" points="142.2 104.75 138.99 104.75 138.99 107.75 142.59 107.75 142.59 108.64 137.91 108.64 137.91 100.35 142.4 100.35 142.4 101.24 138.99 101.24 138.99 103.87 142.2 103.87 142.2 104.75"/><path class="cls-1" d="M147.91,98.47l-1.56,1.44h-.88l1.13-1.44Zm-1.25,10.17h-1.08v-8.29h1.08Z" transform="translate(0.08)"/><path class="cls-1" d="M150.22,108.64v-8.29h1.18l2.66,4.19a24,24,0,0,1,1.48,2.7h0c-.1-1.11-.12-2.12-.12-3.41v-3.47h1v8.29h-1.09l-2.64-4.2a26.85,26.85,0,0,1-1.54-2.78h0c.07,1.06.08,2,.08,3.43v3.54Z" transform="translate(0.08)"/><path class="cls-1" d="M161.36,106l-.85,2.6H159.4l2.82-8.29h1.29l2.83,8.29h-1.15l-.89-2.6Zm2.73-.84-.82-2.39c-.18-.54-.31-1-.43-1.51h0c-.12.48-.25,1-.41,1.5l-.82,2.4Z" transform="translate(0.08)"/><path class="cls-1" d="M169.11,107.34a3.73,3.73,0,0,0,1.91.53c1.1,0,1.74-.57,1.74-1.41s-.45-1.22-1.57-1.64c-1.35-.48-2.19-1.19-2.19-2.35s1.07-2.25,2.69-2.25a3.75,3.75,0,0,1,1.83.4l-.3.88a3.13,3.13,0,0,0-1.57-.4c-1.14,0-1.57.68-1.57,1.24,0,.77.51,1.15,1.65,1.6,1.41.55,2.12,1.22,2.12,2.44s-.94,2.39-2.9,2.39a4.21,4.21,0,0,1-2.12-.54Z" transform="translate(0.08)"/><polygon class="cls-1" points="185.69 104.75 182.47 104.75 182.47 107.75 186.07 107.75 186.07 108.64 181.4 108.64 181.4 100.35 185.88 100.35 185.88 101.24 182.47 101.24 182.47 103.87 185.69 103.87 185.69 104.75"/><path class="cls-1" d="M199.7,108.27a7.62,7.62,0,0,1-2.55.45,3.89,3.89,0,0,1-4.26-4.17,4.16,4.16,0,0,1,4.49-4.28,5.24,5.24,0,0,1,2.07.38l-.27.87a4.21,4.21,0,0,0-1.83-.36,3.1,3.1,0,0,0-3.33,3.33,3,3,0,0,0,3.2,3.35,3.49,3.49,0,0,0,1.42-.22v-2.47H197v-.86h2.73Z" transform="translate(0.08)"/><path class="cls-1" d="M210.12,104.41c0,2.85-1.74,4.37-3.85,4.37s-3.73-1.71-3.73-4.21,1.63-4.36,3.84-4.36,3.74,1.74,3.74,4.2m-6.45.13c0,1.78,1,3.37,2.66,3.37s2.65-1.57,2.65-3.45c0-1.65-.86-3.38-2.64-3.38s-2.67,1.65-2.67,3.46" transform="translate(0.08)"/><path class="cls-1" d="M213.2,100.46a11.19,11.19,0,0,1,2.06-.18,3.38,3.38,0,0,1,2.4.69,2.05,2.05,0,0,1,.65,1.57,2.19,2.19,0,0,1-1.56,2.12v0a2.12,2.12,0,0,1,1.22,1.68,13.74,13.74,0,0,0,.63,2.27h-1.11a10.42,10.42,0,0,1-.54-2c-.25-1.14-.7-1.58-1.67-1.61h-1v3.59H213.2Zm1.07,3.78h1.09c1.15,0,1.88-.63,1.88-1.58s-.78-1.54-1.91-1.54a4.55,4.55,0,0,0-1.06.09Z" transform="translate(0.08)"/><path class="cls-1" d="M221.52,100.46a15.07,15.07,0,0,1,2.28-.18,4.76,4.76,0,0,1,3.36,1,3.78,3.78,0,0,1,1.17,3,4.42,4.42,0,0,1-1.19,3.23,5.18,5.18,0,0,1-3.67,1.19,17.88,17.88,0,0,1-1.95-.09Zm1.07,7.34a8.32,8.32,0,0,0,1.08,0,3.18,3.18,0,0,0,3.53-3.52c0-2-1.09-3.19-3.35-3.19a6.26,6.26,0,0,0-1.26.11Z" transform="translate(0.08)"/><path class="cls-1" d="M232.48,100.35v4.91c0,1.85.82,2.64,1.94,2.64s2-.81,2-2.64v-4.91h1.08v4.84c0,2.55-1.34,3.59-3.14,3.59s-3-1-3-3.55v-4.88Z" transform="translate(0.08)"/><path class="cls-1" d="M241.07,100.46a11.19,11.19,0,0,1,2.06-.18,3.38,3.38,0,0,1,2.4.69,2.05,2.05,0,0,1,.65,1.57,2.19,2.19,0,0,1-1.56,2.12v0a2.12,2.12,0,0,1,1.22,1.68,13.74,13.74,0,0,0,.63,2.27h-1.11a10.42,10.42,0,0,1-.54-2c-.25-1.14-.7-1.58-1.67-1.61h-1v3.59h-1.07Zm1.07,3.78h1.09c1.15,0,1.88-.63,1.88-1.58s-.78-1.54-1.91-1.54a4.55,4.55,0,0,0-1.06.09Z" transform="translate(0.08)"/><path class="cls-1" d="M250.79,106l-.85,2.6h-1.11l2.82-8.29h1.29l2.83,8.29h-1.15l-.89-2.6Zm2.73-.84-.82-2.39c-.18-.54-.31-1-.43-1.51h0c-.12.48-.25,1-.41,1.5l-.82,2.4Z" transform="translate(0.08)"/><path class="cls-1" d="M258.54,107.34a3.73,3.73,0,0,0,1.91.53c1.1,0,1.74-.57,1.74-1.41s-.45-1.22-1.57-1.64c-1.35-.48-2.19-1.19-2.19-2.35s1.07-2.25,2.69-2.25a3.75,3.75,0,0,1,1.83.4l-.3.88a3.13,3.13,0,0,0-1.57-.4c-1.14,0-1.57.68-1.57,1.24,0,.77.51,1.15,1.65,1.6,1.41.55,2.12,1.22,2.12,2.44s-.94,2.39-2.9,2.39a4.21,4.21,0,0,1-2.12-.54Z" transform="translate(0.08)"/><path class="cls-1" d="M37.54,40.33V37.56a1.37,1.37,0,0,1,1.38-1.37H40a1.37,1.37,0,0,1,1.38,1.37v2.77A1.38,1.38,0,0,1,40,41.71H38.92a1.38,1.38,0,0,1-1.38-1.38m7.86,0V37.56a1.37,1.37,0,0,1,1.38-1.37h1.06a1.37,1.37,0,0,1,1.38,1.37v2.77a1.38,1.38,0,0,1-1.38,1.38H46.78a1.38,1.38,0,0,1-1.38-1.38m7.86,0V37.56a1.37,1.37,0,0,1,1.37-1.37H55.7a1.37,1.37,0,0,1,1.38,1.37v2.77a1.38,1.38,0,0,1-1.38,1.38H54.63a1.37,1.37,0,0,1-1.37-1.38M47.21,0a1.14,1.14,0,0,0-1.1,1.14V13.69a16.84,16.84,0,0,0-15.57,14.7H27.9a.9.9,0,0,0-.9.9v2.38a.9.9,0,0,0,.9.9h3.85V45.32h-8.3a1.39,1.39,0,0,0-1.29,1.92l1.41,3.48a1.39,1.39,0,0,0,1.29.87h6.89l-1.33,19a10.91,10.91,0,0,0,.26,3.27c.78,3.28,2.59,9.2,4.4,14.9,2.39,7.51,4.79,14.64,4.82,14.8a31.86,31.86,0,0,0,6.44-4.5l.39-.35c2.29-2.06,4.65-4.18,6.73-6.43,2.65-2.86,5.2-5.93,7.67-8.9l1.11-1.33C63.1,81,64,80,64.77,78.86l-1.9-27.27h6.89a1.39,1.39,0,0,0,1.29-.87l1.41-3.48a1.39,1.39,0,0,0-1.29-1.92h-8.3V32.57h3.85a.9.9,0,0,0,.9-.9V29.29a.9.9,0,0,0-.9-.9H64a16.83,16.83,0,0,0-15.56-14.7V1.21a1.18,1.18,0,0,0-1-1.2h-.16Z" transform="translate(0.08)"/><g class="cls-2"><rect class="cls-1" x="21.87" width="51.04" height="103.59"/></g><path class="cls-1" d="M27.38,38.67a33.06,33.06,0,0,0-27,30.91A4.82,4.82,0,0,0,.05,72.2c.29,2.18.59,4.2.92,6.18A100.49,100.49,0,0,0,4.09,91.81c.84,2.73,1.75,5.64,2.77,8.48.61,1.69,1.32,3.33,2,4.92.24.56.48,1.11.71,1.67a68.35,68.35,0,0,0,6.66,12.42,41.56,41.56,0,0,0,8.53,9.45A24,24,0,0,0,40,134.34c.7,0,1.41,0,2.12-.09A31.1,31.1,0,0,0,54.4,130c.6-.33,3.78-2.14,4.43-2.63l.86-.63c1-.76,2.09-1.54,3.12-2.41,2.44-2.05,4.62-3.92,6.75-5.92s4.24-4.19,6.15-6.2,3.74-4,5.58-6.17a73.35,73.35,0,0,0,5.08-6.65,101.75,101.75,0,0,0,5.17-8.87,38.06,38.06,0,0,0,2.12-5.26l0-.08c.13-.39.27-.79.41-1.18a32,32,0,0,0,1.22-4.37h0a21.74,21.74,0,0,0,.55-5.23c0-.58,0-1.16,0-1.73a20,20,0,0,0-2.08-8.17A27.73,27.73,0,0,0,90,59a27,27,0,0,0-5.5-4.82,45.15,45.15,0,0,0-8.77-5.28l-1,2.34C83.65,55.44,92.42,63,93.34,73a27.07,27.07,0,0,1-1.63,10.23l-.42,1.21,0,.09a37.12,37.12,0,0,1-2,4.92A98.13,98.13,0,0,1,84.24,98a65.78,65.78,0,0,1-4.9,6.41c-1.79,2.15-3.69,4.17-5.47,6s-3.9,4.09-6,6.1-4.25,3.8-6.65,5.84c-1,.81-2,1.56-3,2.3l-.87.63a3.46,3.46,0,0,1-1.14.61,1.79,1.79,0,0,1-.86,0l-1.24-.29A9.54,9.54,0,0,1,55.15,124c2.49-3.32,5.08-6.55,7.59-9.86A85.59,85.59,0,0,0,72.2,99c1.47-3.12,2.55-6.31,2.49-9,0-5.26-1.85-8.75-5.62-11.29-.44-.29-.7-.25-1,.23-1,1.38-1.94,2.75-3,4-3.34,4-6.61,8-10.14,11.86-2.25,2.44-4.76,4.67-7.24,6.89A32,32,0,0,1,37.44,108a13.64,13.64,0,0,1-12.52-1.32,23.08,23.08,0,0,1-6.21-5.77,65.47,65.47,0,0,1-7-11.47C9.48,84.77,7.47,80,5.36,75.32A25.59,25.59,0,0,0,3.47,71.2a6.18,6.18,0,0,1-.25-.57,3.93,3.93,0,0,1-.28-1.76,30.53,30.53,0,0,1,24.9-27.72c.54-.1,1.1-.19,1.65-.26l-.32-2.5h0c-.6.08-1.2.17-1.79.28" transform="translate(0.08)"/><g class="cls-3"><rect class="cls-1" y="38.39" width="96" height="95.95"/></g></g></g></svg>