<svg xmlns="http://www.w3.org/2000/svg" viewBox="0 0 269.66 49.71"><defs><style>.cls-1{fill:#fff;}.cls-2{fill:#fefefe;}</style></defs><g id="Camada_2" data-name="Camada 2"><g id="Camada_1-2" data-name="Camada 1"><path class="cls-1" d="M49,36.26c0,3.65,0,7.29,0,10.94,0,.91-.25,1.25-1.21,1.24-2.52,0-2.53,0-2.76-2.5-.16-1.7-.27-3.42-.42-5.12,0-.31.12-.76-.22-.87s-.54.37-.74.63a22.5,22.5,0,0,1-8.23,7.05,20.59,20.59,0,0,1-6.79,1.85A31.49,31.49,0,0,1,15,48.23,20.29,20.29,0,0,1,1.84,35.33a28.1,28.1,0,0,1-.06-19.85C5.15,6.6,11.91,1.9,21.16.66A27.83,27.83,0,0,1,37.58,3c5.12,2.53,8.74,6.36,10.17,12,.24.95.06,1.32-1,1.27s-2.21,0-3.32,0a.82.82,0,0,1-1-.65C40.71,9.54,36.2,6.54,30.27,5.33a24.85,24.85,0,0,0-12.52.59A16.45,16.45,0,0,0,6.26,18a26.88,26.88,0,0,0,.52,16c2.1,6.12,6.44,9.73,12.81,10.84a27.68,27.68,0,0,0,11.81-.41c6.58-1.69,10.52-6,12.29-12.48.19-.69.32-1.39.52-2.08s0-1.16-.9-1.15c-3.26,0-6.51,0-9.77,0-1.78,0-3.57,0-5.36,0-.8,0-1-.3-1.06-1.07-.12-3.38-.14-3.4,3.29-3.42,5.73,0,11.45,0,17.17-.1,1.05,0,1.33.34,1.31,1.35,0,3.57,0,7.15,0,10.72Z"/><path class="cls-1" d="M118.13,20.61c-1-7.33-4.49-13.12-10.94-16.93A28.23,28.23,0,0,0,89.72.16,25.19,25.19,0,0,0,74.83,6.34c-5.41,4.86-7.54,11.12-7.49,18.23,0,.82-.07,1.65,0,2.46.88,9.93,5.74,17,15.19,20.53a29.18,29.18,0,0,0,20.28.1,22,22,0,0,0,13.7-12.73A27.17,27.17,0,0,0,118.13,20.61Zm-6.48,12.62a17,17,0,0,1-11.13,10.39C93.69,45.77,87,45.37,80.81,41.53A16.94,16.94,0,0,1,73.08,30a25,25,0,0,1,.26-11.89A17.13,17.13,0,0,1,84.13,6.08,23.34,23.34,0,0,1,101.33,6c7.34,2.82,10.92,8.51,11.68,16.16.08.84,0,1.71,0,2.57A20.4,20.4,0,0,1,111.65,33.23Z"/><path class="cls-1" d="M213.88,32.38,228,32.31c4.93,0,9.87-.09,14.8-.09,1,0,1.28-.35,1.16-1.26-.1-.71-.1-1.43-.19-2.14C242.93,22,239.6,17.1,232.87,15a22.64,22.64,0,0,0-13.63-.13,15,15,0,0,0-9.94,9.08A19.25,19.25,0,0,0,208,31.17c.05.79.05,1.58.15,2.35.79,6.32,3.68,11.23,9.84,13.56a22,22,0,0,0,16.64-.39,14.84,14.84,0,0,0,8.19-8.49c.49-1.2.45-1.26-.81-1.25-.64,0-1.29,0-1.93,0a1.63,1.63,0,0,0-1.92,1.21,9.27,9.27,0,0,1-6.54,5.69,21.14,21.14,0,0,1-8.3.54,11.78,11.78,0,0,1-10.61-10.65C212.55,32.46,212.61,32.39,213.88,32.38Zm-1.09-4.76c1.24-5.6,5.55-9.25,11.59-9.73,4.25-.33,8.21.41,11.4,3.53a12.78,12.78,0,0,1,3.4,6.34c.24.95-.26,1-1,1-4.11,0-8.22,0-12.33,0v.1H213.76C212.59,28.85,212.53,28.79,212.79,27.62Z"/><path class="cls-1" d="M169.31,44.47H169c-1.67,0-2.43-.66-2.63-2.33a22.49,22.49,0,0,1-.1-2.46c0-5.29,0-10.58-.12-15.87-.07-4.48-2.07-7.21-6.36-8.43a31.06,31.06,0,0,0-15.5-.26c-4.93,1.12-7.58,4.4-8.41,9.29-.13.77,0,1.07.84,1a10.06,10.06,0,0,1,1.82,0c1,.11,1.53-.21,1.69-1.33a6,6,0,0,1,4.44-5,16.08,16.08,0,0,1,4-.76,24.67,24.67,0,0,1,9.56.77,4.9,4.9,0,0,1,3.36,3.2c1.17,3.5.1,5.27-3.51,5.86-3.11.52-6.26.59-9.39.88a28.55,28.55,0,0,0-8.58,1.74c-3.54,1.47-5.56,4-5.68,7.93a8.54,8.54,0,0,0,5.17,8.51c3.71,1.86,7.67,1.85,11.64,1.34,4.3-.54,8.1-2.08,10.7-5.79.05-.08.17-.1.39-.23.08.62.13,1.11.21,1.6a4,4,0,0,0,4,3.78,15.48,15.48,0,0,0,3.84-.24c.75-.1,1-.47,1-1.22C171.25,44,171.34,44.43,169.31,44.47Zm-14.79-.24a16.66,16.66,0,0,1-11.54.25,5.58,5.58,0,0,1-3.88-6.66,4.49,4.49,0,0,1,2.18-3.27A12.5,12.5,0,0,1,146,33c4-.59,8.11-.75,12.12-1.43a11.82,11.82,0,0,0,3-.85c.58-.26.81-.06.81.52v2.36C162,39.25,159.9,42.27,154.52,44.23Z"/><path class="cls-1" d="M188.78,48.66A28.83,28.83,0,0,1,179,47.18c-3.82-1.45-6.28-4-6.73-8.21-.14-1.35-.09-1.43,1.22-1.43a7.25,7.25,0,0,1,2.65.12c.8.34.62,1.5.94,2.27a6.85,6.85,0,0,0,5.29,4.24,29,29,0,0,0,12,0,8.34,8.34,0,0,0,2.78-1.1,5,5,0,0,0,2.26-5c-.11-1.93-1.38-2.89-3-3.49a35,35,0,0,0-8.3-1.56,41.8,41.8,0,0,1-9.47-1.73c-2.89-1-4.88-2.82-5.31-6A8.42,8.42,0,0,1,176.61,17a13.12,13.12,0,0,1,6.54-2.5,27.35,27.35,0,0,1,12.92,1c3.83,1.39,5.86,4.26,6.54,8.2.13.74-.11,1.09-.88,1a.81.81,0,0,0-.22,0c-1.95.32-3.26-.06-3.94-2.31s-2.75-3.39-5-3.86a23.79,23.79,0,0,0-9.8,0c-2.18.47-4.08,1.41-4.71,3.84s.26,4.15,2.67,4.93c3.28,1.06,6.72,1.3,10.11,1.79a47.28,47.28,0,0,1,7.54,1.61c2.92.92,5.13,2.52,5.62,5.79.53,3.5-.27,6.54-3.07,8.87-2.44,2-5.38,2.73-8.44,3.09C191.14,48.56,189.82,48.59,188.78,48.66Z"/><path class="cls-1" d="M254.45,21.84c.49-.87.89-1.58,1.3-2.28,3-5.18,8.44-6.3,13.12-5.7a.76.76,0,0,1,.78.91,23.61,23.61,0,0,0,0,2.79c0,.85-.19,1.12-1.09,1a16.3,16.3,0,0,0-5.66,0,10.36,10.36,0,0,0-8.49,9.77c-.33,4.17,0,8.35-.06,12.53,0,1.75,0,3.51,0,5.25,0,.87-.31,1.1-1.12,1.12-3.54.07-3.54.09-3.56-3.41-.05-9.22-.08-18.44-.17-27.66,0-1,.24-1.52,1.36-1.41a13,13,0,0,0,2.25,0c.81,0,1.06.32,1,1.08,0,1.57,0,3.14,0,4.71A2.14,2.14,0,0,0,254.45,21.84Z"/><path class="cls-1" d="M129.1,25.43c0,7.07,0,14.15,0,21.22,0,1.05-.32,1.41-1.34,1.32a12.75,12.75,0,0,0-2.14,0c-.91.07-1.17-.32-1.17-1.18,0-4.11,0-8.22-.06-12.33q-.09-15-.17-30c0-1.45,0-1.46,1.47-1.47.65,0,1.3,0,1.93,0,.94-.09,1.24.27,1.24,1.22,0,4.07,0,8.14.06,12.22,0,3,0,6,0,9Z"/><path class="cls-1" d="M61.44,32.08V46.86c0,1.45,0,1.49-1.49,1.5H58.23c-1.42,0-1.43,0-1.44-1.38q0-8.83-.08-17.67c0-4,0-8.06-.09-12.1,0-1,.27-1.36,1.32-1.37,3.34,0,3.34-.06,3.34,3.28v13Z"/><path class="cls-2" d="M61.24,6.74c0,.86,0,1.72,0,2.57,0,.7-.29,1-1,.94-.93,0-1.86,0-2.79,0-.63,0-.91-.25-.91-.88,0-1.72,0-3.43,0-5.14,0-.64.28-.91.91-.88.43,0,.86,0,1.29,0,2.73,0,2.43-.54,2.48,2.52v.85Z"/></g></g></svg>