<svg xmlns="http://www.w3.org/2000/svg" viewBox="0 0 391.14 128"><defs><style>.cls-1{fill:#fff;}</style></defs><g id="Camada_2" data-name="Camada 2"><g id="Camada_1-2" data-name="Camada 1"><path class="cls-1" d="M71.23,127.23c1.63.62-23.12-7.3-21.7-60.92,0,0-22.09-1.93-33.58-28.09a3.76,3.76,0,0,1,.68-4.07l4.5-4.86a1.6,1.6,0,0,0-.06-2.23h0A1.59,1.59,0,0,0,19,27l-2.12,1.7A1.34,1.34,0,0,1,14.73,28l-2.44-8.55a1.55,1.55,0,0,0-2.07-1h0a1.55,1.55,0,0,0-.94,1.83l1.35,5.3a.19.19,0,0,1-.33.16L6.56,20.32a1.71,1.71,0,0,0-2.62-.22h0a1.69,1.69,0,0,0-.24,2.08l3.41,5.65A.09.09,0,0,1,7,28L2.24,24.6a1.38,1.38,0,0,0-2.07.6h0A1.37,1.37,0,0,0,.6,26.83l5.33,4.08a.3.3,0,0,1-.22.53L1.27,31a1.17,1.17,0,0,0-1.2.75h0a1.15,1.15,0,0,0,.62,1.45l6.81,3a2.71,2.71,0,0,1,1.58,2.09C10.45,47.91,13.11,104.91,71.23,127.23Z"/><circle class="cls-1" cx="38.52" cy="46.82" r="9.39"/><path class="cls-1" d="M59.35,100.9c.27,7.34,5.53,16.23,5.53,16.23s8,13.59,24.23,10.38c0,0,5.86-.28,12.79-6.54a34.63,34.63,0,0,0,11-21.11,59.91,59.91,0,0,0,.51-11.06A71.55,71.55,0,0,1,113.75,76a104.31,104.31,0,0,1,8-28.74,48.42,48.42,0,0,0,2.45-6.88s2-7.66-3.59-9.26c0,0-5.17-1-8.79,8.39,0,0-6.27,16.18-9.45,20-2.36,2.85-4.53,1.71-4-.33,0,0,1.79-14.31,6.35-25.23a79.78,79.78,0,0,0,3.08-8.76l.63-2.15s2.4-8-2.47-9.56c0,0-4.44-1.61-8.37,10.06,0,0-6.6,18.34-10.35,31.81,0,0-1.51,5.33-4.16,5.31,0,0-2.63-.26-1.61-4,0,0,7.84-28.66,10.7-36.19L96.56,8.24a13.9,13.9,0,0,0,.44-3A5,5,0,0,0,89.42.72C87.22,2,84.68,4.67,83,9.88c0,0-7.83,21.29-9,29.08,0,0-2.48,12.66-3.47,16.85-.85,3.62-5.47,3.91-5.6.16a207.33,207.33,0,0,1,6.62-35.41l2-7.32s.88-10.45-6.93-5.38c0,0-5.34,4.08-9,24.05A185.56,185.56,0,0,0,54.1,61.45c-.39,14.75,13.24,15,13.24,15a58.14,58.14,0,0,0,16.77-.22c8.71-1.5,7.44,5.39,7.44,5.39s-.27,4.18-8.34,4.81L70,88.47S59,90.41,59.35,100.9Z"/><path class="cls-1" d="M152.76,24.2h2.88V58.4h-2.88Z"/><path class="cls-1" d="M164.14,58.4V24.2h2.74L182.52,45c2.27,3,4.25,5.71,6.42,8.69l.1,0c0-3.3,0-6.8,0-10.25V24.2h2.79V58.4H189L173.4,37.56c-2.27-3-4.25-5.71-6.42-8.69l-.1.05c.05,3.31.05,6.8.05,10.25V58.4Z"/><path class="cls-1" d="M199.2,52.78a16.72,16.72,0,0,0,10.11,3.44c4.58,0,7.93-2.22,7.93-6.66,0-5.05-4.39-6.14-8.83-7.37-4.92-1.37-9.73-3.16-9.73-9.35,0-5.86,4.25-9.16,10.44-9.16a17.9,17.9,0,0,1,9.59,2.69v3.12a17.18,17.18,0,0,0-9.64-3.12c-4.44,0-7.51,2.12-7.51,6.28,0,4.87,4.3,5.86,8.55,7,4.86,1.37,10,3.17,10,9.73,0,6-4.39,9.5-10.81,9.5A18.88,18.88,0,0,1,199.2,56Z"/><path class="cls-1" d="M235.38,26.84H223.62V24.2H250v2.64H238.26V58.4h-2.88Z"/><path class="cls-1" d="M255.7,24.2h2.88V58.4H255.7Z"/><path class="cls-1" d="M276,26.84H264.25V24.2h26.4v2.64H278.89V58.4H276Z"/><path class="cls-1" d="M322.4,41.86c0,5.48-.47,9.17-2.41,12.1-2.13,3.16-5.81,5-10.86,5-4.73,0-8.08-1.56-10.26-4.3-2.36-3-3-7-3-12.47V24.2h2.88V41.91c0,5.15.57,8.6,2.36,10.91,1.47,1.89,4,3.4,8.13,3.4s7-1.6,8.5-4,1.84-5.53,1.84-10.2V24.2h2.79Z"/><path class="cls-1" d="M339.41,26.84H327.64V24.2h26.41v2.64H342.29V58.4h-2.88Z"/><path class="cls-1" d="M373.89,23.68c9.83,0,17.25,7.74,17.25,17.62s-7.42,17.62-17.25,17.62-17.24-7.75-17.24-17.62S364.07,23.68,373.89,23.68Zm0,32.54c8.32,0,14.37-6.61,14.37-14.92s-6.05-14.93-14.37-14.93S359.53,33,359.53,41.3,365.58,56.22,373.89,56.22Z"/><path class="cls-1" d="M151,102.07a1.64,1.64,0,0,1,2.39-1.46,24.63,24.63,0,0,0,10.19,2.68c3.16,0,5.5-1.25,5.5-4.19,0-3.65-3.7-4-8.77-5.61-5.44-1.8-10.35-4.47-10.35-11.33,0-7.35,5.56-11.93,13.84-11.93a28,28,0,0,1,11.09,2.36,1.64,1.64,0,0,1,.94,1.49v4.76a1.64,1.64,0,0,1-2.35,1.48,24.05,24.05,0,0,0-9.74-2.52c-2.94,0-5.06,1.09-5.06,3.71,0,3.48,3.65,3.75,8.39,5.33,5.93,2,10.73,4.74,10.73,11.71,0,7.68-5.83,12.31-14.33,12.31a29.53,29.53,0,0,1-11.5-2.42,1.65,1.65,0,0,1-1-1.5Z"/><path class="cls-1" d="M196.51,70.83h6.17a1.64,1.64,0,0,1,1.52,1L218.88,108a1.64,1.64,0,0,1-1.52,2.26h-5.69a1.63,1.63,0,0,1-1.53-1.06L207.79,103a1.67,1.67,0,0,0-1.54-1.06H192.61a1.66,1.66,0,0,0-1.54,1l-2.4,6.18a1.62,1.62,0,0,1-1.53,1.05h-5.31a1.64,1.64,0,0,1-1.52-2.26L195,71.86A1.66,1.66,0,0,1,196.51,70.83Zm-.86,24.35h7.63a1,1,0,0,0,1-1.4l-1.12-3c-1.14-3.1-2.56-7-3.59-10h-.11c-1,3-2.45,6.92-3.7,10.24l-1,2.79A1,1,0,0,0,195.65,95.18Z"/><path class="cls-1" d="M225.2,70.83h5.37a1.65,1.65,0,0,1,1.65,1.65v28.61a1.6,1.6,0,0,0,1.6,1.6h14a1.65,1.65,0,0,1,1.64,1.65v4.28a1.64,1.64,0,0,1-1.64,1.64H223.56V72.48A1.64,1.64,0,0,1,225.2,70.83Z"/><path class="cls-1" d="M287.77,91.15c0,5.93-.82,10.23-3,13.39-2.78,4-7.84,6.32-14.16,6.32s-11.44-2.34-14.22-6.42c-2.12-3.16-2.94-7.47-2.94-13.08V72.48a1.65,1.65,0,0,1,1.65-1.65h5.37a1.64,1.64,0,0,1,1.64,1.65V91c0,4.19.38,6.75,1.53,8.6s3.48,3.43,7.19,3.43c3.43,0,5.66-1.25,7-3.26s1.69-4.58,1.69-8.72V72.48a1.64,1.64,0,0,1,1.64-1.65h5a1.65,1.65,0,0,1,1.65,1.65Z"/><path class="cls-1" d="M294.09,102.07a1.64,1.64,0,0,1,2.39-1.46,24.59,24.59,0,0,0,10.19,2.68c3.15,0,5.5-1.25,5.5-4.19,0-3.65-3.71-4-8.77-5.61C298,91.69,293.05,89,293.05,82.16c0-7.35,5.56-11.93,13.83-11.93A28,28,0,0,1,318,72.59a1.66,1.66,0,0,1,.94,1.49v4.76a1.64,1.64,0,0,1-2.35,1.48,24.13,24.13,0,0,0-9.74-2.52c-2.94,0-5.07,1.09-5.07,3.71,0,3.48,3.65,3.75,8.39,5.33,5.94,2,10.73,4.74,10.73,11.71,0,7.68-5.83,12.31-14.32,12.31a29.58,29.58,0,0,1-11.51-2.42,1.64,1.64,0,0,1-1-1.5Z"/></g></g></svg>