<svg xmlns="http://www.w3.org/2000/svg" viewBox="0 0 190.55 135.12"><defs><style>.cls-1,.cls-2{fill:#fff;}.cls-2{fill-rule:evenodd;}</style></defs><g id="Camada_2" data-name="Camada 2"><g id="Camada_1-2" data-name="Camada 1"><path class="cls-1" d="M65,70.64c1.65-2.1,5.34-5.38,7.75-2.47l.08.06h0a3.87,3.87,0,0,1,.94,2.42q0,2.27-2.6,4.53a10.47,10.47,0,0,1-6.44,1.88,14.53,14.53,0,0,1-3-.31,18.38,18.38,0,0,1,3.3-6.1Zm6.61,24,2.75-10.48c-4.06,4.11-12,7.08-13.28-.63a14.94,14.94,0,0,0,4.08.55,17,17,0,0,0,10.61-3.75,15.15,15.15,0,0,0,6-8.68A11.44,11.44,0,0,0,82,69.23q0-7.28-6.21-9.38a12,12,0,0,0-5.11-1.1,17.09,17.09,0,0,0-9.82,3.4,23.15,23.15,0,0,0-7.62,9,23.63,23.63,0,0,0-2.52,10.47q0,9.95,7.23,13.46a14.76,14.76,0,0,0,6.6,1.64,13,13,0,0,0,7.08-2.11Z"/><polygon class="cls-1" points="161.48 95.98 171.22 58.83 160.38 58.83 150.63 95.98 161.48 95.98 161.48 95.98"/><path class="cls-1" d="M164.15,51.59a7.41,7.41,0,0,0,4.55,1.22,7.57,7.57,0,0,0,4.56-1.53,4.21,4.21,0,0,0,1.89-3.4,3.85,3.85,0,0,0-1.89-3.25,7.46,7.46,0,0,0-4.56-1.21A7.66,7.66,0,0,0,164.15,45a4.21,4.21,0,0,0-1.89,3.4,3.81,3.81,0,0,0,1.89,3.24Z"/><polygon class="cls-1" points="48.87 87.77 28.98 87.77 42.27 37.24 31.04 37.24 15.23 95.9 46.51 95.9 48.87 87.77 48.87 87.77"/><path class="cls-1" d="M154,107.32l-2.36-7c-2.37,2.36-5.63,2-6.49-1.54a7.8,7.8,0,0,1,.23-4.69c1.44-5.44,6.34-20.58,6.34-25.21,0-10.91-10.33-11.62-17.6-7.35l.63-2.5H123.91L114.17,95.9H125c1.39-5.24,4.4-28.08,13.21-28.08a1.87,1.87,0,0,1,1.25.47,2.55,2.55,0,0,1,.81.7h0a2.14,2.14,0,0,1,.45,1.34,2,2,0,0,1-.16.78L134.05,95.9c-1.19,4.52-1.53,8.82,1.89,12.43a9.59,9.59,0,0,0,7.46,3.21q6.91-.32,10.61-4.22Z"/><path class="cls-1" d="M93.42,82.76a19.87,19.87,0,0,1,1.65-7.59,18.89,18.89,0,0,1,3.77-6c1.47-1.48,2.81-2.23,4-2.23a2.4,2.4,0,0,1,2,1,2.25,2.25,0,0,1,.3.24H105a7.76,7.76,0,0,1,.84,4.06,19.47,19.47,0,0,1-1.61,7.47,18.67,18.67,0,0,1-3.81,6.06q-2.2,2.19-4,2.19-3,0-3-5.16Zm12,10.52a23.67,23.67,0,0,0,7.46-9.11,23.94,23.94,0,0,0,2.6-10.72q0-10.15-7.39-13.68a11.31,11.31,0,0,0-5.27-1.25,16.22,16.22,0,0,0-9.58,3.4A23.53,23.53,0,0,0,85.72,71a23.86,23.86,0,0,0-2.59,10.71q0,10.17,7.39,13.77a12,12,0,0,0,5.26,1.17,16.25,16.25,0,0,0,9.59-3.4Z"/><path class="cls-2" d="M93.68,33.19a6.37,6.37,0,0,0,1.6,1.63c-.24-1.06-.85-1.52-.85-3.06,0-6.15,9.26-11.64,3.2-17.63a8.62,8.62,0,0,0-4.56-2.08c.19.18-.08,0,.28.23a8.67,8.67,0,0,1,2,1.6,4.28,4.28,0,0,1,1.32,2.93c0,5-7.43,10-3,16.38m9.62,1.63c-.19-.83-.42-.84-.68-2-.46-2.17.7-4.47,1.67-6.31.66-1.24,1.39-2.32,2-3.59,1.2-2.38,2.13-4.39.73-7.07a8.18,8.18,0,0,0-6-3.75l.09.08,1,.7a6.67,6.67,0,0,1,1.08,1,4.15,4.15,0,0,1,1.4,2.51c0,3.24-1.18,4.44-2.84,7.53a22.09,22.09,0,0,0-1,2.27,7.19,7.19,0,0,0-.18,5,7.71,7.71,0,0,0,2.62,3.67M84.58,31c.31,1.12,1.54,3.3,2.69,3.61-1.58-3-.32-5.74,1.11-8.41,1.83-3.42,5.51-7.91,1.52-11.88a8.91,8.91,0,0,0-4.85-2.31,17.43,17.43,0,0,1,2.18,1.74,4.15,4.15,0,0,1,1.4,2.51c0,2.93-.38,2.84-1.76,5.55-1.51,2.95-3.28,5.62-2.29,9.19"/><path class="cls-1" d="M90.29,41.33c-2.58,0-4,.91-4.46,3.46l-1.14,5.85H86.5l1.09-5.59c.33-1.76.93-2.2,2.67-2.2,1.12,0,1.74.39,1.74,1.43a4.82,4.82,0,0,1-.09.76l-1.09,5.6h1.81L93.72,45a6.23,6.23,0,0,0,.08-.9C93.8,42.26,92.47,41.33,90.29,41.33Z"/><path class="cls-1" d="M84.14,41.33c-2.58,0-4,.91-4.46,3.46l-1.14,5.85h1.81l1.09-5.59c.33-1.76.93-2.2,2.66-2.2,1.13,0,1.74.39,1.74,1.43a3.87,3.87,0,0,1-.09.76l-1.08,5.6h1.81L87.56,45a5.16,5.16,0,0,0,.09-.9C87.65,42.26,86.32,41.33,84.14,41.33Z"/><polygon class="cls-1" points="76.1 50.65 77.85 41.61 76.04 41.61 74.29 50.65 76.1 50.65"/><path class="cls-1" d="M126.52,41.33c-2.88,0-4.23,1.36-4.83,4.51a10.3,10.3,0,0,0-.2,1.78c0,2.43,1.34,3.3,3.67,3.3,2.88,0,4.24-1.36,4.83-4.5a10.51,10.51,0,0,0,.2-1.79C130.19,42.21,128.85,41.33,126.52,41.33Zm1.63,5.16c-.46,2.21-1,2.93-2.79,2.93-1.41,0-2.06-.44-2.06-1.85a10.48,10.48,0,0,1,.23-1.8c.46-2.22,1-2.94,2.79-2.94,1.41,0,2.06.44,2.06,1.86A10.6,10.6,0,0,1,128.15,46.49Z"/><path class="cls-1" d="M74.46,37.63h-1.8l-2.55,13h1.81L73,45C73.34,43.25,74.46,37.63,74.46,37.63Z"/><path class="cls-1" d="M118.33,39.15l-1.84.19-1.55,7.9a6.36,6.36,0,0,0-.12,1.08c0,1.47.81,2.32,2.77,2.32h1.62l.56-1.48h-2c-.86,0-1.19-.26-1.19-1a4.46,4.46,0,0,1,.09-.75l.84-4.32h2.7l.58-1.52h-3Z"/><path class="cls-1" d="M131.8,43.74a3.88,3.88,0,0,0-.07.72c0,1.2.7,1.78,1.88,2.11l1.7.49c.69.19.95.44.95.91a1.28,1.28,0,0,1,0,.26c-.12.77-.75.93-2.21.93-1.12,0-1.3,0-2.88,0l-.56,1.52c1.23.06,2.11,0,3.39,0,2.61,0,3.76-.81,4-2.2a5,5,0,0,0,.09-.79c0-1.12-.64-1.75-2.32-2.25L134.26,45c-.55-.16-.79-.33-.79-.73a2.86,2.86,0,0,1,0-.34c.16-.64.62-.83,1.81-.83,1,0,1.48,0,3,0l.56-1.5c-1.26-.06-2-.07-3.4-.07C133.17,41.58,132.06,42.36,131.8,43.74Z"/><path class="cls-1" d="M109.66,41.33c-2.58,0-4,.91-4.46,3.46l-1.14,5.85h1.8L107,45.05c.34-1.76.93-2.2,2.67-2.2,1.13,0,1.74.39,1.74,1.43a3.87,3.87,0,0,1-.09.76l-1.09,5.6H112l1.09-5.6a6.36,6.36,0,0,0,.09-.9C113.17,42.26,111.83,41.33,109.66,41.33Z"/><path class="cls-1" d="M100.16,41.31c-2,0-4,.75-4.76,4.48a8.88,8.88,0,0,0-.2,1.67c0,1.87.9,3.2,3.64,3.2,1.12,0,1.81,0,2.6-.09l.58-1.5c-1.09.09-1.64.09-3,.09s-2-.58-2-1.77a4.67,4.67,0,0,1,0-.52H99.3c2.65,0,3.68-.77,4-2.36a3.73,3.73,0,0,0,.11-.84C103.46,42.26,102.47,41.31,100.16,41.31Zm1.44,3.1c-.25.8-.65,1.06-2.3,1.06h-2c.46-2,1.23-2.71,2.79-2.71,1.21,0,1.65.37,1.65,1A2.16,2.16,0,0,1,101.6,44.41Z"/><path class="cls-1" d="M188.21,22.49c-1.91-1-5.75-2.88-11.18-5.16C160.72,10.48,130.12,0,95.22,0,72,0,50.61,4.67,34.14,9.8,25.91,12.36,18.9,15,13.47,17.33S4.23,21.5,2.33,22.5L0,23.72v87.81l2.41,1.2a218.48,218.48,0,0,0,31.73,12.55c16.46,5.14,37.81,9.84,61.08,9.84s44.63-4.7,61.11-9.84c8.24-2.56,15.26-5.24,20.69-7.51s9.26-4.12,11.1-5l2.43-1.2V23.71Zm-93,106.66c-44,0-81.17-17.41-89.68-21.66V27.41C14.05,23,51.26,5.81,95.22,5.81S176.43,23,184.94,27.41v80.08C176.43,111.74,139.21,129.15,95.22,129.15Z"/><path class="cls-1" d="M65.86,50.6,67,44.73l-4.51.12L61.37,50.6H59.66l1.88-9.28a5.14,5.14,0,0,1,1.61-3,4.88,4.88,0,0,1,3.16-1.08,3.26,3.26,0,0,1,2.78.93,3.42,3.42,0,0,1,.4,2.92l-1.91,9.5Zm1.83-9.09a6.1,6.1,0,0,0,.14-1.15,2.41,2.41,0,0,0-.17-.93,1.27,1.27,0,0,0-.57-.6,2.05,2.05,0,0,0-1.06-.2,2.83,2.83,0,0,0-1.15.25,2.49,2.49,0,0,0-.82.65,3.51,3.51,0,0,0-.54.95,6.7,6.7,0,0,0-.34,1.15l-.37,1.84,4.52-.12Z"/><path class="cls-1" d="M78.18,39.64a.89.89,0,0,1-.34.71,1.2,1.2,0,0,1-.76.27,1.15,1.15,0,0,1-.75-.27.9.9,0,0,1,0-1.41,1.15,1.15,0,0,1,.75-.27,1.2,1.2,0,0,1,.76.27A.88.88,0,0,1,78.18,39.64Z"/></g></g></svg>