<svg xmlns="http://www.w3.org/2000/svg" viewBox="0 0 200.56 96.47"><defs><style>.cls-1{fill:#fff;}</style></defs><g id="Camada_2" data-name="Camada 2"><g id="Camada_1-2" data-name="Camada 1"><path class="cls-1" d="M78.75,96.39H75.31V90.31h3.44v.84H76.31V92.8H78.6v.83H76.31v1.91h2.44Z"/><path class="cls-1" d="M85.74,96.39,84,91.31h0c0,.75.07,1.46.07,2.12v3h-.9V90.31h1.4l1.69,4.83h0L88,90.31h1.41v6.08h-1v-3c0-.3,0-.69,0-1.18s0-.78,0-.88h0l-1.82,5.07Z"/><path class="cls-1" d="M98,92.15a1.77,1.77,0,0,1-.63,1.46,2.76,2.76,0,0,1-1.77.5H95v2.28H94V90.31h1.75a2.66,2.66,0,0,1,1.71.46A1.69,1.69,0,0,1,98,92.15Zm-3,1.13h.53A1.87,1.87,0,0,0,96.66,93a1,1,0,0,0,.35-.83.92.92,0,0,0-.32-.78,1.56,1.56,0,0,0-1-.26H95Z"/><path class="cls-1" d="M103.29,94v2.43h-1V90.31H104a2.87,2.87,0,0,1,1.75.44,1.6,1.6,0,0,1,.56,1.33,1.66,1.66,0,0,1-1.18,1.62l1.72,2.69h-1.13L104.27,94Zm0-.82H104a1.61,1.61,0,0,0,1-.26,1,1,0,0,0,.31-.77.82.82,0,0,0-.34-.74,1.82,1.82,0,0,0-1-.22h-.66Z"/><path class="cls-1" d="M114.22,96.39h-3.43V90.31h3.43v.84h-2.44V92.8h2.29v.83h-2.29v1.91h2.44Z"/><path class="cls-1" d="M122,96.39h-3.44V90.31H122v.84h-2.44V92.8h2.29v.83h-2.29v1.91H122Z"/><path class="cls-1" d="M131.44,96.39h-1.22l-3-4.85h0l0,.27c0,.52.06,1,.06,1.42v3.16h-.9V90.31h1.21l3,4.82h0c0-.07,0-.3,0-.7s0-.71,0-.94V90.31h.91Z"/><path class="cls-1" d="M141,93.29a3,3,0,0,1-.84,2.3,3.37,3.37,0,0,1-2.41.8h-1.7V90.31H138a3.12,3.12,0,0,1,2.26.78A2.91,2.91,0,0,1,141,93.29Zm-1,0c0-1.45-.68-2.18-2-2.18h-.86v4.41h.7A2,2,0,0,0,140,93.32Z"/><path class="cls-1" d="M145.39,96.39V90.31h1v6.08Z"/><path class="cls-1" d="M153.66,96.39l-1.76-5.08h0c0,.75.07,1.46.07,2.12v3H151V90.31h1.4l1.69,4.83h0l1.73-4.83h1.41v6.08h-1v-3c0-.3,0-.69,0-1.18s0-.78,0-.88h0l-1.82,5.07Z"/><path class="cls-1" d="M165.37,96.39h-3.44V90.31h3.44v.84h-2.44V92.8h2.29v.83h-2.29v1.91h2.44Z"/><path class="cls-1" d="M174.79,96.39h-1.21l-3-4.85h0l0,.27c0,.52,0,1,0,1.42v3.16h-.9V90.31h1.21l3,4.82h0c0-.07,0-.3,0-.7s0-.71,0-.94V90.31h.91Z"/><path class="cls-1" d="M181.54,96.39h-1V91.16h-1.79v-.85h4.57v.85h-1.79Z"/><path class="cls-1" d="M192.7,93.34a3.31,3.31,0,0,1-.74,2.31,3.11,3.11,0,0,1-4.21,0,4,4,0,0,1,0-4.63,2.74,2.74,0,0,1,2.12-.81A2.69,2.69,0,0,1,192,91,3.31,3.31,0,0,1,192.7,93.34Zm-4.63,0a2.74,2.74,0,0,0,.45,1.7,1.59,1.59,0,0,0,1.34.58,1.61,1.61,0,0,0,1.34-.57,3.46,3.46,0,0,0,0-3.41,1.59,1.59,0,0,0-1.33-.57,1.62,1.62,0,0,0-1.35.57A2.74,2.74,0,0,0,188.07,93.34Z"/><path class="cls-1" d="M200.56,94.74A1.53,1.53,0,0,1,200,96a2.53,2.53,0,0,1-1.61.46,3.92,3.92,0,0,1-1.69-.32v-.94a5.09,5.09,0,0,0,.88.31,4,4,0,0,0,.87.11,1.35,1.35,0,0,0,.87-.23.71.71,0,0,0,.28-.6.77.77,0,0,0-.25-.58,4.24,4.24,0,0,0-1.07-.56,2.79,2.79,0,0,1-1.17-.77,1.58,1.58,0,0,1-.34-1,1.46,1.46,0,0,1,.54-1.2,2.24,2.24,0,0,1,1.45-.44,4.37,4.37,0,0,1,1.74.38l-.32.81a3.92,3.92,0,0,0-1.44-.34,1.13,1.13,0,0,0-.74.21.71.71,0,0,0-.24.56.72.72,0,0,0,.1.4.89.89,0,0,0,.32.32,6.61,6.61,0,0,0,.83.4,4.48,4.48,0,0,1,1,.52,1.51,1.51,0,0,1,.45.54A1.59,1.59,0,0,1,200.56,94.74Z"/><path class="cls-1" d="M74.69.43H91.87V60.66h37.22v14H74.69Z"/><path class="cls-1" d="M149.45,65.11,159,53.66c4,5.41,8.49,8.17,13.79,8.17,6.89,0,10.5-4.14,10.5-12.3V14.21H157.19V.43h43.16V48.57c0,18.35-9.23,27.36-26.72,27.36C163.66,75.93,154.86,72.11,149.45,65.11Z"/><path class="cls-1" d="M61.78,95.47H45V55.82H38.69V83H22V50.25H33.12V38.7H16.42V95.47H0V33.14H10.85V0H50.59V50.25H61.78ZM50.59,89.9h5.62V55.82H50.59Zm-45,0h5.28V38.7H5.57Zm22-12.51h5.57V55.82H27.55ZM38.69,50.25H45V5.57H16.42V33.14H38.69Z"/><polygon class="cls-1" points="47.8 0 45.02 0 16.42 0 15.41 0 10.86 0 10.86 95.47 16.42 95.47 16.42 5.57 45.02 5.57 45.02 95.47 50.59 95.47 50.59 0 47.8 0"/><rect class="cls-1" x="6.67" y="33.14" width="15.36" height="5.57"/><rect class="cls-1" x="6.67" y="89.9" width="9.73" height="5.57"/><rect class="cls-1" x="44.96" y="50.25" width="5.63" height="45.22"/><rect class="cls-1" x="21.99" y="50.25" width="11.13" height="5.57"/></g></g></svg>