<svg xmlns="http://www.w3.org/2000/svg" viewBox="0 0 357.89 165.28"><defs><style>.cls-1{fill:#fbfbfb;}.cls-2{fill:#c8c8c8;}.cls-3{fill:#f9f7f7;}.cls-4{fill:#fff;}</style></defs><g id="Camada_2" data-name="Camada 2"><g id="Camada_1-2" data-name="Camada 1"><path class="cls-1" d="M165.21,31.82,210.4,0a3.2,3.2,0,0,1,.39,2.28c0,19.84,0,39.68.05,59.51,0,6.9-2.64,12.39-8.11,16.32-12.23,8.76-24.61,17.31-36.93,26-.88,0-1.09-.6-1.23-1.26a10,10,0,0,1-.09-2q0-32.88,0-65.75C164.48,34,164.28,32.75,165.21,31.82Z"/><path class="cls-2" d="M164.24,104c-12.4-8.69-24.87-17.26-37.15-26.11-5.31-3.83-7.86-9.31-7.84-16,.06-19.85,0-39.69,0-59.54V.22c.9-.17,1.27.38,1.71.69Q142.51,16,164,31.13c.26.19.48.43.73.64a4.87,4.87,0,0,1,.21,2.42q0,33.63,0,67.26C164.92,102.26,165.67,103.46,164.24,104Z"/><path class="cls-1" d="M165.16,120.68l27.8-19.6c.76.64.4,1.43.4,2.09,0,11.85-.05,23.7,0,35.55a12.43,12.43,0,0,1-5.51,10.94c-7.38,5.21-14.81,10.37-22.21,15.56-1.34-.29-1.19-1.4-1.19-2.33q-.06-19.95,0-39.9A3.2,3.2,0,0,1,165.16,120.68Z"/><path class="cls-2" d="M164.7,165.28c-7.81-5.45-15.67-10.83-23.4-16.39a10.71,10.71,0,0,1-4.54-8.92c-.07-12.75,0-25.49,0-38.24,0-.14.12-.27.34-.74l27.69,19.63a1.4,1.4,0,0,1,.16.46q0,21.77,0,43.52A1.65,1.65,0,0,1,164.7,165.28Z"/><path class="cls-3" d="M5.82,104.13l8.57,17.7,7.35-17.7h5.74v.37c-1.81.16-2.51,1-2.51,2.93v14.22c0,1.6,0,4.16,2.89,4.29v.37H19v-.37c2.3-.41,2.86-1.27,2.86-3.67V105.71l-8.56,20.6h-.12L3.66,106.57v14.37c0,3.55,1.39,4.72,3.49,5v.37H0v-.37c2-.25,2.9-1,2.9-4.85V107.62c0-2.41-1.07-2.75-2.66-3.12v-.37Z"/><path class="cls-3" d="M38.5,126.31H28.92v-.37c3-.37,3.22-1.39,3.22-4V108.51c0-2.65-.23-3.64-3.22-4v-.37H38.5v.37c-3,.37-3.23,1.39-3.23,4v13.42c0,2.65.24,3.64,3.23,4ZM33,100.22c.47-.8,1-1.7,1.89-1.7A1.45,1.45,0,0,1,36.22,100c0,1-.89,1.39-2.07,1.85l-2.21.86-.21-.24Z"/><path class="cls-3" d="M49.19,104.13c5.82,0,7.59,3.21,7.59,6.05,0,4.07-3.37,5.33-5,5.76.77.31,1.57,1,3.34,3.83.32.52,1.71,2.83,2,3.3,1.95,2.77,3.66,2.77,4.22,2.87v.37H55.63a24.63,24.63,0,0,1-2.27-3.12l-1.51-2.47c-.86-1.41-2.9-4.65-5.2-4.65H45.59v6.07c0,2.84.41,3.58,2.86,3.8v.37H40.24v-.37c2.21-.31,2.21-2.16,2.21-3.46V107.74c0-1.36,0-3.21-2.92-3.24v-.37Zm-3.6,11.32h2.54a5.33,5.33,0,0,0,5.52-5.4c0-2.89-1.74-5.3-6.11-5.3h-.83c-.89,0-1.12.06-1.12,1Z"/><path class="cls-3" d="M71.17,126.31H61.6v-.37c3-.37,3.22-1.39,3.22-4V108.51c0-2.65-.24-3.64-3.22-4v-.37h9.57v.37c-3,.37-3.22,1.39-3.22,4v13.42c0,2.65.24,3.64,3.22,4Z"/><path class="cls-3" d="M90.73,121.77c.47,1.2,1.68,4,3.66,4.17v.37H85v-.37c2.71-.16,3.48-1.36,2.21-4.57l-1.45-3.67H77.61l-1.27,3.36c-1.06,2.84-.86,4.44,1.62,4.88v.37H71.82v-.37a8.41,8.41,0,0,0,3.66-4.66l5.41-13.79a2.06,2.06,0,0,0,.15-1.57,7.87,7.87,0,0,0,2.3-2h.3ZM81.66,107.4l-3.81,9.68H85.5Z"/><path class="cls-3" d="M100.15,104.13l15.51,17V109.78c0-4.63-2-5.06-4-5.28v-.37h7.74v.37c-2.57.16-3,2-3,5.25v16.93h-.3l-17.28-19v12.83c0,3.57,1.21,5.06,3.34,5.43v.37H95v-.37c2.69-.5,3-1.92,3-5.22V106.94c-1.5-1.7-1.92-2.19-3-2.44v-.37Z"/><path class="cls-3" d="M232.28,111.12h-.38c-1.27-2.78-3.05-6.6-8.1-6.6-6.53,0-8.51,6.88-8.51,11.78,0,5.27,2.46,10.12,8.25,10.12a5.35,5.35,0,0,0,4.55-2,4.18,4.18,0,0,0,.68-2.56v-1.76a3.39,3.39,0,0,0-2.78-3.39v-.37h8.51v.37c-1.63.59-2.54,1.36-2.54,3v4.75a18.18,18.18,0,0,1-8.81,2.65c-6.11,0-11.14-4.38-11.14-11.38,0-5.61,3.43-11.87,11.35-11.87,4.73,0,6.94,2.19,7.5,2.19s.74-.74.92-1.14h.38Z"/><path class="cls-3" d="M258.13,115.62a11.27,11.27,0,0,1-11.43,11.47c-5.7,0-11.17-3.91-11.17-12a11,11,0,0,1,11.52-11.26C253.76,103.84,258.13,108.75,258.13,115.62Zm-19.23-.4c0,4.81,2.39,11.2,7.77,11.2,6,0,8.09-6.14,8.09-10.83,0-5.67-2.24-11.07-7.65-11.07C241.29,104.52,238.9,111.4,238.9,115.22Z"/><path class="cls-3" d="M264.39,104.37l15.51,17V110c0-4.63-1.95-5.06-4-5.27v-.37h7.74v.37c-2.57.15-3,2-3,5.24v16.93h-.29l-17.29-19v12.83c0,3.58,1.22,5.06,3.34,5.43v.37h-7.15v-.37c2.69-.49,3.05-1.91,3.05-5.21V107.17c-1.51-1.69-1.92-2.19-3.05-2.43v-.37Z"/><path class="cls-3" d="M307,109.55h-.54c-2.3-3.86-3.93-4.57-7.65-4.57H297V122.1c0,3,.56,3.58,2.51,4.07v.37H291.4v-.37c2.06-.37,2.51-1.11,2.51-4V105h-2c-3.16,0-5.2.65-7.39,4.57H284l1.21-6h.45c.94.52,1.95.77,4.4.77h11.4a6.79,6.79,0,0,0,3.9-.77h.45Z"/><path class="cls-3" d="M317.13,126.54h-9.57v-.37c3-.37,3.22-1.39,3.22-4V108.75c0-2.66-.24-3.64-3.22-4v-.37h9.57v.37c-3,.37-3.22,1.38-3.22,4v13.41c0,2.65.23,3.64,3.22,4Z"/><path class="cls-3" d="M329.42,104.37v.37c-2,.49-2.39,1.35-2.39,3.7v12c0,5.49-4.41,6.48-6,6.48-1.72,0-3.22-.77-3.22-2.13a1.56,1.56,0,0,1,1.62-1.51,1.38,1.38,0,0,1,1.33,1.2c.24,1.27.27,1.7,1,1.7,1.53,0,2.12-1.57,2.12-4.38V110.66c0-4.81-.68-5.46-2.57-5.92v-.37Z"/><path class="cls-3" d="M353.61,115.62a11.27,11.27,0,0,1-11.43,11.47c-5.7,0-11.17-3.91-11.17-12a11,11,0,0,1,11.53-11.26C349.24,103.84,353.61,108.75,353.61,115.62Zm-19.23-.4c0,4.81,2.39,11.2,7.77,11.2,6,0,8.1-6.14,8.1-10.83,0-5.67-2.25-11.07-7.66-11.07C336.77,104.52,334.38,111.4,334.38,115.22Z"/><path class="cls-3" d="M223,145.35h-.86l-1-2.63h-3.68l-1,2.63h-.82l3.26-8.38h.85Zm-3.66-7.64-1.64,4.36h3.23Z"/><path class="cls-3" d="M227.26,137a5.13,5.13,0,0,1,.9.1,2.92,2.92,0,0,1,2.2,1.49,5.38,5.38,0,0,1,.59,2.53,5.23,5.23,0,0,1-.85,3,2.71,2.71,0,0,1-1.11,1,3.72,3.72,0,0,1-1.61.3h-2.83V137Zm-1.95,7.71h1.89a3.11,3.11,0,0,0,1.43-.22c1.59-.72,1.59-3.1,1.59-3.35a4.62,4.62,0,0,0-.58-2.32,2.47,2.47,0,0,0-.92-.83,4.54,4.54,0,0,0-1.67-.32h-1.74Z"/><path class="cls-3" d="M235.9,145.35H235L232,137h.85l2.63,7.64,2.59-7.64h.81Z"/><path class="cls-3" d="M246.23,137.65a5.32,5.32,0,0,1,.53,6.38,3.47,3.47,0,0,1-3,1.51,3.74,3.74,0,0,1-1.61-.33,4.91,4.91,0,0,1-.42-7.83,3.94,3.94,0,0,1,1-.44,4,4,0,0,1,1.06-.17A3.52,3.52,0,0,1,246.23,137.65Zm-3.68.1a3.42,3.42,0,0,0-1.78,3.39,4.62,4.62,0,0,0,.64,2.44,2.78,2.78,0,0,0,.76.77,2.94,2.94,0,0,0,3,.15,3.76,3.76,0,0,0,1.6-3.26,5,5,0,0,0-.68-2.53,2.72,2.72,0,0,0-2.32-1.24A3,3,0,0,0,242.55,137.75Z"/><path class="cls-3" d="M256.74,145.35h-.5l-.16-1.55a2.43,2.43,0,0,1-.43.68,3,3,0,0,1-2.43,1.07,3.43,3.43,0,0,1-2.24-.76,4.21,4.21,0,0,1-1.36-2.35,5.42,5.42,0,0,1-.12-1.18,5,5,0,0,1,.78-2.85,3.42,3.42,0,0,1,.51-.63,3.5,3.5,0,0,1,2.55-1,3.2,3.2,0,0,1,3,1.89,3.07,3.07,0,0,1,.24.88h-.74a2.39,2.39,0,0,0-.15-.54,2.49,2.49,0,0,0-2.44-1.54,2.7,2.7,0,0,0-1.72.55,3.29,3.29,0,0,0-1.21,2.16,4.41,4.41,0,0,0-.11,1,4.5,4.5,0,0,0,.78,2.61,2.82,2.82,0,0,0,2.28,1.12,2.74,2.74,0,0,0,2-.81,3.37,3.37,0,0,0,.79-2.34h-2.74v-.65h3.41Z"/><path class="cls-3" d="M265.62,145.35h-.87l-1-2.63H260.1l-1,2.63h-.82l3.26-8.38h.85ZM262,137.71l-1.64,4.36h3.23Z"/><path class="cls-3" d="M269.87,137a5.13,5.13,0,0,1,.9.1,2.94,2.94,0,0,1,2.2,1.49,5.38,5.38,0,0,1,.59,2.53,5.23,5.23,0,0,1-.85,3,2.77,2.77,0,0,1-1.11,1,3.76,3.76,0,0,1-1.62.3h-2.83V137Zm-2,7.71h1.9a3.06,3.06,0,0,0,1.42-.22c1.59-.72,1.59-3.1,1.59-3.35a4.52,4.52,0,0,0-.58-2.32,2.31,2.31,0,0,0-.92-.83,4.47,4.47,0,0,0-1.67-.32h-1.74Z"/><path class="cls-3" d="M281.71,137.65a5.32,5.32,0,0,1,.53,6.38,3.47,3.47,0,0,1-3,1.51,3.79,3.79,0,0,1-1.61-.33,4.91,4.91,0,0,1-.42-7.83,3.94,3.94,0,0,1,1-.44,4,4,0,0,1,1.06-.17A3.52,3.52,0,0,1,281.71,137.65Zm-3.68.1a3.42,3.42,0,0,0-1.77,3.39,4.59,4.59,0,0,0,.63,2.44,2.93,2.93,0,0,0,.76.77,2.94,2.94,0,0,0,3,.15,3.76,3.76,0,0,0,1.6-3.26,5,5,0,0,0-.68-2.53,2.72,2.72,0,0,0-2.32-1.24A3,3,0,0,0,278,137.75Z"/><path class="cls-3" d="M290.13,139.38a1.86,1.86,0,0,0-.62-1.42,2.37,2.37,0,0,0-1.62-.5c-1.52,0-2,.83-2,1.59a1.15,1.15,0,0,0,.55,1.06,5.63,5.63,0,0,0,1.35.46l.9.22a5,5,0,0,1,.84.24,2.1,2.1,0,0,1,1.6,2,2.33,2.33,0,0,1-.86,1.85,3.26,3.26,0,0,1-2.15.62,3.94,3.94,0,0,1-1.7-.34,2.44,2.44,0,0,1-1.19-1.11,3,3,0,0,1-.34-1.35c0-.06,0-.11,0-.16h.73a2.62,2.62,0,0,0,.23,1.12,2.47,2.47,0,0,0,2.32,1.18,2.29,2.29,0,0,0,1.84-.68,1.6,1.6,0,0,0,.36-1.07,1.29,1.29,0,0,0-.1-.57c-.35-.76-1.45-1-2.11-1.13l-.84-.21a5.28,5.28,0,0,1-1.27-.45,1.85,1.85,0,0,1-.91-1.69,2.12,2.12,0,0,1,.87-1.74,3,3,0,0,1,1.93-.53,3.13,3.13,0,0,1,1.82.46,2.44,2.44,0,0,1,1.1,2.12Z"/><path class="cls-4" d="M355,108.65v-2.24h1a1.63,1.63,0,0,1,.52.06.51.51,0,0,1,.26.22.66.66,0,0,1-.05.77.73.73,0,0,1-.44.21.94.94,0,0,1,.24.18,2.94,2.94,0,0,1,.26.37l.27.43h-.54l-.33-.48a1.53,1.53,0,0,0-.24-.33.31.31,0,0,0-.13-.1l-.23,0h-.09v.93Zm.45-1.29h.33a1.58,1.58,0,0,0,.41,0,.24.24,0,0,0,.13-.09.31.31,0,0,0,0-.17.28.28,0,0,0-.06-.18.24.24,0,0,0-.17-.09h-.68Z"/><path class="cls-4" d="M357.89,107.62a2,2,0,1,1-2-2A2,2,0,0,1,357.89,107.62Zm-2,1.67a1.67,1.67,0,1,0-1.67-1.67,1.67,1.67,0,0,0,1.67,1.67Z"/></g></g></svg>