<svg xmlns="http://www.w3.org/2000/svg" viewBox="0 0 273.58 117.13"><defs><style>.cls-1,.cls-2{fill:#fff;}.cls-1{fill-rule:evenodd;}</style></defs><g id="Camada_2" data-name="Camada 2"><g id="Camada_1-2" data-name="Camada 1"><path class="cls-1" d="M120.15,81.29h11.11c3.49,0,7-1,8.78-2.77s1.75-3.24,2.36-6.15c.15-.73.77-2-.24-2h-19c-1.41,0-.47,2.56,1.11,2.81,1.31.21,6-.16,7.81,0,3.81.43,2.14,5.21-1.29,5.21h-9.16c-3.89,0-2-4.21-1.18-8.37A12.59,12.59,0,0,1,121.3,67a2.74,2.74,0,0,1,2.34-1.59H134.1a1.54,1.54,0,0,1,1.64,1.19c.38,1.43-.27,1.47,1.61,1.45s3.93,0,5.9,0a3.65,3.65,0,0,0-2-4.11,10.93,10.93,0,0,0-5.42-1.34H122.55a13.1,13.1,0,0,0-7,2.36c-2.38,1.91-2.12,3.36-2.84,6.74-.54,2.48-1.77,5.54.12,7.4,1.65,1.63,4.89,2.24,7.34,2.24m-43.37,0a12.92,12.92,0,0,0,6-1.22c3.68-2,3.16-10.64,4.71-13.16a2.91,2.91,0,0,1,2.19-1.53c12.54,0,13.22-1.21,11.77,5H93.34c-1.46,0-2.55-.11-3.49.43a3.8,3.8,0,0,0-1.74,2.4h12.64c0,1.31-2.68,7.37,5.67,8.06.36-.68,3-12.54,3-14.16,0-3-3.89-4.58-7-4.58H88.33a11.23,11.23,0,0,0-7.39,2.85l-.11.11-.32.34c-1.27,1.48-2,7-2.44,9.11ZM121.89,53c.9-3.87,2.2-7.14-.64-9.16a6.82,6.82,0,0,0-4.81-1.3,17.6,17.6,0,0,1-.56,3.36c-.24,1.2-.39,2.09-.66,3.26-.52,2.27-.88,4.48-1.39,6.67,3.71,0,21.07.23,23.2-.11,3.14-.5,6.37-1.85,7.47-4.31a34.21,34.21,0,0,0,1.11-4.77c1-4.42,2.13-7.32-3.37-9-3.23-1-20.38-.57-24.49-.57-.67,2.89,1.92,2.85,3.49,2.84,2.08,0,15.91-.3,16.91.3,1.83,1.09.26,5-.33,8-1.25,6.29-1.68,4.78-15.93,4.78m-83,28.33c3.84,0,7.71-2,8.64-5.74s1.06-10.17,4.22-10.17H65.66c2.68,0,.94,5.25.71,6.38a38.3,38.3,0,0,0-.93,5c0,2.81,3.46,4.51,6.32,4.57a113.32,113.32,0,0,0,2.84-14.6c0-2.71-4.41-4.14-7.41-4.14H47.79a7.42,7.42,0,0,0-4.49,2.27c-1.41,1.67-1.56,2.35-2.13,4.84Zm130.34-25.5h13.29c3.84,0,9.1-2.12,9.37-5.44h-7.41A2.86,2.86,0,0,1,181.39,53h-10c-3,0-1.45-4.19-.89-7,1.44-7.21.61-6.09,13.31-6.09,2.6,0,2.4,1.66,2.4,2.62h7.41c0-4.4-4.12-5.45-8.94-5.45-6.15,0-12.75-.69-17.51,1.67-3.91,1.94-3.58,4.54-4.66,9.94-.3,1.49-.73,2.79-.06,4.08.95,1.8,4,3,6.76,3M83.32,51.43c0,2.88,4.57,4.36,7.19,4.36H109c0-.91,0-1.94-1-2.48-2.1-1.11-15.06.41-16.25-.75-1.47-1.43-.48-4.1-.16-5.68.25-1.26.49-2.45.75-3.82.63-3.28,2.13-3.18,5.77-3.18,2,0,11.66.37,13.07-.43.5-.28,2.5-2.4.88-2.4-5.07,0-17.51-.5-21.66.79-6.23,1.94-5.34,5.1-6.63,10.59a11.15,11.15,0,0,0-.48,3m63.2,25.29c0,3.19,4.83,4.57,8.28,4.57h16.78c1.13,0,.92-2.8-1.73-2.84h-12c-1.16,0-1.95.16-2.67-.38-1.77-1.31-.73-4.06-.4-5.74,1.67-8.31.13-7,15.06-7,2.24,0,5.33.5,6.1-2.83-7.55,0-20.66-1.27-25.22,2-2.5,1.8-2.31,2.74-2.89,5.17ZM37.76,62.55c-4.48,0-7.82,1.89-8.8,6.23L26.73,79.65c-.27,1.23-.95,2.24,2.89,1.12a8.31,8.31,0,0,0,4.48-2.92c1.47-1.81,2.33-9.17,3-12a25.56,25.56,0,0,0,.65-3.27M148.7,55.79c4.32,0,7.8-2,8.67-6.15.26-1.26,2.66-12,2.27-12.38s-2.29.16-3,.36c-5.67,1.7-5.5,5.37-6.76,11.76Zm-97,25.5a10.61,10.61,0,0,0,7.35-3.11c1.11-1.31,2.24-6.5,2.24-8.44,0-2.41-2.83-2-4.57-2-3.3,0-3.56,5.7-4.31,9.43a24,24,0,0,0-.71,4.08m5.45-25.5c3.7,0,7.31-1.89,8.31-4.54.45-1.18,1.78-6.53,1.07-7.88-.87-1.66-5.52-1.57-6.82.6-.57.94-1.49,6.36-1.78,7.81ZM189,81.29a10.33,10.33,0,0,0,7.35-3.11c1.14-1.35,3.85-10.4.71-10.4-5.32,0-5.36-.09-6.52,5.69ZM93.78,48h13.73A3.27,3.27,0,0,0,111,45.12c-1.52,0-14.06-.15-14.95.08A3,3,0,0,0,93.78,48M157,73.23c1.53,0,14.06.15,15-.09a3,3,0,0,0,2.27-2.74H160.69c-2,0-3.56,1-3.71,2.83M30.35,58.85c0,1.29,1.92,1.52,3.06,1.52,5.5,0,10.33-5.67,3.92-5.67-2.41,0-7,2-7,4.15M13.43,38.07l36.76.07c-1,1.31-3.91.87-6.54.87H21a3.94,3.94,0,0,0,.44,1.53H47.79l-.71,1.92L44.3,55.79a10.78,10.78,0,0,0,6.46-2c3.46-2.59,2.63-10.16,4.39-12.6,1.29-1.79,4.49-1.27,7.46-1.27,11.85,0,10.93-1.51,8.59,9.68-.9,4.33,2.21,6.23,6.23,6.23.1-1.23.61-3.14.86-4.37.31-1.56.59-3,.9-4.54.63-3.16,2.07-6.16-.66-8.09-2.26-1.6-5.31-1.74-9.16-1.74l-54.68,0ZM189,65.38h13.73c2.8,0,1.58,3.57,1.33,4.82-.86,4.27-2.58,8,1.21,10.08a9.57,9.57,0,0,0,4.65,1h48.61c.74,0,.65-.38.65-1.09,0-.34-.33-.53-.85-.63a7.83,7.83,0,0,0-1.37-.1c-15.78-.11-31.67.08-47.47.08.27-1.19.2-.88,3.05-.87h61a1.47,1.47,0,0,1-.21-.87H209.94c.07-2.82,2-8,2-11.12,0-2.55-4.18-4.14-7-4.14h-19.4c-4.23,0-6.27,3.54-7,7.17l-1.77,8.7c-.07.31-.21,1-.31,1.45-.19.87-1,2,2.89.9,6-1.76,5.52-6,6.7-11.16.23-1,.58-4.23,3-4.23"/><path class="cls-2" d="M115.84,91.12a23.41,23.41,0,0,1,3.44-.26c2.29,0,3.81.53,4.68,1.54a4.82,4.82,0,0,1,.84,4.43,8.18,8.18,0,0,1-2.75,4.8,9,9,0,0,1-5.81,1.77,25.23,25.23,0,0,1-2.86-.14ZM115.22,102a10.1,10.1,0,0,0,1.59.09,6,6,0,0,0,6.31-5.24c.62-2.91-.66-4.76-4-4.76a9.56,9.56,0,0,0-1.9.17Z"/><path class="cls-2" d="M130.7,103.29l1.8-8.86h1.61l-1.8,8.86Zm4.1-11.35a1.23,1.23,0,0,1-1.23,1,.76.76,0,0,1-.77-1,1.27,1.27,0,0,1,1.21-1,.77.77,0,0,1,.79,1"/><path class="cls-2" d="M144.56,103.29l.1-1.11h0a4.16,4.16,0,0,1-3,1.32,2,2,0,0,1-2.19-2.55c.43-2.14,2.57-3.31,6-3.3l0-.18c.15-.73.22-2-1.6-2a5.21,5.21,0,0,0-2.44.66L141.28,95a6.36,6.36,0,0,1,3.07-.79c2.71,0,3,1.85,2.63,3.63l-.67,3.31a12,12,0,0,0-.28,2.12Zm.68-4.52c-1.75,0-3.8.28-4.15,2a1.14,1.14,0,0,0,1.2,1.54,2.81,2.81,0,0,0,2.44-1.49,1.8,1.8,0,0,0,.2-.51Z"/><path class="cls-2" d="M163.93,94.43c-.17.64-.35,1.36-.57,2.44l-1,5.14c-.41,2-1.07,3.28-2.09,4a5.51,5.51,0,0,1-3.43,1.06,4.93,4.93,0,0,1-2.8-.73l.65-1.23a4.24,4.24,0,0,0,2.46.7c1.65,0,3-.86,3.48-3.1l.2-1h0a4,4,0,0,1-3.12,1.49c-2.2,0-3.39-1.87-2.89-4.32.61-3,2.91-4.71,4.94-4.71a2.31,2.31,0,0,1,2.45,1.54h0l.34-1.34Zm-2.37,3.5a2.36,2.36,0,0,0,.05-.73,1.8,1.8,0,0,0-1.9-1.71c-1.54,0-2.9,1.3-3.32,3.35-.35,1.74.23,3.19,2,3.19a3,3,0,0,0,2.57-1.65,2.85,2.85,0,0,0,.3-.86Z"/><path class="cls-2" d="M170.76,96.83c.19-.92.32-1.67.42-2.4h1.43l-.21,1.47h0a4.1,4.1,0,0,1,3.26-1.67c1.23,0,3,.73,2.37,3.77L177,103.29h-1.61l1-5.1c.29-1.43,0-2.62-1.52-2.62a3,3,0,0,0-2.49,1.64,2.72,2.72,0,0,0-.27.76l-1.08,5.32h-1.61Z"/><path class="cls-2" d="M193.17,98.79a5.55,5.55,0,0,1-5.37,4.71c-2.39,0-3.88-1.76-3.32-4.56a5.55,5.55,0,0,1,5.35-4.71c2.55,0,3.89,1.85,3.34,4.56m-7,.09c-.39,1.94.43,3.41,2,3.41s3-1.45,3.39-3.45c.31-1.5-.06-3.4-2-3.4s-3.08,1.76-3.43,3.44m6.79-8.28-2.76,2.62H189l2.15-2.62Z"/><path class="cls-2" d="M199.39,101.65a3.59,3.59,0,0,0,2,.64,1.8,1.8,0,0,0,2-1.32c.16-.77-.21-1.19-1.31-1.63-1.48-.57-2.05-1.45-1.83-2.51a3.48,3.48,0,0,1,3.58-2.6,3.85,3.85,0,0,1,2.07.55L205.24,96a3,3,0,0,0-1.71-.51,1.65,1.65,0,0,0-1.73,1.21c-.15.73.32,1.06,1.38,1.5,1.42.58,2,1.35,1.78,2.67-.32,1.56-1.75,2.66-3.85,2.66a4.36,4.36,0,0,1-2.37-.61Z"/><path class="cls-2" d="M217.74,91.89l-.51,2.54h2.3l-.25,1.23H217l-1,4.78c-.23,1.1,0,1.72.86,1.72a4,4,0,0,0,.95-.11l-.17,1.21a4.29,4.29,0,0,1-1.47.22,1.81,1.81,0,0,1-1.6-.68,3,3,0,0,1-.16-2.31l1-4.83H214l.25-1.23h1.37l.44-2.12Z"/><path class="cls-2" d="M225,103.29l1.8-8.86h1.61l-1.8,8.86Zm4.1-11.35a1.21,1.21,0,0,1-1.22,1,.76.76,0,0,1-.77-1,1.25,1.25,0,0,1,1.21-1,.76.76,0,0,1,.78,1"/><path class="cls-2" d="M240.37,103a6.69,6.69,0,0,1-2.65.52c-2.67,0-4-1.82-3.49-4.53a5.75,5.75,0,0,1,5.71-4.7,4.72,4.72,0,0,1,2.14.46L241.46,96a3.24,3.24,0,0,0-1.78-.42,3.93,3.93,0,0,0-3.81,3.35c-.42,2.05.65,3.32,2.4,3.32a5.24,5.24,0,0,0,2.07-.44Z"/><path class="cls-2" d="M256.18,98.79a5.55,5.55,0,0,1-5.37,4.71c-2.4,0-3.89-1.76-3.32-4.56a5.54,5.54,0,0,1,5.35-4.71c2.54,0,3.89,1.85,3.34,4.56m-7.05.09c-.39,1.94.43,3.41,2,3.41s3-1.45,3.39-3.45c.3-1.5-.06-3.4-2-3.4s-3.09,1.76-3.43,3.44"/><path class="cls-2" d="M262.4,101.65a3.56,3.56,0,0,0,2,.64,1.81,1.81,0,0,0,2-1.32c.16-.77-.21-1.19-1.31-1.63-1.48-.57-2.05-1.45-1.84-2.51a3.49,3.49,0,0,1,3.59-2.6,3.81,3.81,0,0,1,2.06.55L268.24,96a2.9,2.9,0,0,0-1.71-.51,1.63,1.63,0,0,0-1.72,1.21c-.15.73.31,1.06,1.38,1.5,1.41.58,2,1.35,1.78,2.67-.32,1.56-1.75,2.66-3.85,2.66a4.36,4.36,0,0,1-2.37-.61Z"/><path class="cls-2" d="M267.63,80.06a3.93,3.93,0,0,1,1.92.5A3.61,3.61,0,0,1,271,82a3.95,3.95,0,0,1,0,3.9,3.63,3.63,0,0,1-1.44,1.44,3.9,3.9,0,0,1-3.89,0,3.57,3.57,0,0,1-1.44-1.44,3.9,3.9,0,0,1-.52-1.94,4.08,4.08,0,0,1,.52-2,3.64,3.64,0,0,1,1.47-1.44,3.92,3.92,0,0,1,1.91-.5m0,.64a3.36,3.36,0,0,0-1.6.42,3.13,3.13,0,0,0-1.21,1.21,3.22,3.22,0,0,0-.44,1.63,3.28,3.28,0,0,0,.43,1.62,3.1,3.1,0,0,0,1.21,1.2,3.25,3.25,0,0,0,3.23,0,3.1,3.1,0,0,0,1.21-1.2,3.39,3.39,0,0,0,.43-1.62,3.33,3.33,0,0,0-.44-1.63,3.09,3.09,0,0,0-1.22-1.21,3.33,3.33,0,0,0-1.6-.42m-1.71,5.42v-4.2h1.45a3.85,3.85,0,0,1,1.07.11,1.06,1.06,0,0,1,.52.41,1.09,1.09,0,0,1,.2.62,1.13,1.13,0,0,1-.33.8,1.35,1.35,0,0,1-.87.38,1.23,1.23,0,0,1,.36.22,5.68,5.68,0,0,1,.62.83l.51.83h-.83l-.37-.67a3.24,3.24,0,0,0-.71-1,.83.83,0,0,0-.54-.15h-.4v1.79Zm.68-2.37h.82a1.33,1.33,0,0,0,.81-.17.58.58,0,0,0,.21-.47.56.56,0,0,0-.1-.33.64.64,0,0,0-.29-.22,2.09,2.09,0,0,0-.68-.07h-.77Z"/><path class="cls-1" d="M48.88,83.26c-1.64,0-4.94-.34-6.11.21-17,10.82-29.89,1-33.56-1.52.91,2.63,3.51,7.64,4.88,8.64a31.31,31.31,0,0,0,34.79-7.33M8.34,37.05c2.32-1.55,1.82-1.66,5.79-4,.82-.48,1.34-.65,2.2-1.06,7-3.37,16.15-2.91,23,.5.67.33,1.38.85,2,1.08,1.26.48,4.17.23,5.87.23-.35-1.28-7.2-4.93-8.81-5.57-8.1-3.24-17.58-3.43-25.5.47-1.49.73-4.12,6.77-4.49,8.37m4.58-9.15c9.87-3.73,20.51-5.15,34.81,5.53a2.58,2.58,0,0,0,.93.35c-.14-.65-.21-.73-.36-.88-6.94-7.28-18.18-12.49-30.18-10.43-.65.11-1.11.28-1.76.43-1,1.39-3,3.34-3.44,5m1.91,63.75c.6,1.13,3.13,4.78,4.35,4.84,14,.71,23.65-3.91,30.73-12.38a1.87,1.87,0,0,0,.5-.85,1.64,1.64,0,0,0-1.09.44,31.89,31.89,0,0,1-34.49,8m24-7.3.07-.07s-.09,0-.07.07m-2-51.44.43.25-.43-.25s-.11-.12-.14-.08l-1.19-.55A26.07,26.07,0,0,0,15.9,33.49C-16.48,50.79,5.63,98.41,37.36,85.13a3.31,3.31,0,0,0,1.28-.78c-2.36.19-9.71,4-19.62-.87C-3.9,72.18.5,37.28,24.34,32.56A29.09,29.09,0,0,1,30.8,32c2.93,0,4.77.85,6.09.88M17.28,21.79c13.6-1.33,21.62.95,32.53,11.67a1.33,1.33,0,0,0,1,.32h57.32c3.75,0-18.07-31.66-43.59-31.66V1.53c18.22,0,37.88,13.11,46,29.42.54,1.09.94,2.83,2.4,2.83,1,0,.47-.64.16-1.23C103.63,14.66,86.15,0,65,0,45.43,0,30.74,6.64,17.6,21.11a1.47,1.47,0,0,0-.32.68m2.18,75.63c28.36,31.28,77.78,24.42,94.15-14.16h-1.74C101.27,102.78,84.3,115.51,60,115.51c22.16-2.17,39.24-11.38,48.61-32.25H51.5C42.26,95,31.74,97.42,19.46,97.42"/></g></g></svg>