<svg xmlns="http://www.w3.org/2000/svg" viewBox="0 0 314.46 200.5"><defs><style>.cls-1,.cls-2{fill:#fff;}.cls-2{stroke:#000;stroke-miterlimit:10;}</style></defs><g id="Camada_2" data-name="Camada 2"><g id="Layer_1" data-name="Layer 1"><path class="cls-1" d="M128.48,138.74h1.42v10.47h14.74V138.74h1.42v23.07h-1.42V150.44H129.9v11.37h-1.42Z"/><path class="cls-1" d="M149.13,153.51a11,11,0,0,1,.5-3.34,8.27,8.27,0,0,1,1.47-2.77,7.16,7.16,0,0,1,2.39-1.89,8.07,8.07,0,0,1,6.53,0,7.26,7.26,0,0,1,2.39,1.89,8.65,8.65,0,0,1,1.47,2.77,11,11,0,0,1,.5,3.34,11.15,11.15,0,0,1-.5,3.36,8.29,8.29,0,0,1-1.47,2.76,7.23,7.23,0,0,1-2.39,1.88,8.07,8.07,0,0,1-6.53,0,7.13,7.13,0,0,1-2.39-1.88,8,8,0,0,1-1.47-2.76A11.15,11.15,0,0,1,149.13,153.51Zm1.23,0a9.75,9.75,0,0,0,.42,2.86,7.87,7.87,0,0,0,1.22,2.44,6,6,0,0,0,2,1.7,6.3,6.3,0,0,0,5.49,0,6,6,0,0,0,2-1.7,7.68,7.68,0,0,0,1.23-2.44,9.95,9.95,0,0,0,0-5.72,7.78,7.78,0,0,0-1.23-2.44,6,6,0,0,0-2-1.7,6.3,6.3,0,0,0-5.49,0,6,6,0,0,0-2,1.7,8,8,0,0,0-1.22,2.44A9.75,9.75,0,0,0,150.36,153.51Z"/><path class="cls-1" d="M167.84,156.29a4.88,4.88,0,0,0,1.69,3.57,4.88,4.88,0,0,0,1.7.95,6.47,6.47,0,0,0,2.1.33,10.84,10.84,0,0,0,1.73-.15,6.08,6.08,0,0,0,1.71-.53,3.55,3.55,0,0,0,1.31-1.09,2.89,2.89,0,0,0,.52-1.76,2.61,2.61,0,0,0-.84-2.1,5.82,5.82,0,0,0-2.12-1.09,22.69,22.69,0,0,0-2.75-.64,14.27,14.27,0,0,1-2.74-.72,5.62,5.62,0,0,1-2.12-1.38,4.29,4.29,0,0,1-.29-4.65,4.18,4.18,0,0,1,1.4-1.31,6.6,6.6,0,0,1,1.93-.69,11,11,0,0,1,2.13-.21,9.85,9.85,0,0,1,2.42.29,5.18,5.18,0,0,1,2,.94,4.45,4.45,0,0,1,1.29,1.64,5.75,5.75,0,0,1,.47,2.43h-1.23a4.57,4.57,0,0,0-.37-1.94,3.37,3.37,0,0,0-1-1.31,4.65,4.65,0,0,0-1.57-.74,7.52,7.52,0,0,0-1.94-.25,9,9,0,0,0-1.7.17,4.64,4.64,0,0,0-1.53.55,3.37,3.37,0,0,0-1.12,1,2.49,2.49,0,0,0-.43,1.48,2.56,2.56,0,0,0,.48,1.62,3.42,3.42,0,0,0,1.28,1,8.64,8.64,0,0,0,1.78.6l2,.45c.82.16,1.59.33,2.31.54a6.35,6.35,0,0,1,1.88.84,3.8,3.8,0,0,1,1.24,1.37,4.48,4.48,0,0,1,.45,2.13,3.77,3.77,0,0,1-.61,2.23,4.87,4.87,0,0,1-1.55,1.41,6.74,6.74,0,0,1-2.09.74,12.38,12.38,0,0,1-2.24.21,8.8,8.8,0,0,1-2.63-.37,5.92,5.92,0,0,1-2.12-1.13,5.43,5.43,0,0,1-1.42-1.86,6.13,6.13,0,0,1-.55-2.55Z"/><path class="cls-1" d="M184.28,149h.07a6.5,6.5,0,0,1,.64-1.36,6.12,6.12,0,0,1,1.2-1.37,6.56,6.56,0,0,1,1.8-1,6.48,6.48,0,0,1,2.41-.42,7.32,7.32,0,0,1,3.32.71,6.73,6.73,0,0,1,2.34,1.91,8.17,8.17,0,0,1,1.37,2.77,12.17,12.17,0,0,1,.46,3.33,12.71,12.71,0,0,1-.46,3.49,7.62,7.62,0,0,1-1.37,2.73,6.34,6.34,0,0,1-2.34,1.8,7.9,7.9,0,0,1-3.32.64,7.47,7.47,0,0,1-3.69-.9,5.3,5.3,0,0,1-2.36-2.94h-.07v9.4h-1.19V145.21h1.19Zm6.13,12.12a6,6,0,0,0,2.8-.62,5.55,5.55,0,0,0,1.94-1.65,7.2,7.2,0,0,0,1.14-2.4,11.53,11.53,0,0,0,.37-2.93,11,11,0,0,0-.36-2.79,7.64,7.64,0,0,0-1.1-2.46,5.67,5.67,0,0,0-1.93-1.74,5.79,5.79,0,0,0-2.86-.67,5.71,5.71,0,0,0-2.82.65,5.49,5.49,0,0,0-1.9,1.71,7.25,7.25,0,0,0-1.05,2.44,12.23,12.23,0,0,0-.33,2.86,13.34,13.34,0,0,0,.3,2.86,6.94,6.94,0,0,0,1,2.43,5.1,5.1,0,0,0,1.88,1.68A6.21,6.21,0,0,0,190.41,161.14Z"/><path class="cls-1" d="M201.05,142.07v-3.33h1.23v3.33Zm0,19.74v-16.6h1.23v16.6Z"/><path class="cls-1" d="M212.3,146.27h-3.62v11.6a4.56,4.56,0,0,0,.22,1.59,1.82,1.82,0,0,0,.7.88,2.48,2.48,0,0,0,1.13.38,12.4,12.4,0,0,0,1.53,0v1.06a11,11,0,0,1-1.82,0,3.76,3.76,0,0,1-1.57-.49,2.85,2.85,0,0,1-1.08-1.21,4.61,4.61,0,0,1-.34-2.23v-11.6h-3.07v-1.06h3.07V140h1.23v5.17h3.62Z"/><path class="cls-1" d="M225.58,158.52h-.07a5,5,0,0,1-.84,1.4,5.68,5.68,0,0,1-1.34,1.18,6.49,6.49,0,0,1-1.79.81,7.66,7.66,0,0,1-2.2.29,6.49,6.49,0,0,1-4.1-1.14,4.25,4.25,0,0,1-1.46-3.54,4.48,4.48,0,0,1,.58-2.38,4.43,4.43,0,0,1,1.47-1.45,6.26,6.26,0,0,1,2-.76,18.66,18.66,0,0,1,2.09-.32l1.91-.17a11,11,0,0,0,2.08-.3,2.75,2.75,0,0,0,1.15-.58,1.63,1.63,0,0,0,.48-1,8.43,8.43,0,0,0,.1-1.45,3.12,3.12,0,0,0-.26-1.26,2.83,2.83,0,0,0-.81-1,4.1,4.1,0,0,0-1.42-.71,7.65,7.65,0,0,0-2.13-.26,5.63,5.63,0,0,0-3.61,1.1,4.41,4.41,0,0,0-1.5,3.33h-1.23a5.46,5.46,0,0,1,1.77-4.12,7,7,0,0,1,4.63-1.37,6.63,6.63,0,0,1,4.38,1.18,3.84,3.84,0,0,1,1.37,3.08v9.66c0,.24,0,.48,0,.72a2.52,2.52,0,0,0,.11.64,1,1,0,0,0,.33.47,1,1,0,0,0,.64.18,5.37,5.37,0,0,0,.91-.1v1a4.21,4.21,0,0,1-1,.12,2.93,2.93,0,0,1-1.18-.19,1.55,1.55,0,0,1-.67-.52,1.79,1.79,0,0,1-.3-.76,4.68,4.68,0,0,1-.08-1Zm0-6.14a2.34,2.34,0,0,1-1.38.74,16.05,16.05,0,0,1-2,.29l-2.07.2c-.6.06-1.2.15-1.81.27a5.38,5.38,0,0,0-1.63.6,3.33,3.33,0,0,0-1.18,1.15,3.53,3.53,0,0,0-.45,1.89,3.24,3.24,0,0,0,1.16,2.73,5.18,5.18,0,0,0,3.2.89,6.36,6.36,0,0,0,3.33-.76,5.87,5.87,0,0,0,1.87-1.75,5.46,5.46,0,0,0,.83-1.9,8.1,8.1,0,0,0,.18-1.25Z"/><path class="cls-1" d="M232.23,138.74v23.07H231V138.74Z"/><path class="cls-1" d="M149.39,182.63a14.71,14.71,0,0,1-.75,4.74,11.27,11.27,0,0,1-2.15,3.84,9.94,9.94,0,0,1-3.44,2.57,11,11,0,0,1-4.62.94,11.07,11.07,0,0,1-4.63-.94,10,10,0,0,1-3.46-2.57,11.44,11.44,0,0,1-2.15-3.84,15.52,15.52,0,0,1,0-9.47,11.39,11.39,0,0,1,2.15-3.85,10.14,10.14,0,0,1,3.46-2.57,11.07,11.07,0,0,1,4.63-.93,11,11,0,0,1,4.62.93,10.06,10.06,0,0,1,3.44,2.57,11.22,11.22,0,0,1,2.15,3.85A14.61,14.61,0,0,1,149.39,182.63Zm-20.52,0a13.1,13.1,0,0,0,.65,4.2,10.21,10.21,0,0,0,1.87,3.44,9.25,9.25,0,0,0,3,2.35,9.11,9.11,0,0,0,4,.87,9,9,0,0,0,4-.87,9.17,9.17,0,0,0,3-2.35,10.23,10.23,0,0,0,1.88-3.44,13.89,13.89,0,0,0,0-8.4,10.33,10.33,0,0,0-1.88-3.44,8.81,8.81,0,0,0-7-3.21,8.89,8.89,0,0,0-7,3.21,10.31,10.31,0,0,0-1.87,3.44A13.19,13.19,0,0,0,128.87,182.63Z"/><path class="cls-1" d="M150.39,178.63v-1.07h3v-3.43a3.62,3.62,0,0,1,.29-1.5,2.8,2.8,0,0,1,.79-1,3.77,3.77,0,0,1,1.17-.58,4.93,4.93,0,0,1,1.4-.19,8.52,8.52,0,0,1,1.46.16v1.07a8.71,8.71,0,0,0-1.46-.17,3.06,3.06,0,0,0-1.73.47,2.12,2.12,0,0,0-.69,1.86v3.33h3.46v1.07h-3.46v15.54h-1.23V178.63Z"/><path class="cls-1" d="M166.09,178.63h-3.62v11.59a4.53,4.53,0,0,0,.23,1.59,1.83,1.83,0,0,0,.69.89,2.52,2.52,0,0,0,1.13.37,12.61,12.61,0,0,0,1.54,0v1.07a12.38,12.38,0,0,1-1.83,0,3.58,3.58,0,0,1-1.56-.48,2.83,2.83,0,0,1-1.09-1.22,4.59,4.59,0,0,1-.34-2.23V178.63h-3.06v-1.07h3.06v-5.17h1.23v5.17h3.62Z"/><path class="cls-1" d="M179.37,190.87h-.06a5.37,5.37,0,0,1-.84,1.41,6.4,6.4,0,0,1-1.34,1.18,6.7,6.7,0,0,1-1.8.8,7.63,7.63,0,0,1-2.19.29,6.53,6.53,0,0,1-4.11-1.14,4.24,4.24,0,0,1-1.45-3.54,4.39,4.39,0,0,1,.58-2.38,4.52,4.52,0,0,1,1.47-1.45,6.41,6.41,0,0,1,2-.76,18.5,18.5,0,0,1,2.08-.32l1.91-.16a11.59,11.59,0,0,0,2.08-.31,2.64,2.64,0,0,0,1.15-.58,1.71,1.71,0,0,0,.49-1,9.65,9.65,0,0,0,.09-1.45,3,3,0,0,0-.26-1.26,2.8,2.8,0,0,0-.8-1,4,4,0,0,0-1.42-.71,7.41,7.41,0,0,0-2.14-.26,5.56,5.56,0,0,0-3.6,1.1,4.3,4.3,0,0,0-1.5,3.32h-1.23a5.45,5.45,0,0,1,1.76-4.12,7,7,0,0,1,4.64-1.37,6.65,6.65,0,0,1,4.38,1.18,3.9,3.9,0,0,1,1.37,3.09v9.66c0,.23,0,.47,0,.71a2.09,2.09,0,0,0,.11.64.92.92,0,0,0,.32.47,1,1,0,0,0,.65.18,5.38,5.38,0,0,0,.9-.1v1a4.09,4.09,0,0,1-1,.13,2.92,2.92,0,0,1-1.18-.2,1.58,1.58,0,0,1-.66-.51,2.06,2.06,0,0,1-.31-.76,5.64,5.64,0,0,1-.08-1Zm0-6.14a2.32,2.32,0,0,1-1.37.75c-.62.12-1.3.22-2.05.29l-2.07.19c-.6.06-1.21.16-1.81.27a5.28,5.28,0,0,0-1.63.6,3.25,3.25,0,0,0-1.18,1.15,3.53,3.53,0,0,0-.45,1.89A3.2,3.2,0,0,0,170,192.6a5.16,5.16,0,0,0,3.2.89,6.27,6.27,0,0,0,3.33-.76,6,6,0,0,0,1.87-1.75,5.34,5.34,0,0,0,.82-1.9,8.1,8.1,0,0,0,.18-1.25Z"/><path class="cls-1" d="M186,171.1v23.07H184.8V171.1Z"/><path class="cls-1" d="M190,177.56h1.23V181h.06a4.46,4.46,0,0,1,.68-1.47,5.21,5.21,0,0,1,1.18-1.21,5.86,5.86,0,0,1,1.55-.81,5.64,5.64,0,0,1,1.79-.29,6.1,6.1,0,0,1,2.07.31,4.73,4.73,0,0,1,1.49.81,4,4,0,0,1,1,1.13,4.3,4.3,0,0,1,.48,1.27h.07a6,6,0,0,1,2-2.63,5.56,5.56,0,0,1,3.28-.89,6.11,6.11,0,0,1,2.09.34,4.56,4.56,0,0,1,1.65,1,4.81,4.81,0,0,1,1.08,1.77,7.33,7.33,0,0,1,.39,2.52v11.34h-1.23V182.79a5.2,5.2,0,0,0-.49-2.48,3.8,3.8,0,0,0-1.14-1.38,3.42,3.42,0,0,0-1.33-.58,7.13,7.13,0,0,0-1-.11,5.43,5.43,0,0,0-2.08.39,4.24,4.24,0,0,0-1.65,1.16,5.59,5.59,0,0,0-1.08,1.92,8.17,8.17,0,0,0-.39,2.63v9.83h-1.23V182.79a5.55,5.55,0,0,0-.46-2.47,3.81,3.81,0,0,0-1.1-1.37,3.21,3.21,0,0,0-1.3-.58,5.47,5.47,0,0,0-1-.13,5.12,5.12,0,0,0-3.52,1.45,5.78,5.78,0,0,0-1.26,1.91,7.14,7.14,0,0,0-.48,2.74v9.83H190Z"/><path class="cls-1" d="M214.88,185.86a11,11,0,0,1,.5-3.34,8.49,8.49,0,0,1,1.47-2.76,7,7,0,0,1,2.39-1.89,8,8,0,0,1,6.53,0,6.92,6.92,0,0,1,2.39,1.89,8.13,8.13,0,0,1,1.47,2.76,10.71,10.71,0,0,1,.5,3.34,10.84,10.84,0,0,1-.5,3.36,8.08,8.08,0,0,1-1.47,2.77,7.11,7.11,0,0,1-2.39,1.87,8.07,8.07,0,0,1-6.53,0,7.21,7.21,0,0,1-2.39-1.87,8.44,8.44,0,0,1-1.47-2.77A11.15,11.15,0,0,1,214.88,185.86Zm1.23,0a9.7,9.7,0,0,0,.42,2.86,7.68,7.68,0,0,0,1.23,2.44,6,6,0,0,0,2,1.7,6.3,6.3,0,0,0,5.49,0,6,6,0,0,0,2-1.7,7.87,7.87,0,0,0,1.22-2.44,9.95,9.95,0,0,0,0-5.72,8,8,0,0,0-1.22-2.44,6,6,0,0,0-2-1.69,6.3,6.3,0,0,0-5.49,0,5.94,5.94,0,0,0-2,1.69,7.78,7.78,0,0,0-1.23,2.44A9.75,9.75,0,0,0,216.11,185.86Z"/><path class="cls-1" d="M234.53,171.1v23.07H233.3V171.1Z"/><path class="cls-1" d="M237.66,185.86a11,11,0,0,1,.5-3.34,8.13,8.13,0,0,1,1.47-2.76,6.92,6.92,0,0,1,2.39-1.89,8,8,0,0,1,6.53,0,6.92,6.92,0,0,1,2.39,1.89,8.13,8.13,0,0,1,1.47,2.76,11,11,0,0,1,.5,3.34,11.15,11.15,0,0,1-.5,3.36,8.08,8.08,0,0,1-1.47,2.77,7.11,7.11,0,0,1-2.39,1.87,8.07,8.07,0,0,1-6.53,0,7.11,7.11,0,0,1-2.39-1.87,8.08,8.08,0,0,1-1.47-2.77A11.15,11.15,0,0,1,237.66,185.86Zm1.23,0a9.7,9.7,0,0,0,.42,2.86,7.68,7.68,0,0,0,1.23,2.44,5.88,5.88,0,0,0,2,1.7,6.3,6.3,0,0,0,5.49,0,6,6,0,0,0,2-1.7,7.87,7.87,0,0,0,1.22-2.44,9.95,9.95,0,0,0,0-5.72,8,8,0,0,0-1.22-2.44,6,6,0,0,0-2-1.69,6.3,6.3,0,0,0-5.49,0,5.85,5.85,0,0,0-2,1.69,7.78,7.78,0,0,0-1.23,2.44A9.75,9.75,0,0,0,238.89,185.86Zm9-15.28h1.65l-4.33,4.52H244Z"/><path class="cls-1" d="M269.49,177.56v15.73a11,11,0,0,1-.33,2.7,5.91,5.91,0,0,1-1.11,2.31,5.4,5.4,0,0,1-2.17,1.6,8.94,8.94,0,0,1-3.52.6,10.9,10.9,0,0,1-2.48-.27,6.13,6.13,0,0,1-2-.88,4.37,4.37,0,0,1-1.4-1.58,5.52,5.52,0,0,1-.6-2.44h1.23a4.37,4.37,0,0,0,.55,1.87,3.81,3.81,0,0,0,1.18,1.28,5,5,0,0,0,1.63.73,8,8,0,0,0,1.94.22,7.07,7.07,0,0,0,2.86-.51,5,5,0,0,0,1.82-1.34,4.87,4.87,0,0,0,1-1.88,8.42,8.42,0,0,0,.27-2.11v-3.82h-.06a6.63,6.63,0,0,1-2.38,2.81,6.51,6.51,0,0,1-3.63,1,7.47,7.47,0,0,1-3.19-.63,6.27,6.27,0,0,1-2.23-1.74,7.51,7.51,0,0,1-1.32-2.6,11.46,11.46,0,0,1-.44-3.23,10.47,10.47,0,0,1,.47-3.14,7.63,7.63,0,0,1,1.38-2.6,6.77,6.77,0,0,1,2.24-1.78,6.89,6.89,0,0,1,3.09-.66,7,7,0,0,1,3.63,1,5.61,5.61,0,0,1,2.38,2.85h.06v-3.46Zm-7.27.68a5.39,5.39,0,0,0-2.64.61,5.63,5.63,0,0,0-1.84,1.62,7.37,7.37,0,0,0-1.1,2.27,9.62,9.62,0,0,0-.37,2.61,10.34,10.34,0,0,0,.37,2.76,6.77,6.77,0,0,0,1.13,2.28,5.49,5.49,0,0,0,4.45,2.1,5.84,5.84,0,0,0,2.65-.58,5.58,5.58,0,0,0,1.89-1.59,7.06,7.06,0,0,0,1.13-2.28,9.87,9.87,0,0,0,.37-2.69,10,10,0,0,0-.37-2.69,6.81,6.81,0,0,0-1.13-2.27,5.64,5.64,0,0,0-1.89-1.57A5.72,5.72,0,0,0,262.22,178.24Z"/><path class="cls-1" d="M273.43,174.42V171.1h1.23v3.32Zm0,19.75V177.56h1.23v16.61Z"/><path class="cls-1" d="M291.07,182.7a4.59,4.59,0,0,0-.57-1.94,4.17,4.17,0,0,0-1.21-1.39,5.26,5.26,0,0,0-1.73-.84,7.18,7.18,0,0,0-2.11-.29,5.81,5.81,0,0,0-2.75.63,6,6,0,0,0-2,1.68,7.63,7.63,0,0,0-1.23,2.39,9.14,9.14,0,0,0-.42,2.76,11.64,11.64,0,0,0,.39,3.1,7.06,7.06,0,0,0,1.19,2.48,5.59,5.59,0,0,0,2,1.63,6.43,6.43,0,0,0,2.81.58,5.83,5.83,0,0,0,2.15-.39,5.75,5.75,0,0,0,1.74-1.07,5.49,5.49,0,0,0,1.25-1.63,6.73,6.73,0,0,0,.64-2.08h1.23a7.83,7.83,0,0,1-.81,2.65,6.37,6.37,0,0,1-1.55,1.95,6.69,6.69,0,0,1-2.13,1.21,7.57,7.57,0,0,1-2.52.42,7.71,7.71,0,0,1-3.48-.72,6.71,6.71,0,0,1-2.35-2,8.21,8.21,0,0,1-1.36-2.82,12.77,12.77,0,0,1-.44-3.35,10.74,10.74,0,0,1,.5-3.29,8.29,8.29,0,0,1,1.47-2.72,7.12,7.12,0,0,1,2.39-1.84,7.55,7.55,0,0,1,3.27-.68,8.94,8.94,0,0,1,2.53.34,6.62,6.62,0,0,1,2.1,1,5.27,5.27,0,0,1,1.51,1.73,6.33,6.33,0,0,1,.71,2.44Z"/><path class="cls-1" d="M294.56,185.86a11,11,0,0,1,.5-3.34,8.13,8.13,0,0,1,1.47-2.76,6.92,6.92,0,0,1,2.39-1.89,8,8,0,0,1,6.53,0,6.92,6.92,0,0,1,2.39,1.89,8.13,8.13,0,0,1,1.47,2.76,11,11,0,0,1,.5,3.34,11.15,11.15,0,0,1-.5,3.36,8.08,8.08,0,0,1-1.47,2.77,7.11,7.11,0,0,1-2.39,1.87,8.07,8.07,0,0,1-6.53,0,7.11,7.11,0,0,1-2.39-1.87,8.08,8.08,0,0,1-1.47-2.77A11.15,11.15,0,0,1,294.56,185.86Zm1.23,0a9.7,9.7,0,0,0,.42,2.86,7.68,7.68,0,0,0,1.23,2.44,5.88,5.88,0,0,0,2,1.7,6.3,6.3,0,0,0,5.49,0,5.88,5.88,0,0,0,2-1.7,7.68,7.68,0,0,0,1.23-2.44,9.95,9.95,0,0,0,0-5.72,7.78,7.78,0,0,0-1.23-2.44,5.95,5.95,0,0,0-9.49,0,7.78,7.78,0,0,0-1.23,2.44A9.75,9.75,0,0,0,295.79,185.86Z"/><path class="cls-2" d="M116,108.56l-6.13-5.19A40.15,40.15,0,1,1,93,41.14l3.66-7.35A48.27,48.27,0,1,0,82.39,126.6,46.3,46.3,0,0,0,116,108.56Z"/><path class="cls-2" d="M88.43,100.78a21.54,21.54,0,0,1-8,1.89A24.28,24.28,0,1,1,91.11,57.78l6.78-8.6a35.17,35.17,0,1,0-5.74,61.67Z"/><path class="cls-2" d="M79.92,95.32l-.19,0A16.8,16.8,0,1,1,91.56,68.24l5.8-4.65a23.54,23.54,0,0,0-21-9.22,24.32,24.32,0,1,0,3.94,48.48c.38,0,.74-.1,1.11-.15Z"/><path class="cls-2" d="M75.64,43.63a35,35,0,1,1-3.11,69.24l-1.44,5.69a40.68,40.68,0,0,0,48.06-43.4A40.8,40.8,0,0,0,45.13,55l5.42,2.59A34.9,34.9,0,0,1,75.64,43.63Z"/><path class="cls-2" d="M114.8,117.71,110.93,114a48.14,48.14,0,1,1-1.25-72.14l3.11-4.67a53.73,53.73,0,1,0-30,94.88A51.49,51.49,0,0,0,114.8,117.71Z"/><path class="cls-2" d="M81.8,131.8A53.33,53.33,0,0,1,27.44,62.65l-6-1.88A59.65,59.65,0,0,0,82.15,138Z"/><path class="cls-2" d="M73,10.8A67.52,67.52,0,0,0,36.11,25.4l5.6,6a59.64,59.64,0,0,1,89.36,18.78l6.9-4.44A67.89,67.89,0,0,0,73,10.8Z"/><path class="cls-2" d="M102.35,133.19A59.58,59.58,0,0,1,26.5,107.88l-6.75,4.71a67.93,67.93,0,0,0,86.08,28Z"/><path class="cls-2" d="M94.81,143.58A67.15,67.15,0,1,1,123.62,28.83l2.16-1.89A70,70,0,1,0,84.14,148.21a69.4,69.4,0,0,0,11.56-1.93Z"/><path class="cls-2" d="M88.67,147.45c-1.5.22-3,.41-4.54.54A69.75,69.75,0,1,1,114.5,18.8l5.08-6.57a78,78,0,1,0-34.79,144c2-.17,4-.43,6-.74Z"/><path class="cls-2" d="M76.91,60.08A18.49,18.49,0,1,1,60,80,18.49,18.49,0,0,1,76.91,60.08Z"/><path class="cls-1" d="M148.25,63.51l15.42,45.34h.18l14.59-45.34h20.41v65.93H185.28V82.71h-.19l-16.16,46.73H157.76L141.6,83.18h-.19v46.26H127.84V63.51Z"/><path class="cls-1" d="M210.58,74.31V63.51h13.11v10.8Zm13.11,7.39v47.74H210.58V81.7Z"/><path class="cls-1" d="M246.5,81.7v8.86h.18a16.45,16.45,0,0,1,2.5-4.11,16.28,16.28,0,0,1,3.6-3.23,17.88,17.88,0,0,1,4.34-2.08,15.73,15.73,0,0,1,4.8-.73,10.1,10.1,0,0,1,2.86.46V93.06c-.61-.13-1.35-.23-2.21-.33a24.23,24.23,0,0,0-2.5-.13A14,14,0,0,0,254,93.8a10.64,10.64,0,0,0-4,3.27,13.32,13.32,0,0,0-2.17,4.85,26.48,26.48,0,0,0-.64,6v21.52H234V81.7Z"/><path class="cls-1" d="M269.4,96.38a15.1,15.1,0,0,1,2.31-7.66,15.73,15.73,0,0,1,5.17-4.9,22.49,22.49,0,0,1,7.06-2.63,40.46,40.46,0,0,1,7.9-.78,54.8,54.8,0,0,1,7.29.5,22.57,22.57,0,0,1,6.75,2,13.16,13.16,0,0,1,5,4.11,11.49,11.49,0,0,1,1.94,7v24.84a49.16,49.16,0,0,0,.37,6.19,11.3,11.3,0,0,0,1.29,4.43H301.17a17.49,17.49,0,0,1-.6-2.26,18.36,18.36,0,0,1-.33-2.36,17,17,0,0,1-7.39,4.53,29.68,29.68,0,0,1-8.68,1.29,23.64,23.64,0,0,1-6.37-.83,14.54,14.54,0,0,1-5.17-2.59,11.87,11.87,0,0,1-3.46-4.43,15,15,0,0,1-1.25-6.37,14,14,0,0,1,1.43-6.7,12.09,12.09,0,0,1,3.7-4.2,16.62,16.62,0,0,1,5.17-2.35,56.59,56.59,0,0,1,5.86-1.25c2-.31,3.91-.55,5.82-.74a34.32,34.32,0,0,0,5.08-.83,9,9,0,0,0,3.51-1.61,3.56,3.56,0,0,0,1.2-3.1,7,7,0,0,0-.69-3.37,5.16,5.16,0,0,0-1.85-1.94,7.21,7.21,0,0,0-2.68-.92,22.51,22.51,0,0,0-3.28-.23,9.94,9.94,0,0,0-6.09,1.66q-2.22,1.66-2.59,5.54Zm30.29,9.7a6,6,0,0,1-2.08,1.15,19.76,19.76,0,0,1-2.68.69c-.95.19-1.95.34-3,.47s-2.09.27-3.14.46a23,23,0,0,0-2.91.74,8.79,8.79,0,0,0-2.49,1.24,6,6,0,0,0-1.71,2,6.38,6.38,0,0,0-.65,3.05,6.16,6.16,0,0,0,.65,2.95,4.93,4.93,0,0,0,1.76,1.89,7.1,7.1,0,0,0,2.58,1,16.1,16.1,0,0,0,3.05.28,11.63,11.63,0,0,0,6-1.29,8.64,8.64,0,0,0,3.14-3.1,9.93,9.93,0,0,0,1.25-3.64,25.93,25.93,0,0,0,.23-3Z"/></g></g></svg>