<svg width="245" height="113" viewBox="0 0 245 113" fill="none" xmlns="http://www.w3.org/2000/svg">
<path d="M3.98325 71.086L9.8486 83.216L14.8824 71.086H18.8059V71.3401C17.5711 71.4448 17.0882 72.0578 17.0882 73.3485V83.0915C17.0882 84.1878 17.0882 85.9421 19.0698 86.0268V86.281H12.9804V86.0268C14.5588 85.7527 14.9422 85.1596 14.9422 83.5101V72.1624L9.07684 86.276H8.99718L2.50447 72.7555V82.6031C2.50447 85.0351 3.45547 85.8374 4.88944 86.0268V86.281H0V86.0268C1.33439 85.8573 1.98167 85.3739 1.98167 82.7077V73.4731C1.98167 71.8235 1.25473 71.5943 0.15933 71.3401V71.086H3.98325Z" fill="#FCFAFA"/>
<path d="M26.3542 86.276H19.8018V86.0218C21.8631 85.7676 22.0075 85.0699 22.0075 83.2758V74.0861C22.0075 72.2671 21.8482 71.5943 19.8018 71.3401V71.086H26.3542V71.3401C24.2929 71.5943 24.1485 72.292 24.1485 74.0861V83.2758C24.1485 85.0949 24.3078 85.7676 26.3542 86.0218V86.276ZM22.59 68.3998C22.9137 67.8516 23.2373 67.2386 23.8846 67.2386C24.4124 67.2386 24.7958 67.7669 24.7958 68.2304C24.7958 68.8832 24.1883 69.1822 23.3817 69.4962L21.8631 70.0893L21.7237 69.9198L22.595 68.3998H22.59Z" fill="#FCFAFA"/>
<path d="M33.6734 71.086C37.6567 71.086 38.8716 73.2837 38.8716 75.2273C38.8716 78.0182 36.5663 78.8803 35.4559 79.1793C35.9837 79.3886 36.5264 79.8322 37.7413 81.8007C37.9654 82.1595 38.9164 83.7443 39.1355 84.0633C40.4699 85.967 41.6449 85.967 42.0283 86.0268V86.281H38.0849C37.338 85.4138 37.0741 84.9703 36.5264 84.148L35.4958 82.4585C34.9082 81.4867 33.5141 79.269 31.9357 79.269H31.2088V83.4303C31.2088 85.3739 31.4926 85.8823 33.1706 86.0268V86.281H27.5492V86.0268C29.0678 85.8175 29.0678 84.5467 29.0678 83.6596V73.5578C29.0678 72.6259 29.0678 71.3601 27.0662 71.3401V71.086H33.6784H33.6734ZM31.2038 78.8404H32.9415C34.6792 78.8404 36.7256 77.6593 36.7256 75.1426C36.7256 73.1542 35.5306 71.5096 32.5382 71.5096H31.9706C31.3631 71.5096 31.2038 71.5494 31.2038 72.2272V78.8404Z" fill="#FCFAFA"/>
<path d="M48.7202 86.276H42.1677V86.0218C44.2291 85.7676 44.3735 85.0699 44.3735 83.2758V74.0861C44.3735 72.2671 44.2141 71.5943 42.1677 71.3401V71.086H48.7202V71.3401C46.6588 71.5943 46.5145 72.292 46.5145 74.0861V83.2758C46.5145 85.0949 46.6738 85.7676 48.7202 86.0218V86.276Z" fill="#FCFAFA"/>
<path d="M62.1089 83.1712C62.4325 83.9935 63.264 85.8972 64.6183 86.0218V86.276H58.1655V86.0218C60.0276 85.9172 60.5504 85.0899 59.6841 82.8971L58.6932 80.3804H53.1316L52.2603 82.6828C51.5334 84.6264 51.6728 85.7278 53.3706 86.0218V86.276H49.1633V86.0218C50.1541 85.344 50.901 84.7759 51.6728 82.8323L55.3722 73.3884C55.5116 73.0296 55.6162 72.7355 55.4718 72.3119C56.0593 71.9531 56.5025 71.6142 57.0502 70.9165H57.2543L62.1089 83.1712ZM55.9 73.3236L53.291 79.9568H58.5289L55.9 73.3236Z" fill="#FCFAFA"/>
<path d="M68.5618 71.086L79.1821 82.7277V74.9532C79.1821 71.7837 77.8477 71.4896 76.4536 71.3401V71.086H81.7513V71.3401C79.9937 71.4448 79.7099 72.7355 79.7099 74.9333V86.5351H79.5058L67.6755 73.518V82.309C67.6755 84.761 68.507 85.7726 69.9609 86.0268V86.281H65.0665V86.0268C66.9087 85.6879 67.1477 84.7161 67.1477 82.4536V73.0096C66.117 71.8485 65.8332 71.5096 65.0665 71.3401V71.086H68.5667H68.5618Z" fill="#FCFAFA"/>
<path d="M159.012 75.8752H158.748C157.876 73.9715 156.666 71.3551 153.206 71.3551C148.735 71.3551 147.38 76.0646 147.38 79.4285C147.38 83.0416 149.058 86.3607 153.022 86.3607C154.72 86.3607 155.631 85.663 156.139 85.0101C156.582 84.4171 156.602 83.6795 156.602 83.2559V82.0499C156.602 80.8688 155.915 80.0614 154.7 79.7275V79.4734H160.525V79.7275C159.415 80.1312 158.787 80.6595 158.787 81.7558V85.0101C156.826 86.256 154.296 86.8291 152.763 86.8291C148.575 86.8291 145.14 83.829 145.14 79.0348C145.14 75.1875 147.485 70.9016 152.907 70.9016C156.144 70.9016 157.662 72.4016 158.046 72.4016C158.349 72.4016 158.553 71.8933 158.673 71.6192H158.937L159.016 75.8852L159.012 75.8752Z" fill="#FCFAFA"/>
<path d="M176.707 78.9601C176.707 83.226 173.471 86.8192 168.88 86.8192C164.976 86.8192 161.237 84.138 161.237 78.6012C161.237 75.0928 163.642 70.8916 169.124 70.8916C173.715 70.8916 176.707 74.2506 176.707 78.965V78.9601ZM163.542 78.686C163.542 81.9801 165.181 86.3557 168.86 86.3557C172.948 86.3557 174.402 82.1496 174.402 78.9401C174.402 75.0529 172.863 71.3551 169.164 71.3551C165.181 71.3551 163.542 76.0646 163.542 78.686Z" fill="#FCFAFA"/>
<path d="M180.994 71.2454L191.614 82.8871V75.1127C191.614 71.9432 190.28 71.6491 188.886 71.4996V71.2454H194.184V71.4996C192.426 71.6043 192.142 72.895 192.142 75.0928V86.6946H191.938L180.108 73.6774V82.4685C180.108 84.9204 180.939 85.9321 182.393 86.1863V86.4404H177.499V86.1863C179.341 85.8474 179.58 84.8756 179.58 82.613V73.1691C178.549 72.0079 178.266 71.6691 177.499 71.4996V71.2454H180.999H180.994Z" fill="#FCFAFA"/>
<path d="M210.161 74.7938H209.798C208.22 72.1525 207.109 71.6691 204.56 71.6691H203.345V83.3955C203.345 85.4437 203.729 85.8474 205.063 86.1863V86.4404H199.481V86.1863C200.895 85.9321 201.199 85.4238 201.199 83.4204V71.674H199.805C197.639 71.674 196.245 72.1176 194.746 74.7988H194.383L195.214 70.7222H195.518C196.165 71.081 196.852 71.2504 198.53 71.2504H206.338C207.752 71.2504 208.22 71.1458 209.006 70.7222H209.31L210.161 74.7988V74.7938Z" fill="#FCFAFA"/>
<path d="M217.097 86.4404H210.545V86.1863C212.606 85.9321 212.751 85.2344 212.751 83.4403V74.2506C212.751 72.4315 212.586 71.7588 210.545 71.5046V71.2504H217.097V71.5046C215.036 71.7588 214.892 72.4565 214.892 74.2506V83.4403C214.892 85.2593 215.056 85.9321 217.097 86.1863V86.4404Z" fill="#FCFAFA"/>
<path d="M225.507 71.2454V71.4996C224.133 71.8385 223.869 72.4315 223.869 74.0363V82.2542C223.869 86.0168 220.857 86.6896 219.781 86.6896C218.606 86.6896 217.575 86.1613 217.575 85.2294C217.575 84.7659 217.959 84.1928 218.686 84.1928C219.129 84.1928 219.517 84.5317 219.597 85.0151C219.761 85.8823 219.781 86.1763 220.264 86.1763C221.315 86.1763 221.718 85.0998 221.718 83.1762V75.5463C221.718 72.2521 221.255 71.8086 219.96 71.4896V71.2355H225.502L225.507 71.2454Z" fill="#FCFAFA"/>
<path d="M242.072 78.9601C242.072 83.226 238.836 86.8192 234.245 86.8192C230.342 86.8192 226.602 84.138 226.602 78.6012C226.602 75.0928 229.007 70.8916 234.489 70.8916C239.08 70.8916 242.072 74.2506 242.072 78.965V78.9601ZM228.908 78.686C228.908 81.9801 230.546 86.3557 234.225 86.3557C238.313 86.3557 239.767 82.1496 239.767 78.9401C239.767 75.0529 238.228 71.3551 234.529 71.3551C230.546 71.3551 228.908 76.0646 228.908 78.686Z" fill="#FCFAFA"/>
<path d="M152.663 99.328H152.071L151.403 97.5239H148.884L148.197 99.328H147.634L149.865 93.5919H150.448L152.658 99.328H152.663ZM150.159 94.0952L149.038 97.0854H151.249L150.159 94.0952Z" fill="#FCFAFA"/>
<path d="M155.576 93.5869C155.676 93.5869 155.91 93.5969 156.188 93.6517C156.517 93.7065 157.239 93.856 157.697 94.6733C157.851 94.9674 158.1 95.5604 158.1 96.4026C158.1 96.7116 158.085 97.6784 157.518 98.4658C157.239 98.8645 156.92 99.0439 156.756 99.1137C156.373 99.2931 156.064 99.3031 155.651 99.318H153.714V93.5819H155.571L155.576 93.5869ZM155.536 98.8695C156.059 98.8595 156.258 98.8296 156.507 98.715C157.597 98.2216 157.597 96.592 157.597 96.4226C157.587 95.6352 157.363 95.0919 157.199 94.8278C157.114 94.7082 156.925 94.4391 156.567 94.2597C156.139 94.0504 155.526 94.0504 155.422 94.0404H154.232V98.8695H155.536Z" fill="#FCFAFA"/>
<path d="M161.486 99.328H160.874L158.817 93.5919H159.4L161.197 98.8247L162.97 93.5919H163.523L161.486 99.328Z" fill="#FCFAFA"/>
<path d="M168.561 94.0504C169.463 94.8727 169.487 96.1535 169.487 96.4973C169.487 96.7963 169.463 97.6685 168.93 98.426C168.666 98.7997 168.058 99.4576 166.893 99.4576C166.714 99.4576 166.256 99.4476 165.798 99.2283C165.191 98.9343 164.314 98.1369 164.314 96.4574C164.314 94.9524 165.001 94.2049 165.514 93.866C165.788 93.6866 166.067 93.5969 166.176 93.567C166.276 93.5321 166.575 93.4623 166.898 93.4523C167.187 93.4424 167.939 93.4773 168.571 94.0554L168.561 94.0504ZM166.042 94.1152C165.504 94.3743 164.827 95.0272 164.827 96.4375C164.827 96.6717 164.837 97.4641 165.26 98.112C165.34 98.2266 165.499 98.4459 165.783 98.6403C166.241 98.9592 166.699 98.9841 166.903 98.9841C167.068 98.9841 167.456 98.9692 167.854 98.7399C168.905 98.1469 168.95 96.8213 168.95 96.5123C168.95 96.283 168.92 95.4458 168.482 94.773C168.288 94.479 167.805 93.9258 166.893 93.9258C166.754 93.9258 166.395 93.9407 166.037 94.1152H166.042Z" fill="#FCFAFA"/>
<path d="M175.756 99.328H175.413L175.303 98.2615C175.248 98.3911 175.193 98.5157 175.009 98.735C174.77 99.029 174.262 99.4675 173.346 99.4675C172.56 99.4675 172.062 99.1486 171.813 98.9492C171.554 98.7399 171.066 98.2167 170.882 97.3395C170.852 97.1851 170.802 96.9109 170.802 96.5272C170.802 95.8295 170.941 95.1717 171.33 94.5786C171.375 94.5039 171.499 94.3245 171.678 94.15C171.937 93.8909 172.505 93.4573 173.431 93.4573C174.715 93.4573 175.313 94.2846 175.517 94.7481C175.632 95.0072 175.666 95.2415 175.681 95.3511H175.174C175.159 95.2614 175.144 95.1617 175.074 94.9873C174.905 94.5986 174.462 93.9208 173.401 93.9308C172.968 93.9308 172.584 94.0354 172.226 94.3045C171.947 94.5238 171.549 94.9375 171.394 95.7847C171.37 95.9043 171.325 96.1485 171.325 96.4674C171.325 96.7216 171.35 97.5887 171.853 98.2565C172.39 98.9642 173.127 99.019 173.416 99.019C173.635 99.019 174.262 98.9791 174.755 98.4658C175.298 97.8877 175.298 97.1153 175.298 96.8661H173.421V96.4176H175.756V99.338V99.328Z" fill="#FCFAFA"/>
<path d="M181.836 99.328H181.243L180.576 97.5239H178.056L177.369 99.328H176.807L179.037 93.5919H179.62L181.831 99.328H181.836ZM179.331 94.0952L178.211 97.0854H180.421L179.331 94.0952Z" fill="#FCFAFA"/>
<path d="M184.743 93.5869C184.843 93.5869 185.077 93.5969 185.356 93.6517C185.684 93.7065 186.406 93.856 186.864 94.6733C187.019 94.9674 187.268 95.5604 187.268 96.4026C187.268 96.7116 187.253 97.6784 186.685 98.4658C186.406 98.8645 186.088 99.0439 185.923 99.1137C185.54 99.2931 185.231 99.3031 184.818 99.318H182.881V93.5819H184.738L184.743 93.5869ZM184.703 98.8695C185.226 98.8595 185.425 98.8296 185.674 98.715C186.765 98.2216 186.765 96.592 186.765 96.4226C186.755 95.6352 186.531 95.0919 186.367 94.8278C186.282 94.7082 186.093 94.4391 185.734 94.2597C185.306 94.0504 184.694 94.0504 184.589 94.0404H183.399V98.8695H184.703Z" fill="#FCFAFA"/>
<path d="M192.849 94.0504C193.75 94.8727 193.775 96.1535 193.775 96.4973C193.775 96.7963 193.75 97.6685 193.218 98.426C192.954 98.7997 192.346 99.4576 191.181 99.4576C191.002 99.4576 190.544 99.4476 190.086 99.2283C189.478 98.9343 188.602 98.1369 188.602 96.4574C188.602 94.9524 189.289 94.2049 189.802 93.866C190.076 93.6866 190.355 93.5969 190.464 93.567C190.564 93.5321 190.863 93.4623 191.186 93.4523C191.475 93.4424 192.227 93.4773 192.859 94.0554L192.849 94.0504ZM190.33 94.1152C189.792 94.3743 189.115 95.0272 189.115 96.4375C189.115 96.6717 189.125 97.4641 189.548 98.112C189.628 98.2266 189.787 98.4459 190.071 98.6403C190.529 98.9592 190.987 98.9841 191.191 98.9841C191.356 98.9841 191.744 98.9692 192.142 98.7399C193.193 98.1469 193.238 96.8213 193.238 96.5123C193.238 96.283 193.208 95.4458 192.77 94.773C192.575 94.479 192.092 93.9258 191.181 93.9258C191.042 93.9258 190.683 93.9407 190.325 94.1152H190.33Z" fill="#FCFAFA"/>
<path d="M198.615 95.2365C198.585 94.8378 198.491 94.5138 198.187 94.2597C197.978 94.0902 197.664 93.9158 197.081 93.9158C196.041 93.9258 195.712 94.4839 195.712 95.0072C195.712 95.4557 195.936 95.6352 196.086 95.7298C196.275 95.8445 196.559 95.9342 197.012 96.0488C197.216 96.0986 197.425 96.1485 197.624 96.2033C197.818 96.2432 198.013 96.293 198.202 96.3677C198.461 96.4575 199.297 96.7515 199.297 97.7582C199.297 98.0173 199.242 98.5954 198.705 99.024C198.426 99.2433 198.003 99.4476 197.236 99.4476C197.047 99.4476 196.569 99.4476 196.071 99.2184C195.882 99.1287 195.518 98.9443 195.264 98.4559C195.184 98.3113 195.03 97.9675 195.03 97.5289C195.03 97.4891 195.04 97.4542 195.04 97.4243H195.538C195.538 97.798 195.633 98.0572 195.692 98.1868C196.081 99.014 197.101 98.9991 197.281 98.9991C197.739 98.9991 198.232 98.9094 198.54 98.5256C198.779 98.2416 198.789 97.9326 198.789 97.7931C198.789 97.7283 198.799 97.5638 198.72 97.4043C198.481 96.886 197.724 96.7465 197.271 96.6319C197.076 96.582 196.887 96.5322 196.693 96.4874C196.26 96.3827 196.016 96.283 195.832 96.1784C195.249 95.8544 195.209 95.2664 195.209 95.0222C195.209 94.5338 195.418 94.1102 195.802 93.8261C196.061 93.6318 196.434 93.4623 197.126 93.4623C197.774 93.4623 198.112 93.6168 198.371 93.7813C199.073 94.2298 199.118 94.9375 199.128 95.2365H198.615Z" fill="#FCFAFA"/>
<path d="M243.038 74.1858V72.6508H243.691C243.855 72.6508 243.974 72.6658 244.049 72.6907C244.124 72.7206 244.183 72.7654 244.228 72.8402C244.273 72.91 244.293 72.9897 244.293 73.0844C244.293 73.199 244.258 73.2937 244.193 73.3685C244.124 73.4432 244.024 73.4931 243.89 73.508C243.954 73.5479 244.014 73.5877 244.054 73.6376C244.099 73.6824 244.159 73.7672 244.228 73.8868L244.417 74.1858H244.049L243.825 73.8519C243.745 73.7323 243.691 73.6575 243.661 73.6276C243.631 73.5977 243.601 73.5778 243.566 73.5628C243.531 73.5529 243.481 73.5479 243.412 73.5479H243.347V74.1858H243.038ZM243.347 73.2987H243.576C243.725 73.2987 243.815 73.2937 243.855 73.2788C243.89 73.2638 243.92 73.2439 243.939 73.214C243.959 73.1841 243.969 73.1442 243.969 73.0993C243.969 73.0495 243.954 73.0047 243.93 72.9748C243.905 72.9449 243.865 72.9249 243.815 72.915C243.79 72.915 243.715 72.91 243.591 72.91H243.347V73.2987Z" fill="#FCFAFA"/>
<path d="M245 73.4731C245 74.2207 244.393 74.8287 243.646 74.8287C242.899 74.8287 242.291 74.2207 242.291 73.4731C242.291 72.7256 242.899 72.1176 243.646 72.1176C244.393 72.1176 245 72.7256 245 73.4731ZM243.646 74.6193C244.278 74.6193 244.791 74.106 244.791 73.4731C244.791 72.8402 244.278 72.3269 243.646 72.3269C243.013 72.3269 242.501 72.8402 242.501 73.4731C242.501 74.106 243.013 74.6193 243.646 74.6193Z" fill="#FCFAFA"/>
<path d="M113.194 70.6823C112.846 70.7919 112.497 70.5328 112.492 70.169L112.348 33.1409C112.348 29.8168 112.348 26.4928 112.348 23.1637C112.348 22.6455 112.233 22.1072 112.447 21.6089C112.477 21.5391 112.527 21.4843 112.577 21.4295C112.711 21.3049 112.846 21.1703 112.995 21.0657C122.809 14.1584 132.627 7.25113 142.451 0.353836C142.546 0.284065 142.64 0.199344 142.74 0.119607C143.093 -0.164458 143.616 0.0897052 143.616 0.543212V1.32065C143.616 14.9159 143.591 28.5161 143.631 42.1114C143.646 46.6863 141.898 50.4389 138.264 53.0603C130.023 59.0057 121.654 64.7668 113.334 70.5976C113.289 70.6275 113.239 70.6524 113.184 70.6723L113.194 70.6823Z" fill="#FEFEFE"/>
<path d="M112.826 70.6823C113.174 70.7919 113.523 70.5328 113.528 70.169L113.672 33.1409C113.672 29.8168 113.672 26.4928 113.672 23.1637C113.672 22.6455 113.787 22.1072 113.573 21.6089C113.543 21.5391 113.493 21.4793 113.443 21.4295C113.309 21.3049 113.174 21.1703 113.025 21.0657C103.211 14.1584 93.3924 7.25113 83.5687 0.353836C83.4741 0.284065 83.3795 0.199344 83.2799 0.119607C82.9264 -0.164458 82.4036 0.0897052 82.4036 0.543212V1.32065C82.4036 14.9159 82.4285 28.5161 82.3886 42.1114C82.3737 46.6863 84.1214 50.4389 87.7561 53.0603C95.9964 59.0057 104.366 64.7668 112.686 70.5976C112.731 70.6275 112.781 70.6524 112.836 70.6723L112.826 70.6823Z" fill="#CBCBCB"/>
<path d="M113.06 112.983C118.407 109.25 123.79 105.562 129.082 101.755C131.099 100.305 132.179 98.1519 132.189 95.6401C132.234 86.9089 132.204 78.1726 132.194 69.4414C132.194 69.3467 132.11 69.257 131.96 68.938C125.617 73.4382 119.308 77.9135 113 82.3838C112.96 82.4884 112.89 82.5931 112.89 82.7027C112.87 92.64 112.866 102.577 112.885 112.52C112.841 112.848 112.92 113.053 113.055 112.988L113.06 112.983Z" fill="#FEFEFE"/>
<path d="M113.129 112.515C113.144 102.577 113.144 92.635 113.124 82.6977C113.124 82.5931 113.055 82.4884 113.015 82.3788C106.706 77.9035 100.403 73.4332 94.0546 68.9331C93.9052 69.252 93.8206 69.3467 93.8206 69.4364C93.8156 78.1677 93.7857 86.9039 93.8256 95.6352C93.8355 98.1419 94.916 100.295 96.9325 101.75C102.225 105.557 107.608 109.245 112.955 112.978C113.04 113.018 113.1 112.958 113.124 112.829V112.515H113.129Z" fill="#CBCBCB"/>
</svg>
