<svg xmlns="http://www.w3.org/2000/svg" viewBox="0 0 370.63 98.57"><defs><style>.cls-1{fill:#fff;}</style></defs><g id="Camada_2" data-name="Camada 2"><g id="Camada_1-2" data-name="Camada 1"><path class="cls-1" d="M170.21,19.54a14.73,14.73,0,0,0-1.41-6.76h9.47L194,39.94,192.88,31V12.78h7.41V50.65H193.2L176.49,21.87l1.13,8.82v20h-7.41Z"/><path class="cls-1" d="M217.22,51.35q-6.54,0-10.36-3.76t-3.81-10.25q0-6.5,3.81-10.25T217,23.33a14.17,14.17,0,0,1,9.09,2.84c2.38,1.89,3.57,4.63,3.57,8.2a11.54,11.54,0,0,1-.87,5H210.35q1,6.82,7.52,6.82A13.71,13.71,0,0,0,226,43.35l2.59,4.16-.16.54A19.09,19.09,0,0,1,217.22,51.35ZM210.3,35h11.95a7.59,7.59,0,0,0,.17-1.51A4.87,4.87,0,0,0,221,29.9a5.53,5.53,0,0,0-4.11-1.43Q211.11,28.47,210.3,35Z"/><path class="cls-1" d="M235.38,27.12q3.75-3.69,10.68-3.68t10.69,3.68q3.75,3.68,3.76,10.28t-3.76,10.28q-3.76,3.68-10.69,3.67t-10.68-3.67Q231.62,44,231.62,37.4T235.38,27.12Zm15.88,3.65a7.26,7.26,0,0,0-10.39,0Q239,33,239,37.4T240.87,44a7.23,7.23,0,0,0,10.39,0c1.22-1.46,1.84-3.67,1.84-6.62S252.48,32.23,251.26,30.77Z"/><path class="cls-1" d="M201.13,70.66V87.92a22.75,22.75,0,0,1-6.47,3.19,27.14,27.14,0,0,1-7.71,1q-8.92,0-13.82-5.35t-4.9-14.23q0-8.88,4.87-14.23T187,52.91a24.71,24.71,0,0,1,11.25,2.44L195.66,61a19.92,19.92,0,0,0-8.76-2q-5.42,0-8.09,3.51t-2.68,10q0,6.27,2.84,9.84a9.54,9.54,0,0,0,7.93,3.58,13.86,13.86,0,0,0,6.87-1.41v-7.9h-8.55l-.27-.43,2.33-5.52Z"/><path class="cls-1" d="M217.74,92.14q-6.56,0-10.37-3.76t-3.81-10.26q0-6.48,3.81-10.25a13.87,13.87,0,0,1,10.15-3.76A14.17,14.17,0,0,1,226.61,67q3.57,2.85,3.57,8.2a11.59,11.59,0,0,1-.87,5H210.86q1,6.81,7.52,6.81a13.64,13.64,0,0,0,8.12-2.81l2.6,4.17-.17.54A19.13,19.13,0,0,1,217.74,92.14Zm-6.93-16.4h12a7.54,7.54,0,0,0,.16-1.51,4.87,4.87,0,0,0-1.41-3.55,5.53,5.53,0,0,0-4.11-1.43Q211.62,69.25,210.81,75.74Z"/><path class="cls-1" d="M233.32,72.71a21.65,21.65,0,0,0-1.09-7.79h6.44l1,2.65A12.18,12.18,0,0,1,248,64.22q5.9,0,9.06,3.6t3.17,10.47V91.43H253V78.07q0-8.71-7-8.71a12.57,12.57,0,0,0-5.47,1.57v20.5h-7.19Z"/><path class="cls-1" d="M276.65,92.14q-6.54,0-10.36-3.76t-3.82-10.26q0-6.48,3.82-10.25a13.83,13.83,0,0,1,10.14-3.76A14.17,14.17,0,0,1,285.52,67q3.57,2.85,3.57,8.2a11.76,11.76,0,0,1-.86,5H269.78q1,6.81,7.52,6.81a13.62,13.62,0,0,0,8.11-2.81L288,88.3l-.16.54A19.19,19.19,0,0,1,276.65,92.14Zm-6.93-16.4h12a7.54,7.54,0,0,0,.16-1.51,4.9,4.9,0,0,0-1.4-3.55,5.53,5.53,0,0,0-4.11-1.43Q270.54,69.25,269.72,75.74Z"/><path class="cls-1" d="M289.63,70.33V65.79l4.33-.87,1.08-7,5.74-1.89.32.22v8.65h7.79l.33.54L308,70.33H301.1V81.8a4.12,4.12,0,0,0,.79,2.87,3.46,3.46,0,0,0,2.57.81,19.74,19.74,0,0,0,3.79-.48l.37.59-1.89,5.74a24.77,24.77,0,0,1-4.54.64q-4.44,0-6.33-2T294,83.16V70.33Z"/><path class="cls-1" d="M312.36,52a3.68,3.68,0,0,1,2.86-1.06,3.62,3.62,0,0,1,3.95,3.84,4.07,4.07,0,0,1-1,2.82,3.78,3.78,0,0,1-2.93,1.13,3.64,3.64,0,0,1-2.84-1.11,4.1,4.1,0,0,1-1-2.84A3.93,3.93,0,0,1,312.36,52Zm-.81,39.46V64.92h7.25V91.43Z"/><path class="cls-1" d="M342.32,71.42l-.32,0a11.7,11.7,0,0,0-6.76-2.16,5.86,5.86,0,0,0-5,2.38,10.46,10.46,0,0,0-1.79,6.43,10.29,10.29,0,0,0,1.82,6.39,5.91,5.91,0,0,0,5,2.38,14.6,14.6,0,0,0,7.95-2.33l.33.06L345.9,89a19.5,19.5,0,0,1-10.55,3.19q-6.93,0-10.64-3.84T321,78.12q0-6.33,3.68-10.17t10.55-3.84A17.24,17.24,0,0,1,344.87,67Z"/><path class="cls-1" d="M369.06,65.09l-1.67,5.57a6.76,6.76,0,0,1-1.57.11,15.36,15.36,0,0,1-3.3-.54,15.75,15.75,0,0,0-3.36-.55c-2,0-3,.71-3,2.11a2.12,2.12,0,0,0,1.19,1.9,20,20,0,0,0,4.22,1.57,18.54,18.54,0,0,1,6.84,3.13,6.24,6.24,0,0,1,2.19,5,7.31,7.31,0,0,1-3.11,6.22c-2.07,1.51-5,2.27-8.68,2.27q-7,0-11.09-2.92l2.65-5.36.43,0a12.63,12.63,0,0,0,3.89,2.11,13.54,13.54,0,0,0,4.44.81q4.48,0,4.49-2.87a2.09,2.09,0,0,0-.86-1.67A5.77,5.77,0,0,0,361,81c-.6-.19-1.63-.49-3.11-.89a16,16,0,0,1-6.52-3.16,6.7,6.7,0,0,1-2.09-5.17,6.58,6.58,0,0,1,2.55-5.6c1.69-1.28,4.13-1.92,7.3-1.92a34.1,34.1,0,0,1,4.11.32,31.6,31.6,0,0,0,3.9.33,8.24,8.24,0,0,0,1.57-.11Z"/><path class="cls-1" d="M0,17.7a5.85,5.85,0,0,0,.3.53A55.17,55.17,0,0,1,7.82,35a3.39,3.39,0,0,0,1.28,2q3.6,2.58,7.13,5.43c4.15,3.35,8.2,7,12.2,10.81l8.76,8.33c4.43,4.18,8.92,8.21,13.55,11.79a91.77,91.77,0,0,0,8.73,6,57.8,57.8,0,0,0,10.35,4.87,45.61,45.61,0,0,0,9.75,2.37,44.8,44.8,0,0,0,10.48.14c2-.24,4.09-.58,6.14-.88a.26.26,0,0,0,.22-.17L94.14,86A29.22,29.22,0,0,1,86,85.69a39.63,39.63,0,0,1-10-3.3A73.67,73.67,0,0,1,61.16,73a128.71,128.71,0,0,1-10.84-9.63c-2.73-2.72-5.43-5.5-8.11-8.31C38.47,51.1,34.76,47.1,31,43.21q-4.68-4.87-9.44-9.57a99.07,99.07,0,0,0-11-9.49C8.35,22.5,6.05,21,3.75,19.47A31.63,31.63,0,0,0,.52,17.83,2.64,2.64,0,0,0,0,17.7Z"/><path class="cls-1" d="M124.1,72.09l-1.08.66a10.28,10.28,0,0,1-7.6,1.23,16.39,16.39,0,0,1-6.85-3.47,65.07,65.07,0,0,1-8.74-8.35c-3.76-4.28-7.47-8.67-11.2-13A108.33,108.33,0,0,0,79.8,39.7c-2.71-2.46-5.56-4.3-8.67-4.91a11.33,11.33,0,0,0-6.67.77,24.13,24.13,0,0,0-6.15,4c-1.37,1.2-2.73,2.44-4.09,3.66a2.8,2.8,0,0,0-.55.66c.58-.36,1.15-.76,1.73-1.08a11.42,11.42,0,0,1,10.28-.2A31.09,31.09,0,0,1,73.83,48,143.51,143.51,0,0,1,85.91,60.3c2.94,3.22,5.89,6.44,8.91,9.44a35.67,35.67,0,0,0,9.37,7c4.36,2.12,8.77,2.55,13.19.4a22.29,22.29,0,0,0,4.48-3l2.3-1.9Z"/><path class="cls-1" d="M43.69,54.2c2.51-1.56,5-1.05,7.46.06a27.44,27.44,0,0,1,6.69,4.57c3.22,2.84,6.39,5.85,9.61,8.72,2.73,2.43,5.47,4.86,8.25,7.13a54,54,0,0,0,8.93,6,28.7,28.7,0,0,0,15.1,3.74A24.44,24.44,0,0,0,108,82.47c1.67-.7,3.32-1.51,5-2.28a.91.91,0,0,0,.38-.34c-.15.05-.3.09-.45.15a19.26,19.26,0,0,1-11.33,1,23.39,23.39,0,0,1-7.69-3.15,50.2,50.2,0,0,1-8-6.22c-3.27-3.11-6.52-6.29-9.75-9.5-2.68-2.66-5.3-5.45-8-8.09a32,32,0,0,0-8-6.17c-2.61-1.29-5.26-1.86-8-.9a12.7,12.7,0,0,0-4.7,3.14c-1.26,1.27-2.49,2.6-3.73,3.9A1,1,0,0,0,43.69,54.2Z"/><path class="cls-1" d="M10.2,47.62a87.41,87.41,0,0,1,.27,12.5l.54.34,7,4.31C19.73,65.85,21.48,67,23.28,68c3.2,1.7,6.24,1,9.08-1.92,1-1.06,2.06-2.14,3.06-3.32l-.79.41c-1.93.95-3.81.47-5.61-.69a46.28,46.28,0,0,1-4.41-3.29c-3.05-2.52-6.06-5.17-9.12-7.66C13.81,50.12,12.06,49,10.2,47.62Z"/><path class="cls-1" d="M7.43,77.46c2.82.68,5.59,1.44,8.39,2,1.78.35,3.48-.41,5-1.85s3.28-3.13,4.87-4.85c-.27.18-.54.38-.82.54a5.35,5.35,0,0,1-3.77.68,11.42,11.42,0,0,1-2.66-.8c-1.88-.84-3.74-1.8-5.61-2.69-1-.46-1.94-.88-2.91-1.3A2.4,2.4,0,0,0,9.46,69C8.79,71.82,8.13,74.53,7.43,77.46Z"/><path class="cls-1" d="M14.6,83.54a9.76,9.76,0,0,1-4.8,1.3c-1.58.1-3.16.17-4.74.17-.46,0-.71.3-1,.83A41.62,41.62,0,0,1,.69,92,6.44,6.44,0,0,0,0,93.17c.59-.21,1.18-.36,1.76-.61A32.81,32.81,0,0,0,8.23,88.7c1.91-1.44,3.79-3,5.68-4.52C14.15,84,14.37,83.75,14.6,83.54Z"/><path class="cls-1" d="M136.41,52.67c-2.06-2.74-4.18-5.34-6.39-7.74a77.32,77.32,0,0,0-7.43-7.12,57.08,57.08,0,0,0-11.49-7.52,43.08,43.08,0,0,0-9.86-3.46A40.77,40.77,0,0,0,82.66,27a46.46,46.46,0,0,0-10.25,3.81,31.18,31.18,0,0,0-3.13,1.81L70.92,32c4.29-1.61,8.45-.86,12.52,1.95A40.67,40.67,0,0,1,91.11,41c2.65,3.07,5.23,6.29,7.86,9.42s5.4,6.5,8.17,9.59a41.85,41.85,0,0,0,7.44,6.88c4.53,3.1,9.07,3.51,13.63.44a27.36,27.36,0,0,0,7.09-7.24l3.17-4.57C137.76,54.55,137.09,53.58,136.41,52.67ZM117,52.36a3.9,3.9,0,1,1,3.48-3.88A3.7,3.7,0,0,1,117,52.36Z"/><rect class="cls-1" x="151.33" width="2.68" height="98.57"/></g></g></svg>