<svg xmlns="http://www.w3.org/2000/svg" viewBox="0 0 152.12 206"><defs><style>.cls-1,.cls-2{fill:#fff;}.cls-1{fill-rule:evenodd;}</style></defs><g id="Camada_2" data-name="Camada 2"><g id="Camada_1-2" data-name="Camada 1"><path class="cls-1" d="M93.39,7.69a24.2,24.2,0,0,1,.14,33.53h0l-.63.63-.68.62L75.05,58.8c-3.42-3.74-3.55-9.32-.29-12.61L86.88,34.66a15.08,15.08,0,0,0-21.21-21.4A14.83,14.83,0,0,0,63,31.11l9.36-8.9c3.15-3,8.41-2.63,11.79.79l-15,14.26-3.6,3.43-3.24,3.09a24.94,24.94,0,0,1-3.58-3.11A24.16,24.16,0,0,1,59.24,6.5,24.16,24.16,0,0,1,93.39,7.69"/><path class="cls-1" d="M58.73,113.47a24.19,24.19,0,0,1-.14-33.53h0l0,0c.2-.21.41-.42.62-.62s.46-.43.69-.63L77.07,62.36c3.42,3.73,3.54,9.32.28,12.61L65.24,86.49A15.06,15.06,0,1,0,89.12,90L79.77,99c-3.15,3-8.42,2.62-11.79-.8L83,83.89l3.59-3.42,3.25-3.09a25.41,25.41,0,0,1,3.58,3.11,23.93,23.93,0,1,1-34.66,33"/><path class="cls-1" d="M23.24,42.71a24.18,24.18,0,0,1,33.52-.14h0v0c.21.21.42.41.63.63s.42.45.62.69L73.59,60.25c-3.74,3.43-9.33,3.55-12.62.29L50.21,49.22a15.08,15.08,0,0,0-21.4,21.21,14.83,14.83,0,0,0,17.85,2.68l-8.9-9.36c-3-3.14-2.63-8.41.79-11.79L52.81,67l3.43,3.6,3.08,3.24a24.45,24.45,0,0,1-37.27,3.07,24.16,24.16,0,0,1,1.19-34.15"/><path class="cls-1" d="M128.88,77.37a24.19,24.19,0,0,1-33.53.14h0l-.62-.63-.63-.69L78.53,59.83c3.74-3.42,9.32-3.54,12.61-.28l10.77,11.31A15.06,15.06,0,1,0,105.46,47l8.9,9.35c3,3.15,2.63,8.42-.79,11.79l-14.27-15-3.42-3.59-3.09-3.25a26.07,26.07,0,0,1,3.11-3.58,23.93,23.93,0,1,1,33,34.66"/><path class="cls-1" d="M128.88,77.37a24.19,24.19,0,0,1-33.53.14h0l-.62-.63-.63-.69L78.53,59.83c3.74-3.42,9.32-3.54,12.61-.28l10.77,11.31A15.06,15.06,0,1,0,105.46,47l8.9,9.35c3,3.15,2.63,8.42-.79,11.79l-14.27-15-3.42-3.59-3.09-3.25a26.07,26.07,0,0,1,3.11-3.58,23.93,23.93,0,1,1,33,34.66"/><path class="cls-1" d="M23.24,42.71a24.18,24.18,0,0,1,33.52-.14h0v0c.21.21.42.41.63.63s.42.45.62.69L73.59,60.25c-3.74,3.43-9.32,3.55-12.62.29L50.21,49.22a15.08,15.08,0,0,0-21.4,21.21,14.83,14.83,0,0,0,17.85,2.68l-8.9-9.36c-3-3.14-2.63-8.41.79-11.79L52.81,67l3.43,3.6,3.08,3.24a24.46,24.46,0,0,1-37.27,3.08,24.17,24.17,0,0,1,1.19-34.16"/><path class="cls-1" d="M103.07,131H97.24l-7.55,23.29h5.4l1.77-6h6.54l1.85,6h5.44Zm-4.85,12.72,1.89-6.47,1.89,6.47Z"/><polygon class="cls-1" points="82.37 148.53 88.03 131.03 93.61 131.03 85.74 154.32 79 154.32 71.12 131.03 76.71 131.03 82.37 148.53"/><path class="cls-1" d="M71.4,138.6a14,14,0,0,0-.86-3.18,7.84,7.84,0,0,0-1.41-2.31,6.86,6.86,0,0,0-2-1.51,8.54,8.54,0,0,0-2.4-.78,15.75,15.75,0,0,0-2.74-.23,13.67,13.67,0,0,0-4,.53,6.79,6.79,0,0,0-3.15,2A9.32,9.32,0,0,0,53,136.87a22.73,22.73,0,0,0-.64,5.87,26.29,26.29,0,0,0,.29,4.16,13.33,13.33,0,0,0,.86,3.16,7.7,7.7,0,0,0,1.44,2.29,6.86,6.86,0,0,0,2,1.47,8.19,8.19,0,0,0,2.4.76,16.86,16.86,0,0,0,2.74.21,15.74,15.74,0,0,0,2.74-.22,8.64,8.64,0,0,0,2.39-.75,6.76,6.76,0,0,0,2-1.48,7.69,7.69,0,0,0,1.42-2.3,13.68,13.68,0,0,0,.86-3.16,30.75,30.75,0,0,0,0-8.28Zm-5.08,8a5.9,5.9,0,0,1-.73,2.2,2.44,2.44,0,0,1-1.26,1,6.86,6.86,0,0,1-2.29.32,6.94,6.94,0,0,1-2.31-.32,2.4,2.4,0,0,1-1.26-1,5.72,5.72,0,0,1-.73-2.2,32.25,32.25,0,0,1,0-7.69,5.81,5.81,0,0,1,.73-2.23,2.42,2.42,0,0,1,1.27-1,6.85,6.85,0,0,1,2.3-.33,6.77,6.77,0,0,1,2.28.33,2.55,2.55,0,0,1,1.27,1,6,6,0,0,1,.73,2.23,32.25,32.25,0,0,1,0,7.69Z"/><path class="cls-1" d="M44.9,147.2V131h5v23.29H42.79l-7-15.87-.16-.37v16.24H30.73V131h7.19Z"/><path class="cls-1" d="M16.36,179.92v-5.79H11.44V168.7h10.7v14.88l-.36.17a19.44,19.44,0,0,1-2.53,1,22,22,0,0,1-2.75.66,19.1,19.1,0,0,1-3.46.3A19.73,19.73,0,0,1,7.63,185a9.31,9.31,0,0,1-4.17-2.48,11.33,11.33,0,0,1-2.59-4.67A25,25,0,0,1,0,170.7,22.41,22.41,0,0,1,.88,164a11.27,11.27,0,0,1,2.56-4.51,9.64,9.64,0,0,1,4-2.49,17.08,17.08,0,0,1,5.12-.72,25.29,25.29,0,0,1,3.37.19c.85.11,1.71.24,2.55.43a21,21,0,0,1,2.2.6l.44.15v4.59l-.71-.08c-.72-.07-1.45-.13-2.17-.18s-1.52-.1-2.29-.14-1.74-.07-2.61-.07a12.62,12.62,0,0,0-3.72.47,4.41,4.41,0,0,0-2.16,1.43,6.28,6.28,0,0,0-1.15,2.69,26.65,26.65,0,0,0,0,8.85,7.63,7.63,0,0,0,1.17,2.91,4.62,4.62,0,0,0,2.06,1.59,9.35,9.35,0,0,0,3.36.53c.54,0,1.09,0,1.63-.06s.82-.07,1.24-.14l.55-.1Z"/><polygon class="cls-1" points="30.39 162.31 30.39 168.12 40.2 168.12 40.2 173.55 30.39 173.55 30.39 179.6 42.41 179.6 42.41 185.1 24.57 185.1 24.57 156.8 42.09 156.8 42.09 162.31 30.39 162.31"/><path class="cls-1" d="M78.82,156.8h-7l-8.28,25.54-4.42-8.49A6.29,6.29,0,0,0,61,172.69a8.25,8.25,0,0,0,.94-1,6.8,6.8,0,0,0,.84-1.42,8.84,8.84,0,0,0,.57-1.83,11.06,11.06,0,0,0,.21-2.3,15.25,15.25,0,0,0-.31-3.3,9.24,9.24,0,0,0-.93-2.49,6.37,6.37,0,0,0-1.47-1.75A6.75,6.75,0,0,0,59,157.49a9.31,9.31,0,0,0-2.09-.54,14.7,14.7,0,0,0-2.2-.15H44.05v28.3h5.82v-9.92h3.46l5.05,9.92H69l2.18-7.32h8.24l2.28,7.32h6.37ZM54.7,169.63H49.87v-7.32h4.72a4.26,4.26,0,0,1,1.32.19,2.31,2.31,0,0,1,.9.54,2.65,2.65,0,0,1,.58,1.05,5.83,5.83,0,0,1,.23,1.76C57.62,168,57.05,169.63,54.7,169.63Zm18.07,2.79,2.52-8.62,2.51,8.62Z"/><path class="cls-1" d="M113.6,150.82a4.65,4.65,0,0,1,1.93-.47,4.77,4.77,0,0,1,1.36.15,8.08,8.08,0,0,1,1.14.39,9.4,9.4,0,0,1,1,.51c.28.16.56.31.85.45a4.57,4.57,0,0,0,.78.33,1.62,1.62,0,0,0,.61.09,1.51,1.51,0,0,0,.66-.18,3.06,3.06,0,0,0,.53-.42,3.09,3.09,0,0,0,.44-.63l.33-.61,2.77.91,0,.4a4.16,4.16,0,0,1-.45,1.41,5.3,5.3,0,0,1-.94,1.32,5,5,0,0,1-1.42,1,4.57,4.57,0,0,1-1.92.47,4.93,4.93,0,0,1-2-.31c-.53-.21-1.06-.45-1.57-.71s-.88-.45-1.32-.67a2.09,2.09,0,0,0-.87-.23,1.65,1.65,0,0,0-.68.19,2.72,2.72,0,0,0-.53.42,2.61,2.61,0,0,0-.42.62l-.32.63L111,154.28a5.51,5.51,0,0,1,2.58-3.46Z"/><path class="cls-1" d="M151.77,166a17.07,17.07,0,0,0-1-3.86A9.71,9.71,0,0,0,149,159.3a8.25,8.25,0,0,0-2.37-1.82,10.5,10.5,0,0,0-2.9-.95,19.63,19.63,0,0,0-3.34-.27,16.86,16.86,0,0,0-4.84.64,8.15,8.15,0,0,0-3.79,2.38,11.18,11.18,0,0,0-2.35,4.58,28,28,0,0,0-.77,7.18,32,32,0,0,0,.35,5.08,16.54,16.54,0,0,0,1,3.84,9.4,9.4,0,0,0,1.75,2.78,8.17,8.17,0,0,0,2.36,1.77,10,10,0,0,0,2.91.92,20.79,20.79,0,0,0,3.34.26,19.63,19.63,0,0,0,3.34-.27,10.65,10.65,0,0,0,2.9-.92,7.74,7.74,0,0,0,2.36-1.78,9.18,9.18,0,0,0,1.72-2.78,17.05,17.05,0,0,0,1-3.84,36.82,36.82,0,0,0,0-10.13Zm-6,9.8a7.1,7.1,0,0,1-.92,2.76,3.18,3.18,0,0,1-1.62,1.29,10.5,10.5,0,0,1-5.74,0,3.11,3.11,0,0,1-1.63-1.29,7.1,7.1,0,0,1-.92-2.76,40.35,40.35,0,0,1,0-9.49,7.35,7.35,0,0,1,.92-2.79,3.12,3.12,0,0,1,1.63-1.32,8.76,8.76,0,0,1,2.88-.4,8.59,8.59,0,0,1,2.85.4,3.12,3.12,0,0,1,1.63,1.32,7.18,7.18,0,0,1,.92,2.79,40.35,40.35,0,0,1,0,9.49Z"/><path class="cls-1" d="M121.18,156.8h-7L106,182.07v0l-1,3.08h6.29l2.18-7.32h8.25l2.27,7.32h6.37Zm-6,15.62,2.51-8.62,2.52,8.62Z"/><path class="cls-1" d="M100.26,185.47l0,.12a3.73,3.73,0,0,1,.58.12,3.14,3.14,0,0,1,1.26.64,3,3,0,0,1,.87,1.15,3.82,3.82,0,0,1,.32,1.6,4.36,4.36,0,0,1,0,.51c0,.17,0,.34-.08.5v0a6.31,6.31,0,0,1-.67,1.88,3.85,3.85,0,0,1-1.23,1.34,4.87,4.87,0,0,1-1.8.72,11.34,11.34,0,0,1-2.33.2,9,9,0,0,1-1.47-.11,10.76,10.76,0,0,1-1.28-.27c-.42-.12-.84-.25-1.24-.4l-.55-.2,1-3.7.61.15c.23.06.46.1.69.14s.55.07.83.09.76,0,1.13,0a3.29,3.29,0,0,0,1.21-.18.6.6,0,0,0,.28-.45c.06-.61-.84-.57-1.26-.57-.21,0-.41,0-.62,0l-.64.07-.73.09-.93.1,1-3.77-.14,0a9.5,9.5,0,0,1-2.64-.91A9.1,9.1,0,0,1,90,182.64a10.25,10.25,0,0,1-1.86-2.78,17.26,17.26,0,0,1-1.2-3.92,27.55,27.55,0,0,1-.43-5.21,23.13,23.13,0,0,1,.49-5,16.38,16.38,0,0,1,1.32-3.79,10,10,0,0,1,2-2.7,10.25,10.25,0,0,1,2.39-1.69,9.88,9.88,0,0,1,2.55-.88,13.31,13.31,0,0,1,2.45-.25,25.55,25.55,0,0,1,3.38.2,22.13,22.13,0,0,1,2.41.43,12.33,12.33,0,0,1,2,.63l.39.17v4.36l-.69,0L103.5,162c-.57,0-1.15-.06-1.72-.09s-1.34,0-2,0-1.25,0-1.87.08a6.53,6.53,0,0,0-1.68.35,5,5,0,0,0-1.44.81,4.54,4.54,0,0,0-1.15,1.46,8.82,8.82,0,0,0-.81,2.45,18.81,18.81,0,0,0-.3,3.67,21.12,21.12,0,0,0,.31,3.89,10.05,10.05,0,0,0,.83,2.61,5.16,5.16,0,0,0,1.17,1.56,4.84,4.84,0,0,0,1.45.86A6.64,6.64,0,0,0,98,180c.62.06,1.24.08,1.86.08,2.77,0,3.82-.45,6.48-.91l-1.58,5.51c-.39.12-.78.22-1.18.31-.81.18-1.64.31-2.46.41l-.84.09Z"/><path class="cls-2" d="M133.08,199.05h4.09v1.07h-2.95v1.78h2.47v1h-2.47v1.84h3v1.06h-4.17Zm-10.2,0H127v1.07h-3v1.78h2.47v1H124v1.84h3v1.06h-4.17Zm-10,0H117v1.07H114v2h2.58v1.06H114v2.62h-1.14Zm-10,0h4.09v1.07h-3v2h2.58v1.06H104v2.62h-1.14ZM93.93,205a2.37,2.37,0,0,0,.77-.11,1,1,0,0,0,.49-.39,2,2,0,0,0,.26-.76,8.12,8.12,0,0,0,.07-1.21,8.33,8.33,0,0,0-.07-1.23,2,2,0,0,0-.26-.76,1,1,0,0,0-.49-.4,2.37,2.37,0,0,0-.77-.11,2.48,2.48,0,0,0-.78.11,1,1,0,0,0-.49.4,2,2,0,0,0-.26.76,10,10,0,0,0-.07,1.23,9.75,9.75,0,0,0,.07,1.21,2,2,0,0,0,.26.76,1,1,0,0,0,.49.39,2.48,2.48,0,0,0,.78.11m0,1.05a5.27,5.27,0,0,1-.82-.06,2.36,2.36,0,0,1-.68-.22,1.84,1.84,0,0,1-.55-.41,2.19,2.19,0,0,1-.41-.65,3.69,3.69,0,0,1-.25-.93,7.71,7.71,0,0,1-.09-1.25,6.69,6.69,0,0,1,.19-1.77,2.72,2.72,0,0,1,.55-1.09,2.06,2.06,0,0,1,.89-.55,4.15,4.15,0,0,1,1.17-.15,5.13,5.13,0,0,1,.81.06,2.37,2.37,0,0,1,.68.23,1.72,1.72,0,0,1,.55.42,2.15,2.15,0,0,1,.4.66,3.81,3.81,0,0,1,.25.93,7.84,7.84,0,0,1,.09,1.26,7.58,7.58,0,0,1-.09,1.24,3.69,3.69,0,0,1-.25.93,2,2,0,0,1-.4.66,1.84,1.84,0,0,1-.55.41,2.35,2.35,0,0,1-.68.21,4.14,4.14,0,0,1-.81.07m-10.49,0a3.49,3.49,0,0,1-.65-.06,2.25,2.25,0,0,1-1.17-.63,2.47,2.47,0,0,1-.44-.65,4.27,4.27,0,0,1-.29-.95,6.85,6.85,0,0,1-.1-1.28,5.73,5.73,0,0,1,.12-1.24,3.87,3.87,0,0,1,.31-.91,2.47,2.47,0,0,1,.47-.64,2.52,2.52,0,0,1,.56-.4,2.35,2.35,0,0,1,.6-.2,3.11,3.11,0,0,1,.59-.06,6.78,6.78,0,0,1,.83,0c.23,0,.43.07.59.11a2.37,2.37,0,0,1,.47.15v.82l-.42,0-.43,0h-1a2.36,2.36,0,0,0-.46.1,1.28,1.28,0,0,0-.74.65,2.22,2.22,0,0,0-.22.66,4.41,4.41,0,0,0-.08,1,5.62,5.62,0,0,0,.08,1,2.63,2.63,0,0,0,.22.7,1.48,1.48,0,0,0,.34.45,1.3,1.3,0,0,0,.41.24,1.89,1.89,0,0,0,.47.11l.48,0h.57l.44,0,.39,0v.82a2.71,2.71,0,0,1-.5.15c-.16,0-.36.07-.6.11a7,7,0,0,1-.84,0M66,199.05h4.09v1.07h-3v1.78h2.47v1H67.17v1.84h3v1.06H66Zm-8.84,1.06h-2v-1.06h5.23v1.06H58.32v5.74H57.19Zm-9,2.88-.84-2.88h0L46.45,203Zm-1.59-3.94h1.51l2.23,6.8H49L48.46,204H46.15l-.55,1.84H44.35Zm-10.25,1.06h-2v-1.06H39.5v1.06H37.44v5.74H36.31Zm-11.53,4.73.52.06c.16,0,.34,0,.55,0l.66,0a3.49,3.49,0,0,0,.73-.06.92.92,0,0,0,.41-.18.49.49,0,0,0,.19-.28,2.35,2.35,0,0,0,0-.4,2.88,2.88,0,0,0,0-.32.72.72,0,0,0-.08-.26.65.65,0,0,0-.17-.2,1,1,0,0,0-.32-.13l-1.38-.37a1.69,1.69,0,0,1-.56-.23,1.3,1.3,0,0,1-.37-.37,1.64,1.64,0,0,1-.2-.54,4,4,0,0,1-.06-.74,2.35,2.35,0,0,1,.15-.88,1.57,1.57,0,0,1,.43-.61A1.94,1.94,0,0,1,26,199a3.48,3.48,0,0,1,.88-.11,5.6,5.6,0,0,1,.74,0l.58.1a4.81,4.81,0,0,1,.52.14v.88l-.45-.05-.46,0-.53,0a6.47,6.47,0,0,0-.69,0,1.1,1.1,0,0,0-.43.12.47.47,0,0,0-.22.26,1.33,1.33,0,0,0-.06.44,2.26,2.26,0,0,0,0,.27.51.51,0,0,0,.25.37l.3.12,1.29.37.45.15a1.77,1.77,0,0,1,.33.19,1,1,0,0,1,.25.25,1.34,1.34,0,0,1,.16.34,2.68,2.68,0,0,1,.09.46,5.72,5.72,0,0,1,0,.62,4.19,4.19,0,0,1-.09.93,1.3,1.3,0,0,1-.35.63,1.64,1.64,0,0,1-.71.36,4.64,4.64,0,0,1-1.16.12,7.57,7.57,0,0,1-.92-.05,4.51,4.51,0,0,1-.59-.11,1.66,1.66,0,0,1-.41-.16Zm-9.91-5.79H19v1.07H16v1.78h2.47v1H16v1.84h3v1.06H14.87Z"/></g></g></svg>