<svg xmlns="http://www.w3.org/2000/svg" xmlns:xlink="http://www.w3.org/1999/xlink" viewBox="0 0 390.6 172.33"><defs><style>.cls-1{fill:#f3f3f3;}.cls-2{clip-path:url(#clip-path);}.cls-3{clip-path:url(#clip-path-2);}</style><clipPath id="clip-path" transform="translate(0.12)"><path class="cls-1" d="M61.31,15.25a53.78,53.78,0,0,0-11.19.88A21.65,21.65,0,0,0,39.78,21,14.5,14.5,0,0,0,35,30.85c-.13,1.28-.08,1.29,1.19,1.43,4,.43,8,.77,12,1.38,4.31.66,8.61,1.45,12.86,2.43C69,38,76.75,40.7,83.56,45.65a15.08,15.08,0,0,1,6.08,9.25,24.17,24.17,0,0,1-.87,14.49,73.81,73.81,0,0,1-7.68,14.35c-4.1,6-8.44,11.82-12.69,17.71-.92,1.26-2.77,2.49-3.09,4.08-.06.33,0,.86.16,1a1.38,1.38,0,0,0,1.08.09A4.12,4.12,0,0,0,67.8,106c1.62-1.23,3.27-2.42,4.8-3.75,2.82-2.43,5.63-4.88,8.32-7.46s5.09-5.15,7.55-7.8,4.66-5.07,6.84-7.73A88.13,88.13,0,0,0,101.42,71a122.48,122.48,0,0,0,6.29-11,63.65,63.65,0,0,0,3-7.9,34.72,34.72,0,0,0,2-13.06,22.28,22.28,0,0,0-2.22-8.92,31.67,31.67,0,0,0-4.31-6.3,33,33,0,0,0-8.89-7.23,1.08,1.08,0,0,0-1,0c-1.9,1.51-4.07,1.62-6.31,1.34Q82.7,17,75.37,16.07a95.54,95.54,0,0,0-12.05-.85l-2,0"/></clipPath><clipPath id="clip-path-2" transform="translate(0.12)"><path class="cls-1" d="M.67,36c-.79.24-.7,1.08-.62,1.7.34,2.61.71,5.21,1.13,7.8A127.36,127.36,0,0,0,5,62.24c1.08,3.58,2.17,7.17,3.42,10.7,1,2.8,2.2,5.52,3.33,8.27a85,85,0,0,0,8,15.24,49.71,49.71,0,0,0,9.93,11.28c5.59,4.5,11.84,6.89,19.11,6.24,5.07-.45,9.58-2.48,13.93-4.93a1,1,0,0,0,.49-.8,7.88,7.88,0,0,1,1.89-5.57c3-4.08,6.11-8.06,9.12-12.12A104.86,104.86,0,0,0,85.55,71.93c1.77-3.84,3.07-7.76,3-11.1.06-6.46-2.23-10.76-6.76-13.88-.51-.34-.81-.32-1.19.2-1.73,2.35-3.44,4.71-5.27,7-3.49,4.27-6.94,8.58-10.63,12.67C62,69.79,59,72.53,56,75.27A38.5,38.5,0,0,1,43.75,83a16.07,16.07,0,0,1-15-1.62,27.74,27.74,0,0,1-7.47-7.1A79.65,79.65,0,0,1,12.8,60.17c-2.67-5.72-5.1-11.56-7.64-17.35-.86-2-1.4-4.13-2.84-5.83-.38-.44-.75-1-1.34-1a1.18,1.18,0,0,0-.31,0"/></clipPath></defs><g id="Camada_2" data-name="Camada 2"><g id="Camada_1-2" data-name="Camada 1"><path class="cls-1" d="M96.64,150.55l10.53-50.81h22.41c10.13,0,17.25,5.57,17.25,15.33,0,12.08-8.87,17.84-22.32,17.84h-13.2l-3.45,17.64Zm16.63-26.85h11c6.85,0,11.08-2.24,11.07-8.09,0-4.24-2.62-6.73-8.69-6.73H116.37Zm72.24,4.09-2.66,12.72c-1.08,5-1.73,8.44-1.88,10H170.22a29.67,29.67,0,0,1,.51-4.5c-2.41,3.32-6.26,5.51-12.83,5.51-9.47,0-12.34-6.19-12.34-10.89,0-10.76,10.67-13,19.88-13.9,2.84-.29,6.81-.35,9.33-.41l.16-.74c.68-3.06-.76-5.63-6.16-5.63-4.23,0-6.37,1.44-7.28,4.1H150.23c1.26-5.43,5.28-11.83,18.79-11.83,16,0,18.1,8,16.49,15.53m-12.23,5.7c-2.65.07-5.28.2-7.57.43-3.86.39-8.85,1.4-8.85,5.51,0,2.16,1.68,3.69,5.14,3.69,6,0,9.62-2.83,11.18-9.23Zm17.51-20.22h6.31l2.42-11.19h11l-2.41,11.19h8.07l-1.7,8.22H206.4l-3.35,16.18c-.68,3.17-.52,4.69,2.89,4.69a22.92,22.92,0,0,0,3.93-.31L208.23,150a26.71,26.71,0,0,1-7.15.85c-8.63,0-10.94-4-9.48-11.25l3.8-18.11h-6.32Zm63.09,21.25h-27.7c0,.18,0,.76,0,1,0,4.16,2.18,7.45,7.4,7.45,4.2,0,6-1.33,7.48-3.52h11.4c-2.44,6.35-8.36,12.07-19.74,12.07-12.11,0-17.37-7.71-17.37-17,0-10.26,6.92-22.32,22.25-22.32,12,0,17.22,7.19,17.22,15.91a20.07,20.07,0,0,1-.93,6.35m-9.59-7.09c0-.13,0-.46,0-.76,0-3.91-2.39-6.42-7.27-6.42-5.17,0-8.14,3-9.24,7.18Zm17.91-4.75c.64-3.16,1.28-6.51,1.83-9.41h10.8c-.11,1.08-.48,3.6-.73,4.87,2-2.57,5.73-5.88,12.8-5.88,7.9,0,12.79,4.82,10.51,16l-4.62,22.25h-11l4.38-21.35c.86-4.27.42-7.92-4.91-7.92-5.51,0-8.71,4-10.19,11.27l-3.62,18H256.5ZM299.78,139h10.88c.48,3.25,2.88,4.83,7.44,4.83,2.84,0,6.07-.84,6.07-3.56,0-2.22-1.77-3.25-7.7-4.6-10.89-2.55-13.19-6.37-13.19-11,0-7,5.68-12.39,16.59-12.39,13.64,0,17.12,7.52,17.31,12H326.11c-.25-2.23-1.76-4.47-6.55-4.47-2.34,0-4.95.69-4.95,3.06,0,1.9,1.82,2.84,7.15,4.12,10.78,2.62,13.82,6.15,13.82,11.75,0,7.69-6.5,12.84-18.23,12.84-9.86,0-17.21-3.93-17.57-12.6m78.51-4.44H350.6c0,.18,0,.76,0,1,0,4.16,2.18,7.45,7.41,7.45,4.19,0,6-1.33,7.48-3.52h11.4c-2.45,6.35-8.37,12.07-19.75,12.07-12.1,0-17.37-7.71-17.37-17,0-10.26,6.92-22.32,22.25-22.32,12,0,17.22,7.19,17.22,15.91a19.79,19.79,0,0,1-.93,6.35m-9.59-7.09c0-.13,0-.46,0-.76,0-3.91-2.38-6.42-7.27-6.42-5.17,0-8.14,3-9.23,7.18Z" transform="translate(0.12)"/><path class="cls-1" d="M157.08,161.12c1.8,0,3.32.87,3.32,2.89,0,2.18-1.44,3.38-4.28,3.38h-3.58l-.94,4.71h-.89l2.27-11Zm-4.37,5.46h3.41c1.69,0,3.34-.5,3.33-2.52,0-1.44-1-2.13-2.63-2.13H153.7Zm10.37.47-1.05,5h-.89l2.27-11h4.13c2,0,3.15,1.09,3.13,2.67a2.86,2.86,0,0,1-2.44,2.89c.84.23,1.52,1.1,1.13,3a11.23,11.23,0,0,0-.31,2.43h-.92a10.25,10.25,0,0,1,.31-2.35c.39-1.9,0-2.7-2.05-2.7Zm1-5.12-.89,4.31h2.9c1.68,0,3.6-.37,3.6-2.39,0-1.15-.71-1.92-2.41-1.92Zm18.56,3.93c0,3.32-1.86,6.47-5.95,6.47-2.94,0-4.67-2.07-4.67-5,0-3.33,2.15-6.49,6-6.49,2.82,0,4.63,2,4.63,5M173,167.31c0,2.37,1.3,4.21,3.85,4.21,3.15,0,4.89-2.49,4.89-5.6,0-2.67-1.55-4.22-3.84-4.22-2.81,0-4.9,2.43-4.9,5.61m15-5.38h-4.08l.17-.81h9.07l-.18.81h-4.1l-2.09,10.17h-.89Zm13.15,4.77h-6.25l-.94,4.59H201l-.31.81h-7.85l2.27-11h7.47l-.17.81h-6.58l-.82,4h6.25Zm4.89-5.58-2.27,11h-.89l2.27-11Zm3.22-3.18-3,2.11h-1.14l2.82-2.11ZM207,172.1l2.27-11h1c1.46,2.74,4.36,8.54,5,9.8h0c.25-1.57.58-3.14.94-4.91l1-4.89h.88l-2.27,11h-1c-1.31-2.53-4.4-8.76-5-10h0c-.22,1.44-.55,3-1,5l-1,5Zm14.18-3.83-2.38,3.83h-1l6.86-11h1l2.48,11h-1l-.84-3.83Zm.48-.81h4.51c-.73-3.3-1.07-4.85-1.17-5.53h0c-.36.71-1.59,2.74-3.32,5.53m19.87-.76h-6.26l-.94,4.59h7.1l-.31.81h-7.85l2.27-11H243l-.17.81h-6.59l-.82,4h6.26Zm16.82-.44-1.22,5.84h-.7a14.51,14.51,0,0,1,.3-1.92c-.78,1.42-2,2.15-4.14,2.15-2.73,0-4.28-2-4.3-4.86,0-3.18,2-6.58,6-6.58,2.7,0,4.13,1.44,4.37,3.42h-.91c-.29-1.55-1.47-2.61-3.56-2.61-3.21,0-4.95,2.74-4.95,5.74,0,2.24,1.12,4.07,3.56,4.07,2.87,0,4-1.75,4.49-4.18l.06-.26h-3.95l.19-.81Zm12.6-.4c0,3.32-1.86,6.47-5.95,6.47-2.94,0-4.67-2.07-4.67-5,0-3.33,2.15-6.49,6-6.49,2.82,0,4.63,2,4.63,5m-9.68,1.45c0,2.37,1.3,4.21,3.85,4.21,3.14,0,4.89-2.49,4.89-5.6,0-2.67-1.55-4.22-3.84-4.22-2.81,0-4.9,2.43-4.9,5.61m13.06-.26-1.05,5h-.89l2.27-11h4.13c2,0,3.15,1.09,3.13,2.67a2.86,2.86,0,0,1-2.44,2.89c.84.23,1.52,1.1,1.13,3a11.23,11.23,0,0,0-.31,2.43h-.92a9.72,9.72,0,0,1,.31-2.35c.39-1.9,0-2.7-2.05-2.7Zm1.05-5.12-.9,4.31h2.91c1.67,0,3.59-.37,3.59-2.39,0-1.15-.7-1.92-2.4-1.92Zm13.5-.81a4.46,4.46,0,0,1,4.64,4.82c0,3.68-2.48,6.16-6.38,6.16h-4.19l2.27-11ZM284,171.29h3c3.6,0,5.57-2.12,5.57-5.32,0-2.75-1.74-4-3.8-4h-2.81Zm14-10.17-1.33,6.43c-.68,3.25,1.2,4,2.95,4,2.61,0,3.51-1.49,4-3.83l1.36-6.56h.91l-1.35,6.51c-.72,3.5-2.14,4.7-5.12,4.7-2.42,0-4.37-1.3-3.66-4.72l1.35-6.49Zm10.72,5.93-1,5h-.89l2.27-11h4.13c2,0,3.15,1.09,3.13,2.67a2.86,2.86,0,0,1-2.44,2.89c.84.23,1.52,1.1,1.13,3a11.23,11.23,0,0,0-.31,2.43h-.92a10.25,10.25,0,0,1,.31-2.35c.39-1.9,0-2.7-2.05-2.7Zm1.05-5.12-.89,4.31h2.9c1.67,0,3.59-.37,3.59-2.39,0-1.15-.7-1.92-2.4-1.92Zm9.84,6.34-2.39,3.83h-1l6.86-11h1l2.47,11h-1l-.85-3.83Zm.48-.81h4.51c-.73-3.3-1.08-4.85-1.18-5.53h0c-.36.71-1.58,2.74-3.31,5.53m13.83.81-2.38,3.83h-1l6.86-11h1l2.47,11h-1l-.85-3.83Zm.48-.81h4.51c-.73-3.3-1.07-4.85-1.18-5.53h0c-.36.71-1.59,2.74-3.32,5.53m8,4.64,2.27-11h1c1.45,2.74,4.35,8.54,5,9.8h0c.26-1.57.59-3.14.95-4.91l1-4.89h.89l-2.27,11h-1c-1.31-2.53-4.4-8.76-5-10h0c-.23,1.44-.56,3-1,5l-1,5Zm15.26-11-2.27,11h-.89l2.27-11Zm11.88,5.93c.43-2.14.9-4.12,1.19-5.21h0c-.61,1.27-4,6.62-6.37,10.26h-.78c-.59-2.82-1.77-8.77-2-10.25h0c-.18,1.29-.67,3.72-1,5.56l-1,4.69h-.87l2.27-11h1.25c.8,3.7,1.9,9,2,9.78h0c.57-.94,4-6.37,6.21-9.78h1.27l-2.27,11h-.91Zm5,1.22-2.38,3.83h-1l6.86-11h1l2.47,11h-.95l-.85-3.83Zm.48-.81h4.51c-.73-3.3-1.07-4.85-1.18-5.53h0c-.36.71-1.59,2.74-3.32,5.53m10.27-6.34h.89l-2.1,10.17h6.39l-.29.81H383Z" transform="translate(0.12)"/><path class="cls-1" d="M61.31,15.25a53.78,53.78,0,0,0-11.19.88A21.65,21.65,0,0,0,39.78,21,14.5,14.5,0,0,0,35,30.85c-.13,1.28-.08,1.29,1.19,1.43,4,.43,8,.77,12,1.38,4.31.66,8.61,1.45,12.86,2.43C69,38,76.75,40.7,83.56,45.65a15.08,15.08,0,0,1,6.08,9.25,24.17,24.17,0,0,1-.87,14.49,73.81,73.81,0,0,1-7.68,14.35c-4.1,6-8.44,11.82-12.69,17.71-.92,1.26-2.77,2.49-3.09,4.08-.06.33,0,.86.16,1a1.38,1.38,0,0,0,1.08.09A4.12,4.12,0,0,0,67.8,106c1.62-1.23,3.27-2.42,4.8-3.75,2.82-2.43,5.63-4.88,8.32-7.46s5.09-5.15,7.55-7.8,4.66-5.07,6.84-7.73A88.13,88.13,0,0,0,101.42,71a122.48,122.48,0,0,0,6.29-11,63.65,63.65,0,0,0,3-7.9,34.72,34.72,0,0,0,2-13.06,22.28,22.28,0,0,0-2.22-8.92,31.67,31.67,0,0,0-4.31-6.3,33,33,0,0,0-8.89-7.23,1.08,1.08,0,0,0-1,0c-1.9,1.51-4.07,1.62-6.31,1.34Q82.7,17,75.37,16.07a95.54,95.54,0,0,0-12.05-.85l-2,0" transform="translate(0.12)"/><g class="cls-2"><rect class="cls-1" x="34.94" y="15.18" width="78.1" height="91.55"/></g><path class="cls-1" d="M1.83,31.79a5,5,0,0,0,1.38,3.55c2.6,3,3.83,7.42,5.25,11.1a174.72,174.72,0,0,0,9,18.59c5.19,9.77,14.11,21.56,26.29,15.64,1.17-.57,1.22-.64.7-1.86-1.23-2.88-1.66-6.61-2.82-9.52-1.37-3.41-2.75-6.83-3.91-10.32-5.58-16.63-11.09-39.86,11.5-44.82C63.57,11,78.54,15,92.93,15.93a2.74,2.74,0,0,0,1.42-.41c.69-.37.74-.93.14-1.43a4.78,4.78,0,0,0-1.34-.86c-3.81-1.49-8.44-3.13-12.34-4.35C69.24,5.26,52.56,0,37.32,0h-.11C17.68,0,2.59,10.85,1.83,31.79" transform="translate(0.12)"/><path class="cls-1" d="M.67,36c-.79.24-.7,1.08-.62,1.7.34,2.61.71,5.21,1.13,7.8A127.36,127.36,0,0,0,5,62.24c1.08,3.58,2.17,7.17,3.42,10.7,1,2.8,2.2,5.52,3.33,8.27a85,85,0,0,0,8,15.24,49.71,49.71,0,0,0,9.93,11.28c5.59,4.5,11.84,6.89,19.11,6.24,5.07-.45,9.58-2.48,13.93-4.93a1,1,0,0,0,.49-.8,7.88,7.88,0,0,1,1.89-5.57c3-4.08,6.11-8.06,9.12-12.12A104.86,104.86,0,0,0,85.55,71.93c1.77-3.84,3.07-7.76,3-11.1.06-6.46-2.23-10.76-6.76-13.88-.51-.34-.81-.32-1.19.2-1.73,2.35-3.44,4.71-5.27,7-3.49,4.27-6.94,8.58-10.63,12.67C62,69.79,59,72.53,56,75.27A38.5,38.5,0,0,1,43.75,83a16.07,16.07,0,0,1-15-1.62,27.74,27.74,0,0,1-7.47-7.1A79.65,79.65,0,0,1,12.8,60.17c-2.67-5.72-5.1-11.56-7.64-17.35-.86-2-1.4-4.13-2.84-5.83-.38-.44-.75-1-1.34-1a1.18,1.18,0,0,0-.31,0" transform="translate(0.12)"/><g class="cls-3"><rect class="cls-1" y="35.96" width="88.74" height="78.66"/></g></g></g></svg>