<svg xmlns="http://www.w3.org/2000/svg" viewBox="0 0 151.57 149.74"><defs><style>.cls-1{fill:#fff;}</style></defs><g id="Camada_2" data-name="Camada 2"><g id="Camada_1-2" data-name="Camada 1"><path class="cls-1" d="M151.57,50.21a56.39,56.39,0,0,1-2.12,6.87,22.26,22.26,0,0,1-33.61,8.54c-.31-.24-.64-.45-1.19-.83L65.82,114c6,10.07,6.09,19.92-2.17,28.73-6.56,7-15,8.82-23.88,5.34-10.64-4.15-15-12.61-14.37-24a54.71,54.71,0,0,1-6,0A22.14,22.14,0,0,1,.2,105C-1.32,93.12,5.89,82.66,17.61,80A21.45,21.45,0,0,1,34.32,83.1c.78.5,1.29.72,2.11-.1q24-24.07,48-48.08c.14-.14.26-.29.47-.52-4.22-7.51-4.79-15.21-.58-22.91A21.4,21.4,0,0,1,99,.57,21.84,21.84,0,0,1,113,2a22.23,22.23,0,0,1,10.45,9.67,22.86,22.86,0,0,1,2.64,13.51,76.88,76.88,0,0,1,8.9,1.06,22,22,0,0,1,16.31,18.16,4.09,4.09,0,0,0,.28.81ZM103.08,6a15.62,15.62,0,0,0-14,9.37C86.34,21,87,26.63,90.48,31.86c1.88,2.78,1.87,3.57-.53,6L38.86,88.92c-2.48,2.48-3.4,2.52-6.13.26a16.42,16.42,0,1,0-5,28.16c1.47-.51,2.87-.85,4.12.41s.74,2.59.37,4a24.44,24.44,0,0,0-.91,5.2,16.26,16.26,0,0,0,11.37,15.92,16.44,16.44,0,0,0,18.62-6.54,16.62,16.62,0,0,0-1.1-19.71c-2.05-2.43-2-3.58.22-5.8q25.7-25.71,51.4-51.41c2.25-2.25,3.52-2.23,5.86,0a16.08,16.08,0,0,0,14.4,4.46,16.39,16.39,0,0,0-5-32.38,45.64,45.64,0,0,0-4.43,1.13,2.91,2.91,0,0,1-3.7-3.52,14.61,14.61,0,0,1,.46-1.56C122.92,16.89,115.06,6,103.08,6Z"/><path class="cls-1" d="M49.53,92.21c-2.69.06-4.17-2.37-3.11-4.3a6.08,6.08,0,0,1,1-1.26c4.24-4.27,8.47-8.55,12.79-12.74a4.59,4.59,0,0,1,2.66-1.32A2.84,2.84,0,0,1,65.26,77a7.2,7.2,0,0,1-1,1.24C60,82.39,55.87,86.59,51.65,90.74A12.68,12.68,0,0,1,49.53,92.21Z"/><path class="cls-1" d="M72,69.12a3,3,0,0,1-2.93,3,3,3,0,0,1-3-2.86,3.19,3.19,0,0,1,3-3.06A3,3,0,0,1,72,69.12Z"/></g></g></svg>