<svg xmlns="http://www.w3.org/2000/svg" viewBox="0 0 220.28 113.59"><defs><style>.cls-1{fill:#f3f3f3;}</style></defs><g id="Camada_2" data-name="Camada 2"><g id="Camada_1-2" data-name="Camada 1"><path class="cls-1" d="M0,65.44c.16-.52.28-1,.48-1.56A5.74,5.74,0,0,1,6.69,60.2a5.67,5.67,0,0,1,5,4.72,7.37,7.37,0,0,1,.13,1.4c0,2,0,3.93,0,5.89,0,0,0,.08,0,.13.22,0,.28-.15.4-.25,5.32-5,11.66-7.47,18.91-6.83C41.82,66.22,49,72.06,53,82A21.72,21.72,0,0,1,54.42,90c0,5.66.1,11.31.13,17a5.66,5.66,0,0,1-4,5.7A5.85,5.85,0,0,1,42.8,107q0-9.54,0-19.08a2.57,2.57,0,1,0-5.11,0v19a5.75,5.75,0,0,1-2.19,4.89,5.82,5.82,0,0,1-6.34.58,5.54,5.54,0,0,1-3.21-5.4c0-5.44,0-10.89,0-16.33a7.31,7.31,0,0,0-5.13-7,7.09,7.09,0,0,0-8.89,5.89,13.09,13.09,0,0,0-.1,1.66q0,8,0,16a5.7,5.7,0,0,1-4.23,5.59A5.94,5.94,0,0,1,.75,110,14.37,14.37,0,0,1,0,107.7Z"/><path class="cls-1" d="M156,113.59a24.59,24.59,0,0,0-2.72-.5c-5.86-1.32-10.52-4.34-13.36-9.72-5.3-10.08-1.29-24,12-27.65a21.65,21.65,0,0,1,17.79,2.37A17.84,17.84,0,0,1,178.41,92a18.5,18.5,0,0,1-6.07,16.43,20,20,0,0,1-10.79,4.89,2.62,2.62,0,0,0-1.2.25Zm-6.46-19.38a10,10,0,0,0,.12,1.73c.82,4.21,3.32,6.63,7.57,7.1A8.13,8.13,0,0,0,166,97.91a10,10,0,0,0,.46-5.84c-1.61-7.44-9.73-8.24-13.75-5A8.78,8.78,0,0,0,149.53,94.21Z"/><path class="cls-1" d="M78,113.59a25.15,25.15,0,0,0-2.86-.5c-6-1.27-10.72-4.27-13.48-9.8-5.44-10.86-.45-24.77,13.07-27.86a19.72,19.72,0,0,1,15.88,2.69,15.54,15.54,0,0,1,7.22,14.25,7.11,7.11,0,0,1-.7,2.9,4.79,4.79,0,0,1-4.68,2.85c-6.59,0-13.19,0-19.78,0-1,0-1,0-.6.87a8.08,8.08,0,0,0,6.77,4.88,18.65,18.65,0,0,0,9.07-1.38,8.89,8.89,0,0,1,3-.7,3.4,3.4,0,0,1,2.67,1.14,6.42,6.42,0,0,1,1.7,3.65c.22,2-1,3.24-2.55,4.13a24.87,24.87,0,0,1-8.63,2.64,4,4,0,0,0-1.46.25Zm1.24-23.52H86c.87,0,.89,0,.69-.85A7.51,7.51,0,0,0,77.46,84c-2.92.78-4.57,2.86-5.61,5.57-.18.48,0,.56.42.56C74.59,90.06,76.92,90.07,79.24,90.07Z"/><path class="cls-1" d="M220.28,106.93a6.17,6.17,0,0,0-.23,1.48,5.86,5.86,0,0,1-11.56-1c-.17-5.14,0-10.28-.07-15.42a10.29,10.29,0,0,0-.41-3,4.65,4.65,0,0,0-4-3.51,8.38,8.38,0,0,0-6.65,1.28A4.93,4.93,0,0,0,195.28,91c0,5.25,0,10.5,0,15.75a6.66,6.66,0,0,1-1,3.66,5.81,5.81,0,0,1-6.13,2.48,5.51,5.51,0,0,1-4.51-4.56,7.39,7.39,0,0,1-.14-1.4q0-12.68,0-25.36A5.75,5.75,0,0,1,189,75.48a5,5,0,0,1,5.37,3.43c.22.64.37.7.84.19,5.21-5.6,14.94-5.29,20-1.13a13.62,13.62,0,0,1,4.62,7.91,18,18,0,0,1,.42,3.8c0,.2-.1.43.1.6Z"/><path class="cls-1" d="M113.34,0c.19.24.48.13.72.18a5.81,5.81,0,0,1,4.64,5.87c0,1.83,0,3.67,0,5.5,0,.53.16.64.65.63,1.41,0,2.82-.06,4.22,0a5.37,5.37,0,0,1,5,2.73,5.3,5.3,0,0,1-4.77,7.88c-1.52,0-3,0-4.55,0-.39,0-.5.1-.5.5,0,3.75,0,7.51,0,11.26a6.39,6.39,0,0,0,.4,2.2,3.11,3.11,0,0,0,3,2.18,19.66,19.66,0,0,1,2.87.17,4.91,4.91,0,0,1,4.13,5.34,4.83,4.83,0,0,1-4.86,5.18,23.22,23.22,0,0,1-8.81-.76c-4.5-1.38-7-4.53-8-9a22.86,22.86,0,0,1-.51-4.95c0-3.82,0-7.64,0-11.46,0-.49-.11-.67-.63-.63a6.55,6.55,0,0,1-3.06-.48,5,5,0,0,1-3-5.08c.18-3.68,2.93-5.08,5.65-5.07,1.06,0,1.06,0,1.06-1.07,0-1.58,0-3.16,0-4.74A5.84,5.84,0,0,1,112.18.11s.09-.07.14-.11Z"/><path class="cls-1" d="M20,25.14q0-9,0-18A6.78,6.78,0,0,1,21.19,3,5.37,5.37,0,0,1,25.64.64c5,0,10-.1,15,0A17,17,0,0,1,57.52,15.81,18.11,18.11,0,0,1,53.69,30a16.67,16.67,0,0,1-10.56,6.08,22.26,22.26,0,0,1-3.82.28c-2.24,0-4.49,0-6.73,0-.44,0-.58.11-.57.57,0,2.3,0,4.61,0,6.91a5.93,5.93,0,0,1-3.73,5.42,6.13,6.13,0,0,1-6.56-1.39A6.62,6.62,0,0,1,20,43.13Q20,34.13,20,25.14Zm12-6.71V24.7c0,.29-.05.55.4.53,2.51-.07,5,.16,7.54-.13a5.92,5.92,0,0,0,5.09-3.25,8.34,8.34,0,0,0,.68-3.73c0-3.74-2.2-6.08-5.93-6.36-2.44-.18-4.9,0-7.35-.1-.47,0-.43.26-.43.57Z"/><path class="cls-1" d="M72.2,34.83a8.06,8.06,0,0,0,6.56,5.64,17.87,17.87,0,0,0,9.34-1.19,13.24,13.24,0,0,1,2.63-.77A3.6,3.6,0,0,1,94.32,40a6.14,6.14,0,0,1,1.42,3.76c0,1.82-1.2,2.9-2.67,3.7a23.3,23.3,0,0,1-7.63,2.46,25.59,25.59,0,0,1-12.26-.75c-7.43-2.5-11.92-7.6-13-15.42a18.54,18.54,0,0,1,6.24-17.22A19.46,19.46,0,0,1,77,11.78a20.13,20.13,0,0,1,11.89,1.8c5.49,2.72,8.72,7.08,9.34,13.26a10.72,10.72,0,0,1-.26,4,4.91,4.91,0,0,1-5.21,4q-9.86,0-19.72,0Zm7.46-8c2.33,0,4.65,0,7,0,.48,0,.63-.08.52-.6a7.5,7.5,0,0,0-9.43-5.49c-2.88.83-4.47,3-5.46,5.65-.17.44.1.43.41.43Z"/><path class="cls-1" d="M149.92,11.56a22.2,22.2,0,0,1,9.87,2,12.46,12.46,0,0,1,3.11,2.23,3.47,3.47,0,0,1,.81,4.1,6.78,6.78,0,0,1-1.12,1.86c-1.66,2-3.6,2.33-6,1A17.13,17.13,0,0,0,151,20.56a8,8,0,0,0-3.3.06A1.93,1.93,0,0,0,146,22.26a1.87,1.87,0,0,0,1.14,1.9,18.54,18.54,0,0,0,4.58,1.58,34.36,34.36,0,0,1,8.88,3.33c4.12,2.49,5.47,6.24,5,10.68-.49,4.92-3.36,8-7.94,9.39a27.37,27.37,0,0,1-20.38-1.75,10.84,10.84,0,0,1-2.55-1.81c-2.5-2.34-1.95-5.32.14-7.38,1.74-1.72,3.75-1.76,5.83-.2a15.92,15.92,0,0,0,6.13,2.91,12.81,12.81,0,0,0,5,.2,4.52,4.52,0,0,0,.8-.22,2,2,0,0,0,1.5-1.8A1.88,1.88,0,0,0,153,37.25a21,21,0,0,0-5-1.77,45,45,0,0,1-7.16-2.34c-2.77-1.29-5-3.14-5.81-6.24-1.09-4.42-.45-8.5,3-11.74a14,14,0,0,1,7.39-3.24A25.83,25.83,0,0,1,149.92,11.56Z"/><path class="cls-1" d="M132.55,86.67c0,6.83,0,13.65,0,20.48a5.34,5.34,0,0,1-3.34,5.3,5.85,5.85,0,0,1-6.56-1,6.11,6.11,0,0,1-1.85-4.81V66.66a8,8,0,0,1,.31-2.34A5.85,5.85,0,0,1,132.55,66Q132.57,76.33,132.55,86.67Z"/><path class="cls-1" d="M114.5,86.63c0,6.83,0,13.66,0,20.49a5.4,5.4,0,0,1-3.08,5.21,5.9,5.9,0,0,1-8.66-5.56c0-6.36,0-12.72,0-19.08V66.43a6,6,0,0,1,3.61-5.83,5.83,5.83,0,0,1,8.15,5.48C114.51,72.93,114.5,79.78,114.5,86.63Z"/><path class="cls-1" d="M78.62,63.31a9.76,9.76,0,0,1-5,8.18,10.29,10.29,0,0,1-8.9.42,14.87,14.87,0,0,0-4.21-1,3.73,3.73,0,0,0-3.93,2c-.21.4-.44.78-.68,1.16-.36.57-.78.6-1.14.05a33.17,33.17,0,0,0-11.92-11c-.64-.36-.72-.75-.25-1.28a48.26,48.26,0,0,0,9.16-16.71,6.71,6.71,0,0,1,.86-1.91,1.26,1.26,0,0,1,2.29,0,3.94,3.94,0,0,1,.58,1.55,17.39,17.39,0,0,0,4.24,8.81A17.87,17.87,0,0,0,69,58.91a25.7,25.7,0,0,0,6.66.64C77.67,59.51,78.72,60.61,78.62,63.31Z"/></g></g></svg>