<svg xmlns="http://www.w3.org/2000/svg" viewBox="0 0 309.4 101.74"><defs><style>.cls-1{fill:#fff;}</style></defs><g id="Camada_2" data-name="Camada 2"><g id="Camada_1-2" data-name="Camada 1"><path class="cls-1" d="M101.69,47.17,38.55.89a4.58,4.58,0,0,0-7.28,3.7V29.83h29.4v9.61H41.38v9.47H59.47v9.61H41.38v17.7H31.27V97.15a4.57,4.57,0,0,0,7.28,3.69l63.14-46.28a4.58,4.58,0,0,0,0-7.39"/><path class="cls-1" d="M35.33,44.14c0,8.62-4.84,14.91-17.3,14.91H10.47V76.22H0V29.83H18c12.46,0,17.3,5.89,17.3,14.31m-10.48.27c0-3.58-1.79-5.5-6.29-5.5H10.47V50h8.09c4.5,0,6.29-1.59,6.29-5.56"/><path class="cls-1" d="M119.46,81h4.71a3.12,3.12,0,0,1,2.74,1.14,2.62,2.62,0,0,1,.48,1.56,2.44,2.44,0,0,1-.58,1.69,2.82,2.82,0,0,1-.88.64,3.67,3.67,0,0,1,1.26.72,2.6,2.6,0,0,1,.73,2,3.06,3.06,0,0,1-.66,1.91,3.77,3.77,0,0,1-3.16,1.27h-4.64Zm4.16,4.61a3.43,3.43,0,0,0,1.47-.26,1.51,1.51,0,0,0,.83-1.47,1.42,1.42,0,0,0-.88-1.44,3.94,3.94,0,0,0-1.47-.21H120.9v3.38Zm.5,5a2.28,2.28,0,0,0,2-.79,2,2,0,0,0,.36-1.2,1.6,1.6,0,0,0-1.07-1.62,4.17,4.17,0,0,0-1.51-.23h-3v3.84Z"/><path class="cls-1" d="M143.5,81h5a4.94,4.94,0,0,1,2,.36A2.58,2.58,0,0,1,152,84a2.67,2.67,0,0,1-1.53,2.6,2.37,2.37,0,0,1,1,.68,2.6,2.6,0,0,1,.36,1.38l0,1.46a5.31,5.31,0,0,0,.1.93.94.94,0,0,0,.48.67v.24h-1.81a1.26,1.26,0,0,1-.12-.36,7.37,7.37,0,0,1-.07-.86l-.09-1.82a1.54,1.54,0,0,0-.77-1.43,3,3,0,0,0-1.3-.21H145v4.68H143.5Zm4.8,5a2.73,2.73,0,0,0,1.6-.41,1.73,1.73,0,0,0,.58-1.5,1.61,1.61,0,0,0-.82-1.59,2.57,2.57,0,0,0-1.17-.22H145V86Z"/><path class="cls-1" d="M171.16,81h1.67l3.95,10.9h-1.61l-1.11-3.26h-4.31l-1.18,3.26h-1.52Zm2.42,6.43-1.65-4.81-1.76,4.81Z"/><polygon class="cls-1" points="191 90.71 197.71 82.33 191.5 82.33 191.5 81.03 199.62 81.03 199.62 82.3 192.87 90.63 199.62 90.63 199.62 91.93 191 91.93 191 90.71"/><rect class="cls-1" x="215.12" y="81.03" width="1.49" height="10.91"/><polygon class="cls-1" points="232.7 81.03 234.17 81.03 234.17 90.63 239.65 90.63 239.65 91.93 232.7 91.93 232.7 81.03"/><path class="cls-1" d="M153.35,40.64c0,8.23-4.63,14.25-16.53,14.25H129.6v16.4h-10V27h17.23c11.9,0,16.53,5.64,16.53,13.68m-10,.25c0-3.42-1.71-5.25-6-5.25H129.6V46.21h7.72c4.31,0,6-1.52,6-5.32"/><path class="cls-1" d="M178.49,39.63v8.92a11,11,0,0,0-4.18-.63c-4.43,0-8.42,2.28-8.42,10.9V71.29h-9.63V39.63h9.63v9c.7-4.62,2.79-9.5,8.74-9.5a10.74,10.74,0,0,1,3.86.51"/><path class="cls-1" d="M213.33,55.52c0,10.2-7.86,16.41-17.23,16.41s-17.23-6.21-17.23-16.41S186.73,39,196.1,39s17.23,6.27,17.23,16.53m-9.63,0c0-5.32-2.41-7.79-7.6-7.79s-7.6,2.47-7.6,7.79,2.41,7.67,7.6,7.67,7.6-2.47,7.6-7.67"/><polygon class="cls-1" points="228.15 36.14 228.15 45.2 245.44 45.2 245.44 54.38 228.15 54.38 228.15 71.29 218.14 71.29 218.14 26.96 246.58 26.96 246.58 36.14 228.15 36.14"/><path class="cls-1" d="M282.36,39.63V71.29h-9.63V64.2c-1.77,5-5.38,7.73-10.45,7.73-9,0-14.06-6.59-14.06-16.41S253,39,261.65,39c5.38,0,9.25,2.79,11.08,8V39.63Zm-9.31,15.89c0-5.32-2.47-7.79-7.73-7.79-5.06,0-7.47,2.47-7.47,7.79s2.41,7.67,7.47,7.67c5.26,0,7.73-2.47,7.73-7.67"/><path class="cls-1" d="M300.66,48.05V62.87h8.11v8.42h-7C295.34,71.29,291,67,291,60.53V48.05H285.4V39.63H291V30.44h9.62v9.19h8.74v8.42Z"/></g></g></svg>