<svg xmlns="http://www.w3.org/2000/svg" xmlns:xlink="http://www.w3.org/1999/xlink" viewBox="0 0 371.61 128"><defs><style>.cls-1{fill:none;}.cls-2{fill:url(#linear-gradient);}.cls-3{fill:#ededed;}.cls-4{fill:#fff;}</style><linearGradient id="linear-gradient" x1="612.21" y1="1011.13" x2="724.27" y2="1011.13" gradientTransform="matrix(-0.71, -0.71, 0.71, -0.71, -152.94, 1225.98)" gradientUnits="userSpaceOnUse"><stop offset="0" stop-color="#e40f70"/><stop offset="1" stop-color="#e40f70"/></linearGradient></defs><g id="Camada_2" data-name="Camada 2"><g id="Camada_1-2" data-name="Camada 1"><path class="cls-1" d="M106.17,55.12a15,15,0,0,0-21.06.25L76.48,64l8.83,8.84A32.17,32.17,0,0,1,93.7,87.38l12.52-11.31a14.8,14.8,0,0,0,.18-20.72h0Z"/><path class="cls-1" d="M72.63,85.11,64,76.48l-8.84,8.84A32.24,32.24,0,0,1,40.62,93.7l11.31,12.52a14.8,14.8,0,0,0,20.72.19A15,15,0,0,0,72.63,85.11Z"/><path class="cls-1" d="M55.35,21.6a15,15,0,0,0,0,21.29L64,51.52l8.84-8.83A32.14,32.14,0,0,1,87.37,34.3L76.06,21.78A14.79,14.79,0,0,0,55.35,21.6Z"/><path class="cls-1" d="M42.89,72.63,51.52,64l-8.84-8.84A32.26,32.26,0,0,1,34.3,40.63L21.78,51.94a14.79,14.79,0,0,0-.19,20.71A15,15,0,0,0,42.89,72.63Z"/><path class="cls-2" d="M106.38,55.35h0l-.23-.23Z"/><polygon class="cls-1" points="76.48 64 77.99 62.48 76.48 64 76.48 64"/><polygon class="cls-1" points="59.28 81.2 55.16 85.32 63.77 76.7 59.28 81.2"/><path class="cls-3" d="M118.65,42.65l-.16-.17a32.25,32.25,0,0,0-21.74-9.26,32.58,32.58,0,0,0-7.3.6c-.7.14-1.39.3-2.08.48a32.14,32.14,0,0,0-14.53,8.39L51.52,64l-8.63,8.63a15,15,0,0,1-21.3,0,14.79,14.79,0,0,1,.19-20.71L34.3,40.63c-.19-.69-.35-1.38-.49-2.08a33.17,33.17,0,0,1-.59-7.3A32.28,32.28,0,0,1,42.47,9.52L9.66,39.1c-12.59,12.59-13,33.36-.55,46l.4.41a32.61,32.61,0,0,0,29,8.66c.7-.14,1.39-.3,2.08-.49a32.24,32.24,0,0,0,14.54-8.38l4.12-4.12,4.49-4.5L76.48,64,78,62.48l3.64-3.63,3.48-3.48a15,15,0,0,1,21.06-.25l.23.23a14.8,14.8,0,0,1-.18,20.72L93.7,87.38c.18.69.34,1.38.48,2.08a32.52,32.52,0,0,1-8.65,29l-.42.4h0l33.22-30C131,76.22,131.32,55.27,118.65,42.65Z"/><path class="cls-4" d="M88.9,9.66c-12.73-12.73-33.82-13-46.43-.14a32.28,32.28,0,0,0-9.25,21.73,33.17,33.17,0,0,0,.59,7.3c.14.7.3,1.39.49,2.08a32.26,32.26,0,0,0,8.38,14.53L51.52,64,64,51.52l-8.63-8.63a15,15,0,0,1-.56-20.74l0,0,.13-.12.21-.18h0a2.28,2.28,0,0,1,.22-.22,14.79,14.79,0,0,1,20.71.18L87.37,34.3c.69-.18,1.38-.34,2.08-.48a32.58,32.58,0,0,1,7.3-.6,32.25,32.25,0,0,1,21.74,9.26l.16.17Z"/><path class="cls-4" d="M93.7,87.38a32.17,32.17,0,0,0-8.39-14.54L76.48,64,63.77,76.7l.23-.22,8.63,8.63a15,15,0,0,1,0,21.3,14.8,14.8,0,0,1-20.72-.19L40.62,93.7c-.69.19-1.38.35-2.08.49a32.61,32.61,0,0,1-29-8.66l-.4-.41h0l30,33.21c12.6,12.59,33.37,13,46,.55l.42-.4a32.52,32.52,0,0,0,8.65-29C94,88.76,93.88,88.07,93.7,87.38Z"/><path class="cls-4" d="M146.77,69c-.79-.63-1.1-1.1-.39-2.36l2.83-4.88a1.82,1.82,0,0,1,2.67-.55c3.23,2.44,6.77,4.88,11.89,4.88,4.09,0,7.16-2.68,7.16-6.06,0-4-3.38-6.77-10-9.45-7.4-3-14.8-7.71-14.8-17,0-7,5.19-15.11,17.71-15.11a27.74,27.74,0,0,1,15.74,5.28,2,2,0,0,1,.47,2.59l-3,4.49c-.63.94-1.81,1.57-2.76.94-3.38-2.12-6.61-4.33-10.94-4.33-4.48,0-6.92,2.52-6.92,5.51,0,3.7,2.91,6.22,9.29,8.82,7.63,3.07,16.44,7.63,16.44,17.78,0,8.11-7,15.59-18.1,15.59C154.17,75.13,149.05,71,146.77,69Z"/><path class="cls-4" d="M237.12,73.08a1.39,1.39,0,0,1-1.34,2h-8a1.46,1.46,0,0,1-1.34-.87L211.22,40.42h-.39L195.64,74.26a1.45,1.45,0,0,1-1.34.87h-8a1.39,1.39,0,0,1-1.34-2l24.4-53a1.4,1.4,0,0,1,1.33-.87h.79a1.41,1.41,0,0,1,1.34.87Z"/><path class="cls-4" d="M243.88,20.75a1.5,1.5,0,0,1,1.5-1.5h7.24a1.55,1.55,0,0,1,1.5,1.5V64.9h20.06a1.49,1.49,0,0,1,1.5,1.49v6.45a1.5,1.5,0,0,1-1.5,1.5h-28.8a1.5,1.5,0,0,1-1.5-1.5Z"/><path class="cls-4" d="M281.82,20.75a1.55,1.55,0,0,1,1.49-1.5h7.48a1.49,1.49,0,0,1,1.49,1.5V53.56c0,6.69,4.57,11.34,11.42,11.34s11.49-4.65,11.49-11.26V20.75a1.5,1.5,0,0,1,1.49-1.5h7.48a1.54,1.54,0,0,1,1.49,1.5V54.11c0,12-9.52,21-21.95,21s-21.88-9-21.88-21Z"/><path class="cls-4" d="M336.2,69c-.79-.63-1.1-1.1-.39-2.36l2.83-4.88a1.82,1.82,0,0,1,2.67-.55c3.23,2.44,6.77,4.88,11.89,4.88,4.09,0,7.16-2.68,7.16-6.06,0-4-3.38-6.77-10-9.45-7.4-3-14.8-7.71-14.8-17,0-7,5.19-15.11,17.71-15.11A27.74,27.74,0,0,1,369,23.74a2,2,0,0,1,.47,2.59l-3,4.49c-.63.94-1.81,1.57-2.76.94-3.38-2.12-6.61-4.33-10.94-4.33-4.48,0-6.92,2.52-6.92,5.51,0,3.7,2.91,6.22,9.29,8.82,7.63,3.07,16.44,7.63,16.44,17.78,0,8.11-7,15.59-18.1,15.59C343.6,75.13,338.48,71,336.2,69Z"/><path class="cls-4" d="M150.72,88.69a.44.44,0,0,1,.43-.43h5a5.05,5.05,0,1,1,0,10.1h-3.74v5.32a.45.45,0,0,1-.43.43h-.86a.44.44,0,0,1-.43-.43Zm5.32,8a3.37,3.37,0,0,0,3.44-3.46A3.23,3.23,0,0,0,156,90h-3.6v6.7Z"/><path class="cls-4" d="M165.62,103.52l6.88-15.24a.41.41,0,0,1,.38-.24h.23a.4.4,0,0,1,.38.24l6.84,15.24a.4.4,0,0,1-.38.59H179a.41.41,0,0,1-.38-.25L177,100.12h-8l-1.66,3.74a.41.41,0,0,1-.38.25H166A.4.4,0,0,1,165.62,103.52Zm10.75-4.8c-1.11-2.47-2.2-5-3.31-7.43h-.18l-3.3,7.43Z"/><path class="cls-4" d="M187.21,88.69a.43.43,0,0,1,.43-.43h5.86a4.87,4.87,0,0,1,4.94,4.82,5.06,5.06,0,0,1-3.35,4.62l3.1,5.75a.43.43,0,0,1-.39.66h-1.08a.5.5,0,0,1-.5-.34l-2.94-5.87H189v5.78a.45.45,0,0,1-.43.43h-.88a.43.43,0,0,1-.43-.43Zm6.18,7.72a3.25,3.25,0,1,0,0-6.5H189v6.5Z"/><path class="cls-4" d="M209.08,89.78h-3.94a.43.43,0,0,1-.43-.43v-.66a.43.43,0,0,1,.43-.43h9.6a.44.44,0,0,1,.43.43v.66a.44.44,0,0,1-.43.43H210.8v13.9a.45.45,0,0,1-.43.43h-.86a.45.45,0,0,1-.43-.43Z"/><path class="cls-4" d="M222.45,88.69a.45.45,0,0,1,.43-.43h.91a.45.45,0,0,1,.43.43v15a.45.45,0,0,1-.43.43h-.91a.45.45,0,0,1-.43-.43Z"/><path class="cls-4" d="M240.27,88a7.94,7.94,0,0,1,5.47,2.1.43.43,0,0,1,0,.63l-.61.62c-.19.22-.37.2-.59,0a6.62,6.62,0,0,0-4.33-1.7,6.51,6.51,0,0,0,0,13,6.07,6.07,0,0,0,4.33-1.7.39.39,0,0,1,.59,0l.52.52a.44.44,0,0,1,0,.62,8,8,0,0,1-13.55-5.93A8.15,8.15,0,0,1,240.27,88Z"/><path class="cls-4" d="M253.6,88.69a.45.45,0,0,1,.43-.43h.9a.45.45,0,0,1,.43.43v15a.45.45,0,0,1-.43.43H254a.45.45,0,0,1-.43-.43Z"/><path class="cls-4" d="M264.24,88.69a.43.43,0,0,1,.43-.43h5a5.05,5.05,0,1,1,0,10.1H266v5.32a.45.45,0,0,1-.43.43h-.86a.43.43,0,0,1-.43-.43Zm5.32,8A3.38,3.38,0,0,0,273,93.22,3.23,3.23,0,0,0,269.56,90H266v6.7Z"/><path class="cls-4" d="M279.13,103.52,286,88.28a.41.41,0,0,1,.39-.24h.22a.41.41,0,0,1,.39.24l6.83,15.24a.4.4,0,0,1-.38.59h-.91a.41.41,0,0,1-.38-.25l-1.68-3.74h-8l-1.65,3.74a.44.44,0,0,1-.39.25h-.9A.41.41,0,0,1,279.13,103.52Zm10.75-4.8c-1.11-2.47-2.19-5-3.3-7.43h-.18l-3.31,7.43Z"/><path class="cls-4" d="M307.61,88a8,8,0,0,1,5.47,2.1.44.44,0,0,1,0,.63l-.62.62c-.18.22-.36.2-.58,0a6.87,6.87,0,0,0-4.33-1.7,6.51,6.51,0,0,0,0,13,6.58,6.58,0,0,0,4.33-1.7.42.42,0,0,1,.54-.07l.68.61a.45.45,0,0,1,0,.62,7.75,7.75,0,0,1-5.3,2.19l-.82,1.29a2.06,2.06,0,0,1,.57-.09,1.81,1.81,0,0,1,2,1.88,2.32,2.32,0,0,1-2.54,2.13,2.63,2.63,0,0,1-1.85-.64c-.14-.13-.09-.29,0-.47l.18-.34c.11-.23.27-.25.47-.11a1.65,1.65,0,0,0,1.14.45c.77,0,1.26-.32,1.26-.93s-.49-.93-1.2-.93a2.8,2.8,0,0,0-1.08.23c-.16.07-.34-.14-.27-.3l1.06-2.21A8.15,8.15,0,0,1,307.61,88Z"/><path class="cls-4" d="M327.75,88a8.15,8.15,0,1,1-8.13,8.17A8.13,8.13,0,0,1,327.75,88Zm0,14.71a6.57,6.57,0,1,0-6.54-6.54A6.58,6.58,0,0,0,327.75,102.75Zm-3.24-16.84c-.18-.09-.15-.34-.09-.5.21-.41.59-1.9,2.09-1.9s1.78,1.67,2.49,1.67.9-.77,1-1.15.28-.3.52-.18l.37.18c.27.13.13.43.09.59-.23.65-.77,1.83-2,1.83s-1.85-1.7-2.49-1.7-.83.66-1,1.14a.37.37,0,0,1-.57.22Z"/><path class="cls-4" d="M343.78,88.69a.43.43,0,0,1,.43-.43h8.91a.43.43,0,0,1,.43.43v.66a.43.43,0,0,1-.43.43h-7.6V95.3H352a.44.44,0,0,1,.43.43v.66a.43.43,0,0,1-.43.43h-6.49v5.77h7.6a.43.43,0,0,1,.43.43v.66a.43.43,0,0,1-.43.43h-8.91a.43.43,0,0,1-.43-.43Z"/><path class="cls-4" d="M360.34,101.73l.34-.43c.23-.3.41-.41.73-.14a6.58,6.58,0,0,0,3.89,1.65,2.73,2.73,0,0,0,3-2.58c0-1.56-1.35-2.46-4-3.57s-4-2-4-4.6c0-1.54,1.22-4,4.82-4a7.41,7.41,0,0,1,3.87,1.15.52.52,0,0,1,.14.77l-.23.38c-.18.32-.43.32-.79.12a5.28,5.28,0,0,0-3-.91c-2.4,0-3.13,1.54-3.13,2.49,0,1.61,1.16,2.31,3.06,3.1,3.06,1.25,5,2.4,5,5,0,2.35-2.25,4.16-4.89,4.16a7.4,7.4,0,0,1-4.78-1.83C360.3,102.34,360,102.14,360.34,101.73Z"/></g></g></svg>