<svg xmlns="http://www.w3.org/2000/svg" viewBox="0 0 626.01 131.13"><defs><style>.cls-1{fill:none;stroke:#faf7dc;stroke-miterlimit:10;stroke-width:4.48px;}.cls-2{fill:#fff;}</style></defs><g id="Camada_2" data-name="Camada 2"><g id="Camada_1-2" data-name="Camada 1"><polyline class="cls-1" points="65.56 2.24 128.88 2.24 128.88 128.89 2.24 128.89 2.24 2.24 65.56 2.24"/><path class="cls-2" d="M19.11,40.13c-.14,1.4-.21,2.82-.21,4.25a46.66,46.66,0,1,0,93.31,0c0-1.44-.07-2.88-.21-4.29ZM65.56,73.47c-9.34,0-17.37-7-21-17h42C82.92,66.48,74.9,73.47,65.56,73.47Z"/><path class="cls-2" d="M245.47,32.93A27.57,27.57,0,1,0,273.05,60.5,27.57,27.57,0,0,0,245.47,32.93Zm0,44.77c-7.53,0-13.65-7.7-13.65-17.2s6.12-17.19,13.65-17.19S259.13,51,259.13,60.5,253,77.7,245.47,77.7Z"/><path class="cls-2" d="M353.52,28.17v3.67a30.26,30.26,0,0,1,14-4.41V19.3h-.07A30.45,30.45,0,0,0,353.52,28.17Z"/><path class="cls-2" d="M353.52,88.07h14V33.69a30.39,30.39,0,0,0-14,4.42Z"/><path class="cls-2" d="M545.5,56.53A23.51,23.51,0,0,0,506,40V33.69A30.39,30.39,0,0,0,492,38.11v50H506v-32a12.87,12.87,0,0,1,25.43,2.84V78.8l.2-.08v7.71h13.94V56.53Z"/><path class="cls-2" d="M349.16,34a24.23,24.23,0,0,0-3.75-.3,23.43,23.43,0,0,0-16,6.33V33.69a30.43,30.43,0,0,0-14,4.42v50h14v-32a12.87,12.87,0,0,1,12.56-10,12.72,12.72,0,0,1,7.22,2.23Z"/><path class="cls-2" d="M310.24,34a24.53,24.53,0,0,0-3.75-.3,23.42,23.42,0,0,0-16,6.33V33.69a30.46,30.46,0,0,0-14,4.42v50h14v-32a12.86,12.86,0,0,1,19.79-7.81Z"/><path class="cls-2" d="M426.94,14.14A30.41,30.41,0,0,0,413.05,23V36.53a27.57,27.57,0,1,0,0,47.94V86.3H427V14.14ZM399.42,77.7c-7.53,0-13.65-7.7-13.65-17.2s6.12-17.19,13.65-17.19c7.33,0,13.29,7.28,13.63,16.41v1.56C412.71,70.42,406.75,77.7,399.42,77.7Z"/><path class="cls-2" d="M468.34,73.57a12.11,12.11,0,0,1-8.86,4.13C452.61,77.7,447,71.32,446,63h40.95c.07-.82.12-1.66.12-2.51A27.62,27.62,0,1,0,476.74,82Zm-8.86-30.26c5.52,0,10.26,4.13,12.41,10.06H447.06C449.21,47.44,454,43.31,459.48,43.31Z"/><path class="cls-2" d="M582.93,73.07c-1.47,2.26-4.41,3.25-7.14,3.25-4.41,0-7.45-2-7.58-6.81h0V44.16h13.64V33.61H568.19V17.52h-.05a30.46,30.46,0,0,0-13.89,8.86v7.23h-8V44.16h8v30.7h0a15.09,15.09,0,0,0,15.07,14.46A20.83,20.83,0,0,0,583,83.79Z"/><path class="cls-2" d="M610.74,55.67c-7-2.62-8.93-4.12-8.93-7,0-3.09,2.77-5.09,7.07-5.09A20,20,0,0,1,619,46.38l1.89,1.11,3.53-10.12-1.23-.76c-3.46-2.13-8.71-3.4-14-3.4-11.79,0-20.34,7-20.34,16.63,0,7.1,5.23,12.48,15.52,16,7.33,2.59,8.69,4.55,8.69,7.5,0,3.63-3.12,5.71-8.55,5.71a27.24,27.24,0,0,1-12.1-3.32l-1.88-1L586.94,85l1.32.73a34,34,0,0,0,16,3.78c13.23,0,21.78-6.7,21.78-17C626,62.34,617.82,58.16,610.74,55.67Z"/><path class="cls-2" d="M192,40c-9.94-3.71-14.08-6.13-14.08-11.48s4.58-8.72,11.68-8.72a31.05,31.05,0,0,1,15.62,4.3l1.66,1,4.54-13-1.09-.66c-5-3.08-12.62-4.92-20.4-4.92-17,0-29.27,10-29.27,23.73,0,10.08,7.55,17.77,22.44,22.86,10.26,3.62,13.72,6.71,13.72,12.25,0,6-5.18,9.65-13.85,9.65-7,0-14.41-2.74-18.64-5.1L162.64,69,158.12,82.3l1.15.64c6.33,3.49,14.83,5.49,23.33,5.49,19.09,0,31.43-9.56,31.43-24.35C214,49.6,202.24,43.6,192,40Z"/><path class="cls-2" d="M172.92,124a12.57,12.57,0,0,1-5.16.93c-5.5,0-9.64-3.48-9.64-9.88,0-6.1,4.14-10.25,10.19-10.25a10.63,10.63,0,0,1,4.64.87l-.61,2.06a9.26,9.26,0,0,0-3.94-.81c-4.57,0-7.61,2.92-7.61,8,0,4.78,2.75,7.86,7.5,7.86a10,10,0,0,0,4.11-.82Z"/><path class="cls-2" d="M184.43,104H187V124.6h-2.54Z"/><path class="cls-2" d="M204.88,104.53l-3.53,4.14h-1.82l2.54-4.14ZM199.7,124.6v-14h2.55v14Z"/><path class="cls-2" d="M214.92,114.38c0-1.45,0-2.64-.12-3.8h2.26l.15,2.32h.06a5.14,5.14,0,0,1,4.63-2.63c1.94,0,4.95,1.15,4.95,6v8.37H224.3v-8.08c0-2.26-.84-4.14-3.25-4.14a3.72,3.72,0,0,0-3.58,3.79v8.43h-2.55Z"/><path class="cls-2" d="M242.26,106.65a1.58,1.58,0,0,1-3.15,0,1.55,1.55,0,0,1,1.59-1.6A1.51,1.51,0,0,1,242.26,106.65Zm-2.84,17.95v-14H242v14Z"/><path class="cls-2" d="M264.63,124.08a9.46,9.46,0,0,1-4,.81c-4.23,0-7-2.87-7-7.15a7.12,7.12,0,0,1,7.53-7.44,8.44,8.44,0,0,1,3.53.72l-.58,2a5.87,5.87,0,0,0-2.95-.67c-3.22,0-5,2.37-5,5.3,0,3.24,2.08,5.24,4.86,5.24a7.2,7.2,0,0,0,3.13-.7Z"/><path class="cls-2" d="M283.81,124.6l-.2-1.76h-.09a5.22,5.22,0,0,1-4.28,2.07,4,4,0,0,1-4.29-4c0-3.39,3-5.24,8.43-5.21v-.29c0-1.16-.31-3.24-3.18-3.24a6.93,6.93,0,0,0-3.65,1l-.58-1.68a8.73,8.73,0,0,1,4.6-1.24c4.29,0,5.33,2.92,5.33,5.73v5.24a20.15,20.15,0,0,0,.23,3.36Zm-.37-7.16c-2.78-.06-5.94.44-5.94,3.16a2.26,2.26,0,0,0,2.41,2.43,3.47,3.47,0,0,0,3.38-2.34,2.57,2.57,0,0,0,.15-.81Z"/><path class="cls-2" d="M298.1,122a6.74,6.74,0,0,0,3.36,1c1.85,0,2.72-.92,2.72-2.08s-.72-1.88-2.6-2.58c-2.52-.9-3.71-2.28-3.71-4,0-2.26,1.82-4.11,4.84-4.11a7,7,0,0,1,3.44.86l-.64,1.86a5.41,5.41,0,0,0-2.86-.81c-1.51,0-2.35.86-2.35,1.9s.84,1.69,2.67,2.38c2.43.92,3.67,2.14,3.67,4.23,0,2.46-1.91,4.2-5.24,4.2a8,8,0,0,1-3.93-1Z"/><path class="cls-2" d="M364.29,114.64c0,6.72-4.09,10.27-9.07,10.27-5.15,0-8.77-4-8.77-9.9,0-6.19,3.85-10.25,9.06-10.25S364.29,108.85,364.29,114.64Zm-15.14.32c0,4.17,2.25,7.9,6.22,7.9s6.25-3.68,6.25-8.11c0-3.88-2-7.93-6.22-7.93S349.15,110.67,349.15,115Z"/><path class="cls-2" d="M388.12,104V121c0,1.24,0,2.66.12,3.62H386l-.11-2.44h-.06a5.17,5.17,0,0,1-4.78,2.75c-3.38,0-6-2.86-6-7.12,0-4.66,2.86-7.52,6.28-7.52a4.69,4.69,0,0,1,4.23,2.14h.06V104Zm-2.54,12.25a4.34,4.34,0,0,0-.12-1.07,3.76,3.76,0,0,0-3.67-3c-2.64,0-4.21,2.32-4.21,5.42,0,2.84,1.39,5.18,4.15,5.18a3.83,3.83,0,0,0,3.73-3,4.27,4.27,0,0,0,.12-1.1Z"/><path class="cls-2" d="M413.47,117.48c0,5.18-3.59,7.43-7,7.43-3.79,0-6.71-2.77-6.71-7.2,0-4.7,3.06-7.44,6.94-7.44S413.47,113.19,413.47,117.48Zm-11.12.14c0,3.07,1.77,5.38,4.25,5.38s4.26-2.28,4.26-5.44c0-2.38-1.18-5.38-4.2-5.38S402.35,115,402.35,117.62Z"/><path class="cls-2" d="M425.12,114.38c0-1.45,0-2.64-.12-3.8h2.26l.15,2.32h0a5.17,5.17,0,0,1,4.64-2.63c1.94,0,4.95,1.15,4.95,6v8.37H434.5v-8.08c0-2.26-.84-4.14-3.24-4.14a3.63,3.63,0,0,0-3.42,2.6,3.88,3.88,0,0,0-.17,1.19v8.43h-2.55Z"/><path class="cls-2" d="M452.58,106.56v4h3.65v1.94h-3.65v7.56c0,1.74.49,2.72,1.91,2.72a5.64,5.64,0,0,0,1.48-.17l.12,1.91a6.35,6.35,0,0,1-2.26.35,3.53,3.53,0,0,1-2.75-1.07,5.18,5.18,0,0,1-1-3.65v-7.65h-2.17v-1.94h2.17v-3.35Z"/><path class="cls-2" d="M480,117.48c0,5.18-3.59,7.43-7,7.43-3.78,0-6.71-2.77-6.71-7.2,0-4.7,3.06-7.44,6.95-7.44S480,113.19,480,117.48Zm-11.11.14c0,3.07,1.77,5.38,4.25,5.38s4.26-2.28,4.26-5.44c0-2.38-1.19-5.38-4.2-5.38S468.93,115,468.93,117.62Z"/><path class="cls-2" d="M491.7,104h2.54V124.6H491.7Z"/><path class="cls-2" d="M519.66,117.48c0,5.18-3.6,7.43-7,7.43-3.8,0-6.72-2.77-6.72-7.2,0-4.7,3.07-7.44,6.95-7.44S519.66,113.19,519.66,117.48Zm-11.12.14c0,3.07,1.76,5.38,4.25,5.38s4.26-2.28,4.26-5.44c0-2.38-1.19-5.38-4.2-5.38S508.54,115,508.54,117.62Zm8.08-13.09-3.53,4.14h-1.83l2.55-4.14Z"/><path class="cls-2" d="M543.38,110.58c-.06,1-.11,2.14-.11,3.86v8.13c0,3.21-.65,5.18-2,6.4a7.47,7.47,0,0,1-5.1,1.68,9,9,0,0,1-4.66-1.16l.63-1.94a7.93,7.93,0,0,0,4.12,1.1c2.6,0,4.51-1.36,4.51-4.89v-1.57h-.06a5,5,0,0,1-4.45,2.35c-3.48,0-6-3-6-6.83,0-4.75,3.1-7.44,6.31-7.44A4.65,4.65,0,0,1,541,112.7H541l.12-2.12Zm-2.64,5.53a3.74,3.74,0,0,0-.14-1.15,3.68,3.68,0,0,0-3.57-2.7c-2.42,0-4.16,2.06-4.16,5.3,0,2.75,1.39,5,4.14,5a3.72,3.72,0,0,0,3.53-2.61,4.23,4.23,0,0,0,.2-1.36Z"/><path class="cls-2" d="M558.59,106.65a1.58,1.58,0,0,1-3.15,0,1.55,1.55,0,0,1,1.59-1.6A1.52,1.52,0,0,1,558.59,106.65Zm-2.83,17.95v-14h2.54v14Z"/><path class="cls-2" d="M581,124.08a9.46,9.46,0,0,1-4,.81c-4.23,0-7-2.87-7-7.15a7.12,7.12,0,0,1,7.53-7.44A8.47,8.47,0,0,1,581,111l-.58,2a5.84,5.84,0,0,0-3-.67c-3.21,0-5,2.37-5,5.3,0,3.24,2.08,5.24,4.86,5.24a7.24,7.24,0,0,0,3.13-.7Z"/><path class="cls-2" d="M600.15,124.6l-.21-1.76h-.09a5.22,5.22,0,0,1-4.28,2.07,4,4,0,0,1-4.28-4c0-3.39,3-5.24,8.43-5.21v-.29a2.89,2.89,0,0,0-3.19-3.24,6.93,6.93,0,0,0-3.65,1l-.58-1.68a8.7,8.7,0,0,1,4.6-1.24c4.29,0,5.33,2.92,5.33,5.73v5.24a20.15,20.15,0,0,0,.23,3.36Zm-.38-7.16c-2.78-.06-5.94.44-5.94,3.16a2.26,2.26,0,0,0,2.41,2.43,3.47,3.47,0,0,0,3.38-2.34,2.32,2.32,0,0,0,.15-.81Z"/><path class="cls-2" d="M614.43,122a6.75,6.75,0,0,0,3.37,1c1.85,0,2.71-.92,2.71-2.08s-.72-1.88-2.6-2.58c-2.52-.9-3.71-2.28-3.71-4,0-2.26,1.83-4.11,4.84-4.11a7,7,0,0,1,3.44.86l-.64,1.86a5.38,5.38,0,0,0-2.86-.81c-1.51,0-2.35.86-2.35,1.9s.84,1.69,2.67,2.38c2.43.92,3.68,2.14,3.68,4.23,0,2.46-1.91,4.2-5.25,4.2a8,8,0,0,1-3.93-1Z"/></g></g></svg>