<svg xmlns="http://www.w3.org/2000/svg" viewBox="0 0 378.85 111.25"><defs><style>.cls-1{fill:#f3f3f3;}</style></defs><g id="Camada_2" data-name="Camada 2"><g id="Camada_1-2" data-name="Camada 1"><polygon class="cls-1" points="347.85 38.48 366.62 55.55 347.85 72.77 347.85 83.97 378.85 55.52 378.85 55.52 347.85 27.27 347.85 38.48"/><polygon class="cls-1" points="6.93 70.62 0 76.97 0 90.92 22.12 70.62 6.93 70.62"/><polygon class="cls-1" points="0 34.27 8.04 41.59 23.33 41.59 0 20.33 0 34.27"/><polygon class="cls-1" points="26.85 70.62 6.52 89.27 6.52 111.25 6.52 111.25 50.79 70.62 26.85 70.62"/><polygon class="cls-1" points="6.52 0 6.52 21.98 28.07 41.59 52.16 41.59 6.52 0"/><path class="cls-1" d="M24.37,48.93H17.7v19H13.46v-19H6.8v-4H24.37Zm26,19h-5.3l-4.75-7.25H35.17v7.25H30.93V60.66H28.22v-4h2.71V44.91H41.81a8.16,8.16,0,0,1,6,2.2A7.61,7.61,0,0,1,50,52.78a6.73,6.73,0,0,1-1.48,4.34,7.61,7.61,0,0,1-3.86,2.57ZM45.81,52.78a3.62,3.62,0,0,0-1-2.68,4.43,4.43,0,0,0-3.26-1.17H35.17v7.71h6.34a4.38,4.38,0,0,0,3.23-1.11,3.71,3.71,0,0,0,1.07-2.75M76.1,67.91H71.55L69.8,63.58H60.14l-1.75,4.33H53.88l8.25-19H57v-4h9.46Zm-7.78-8.16L65,51.54l-3.34,8.21Zm32,8.64L85.63,53.82V67.91H81.39V44.42L96.11,59V44.91h4.24Zm26-7.7a6.61,6.61,0,0,1-3.06,5.64,11.71,11.71,0,0,1-7,2.06,13.18,13.18,0,0,1-5-1,13.77,13.77,0,0,1-4.79-3.3l3.19-2.89a10.61,10.61,0,0,0,3.14,2.27,8.21,8.21,0,0,0,3.64.86,7.33,7.33,0,0,0,3.95-.93,2.79,2.79,0,0,0,1.49-2.5c0-1.36-1.28-2.26-3.82-2.69-4.26-.74-6.63-1.19-7.09-1.38a5.48,5.48,0,0,1-3.81-5.53,5.86,5.86,0,0,1,2.75-5,11.25,11.25,0,0,1,6.71-2,12,12,0,0,1,9.07,3.51l-3.09,2.82a10.7,10.7,0,0,0-3-2.13,8.22,8.22,0,0,0-3.2-.62,5.82,5.82,0,0,0-3.7,1,2.58,2.58,0,0,0-1.11,2.09c0,1.36,1.28,2.25,3.82,2.66,4.17.68,6.53,1.13,7.08,1.33a5.52,5.52,0,0,1,3.82,5.58m22.36-11.76h-6.67v19h-4.24v-19h-6.66v-4h17.57Zm26,19h-5.3l-4.75-7.25h-5.16v7.25h-4.23V60.66h-2.72v-4h2.72V44.91h10.87a8.2,8.2,0,0,1,6,2.2,7.64,7.64,0,0,1,2.23,5.67,6.73,6.73,0,0,1-1.48,4.34,7.61,7.61,0,0,1-3.86,2.57Zm-4.57-15.13a3.62,3.62,0,0,0-1-2.68,4.42,4.42,0,0,0-3.27-1.17h-6.33v7.71h6.33a4.37,4.37,0,0,0,3.24-1.11,3.71,3.71,0,0,0,1.07-2.75M185.4,67.91h-4.2v-23h4.2Zm27.83,0h-4.54l-1.76-4.33h-9.66l-1.75,4.33H191l8.25-19h-5.15v-4h9.46Zm-7.78-8.16-3.33-8.21-3.33,8.21Zm.81-16-4.07-1.44-4.09,1.44V41.27l4.09-1.35,4.07,1.35Zm31.22,24.65L222.76,53.82V67.91h-4.24V44.42L233.25,59V44.91h4.23Zm31-11.24a10.83,10.83,0,0,1-2.79,7,11.72,11.72,0,0,1-9.45,4.22,11.91,11.91,0,0,1-8.7-3.47,12,12,0,0,1,0-17.05,12,12,0,0,1,8.67-3.45,12.46,12.46,0,0,1,5.37,1.18A12.11,12.11,0,0,1,266,49.16l-3.48,2.62a7.19,7.19,0,0,0-6.25-3.34,7.92,7.92,0,0,0-7.81,8A7.76,7.76,0,0,0,250.75,62a7.56,7.56,0,0,0,5.48,2.33A7.61,7.61,0,0,0,264,58.14h-7.77v-4h12.28Zm26.79,1.37a9.55,9.55,0,0,1-2.82,7,10.69,10.69,0,0,1-14.62,0,9.51,9.51,0,0,1-2.86-7V44.91h4.24V57.63a7,7,0,0,0,1.69,4.92,5.81,5.81,0,0,0,8.45,0A7,7,0,0,0,291,57.63V44.91h4.23Zm25.59,9.39H303.41v-23h4.24v19h9V58.38h4.23Zm29.61-11.52a11.45,11.45,0,0,1-3.55,8.53,12.64,12.64,0,0,1-17.4,0,12,12,0,0,1,0-17.05,12.64,12.64,0,0,1,17.36,0,11.37,11.37,0,0,1,3.55,8.52m-4.44,0a7.72,7.72,0,0,0-2.33-5.64,7.81,7.81,0,0,0-13.28,5.64A7.76,7.76,0,0,0,332.74,62a7.6,7.6,0,0,0,10.95,0A7.67,7.67,0,0,0,346,56.39"/></g></g></svg>