<svg width="95" height="134" viewBox="0 0 95 134" fill="none" xmlns="http://www.w3.org/2000/svg">
<path fill-rule="evenodd" clip-rule="evenodd" d="M47.5814 0.00362162L49.9402 6.85935L57.2347 7.12011L51.4013 11.4878L53.3966 18.4739L47.4251 14.2837L41.3772 18.3508L43.5216 11.4009L37.7717 6.91368L45.0735 6.83038L47.5814 0V0.00362162ZM71.2132 8.8766L73.5648 15.7432L80.8666 16.0148L75.0258 20.3825L77.0212 27.3614L71.0678 23.1711L65.0199 27.2382L67.1643 20.2883L61.4145 15.812L68.7163 15.7178L71.2168 8.88022L71.2132 8.8766ZM23.9132 8.84762L26.3011 15.7432L33.5665 15.9858L27.7331 20.3426L29.7539 27.3215L23.8005 23.1422L17.7526 27.2092L19.897 20.2594L14.1472 15.8084L21.4417 15.6852L23.9132 8.84762Z" fill="#FEFEFE"/>
<path fill-rule="evenodd" clip-rule="evenodd" d="M78.9621 46.4908C79.5908 46.0236 80.1324 45.8208 80.6085 45.7628C81.0846 45.7085 81.4699 45.886 81.7025 46.2481C81.9751 46.5741 82.0005 46.9833 81.8152 47.4324C81.608 47.8416 81.2155 48.2907 80.5867 48.7289C79.9579 49.1671 79.4164 49.4098 78.9402 49.4677C78.5005 49.4858 78.1079 49.3374 77.8463 48.9824C77.6136 48.6167 77.5482 48.2364 77.7627 47.7982C77.9408 47.3781 78.3624 46.9109 78.9621 46.4908ZM66.3611 55.8309L61.8106 49.5076L60.7348 50.2717C59.7135 50.9816 59.1138 51.6262 58.9357 52.1296C58.7576 52.633 58.9248 53.2596 59.3646 54.0889L59.9534 54.9002L58.2197 56.1315L56.8349 54.1903L55.4792 52.2854L62.6611 47.1354L69.8793 41.9855L71.2641 43.9267L72.6488 45.828L70.9152 47.0702L70.3264 46.259C69.7267 45.5781 69.1379 45.216 68.6036 45.216C68.062 45.2051 67.2842 45.589 66.2738 46.3278L65.2271 47.0919L69.7412 53.3899C70.0138 53.7449 70.2755 53.9223 70.5735 53.8934C70.8752 53.8644 71.3513 53.6616 71.951 53.2234L72.936 52.5244L73.7428 53.6254L69.5486 56.6204L65.3252 59.6228L64.5583 58.4928L65.4851 57.8119C66.1139 57.4027 66.4774 57.0478 66.5719 56.7472C66.6954 56.5154 66.601 56.1858 66.3647 55.8345L66.3611 55.8309ZM57.0276 62.147C57.6273 61.6798 58.187 61.477 58.6667 61.4191C59.1429 61.3648 59.4991 61.5133 59.7716 61.8682C60.0333 62.2593 60.0333 62.6432 59.848 63.0633C59.6699 63.5015 59.2483 63.9506 58.6486 64.3888C58.0198 64.827 57.4891 65.0987 57.0094 65.124C56.5587 65.1421 56.1771 64.9936 55.9045 64.6387C55.6428 64.2838 55.6137 63.8927 55.8209 63.4544C56.0099 63.0343 56.4024 62.5599 57.0276 62.147ZM40.9156 68.7239L43.1908 67.1087C44.0522 66.493 44.6592 65.8664 44.9609 65.2797C45.2589 64.6822 45.2589 64.1498 44.9427 63.7297C44.5574 63.1973 44.0813 62.9547 43.5107 63.038C42.9219 63.1213 42.1441 63.5305 41.1228 64.2403L38.8766 65.8918L40.9192 68.7203L40.9156 68.7239ZM39.9779 74.6018L36.0816 69.173C35.8091 68.847 35.5474 68.6587 35.2493 68.6587C34.9513 68.6877 34.5006 68.9195 33.9009 69.3287L32.945 70.0096L32.1491 68.9376L36.307 65.9352L42.0823 61.8211C43.4598 60.8505 44.6846 60.2928 45.7895 60.1515C46.8654 60.0103 47.6432 60.3398 48.1774 61.0569C48.7408 61.832 48.7953 62.6903 48.2792 63.6428C47.9521 64.3236 47.3706 65.0335 46.5564 65.7687C46.978 65.5622 47.3051 65.4137 47.6432 65.3304C48.8971 64.9212 49.7948 65.0407 50.2927 65.7578L51.1178 66.924C51.3322 67.1956 51.503 67.3984 51.6775 67.4636C51.8265 67.5469 52.0046 67.5179 52.1536 67.4346C52.3681 67.2571 52.5171 67.0797 52.5462 66.9022C52.5825 66.7248 52.5171 66.5111 52.3681 66.2757L51.5176 65.1638L52.9859 64.1099L53.811 65.2399C54.2798 65.9027 54.3743 66.5256 54.1017 67.1449C53.8582 67.7968 53.2222 68.4776 52.1718 69.1802C51.096 69.9806 50.2055 70.3572 49.5113 70.3283C48.828 70.2631 48.1447 69.843 47.4978 68.9484C47.2543 68.6515 46.9817 68.3219 46.6546 67.996C46.3638 67.699 46.0076 67.5396 45.6151 67.5686C45.2298 67.5976 44.7537 67.8294 44.2121 68.2132L41.7588 69.948L43.3871 72.1862C43.6197 72.5519 43.9468 72.7258 44.2776 72.7004C44.6047 72.6461 45.1099 72.3745 45.8331 71.8783L46.938 71.02L47.7813 72.1318L43.4271 75.2754L39.0256 78.3647L38.2297 77.2927L39.1565 76.6227C39.7853 76.1736 40.1124 75.8187 40.2323 75.5869C40.3268 75.2899 40.2432 74.9893 39.9706 74.609L39.9779 74.6018ZM33.6392 78.8355C34.2389 78.3864 34.7732 78.1256 35.2784 78.1256C35.7545 78.0713 36.1107 78.227 36.347 78.582C36.645 78.9369 36.645 79.357 36.4596 79.7662C36.2816 80.2153 35.8599 80.6535 35.2348 81.0628C34.6351 81.5372 34.0645 81.7436 33.6138 81.798C33.1449 81.8559 32.7815 81.7038 32.4907 81.3489C32.2581 80.9831 32.229 80.5738 32.4071 80.1537C32.6216 79.7155 33.0068 79.2664 33.6429 78.8282L33.6392 78.8355ZM27.028 82.0551C27.7949 83.1742 27.8785 84.3874 27.217 85.7491C26.5809 87.0819 25.287 88.4726 23.3135 89.8814C21.1037 91.4387 19.3337 92.3151 17.9961 92.4564C16.6841 92.623 15.5792 92.0834 14.6996 90.8629L11.6575 86.6292C11.3849 86.2453 11.1232 86.0606 10.8506 86.0606C10.5889 86.0896 10.1673 86.2924 9.5967 86.6763L8.7244 87.292L7.92844 86.191L11.8501 83.4023L15.8009 80.5666L16.5968 81.6965L15.7354 82.2832C15.1939 82.6671 14.8922 83.0003 14.7723 83.272C14.7178 83.5037 14.7723 83.8043 15.0631 84.1846L17.6654 87.7954C18.3778 88.813 19.1737 89.3237 20.0351 89.3635C20.9074 89.3925 21.9723 88.9796 23.2081 88.1032C24.4329 87.2159 25.1562 86.3322 25.3997 85.4739C25.6432 84.6156 25.3525 83.6341 24.6401 82.6092L22.1323 79.1469C21.8706 78.763 21.5689 78.5783 21.2999 78.6073C21.0019 78.6363 20.5512 78.8391 19.9515 79.2882L18.9702 79.9871L18.2033 78.8572L21.2563 76.7132L24.2803 74.5294L25.0762 75.6303L24.3929 76.1337C23.9713 76.4597 23.6987 76.6951 23.6733 76.9377C23.6079 77.1442 23.6915 77.4701 23.9931 77.8504L27.0353 82.0587L27.028 82.0551ZM32.647 36.0062C37.5355 36.9768 42.4857 37.4693 47.4869 37.4512H47.505C52.5134 37.4693 57.4564 36.9768 62.3522 36.0062C67.2479 35.0356 72.071 33.5905 76.8068 31.7037L77.5191 31.4248L90.7962 45.2123L90.2546 45.9692C87.4633 49.8878 85.7986 53.3936 85.039 56.7074C84.2794 59.9741 84.4102 63.0705 85.2171 66.2141C86.2021 70.0675 88.0339 73.537 89.8403 76.9341C93.7619 84.3331 97.5092 91.3844 92.8097 101.608C88.3174 111.365 77.2974 117.011 66.2302 122.693C59.7716 125.996 53.2912 129.317 48.2174 133.421L47.505 134L46.7854 133.421C41.7007 129.317 35.2239 125.996 28.7726 122.693C17.6981 117.011 6.67815 111.368 2.19312 101.608C-2.50635 91.3844 1.22997 84.3295 5.15164 76.9341C6.95801 73.537 8.80437 70.0675 9.78569 66.2141C10.5817 63.0705 10.7125 59.9741 9.96379 56.7074C9.1969 53.3972 7.52864 49.8878 4.74094 45.9692L4.19939 45.2123L17.4837 31.4248L18.1851 31.7037C22.9319 33.5869 27.744 35.0356 32.6506 36.0062H32.647ZM17.4146 96.8204L6.62 104.629C9.30593 108.21 13.1004 111.195 17.4146 113.893V96.8204ZM41.5516 79.328L28.5945 88.7225V120.057C28.9979 120.263 29.4014 120.477 29.8012 120.683C33.8173 122.737 37.8335 124.797 41.5516 127.054V79.328ZM66.4083 61.343L53.4403 70.7267V127.054C57.1584 124.797 61.1818 122.733 65.1908 120.683C65.5942 120.477 65.9976 120.263 66.4083 120.057V61.3394V61.343ZM87.3978 46.1467L77.5846 53.2559V113.893C83.3889 110.253 88.2483 106.114 90.7489 100.674C94.9904 91.4568 91.4976 84.88 87.8376 77.9844C85.9731 74.4569 84.065 70.8679 83.0146 66.761C82.1241 63.2806 81.986 59.8401 82.8256 56.2003C83.5561 53.0387 85.0245 49.7357 87.3942 46.1431L87.3978 46.1467ZM27.2461 45.129L26.6573 44.7017L25.4215 43.8071L22.5393 44.7125L21.5762 47.6678L23.3098 50.0544H25.8286C26.541 49.0838 26.988 47.9756 27.177 46.8167C27.2606 46.2554 27.2897 45.6868 27.2533 45.129H27.2461ZM21.6016 38.3856L21.518 38.4508L20.2714 39.3453L19.8498 42.3875L21.1037 43.2929L22.3285 44.1802L25.2216 43.2748L25.7086 41.7899L25.8686 41.3046L25.8213 41.2503C24.7528 39.7763 23.2372 38.8057 21.598 38.3856H21.6016ZM13.2022 41.9601L13.2785 42.1847L13.7655 43.6695L16.8004 44.1838L18.0288 43.2965L19.2828 42.3838L19.7044 39.3598L18.4396 38.4544L18.2506 38.3131C17.222 38.5196 16.2297 38.9397 15.3284 39.5916C14.4306 40.2435 13.7183 41.0547 13.2022 41.9601ZM13.7074 50.1124L14.2126 50.1015H15.7391L17.5564 47.6859L17.0802 46.201L16.5932 44.7162L13.5693 44.2019L12.3335 45.0964L12.2499 45.1544C12.1372 46.8421 12.5952 48.5696 13.6747 50.0436C13.6856 50.0617 13.7037 50.0798 13.711 50.1088L13.7074 50.1124ZM22.0668 52.7707L22.8555 50.384L21.1146 48.0046H18.0252L16.2188 50.413L16.7131 51.9051L16.9385 52.5968C17.4619 52.8032 18.0143 52.959 18.5668 53.0459C19.7262 53.2342 20.9256 53.1401 22.0668 52.7743V52.7707ZM14.9904 39.1316C16.7967 37.8242 18.9702 37.3679 21.0092 37.6938C23.0518 38.0125 24.9708 39.1135 26.2793 40.9135C27.5913 42.7134 28.0493 44.8683 27.7222 46.9036C27.4023 48.939 26.2974 50.8512 24.4911 52.155V52.1658C22.6847 53.4732 20.5221 53.9187 18.4795 53.6036C16.4369 53.2777 14.5179 52.1767 13.2094 50.384C11.8901 48.5841 11.4394 46.4183 11.7593 44.3866C12.0864 42.3512 13.1913 40.439 14.9976 39.1353H14.9867L14.9904 39.1316ZM21.9178 55.4398C21.9723 55.581 22.085 55.7187 22.2158 55.8128C22.2522 55.8309 22.2813 55.849 22.3103 55.8599C22.2922 55.9142 22.2813 55.9722 22.2631 56.0192C22.2449 56.0953 22.2268 56.1677 22.2158 56.2329C22.1795 56.2148 22.1141 56.1858 22.1032 56.1786C22.0741 56.1605 22.0487 56.1496 22.0087 56.1243C21.8015 55.9939 21.6452 55.7983 21.558 55.5738C21.5107 55.4543 21.4926 55.3203 21.4926 55.2008L21.4744 55.1827C21.1073 54.9038 20.7148 54.9291 20.3877 55.1464C20.2205 55.2587 20.0606 55.4181 19.9297 55.6136C19.7989 55.8092 19.7044 56.041 19.6499 56.2764C19.5081 56.874 19.6608 57.5439 20.2968 57.9641C20.951 58.3914 21.5035 58.8876 21.896 59.391C22.4303 60.0718 22.5502 60.5209 22.6447 61.3394L22.2776 61.2851C19.3845 60.8107 17.5963 63.6355 16.0989 66.0041C15.5646 66.8443 15.0703 67.6265 14.5724 68.206C14.7977 68.1698 15.0303 68.1408 15.2557 68.1408C15.6591 68.13 16.0589 68.1951 16.4805 68.3726C17.9961 69.0173 19.41 68.9412 20.722 68.4088C22.0523 67.8692 23.2699 66.8588 24.3639 65.6564L24.3929 65.6202L24.4402 65.5912C25.1707 65.2073 25.8068 64.6568 26.2756 64.023C26.6682 63.4725 26.9408 62.8677 27.0353 62.2593C27.1298 61.6545 27.0534 61.0461 26.7554 60.4883C26.5301 60.0791 26.192 59.6771 25.705 59.333C25.5378 59.2099 25.3016 59.0614 25.0399 58.9057C23.9241 58.2357 22.4085 57.3013 22.7828 55.9867C22.9791 55.3239 23.5243 54.5416 23.8041 54.1396L23.8223 54.1034C23.7932 54.0382 23.7569 53.973 23.6987 53.9187C23.6697 53.8897 23.6442 53.8608 23.6152 53.8535C23.597 53.8427 23.5788 53.8427 23.5606 53.8427C23.5425 53.8535 23.5061 53.8716 23.4661 53.9078L22.6229 54.7481C22.6338 54.7662 22.6411 54.777 22.6593 54.7951C22.6774 54.8132 22.6956 54.8241 22.7138 54.8314C22.7247 54.8422 22.7792 54.8784 22.7974 54.8893C22.732 54.9907 22.6738 55.103 22.6084 55.2152C22.5793 55.1971 22.5066 55.1609 22.4957 55.1392C22.4594 55.1211 22.4194 55.0921 22.3939 55.0631C22.3103 54.9798 22.2522 54.8857 22.234 54.7843C22.1977 54.7951 22.1504 54.8132 22.1141 54.8314C21.8887 54.9617 21.8124 55.2152 21.9069 55.447L21.9178 55.4398ZM20.6639 55.878C20.8129 55.7657 21.0201 55.802 21.1328 55.9541C21.2454 56.1025 21.2091 56.3198 21.0564 56.4212C20.9074 56.5335 20.693 56.4973 20.5876 56.3452C20.4749 56.1967 20.5112 55.9903 20.6639 55.878ZM15.8627 67.2789C16.0117 67.2897 16.1607 67.2608 16.3024 67.1847C16.4696 67.0905 16.6295 66.9421 16.7895 66.7356L18.8321 63.8528L19.29 64.1788L17.4437 66.79C17.669 66.9095 17.8726 66.9493 18.0616 66.9022C18.2942 66.837 18.5195 66.6704 18.734 66.3988L20.9728 63.219L21.4417 63.545L19.3446 66.5111H19.3555C19.3082 66.5871 19.2537 66.6523 19.2064 66.7175C19.5336 66.9131 19.8534 66.9783 20.1442 66.9058C20.5112 66.8117 20.8747 66.4966 21.2309 65.9715L23.3098 62.9039L23.7787 63.2227L21.6997 66.2902C21.2709 66.9348 20.7911 67.3151 20.275 67.4455C19.7989 67.5686 19.3118 67.4636 18.8066 67.1376C18.6176 67.2861 18.4214 67.3911 18.2069 67.4455C17.8508 67.5396 17.4764 67.4744 17.102 67.2499C16.9349 67.4382 16.7568 67.5758 16.5787 67.6772C16.2879 67.8366 15.979 67.8837 15.6628 67.8185L15.521 67.7895C15.6337 67.6229 15.7464 67.4527 15.8663 67.2752L15.8627 67.2789ZM28.4164 50.7281C28.54 50.8295 28.6417 50.9707 28.6781 51.1373C28.689 51.1663 28.6962 51.2025 28.6962 51.2387H28.8634C28.9398 51.2387 29.0125 51.2496 29.0888 51.2568C29.0779 51.2097 29.0706 51.1554 29.0706 51.1373C29.0597 51.1011 29.0524 51.0721 29.0415 51.0359C28.9761 50.8041 28.8344 50.5868 28.6563 50.4383C28.5545 50.355 28.4309 50.2971 28.311 50.2609V50.2428C28.1511 49.7937 28.3001 49.4424 28.6017 49.1997C28.7617 49.0694 28.9688 48.9679 29.1905 48.91C29.4159 48.8448 29.6667 48.8158 29.9102 48.8448C30.5172 48.8991 31.1169 49.2468 31.324 49.9748C31.5312 50.7389 31.8292 51.4125 32.1963 51.9449C32.6724 52.6548 33.0686 52.9155 33.8173 53.2523L33.8718 52.8865C34.3225 49.9965 37.5718 49.1744 40.2941 48.4827C41.2572 48.24 42.1586 48.0155 42.8674 47.7185C42.7656 47.9322 42.6602 48.1386 42.5875 48.3523C42.4566 48.7362 42.3985 49.1273 42.4385 49.5945C42.5875 51.217 42.075 52.5425 41.1664 53.6145C40.2396 54.7046 38.8912 55.5557 37.4119 56.2184L37.3646 56.2365L37.3283 56.2655C36.7286 56.845 36.009 57.2723 35.2602 57.5258C34.6242 57.7323 33.9591 57.8047 33.3412 57.7033C32.7415 57.6019 32.189 57.3411 31.7493 56.8812C31.4113 56.5444 31.1496 56.0989 30.9642 55.5376C30.8988 55.342 30.8334 55.0704 30.757 54.7734C30.459 53.5131 30.0447 51.7892 28.6708 51.7312C27.9766 51.7131 27.0607 51.9848 26.5918 52.1224L26.5555 52.1332C26.501 52.0862 26.4428 52.0318 26.4065 51.9667C26.3883 51.9304 26.3774 51.8906 26.3774 51.8652C26.3665 51.8471 26.3774 51.829 26.3883 51.8109C26.3992 51.7928 26.4247 51.7638 26.4719 51.7349L27.5405 51.2025C27.5405 51.2025 27.5586 51.2315 27.5695 51.2496C27.5804 51.2677 27.5877 51.2858 27.5986 51.3148C27.5986 51.3256 27.6095 51.3908 27.6168 51.4089C27.7367 51.38 27.8603 51.3546 27.9802 51.3329C27.9693 51.2966 27.9621 51.2206 27.9512 51.2025C27.9403 51.1554 27.9221 51.1192 27.9039 51.0794C27.8567 50.978 27.784 50.891 27.6895 50.8476C27.7077 50.8114 27.744 50.7715 27.7731 50.7462C27.9693 50.5796 28.2238 50.5868 28.42 50.7353L28.4164 50.7281ZM29.2305 49.6742C29.0706 49.7864 29.0415 50.0001 29.1542 50.1486C29.256 50.2971 29.474 50.3261 29.6231 50.2247C29.7721 50.1124 29.8121 49.8987 29.6994 49.7502C29.5867 49.6017 29.3795 49.5728 29.2305 49.6742ZM41.588 48.6493C41.5589 48.7977 41.4862 48.9281 41.3626 49.0404C41.2209 49.1708 41.0355 49.2722 40.792 49.3663L37.4046 50.4021L37.5718 50.9417L40.643 50.0001C40.6903 50.2428 40.6539 50.4564 40.5485 50.6267C40.4286 50.8222 40.1923 50.9816 39.8652 51.1011L36.1398 52.2383L36.307 52.7779L39.7816 51.7131V51.724C39.8652 51.695 39.9488 51.6697 40.0251 51.6407C40.1087 52.0137 40.0724 52.3324 39.9125 52.5823C39.7053 52.9083 39.2946 53.1618 38.6876 53.3284L35.1221 54.3461L35.2711 54.8857L38.8475 53.868C39.5963 53.6543 40.1124 53.3284 40.3922 52.8793C40.6539 52.4701 40.7121 51.9667 40.5521 51.3872C40.7593 51.2568 40.9192 51.0975 41.0283 50.92C41.2245 50.6013 41.2827 50.2391 41.1882 49.8082C41.4135 49.7068 41.5989 49.5836 41.7515 49.446C41.9951 49.2142 42.1368 48.9426 42.1732 48.6166L42.1913 48.4682C41.9951 48.5334 41.7988 48.5877 41.5916 48.6456L41.588 48.6493ZM41.6534 57.5765C41.4099 58.127 41.0719 58.6667 40.6503 59.1809C40.2468 59.6662 39.7598 60.1225 39.2183 60.5137C38.6658 60.9157 38.0843 61.2308 37.4846 61.4662C36.9612 61.6726 36.416 61.8102 35.8927 61.8863C35.6673 62.3607 35.3693 62.8279 35.0022 63.2661C34.5988 63.7514 34.1117 64.2077 33.5593 64.6097C33.0177 65.0009 32.4362 65.3196 31.8365 65.5514C31.3022 65.7578 30.7679 65.9063 30.2446 65.9715C30.0192 66.4459 29.7212 66.9131 29.3541 67.3513C28.9434 67.8366 28.4636 68.2929 27.9112 68.6949C27.3696 69.0969 26.7772 69.4048 26.1884 69.6366C25.6541 69.8502 25.1199 69.9915 24.5965 70.0566C24.3639 70.5311 24.0622 70.9983 23.6987 71.4365C23.2953 71.929 22.8192 72.3781 22.2667 72.7801C21.7143 73.1821 21.1328 73.4972 20.544 73.7326C19.9261 73.9644 19.3082 74.1237 18.7085 74.1817L18.6249 73.3415C19.1483 73.2871 19.6935 73.1531 20.2278 72.9503C20.7511 72.7439 21.2672 72.4542 21.7724 72.1029C22.2667 71.7407 22.6992 71.3387 23.0554 70.9077C23.4225 70.4587 23.7096 69.9842 23.9277 69.4989L24.0295 69.2744L24.273 69.2454C24.7964 69.1983 25.3416 69.068 25.8831 68.8543C26.3992 68.6478 26.9226 68.369 27.4169 68.0068C27.9112 67.6519 28.3437 67.2427 28.6999 66.8117C29.067 66.3735 29.365 65.899 29.5722 65.4137L29.6739 65.1892L29.9175 65.1602C30.4408 65.1131 30.986 64.9828 31.5276 64.7691C32.0437 64.5627 32.567 64.2838 33.0613 63.9216C33.5556 63.5595 33.9882 63.1575 34.3443 62.7265C34.7187 62.2774 35.0095 61.8138 35.2166 61.3285L35.3184 61.104L35.5619 61.075C36.0962 61.028 36.6377 60.8867 37.172 60.6839C37.6954 60.4775 38.2115 60.1986 38.7058 59.8364C39.211 59.4707 39.6326 59.0723 39.9888 58.6413C40.3631 58.1922 40.6539 57.7178 40.8684 57.2434L41.6461 57.5802L41.6534 57.5765ZM51.5503 47.4722C51.3177 48.0336 50.9797 48.5732 50.5581 49.0766C50.1546 49.5619 49.6676 50.0182 49.1151 50.4202C48.5736 50.8222 47.9812 51.1301 47.3815 51.3618C46.8472 51.5755 46.3129 51.7168 45.7895 51.7892C45.5642 52.2564 45.2662 52.7236 44.8991 53.1618C44.4884 53.6543 44.0086 54.1034 43.4562 54.5054C42.9146 54.9074 42.3222 55.2225 41.7334 55.4579C41.1991 55.6643 40.6648 55.8019 40.1414 55.878C39.9088 56.3524 39.6072 56.8124 39.2437 57.2578C38.8403 57.7431 38.3641 58.1995 37.8117 58.5906C37.2592 58.9926 36.6777 59.3077 36.0889 59.5431C35.5546 59.7495 35.0204 59.8871 34.497 59.9632C34.2644 60.4376 33.9627 60.9048 33.5993 61.343C33.1958 61.8283 32.7088 62.2847 32.1672 62.6867C31.6148 63.0778 31.0333 63.3965 30.4445 63.6283C29.9102 63.8419 29.3686 63.9832 28.8525 64.0484C28.6199 64.5228 28.3183 64.99 27.9548 65.4282C27.5514 65.9244 27.0643 66.3698 26.5228 66.7718C25.9703 67.1738 25.3888 67.4817 24.7891 67.7135C24.2657 67.9271 23.7206 68.0684 23.1972 68.1408C22.9718 68.608 22.6738 69.0752 22.3067 69.5134C21.896 70.0096 21.4162 70.4659 20.8638 70.857C20.3222 71.259 19.7298 71.5741 19.141 71.8095C18.6067 72.016 18.0725 72.1536 17.5491 72.2296C17.3165 72.7041 17.0148 73.164 16.6586 73.6095C16.2479 74.0948 15.7682 74.5511 15.2157 74.9422C14.6742 75.3442 14.0817 75.6593 13.4929 75.8947C12.8751 76.1374 12.2572 76.2858 11.6575 76.3438L11.5739 75.5036C12.0973 75.4565 12.6424 75.3261 13.184 75.1124C13.7001 74.906 14.2235 74.6271 14.7178 74.265C15.2121 73.9028 15.6446 73.5008 16.0008 73.0698C16.3679 72.6208 16.6659 72.1463 16.8731 71.6719L16.9748 71.4401L17.2183 71.422C17.7417 71.3677 18.2869 71.2337 18.8284 71.0309C19.3446 70.8244 19.8679 70.5383 20.3622 70.1834C20.8565 69.8176 21.289 69.4193 21.6452 68.9883C21.8233 68.7637 21.9905 68.5392 22.1323 68.3183C21.7397 68.5609 21.3472 68.7674 20.9329 68.934C19.4899 69.5207 17.9198 69.604 16.2625 68.8977C15.9172 68.7492 15.5901 68.7022 15.2593 68.7022C14.9213 68.713 14.5651 68.7782 14.1835 68.8615C13.8637 68.9267 13.6892 68.8724 13.6129 68.6949C13.5475 68.5283 13.6238 68.369 13.82 68.1734C14.4016 67.6229 14.9795 66.7103 15.6191 65.7107C17.1457 63.3023 18.952 60.4485 21.9651 60.6839C21.8633 60.3652 21.6925 60.0574 21.449 59.7423C21.0819 59.2859 20.5876 58.8369 19.9697 58.4349C19.1083 57.8663 18.9011 56.9609 19.0901 56.1605C19.1665 55.8527 19.2864 55.5629 19.4536 55.313C19.6208 55.0523 19.8389 54.8386 20.0715 54.6792C20.5112 54.3895 21.0346 54.3135 21.5507 54.5851C21.6343 54.4909 21.7288 54.4076 21.8306 54.3533C21.9905 54.2591 22.1759 54.2121 22.3649 54.2048L23.0663 53.5058C23.1863 53.3936 23.3208 53.3284 23.4516 53.2994C23.5824 53.2704 23.7133 53.2885 23.826 53.3356C23.9277 53.3827 24.0331 53.4479 24.1058 53.5312C24.2548 53.6905 24.3675 53.9042 24.4038 54.1106L24.422 54.2229L24.3566 54.3243L24.2621 54.4656C24.0004 54.8386 23.4843 55.5847 23.3171 56.1532C23.0627 57.0587 24.3675 57.8518 25.3307 58.4385C25.5923 58.5978 25.8359 58.7463 26.0321 58.8876C26.5846 59.2896 26.988 59.7568 27.2388 60.2384C27.6059 60.9084 27.6967 61.6364 27.5841 62.3571C27.4823 63.0561 27.1734 63.7478 26.7118 64.3707C26.2175 65.0516 25.5233 65.6491 24.7346 66.0765C24.3675 66.4857 23.9859 66.8696 23.5824 67.2245C23.8732 67.1485 24.1712 67.0652 24.462 66.9457C24.9781 66.7393 25.5015 66.4604 25.9958 66.0982C26.4901 65.7433 26.9226 65.3341 27.2788 64.9031C27.6531 64.4649 27.9439 63.9904 28.1583 63.5051L28.2528 63.2806L28.5073 63.2516C29.0306 63.2045 29.5758 63.0742 30.1065 62.8605C30.6298 62.6541 31.1459 62.3752 31.6402 62.013C32.1454 61.6472 32.5779 61.2489 32.9305 60.8179C33.2976 60.3688 33.5847 59.9052 33.8028 59.4199L33.8973 59.1954L34.1517 59.1664C34.6751 59.1194 35.2203 58.989 35.7545 58.7753C36.2779 58.5689 36.794 58.29 37.2992 57.9278C37.7935 57.5657 38.226 57.1637 38.5822 56.7327C38.7785 56.4901 38.9566 56.2365 39.1165 55.9758C38.6585 56.2474 38.1715 56.4973 37.6663 56.7218C37.0194 57.3375 36.2343 57.8047 35.4202 58.0655C34.6896 58.3081 33.9409 58.3842 33.2285 58.2719C32.5162 58.1488 31.851 57.8337 31.3168 57.2832C30.9315 56.8921 30.6153 56.3705 30.4009 55.715C30.3245 55.4905 30.2591 55.2225 30.1937 54.911C29.932 53.8209 29.5649 52.3361 28.6308 52.3071C28.0311 52.2781 27.1697 52.5389 26.73 52.6692L26.5628 52.7163L26.4501 52.7525L26.3483 52.6982C26.1702 52.5968 25.9921 52.4266 25.8904 52.2419C25.8322 52.1405 25.7959 52.0282 25.7886 51.9159C25.7777 51.7856 25.8068 51.6552 25.8722 51.5429C25.9376 51.4234 26.0394 51.3184 26.192 51.246L27.0716 50.7969C27.137 50.6194 27.2388 50.4601 27.3805 50.3297C27.4641 50.2536 27.5695 50.1884 27.6786 50.1414C27.5841 49.5728 27.8203 49.0947 28.231 48.7688C28.4564 48.5913 28.7253 48.4501 29.027 48.3668C29.3178 48.2907 29.634 48.2654 29.9429 48.2907C30.7752 48.3668 31.5712 48.8303 31.851 49.8299C32.0473 50.5289 32.309 51.1445 32.6361 51.6298C32.8614 51.9558 33.105 52.2165 33.3775 52.4049C34.0899 49.475 37.3646 48.6456 40.1378 47.9467C41.29 47.6569 42.3476 47.3853 43.0491 47.0123C43.2926 46.8819 43.4707 46.8529 43.6088 46.9652C43.7578 47.0956 43.7505 47.2839 43.5906 47.5628C43.3944 47.8996 43.2163 48.2147 43.1036 48.5406C43.0018 48.8484 42.9546 49.1671 42.98 49.5402C43.1472 51.3401 42.5766 52.796 41.5771 53.9803C41.2863 54.3171 40.9701 54.6322 40.6139 54.9328C40.8756 54.8676 41.1373 54.7843 41.4099 54.6792C41.926 54.4728 42.4494 54.1867 42.9437 53.8318C43.438 53.4696 43.8705 53.0676 44.2267 52.6367C44.5938 52.1876 44.8918 51.7131 45.099 51.2278L45.2007 51.0033L45.4442 50.9852C45.9676 50.9309 46.5128 50.7969 47.0544 50.5832C47.5777 50.3768 48.1047 50.0979 48.599 49.7357C49.0933 49.3808 49.5258 48.9716 49.882 48.5406C50.2564 48.1024 50.5472 47.6279 50.7543 47.1427L51.5321 47.4795L51.5503 47.4722ZM2.94184 87.6324L76.894 34.0831C72.2418 35.8939 67.5423 37.2846 62.7956 38.2262C57.7872 39.2149 52.6952 39.7292 47.5087 39.7002C42.3113 39.7292 37.2193 39.2149 32.2 38.2262C27.4351 37.2737 22.7247 35.883 18.0616 34.0758L7.11793 45.4369C9.76752 49.2975 11.3885 52.825 12.1627 56.2039C13.0059 59.8437 12.8642 63.2842 11.9737 66.7646C10.9342 70.8679 9.02607 74.4606 7.15065 77.988C5.46421 81.1678 3.80686 84.2933 2.9382 87.6324H2.94184Z" fill="#FEFEFE"/>
</svg>
