<svg xmlns="http://www.w3.org/2000/svg" viewBox="0 0 326.29 182.67"><defs><style>.cls-1{fill:#fafcff;}</style></defs><g id="Camada_2" data-name="Camada 2"><g id="Camada_1-2" data-name="Camada 1"><path class="cls-1" d="M223.2,137H180.89l-17.75-28.56L230.49,0h77.8Zm-38.72-6.46H219.6l77.06-124H234.08L170.76,108.41Z"/><path class="cls-1" d="M144.76,137H102.45L17.36,0h77.8l67.34,108.4ZM106,130.51h35.12l13.73-22.1L91.56,6.47H29Z"/><path class="cls-1" d="M162.73,89.59,115.92,0h93.62ZM126.59,6.47l36.14,69.16L198.87,6.47Z"/><polygon class="cls-1" points="0 158.97 1.01 158.97 7.06 176.85 12.83 158.91 13.54 158.91 19.34 176.88 25.38 158.97 26.34 158.97 19.7 178.33 18.93 178.33 13.16 160.67 7.42 178.33 6.65 178.33 0 158.97"/><path class="cls-1" d="M27.41,171.27v-.05c0-4.07,2.8-7.2,6.62-7.2,4.18,0,6.35,3.57,6.35,7.28v.3h-12c.17,3.76,2.83,6.1,5.94,6.1a6.3,6.3,0,0,0,5-2.55l.66.52a6.93,6.93,0,0,1-5.66,2.85c-3.74,0-6.87-2.82-6.87-7.25m12-.46c-.14-3-2-6-5.44-6-3.13,0-5.44,2.56-5.61,6Z"/><path class="cls-1" d="M43.23,174.29v0c0-2.88,2.61-4.45,6.13-4.45a16,16,0,0,1,4.94.77v-.94c0-3.13-1.87-4.67-4.94-4.67a9.77,9.77,0,0,0-4.51,1.16l-.33-.77a10.85,10.85,0,0,1,4.89-1.21,6,6,0,0,1,4.4,1.51,5.46,5.46,0,0,1,1.37,3.93v8.62H54.3v-2.88a6.2,6.2,0,0,1-5.82,3.21c-2.67,0-5.25-1.42-5.25-4.23m11.1-1.2v-1.71a15.68,15.68,0,0,0-5-.77c-3,0-5.17,1.29-5.17,3.57v.06c0,2.28,2.07,3.46,4.37,3.46,3.35,0,5.8-2.14,5.8-4.61"/><rect class="cls-1" x="60.18" y="158.14" width="0.91" height="20.05"/><path class="cls-1" d="M67.1,174.65v-9.5H65v-.8H67.1v-4.64H68v4.64h5v.8H68v9.42c0,2,1.07,3.05,2.88,3.05a4.92,4.92,0,0,0,2.09-.5V178a4.9,4.9,0,0,1-2.17.46c-2.23,0-3.68-1.29-3.68-3.79"/><path class="cls-1" d="M76.9,158.14h.88v9.51A5.63,5.63,0,0,1,83.11,164c3.66,0,5.72,2.47,5.72,6.07v8.11H88v-8c0-3.22-1.73-5.39-5-5.39a5.32,5.32,0,0,0-5.22,5.55v7.81H76.9Z"/><polygon class="cls-1" points="101.87 158.97 102.8 158.97 102.8 168.09 115.96 168.09 115.96 158.97 116.9 158.97 116.9 178.19 115.96 178.19 115.96 168.94 102.8 168.94 102.8 178.19 101.87 178.19 101.87 158.97"/><path class="cls-1" d="M122.33,158.86h1.18v1.67h-1.18Zm.14,5.49h.9V178.2h-.9Z"/><path class="cls-1" d="M128.37,180.53l.52-.71a9.4,9.4,0,0,0,5.8,2c3.49,0,5.85-2,5.85-5.85v-2.5a6.77,6.77,0,0,1-12.8-2.83v-.06A6.66,6.66,0,0,1,134.5,164a6.73,6.73,0,0,1,6,3.65v-3.32h.91v11.73a6.55,6.55,0,0,1-1.79,4.78,6.91,6.91,0,0,1-5,1.81,10.22,10.22,0,0,1-6.32-2.14m12.26-9.89v-.06a5.93,5.93,0,0,0-6-5.71,5.71,5.71,0,0,0-5.88,5.69v.05a5.79,5.79,0,0,0,5.88,5.72,5.9,5.9,0,0,0,6-5.69"/><path class="cls-1" d="M146.55,158.14h.88v9.51a5.63,5.63,0,0,1,5.33-3.63c3.66,0,5.72,2.47,5.72,6.07v8.11h-.88v-8c0-3.22-1.73-5.39-4.95-5.39a5.32,5.32,0,0,0-5.22,5.55v7.81h-.88Z"/><path class="cls-1" d="M170.67,168.64v-.06c0-5.16,3.71-9.94,9.5-9.94a9.7,9.7,0,0,1,6.82,2.5l-.61.71a9,9,0,0,0-6.26-2.36c-5.11,0-8.49,4.34-8.49,9.06v.06c0,5,3.21,9.09,8.62,9.09a10.42,10.42,0,0,0,6.57-2.47v-5.91H180v-.9h7.75v7.16a11.18,11.18,0,0,1-7.5,2.94c-6,0-9.56-4.5-9.56-9.88"/><path class="cls-1" d="M191.68,171.33v-.06a7.13,7.13,0,0,1,7.2-7.25,7,7,0,0,1,7.14,7.2v.05a7.17,7.17,0,1,1-14.34.06m13.41,0v-.06a6.28,6.28,0,0,0-6.27-6.4,6.18,6.18,0,0,0-6.18,6.4v.06a6.23,6.23,0,1,0,12.45,0"/><polygon class="cls-1" points="207.88 164.35 208.9 164.35 214.58 177.23 220.3 164.35 221.26 164.35 214.94 178.31 214.23 178.31 207.88 164.35"/><path class="cls-1" d="M223.15,171.27v-.05c0-4.07,2.81-7.2,6.63-7.2,4.17,0,6.34,3.57,6.34,7.28v.3h-12c.16,3.76,2.83,6.1,5.93,6.1a6.3,6.3,0,0,0,5-2.55l.66.52a6.92,6.92,0,0,1-5.66,2.85c-3.74,0-6.87-2.82-6.87-7.25m12-.46c-.14-3-2-6-5.44-6-3.13,0-5.44,2.56-5.6,6Z"/><path class="cls-1" d="M240.13,164.35H241v4.23c.82-2.36,2.93-4.59,5.87-4.51V165h-.13c-3.35,0-5.74,3.24-5.74,6.65v6.57h-.88Z"/><path class="cls-1" d="M250,164.35h.88v3.3a5.62,5.62,0,0,1,5.33-3.63c3.65,0,5.71,2.47,5.71,6.07v8.11h-.88v-8c0-3.22-1.73-5.39-4.94-5.39a5.32,5.32,0,0,0-5.22,5.55v7.81H250Z"/><path class="cls-1" d="M265.64,174.29v0c0-2.88,2.61-4.45,6.13-4.45a15.91,15.91,0,0,1,4.94.77v-.94c0-3.13-1.87-4.67-4.94-4.67a9.77,9.77,0,0,0-4.51,1.16l-.33-.77a10.85,10.85,0,0,1,4.89-1.21,6,6,0,0,1,4.4,1.51,5.46,5.46,0,0,1,1.37,3.93v8.62h-.88v-2.88a6.18,6.18,0,0,1-5.82,3.21c-2.67,0-5.25-1.42-5.25-4.23m11.1-1.2v-1.71a15.68,15.68,0,0,0-5-.77c-3.05,0-5.17,1.29-5.17,3.57v.06c0,2.28,2.07,3.46,4.37,3.46,3.36,0,5.8-2.14,5.8-4.61"/><path class="cls-1" d="M282.42,164.35h.88v3.3a5.63,5.63,0,0,1,5.33-3.63c3.66,0,5.72,2.47,5.72,6.07v8.11h-.88v-8c0-3.22-1.73-5.39-5-5.39a5.32,5.32,0,0,0-5.22,5.55v7.81h-.88Z"/><path class="cls-1" d="M298.22,171.3v-.06A7.14,7.14,0,0,1,305.3,164a7.22,7.22,0,0,1,5.52,2.55l-.63.64a6.48,6.48,0,0,0-4.91-2.37,6.21,6.21,0,0,0-6.13,6.38v.05a6.32,6.32,0,0,0,6.18,6.43,6.56,6.56,0,0,0,5-2.47l.64.55a7.11,7.11,0,0,1-12.72-4.48"/><path class="cls-1" d="M313.32,171.27v-.05c0-4.07,2.8-7.2,6.62-7.2,4.18,0,6.35,3.57,6.35,7.28v.3h-12c.17,3.76,2.83,6.1,5.94,6.1a6.3,6.3,0,0,0,5-2.55l.66.52a6.93,6.93,0,0,1-5.66,2.85c-3.74,0-6.87-2.82-6.87-7.25m12-.46c-.14-3-2-6-5.44-6-3.13,0-5.44,2.56-5.61,6Z"/></g></g></svg>