<svg xmlns="http://www.w3.org/2000/svg" viewBox="0 0 355.77 102.8"><defs><style>.cls-1{fill:#fff;}</style></defs><g id="Camada_2" data-name="Camada 2"><g id="Camada_1-2" data-name="Camada 1"><path class="cls-1" d="M71.91,79.24a1.59,1.59,0,0,1-1.18-.52c-.34-.36-8.21-8.92-10.1-16.41a6.88,6.88,0,0,1,3.53-7.68c4.66-2.5,15.9-9.13,19.63-16.55.07-.13,1.72-3.6-.31-6.46a2.79,2.79,0,0,0-2.29-1.09H69.65A9.24,9.24,0,0,1,63,27.72a34.43,34.43,0,0,1-5.28-7.16,2.86,2.86,0,0,0-2.06-1.46A25.38,25.38,0,0,0,33.18,27C38,31.41,54.62,48.12,45.31,61.32c-6.06,8.59-12.52,7.2-15.83,5.61A14.87,14.87,0,0,1,21.36,54.6c-.51-6.46-.11-18.76,8.32-28.56A28.67,28.67,0,0,1,56.13,15.92a6.11,6.11,0,0,1,4.4,3.1,31,31,0,0,0,4.78,6.48,6.05,6.05,0,0,0,4.34,1.82H81.19a6,6,0,0,1,4.91,2.44c3.16,4.45.68,9.55.57,9.76-4,7.95-14.87,14.66-21,17.95a3.65,3.65,0,0,0-1.93,4.05c1.68,6.7,9.26,14.93,9.33,15A1.61,1.61,0,0,1,73,78.81,1.63,1.63,0,0,1,71.91,79.24ZM31.08,29.41c-6.66,8.7-7,19.26-6.52,24.93A11.65,11.65,0,0,0,30.88,64c4.31,2.08,8.17.59,11.8-4.56C50.34,48.6,35.55,33.56,31.08,29.41Z"/><path class="cls-1" d="M20.67,80.38a1.6,1.6,0,0,1-1.6-1.53c-.24-5.6,5.55-15.62,6.21-16.75a1.61,1.61,0,1,1,2.77,1.63c-1.66,2.83-5.94,11-5.77,15a1.61,1.61,0,0,1-1.53,1.67Z"/><path class="cls-1" d="M51.4,102.8a51.4,51.4,0,1,1,51.4-51.4A51.46,51.46,0,0,1,51.4,102.8Zm0-99.58A48.19,48.19,0,1,0,99.59,51.4,48.23,48.23,0,0,0,51.4,3.22Z"/><path class="cls-1" d="M160.18,23.7,141.71,46.34H158a3.7,3.7,0,0,1,0,7.4H139.1c-4.95,0-7.9-5-4.84-8.9L152.67,22.2H137.88a3.7,3.7,0,1,1,0-7.4h17.41C160.29,14.8,163.24,19.75,160.18,23.7Z"/><path class="cls-1" d="M193.78,39.39c0,10-8.62,14.74-15,14.74s-15-4.78-15-14.74,8.57-14.91,15-14.91S193.78,29.49,193.78,39.39Zm-21.92,0c0,4.67,3.23,7.68,7,7.68s6.9-3,6.9-7.68c0-4.84-3.23-7.84-6.9-7.84S171.86,34.55,171.86,39.39Z"/><path class="cls-1" d="M227.6,39.39c0,10-8.62,14.74-15,14.74s-15-4.78-15-14.74,8.57-14.91,15-14.91S227.6,29.49,227.6,39.39Zm-21.91,0c0,4.67,3.22,7.68,6.95,7.68s6.9-3,6.9-7.68c0-4.84-3.23-7.84-6.9-7.84S205.69,34.55,205.69,39.39Z"/><path class="cls-1" d="M280.17,38.05V50a4.06,4.06,0,0,1-8.12,0v-12c0-4.61-2.28-6.62-5.4-6.62-4.73,0-6.12,4.68-6.23,5.73V50a4.06,4.06,0,0,1-8.12,0v-12c0-4.61-2.28-6.62-5.34-6.62a5.78,5.78,0,0,0-4.87,2.47,7.35,7.35,0,0,0-1.36,4.33V49.86A4.16,4.16,0,0,1,236.64,54a4,4,0,0,1-4-4V28.76a4.06,4.06,0,1,1,8.12,0V31c.22-2.06,3.39-6.45,9.29-6.45a9.45,9.45,0,0,1,9.4,6.84,11.35,11.35,0,0,1,10.29-6.84C275.39,24.54,280.17,28.37,280.17,38.05Z"/><path class="cls-1" d="M286.84,17.47a4.12,4.12,0,0,1,8.24,0,4.12,4.12,0,0,1-8.24,0ZM295,28.76V50a4.06,4.06,0,1,1-8.12,0V28.76a4.06,4.06,0,1,1,8.12,0Z"/><path class="cls-1" d="M329.4,38c0,3.22-1.72,4.34-5.06,4.34l-15.24-.23c.72,3.45,3.44,5.35,7.28,5.35a9.54,9.54,0,0,0,4-.84,8.2,8.2,0,0,1,3-.94,2.64,2.64,0,0,1,2.73,2.78,4.12,4.12,0,0,1-1.95,3.33A14.53,14.53,0,0,1,316.05,54c-7.51,0-15.41-4.51-15.41-14.63s8.4-14.91,14.74-14.91S329.4,29.54,329.4,38Zm-20.3-1.34h12.29a5.61,5.61,0,0,0-6-5.11C312.49,31.55,309.6,33,309.1,36.66Z"/><path class="cls-1" d="M353.65,28.43a4.1,4.1,0,0,1,1,2.61,2.87,2.87,0,0,1-3.11,3.06,4.34,4.34,0,0,1-3.34-1.61,4.53,4.53,0,0,0-3.45-1.61c-1.78,0-2.89.89-2.89,2.17,0,.55.11,1.67,2.45,2.33l3.39.95c4.23,1.28,8.07,3.39,8.07,8.45,0,6.29-5.79,9.24-11.57,9.24a12.37,12.37,0,0,1-9.46-3.78A6.12,6.12,0,0,1,333,46.4a3,3,0,0,1,3.12-3.06,4.26,4.26,0,0,1,3.28,1.83,5.87,5.87,0,0,0,4.79,2.29c2.44,0,3.5-1.12,3.5-2.23,0-.56-.22-1.78-2.84-2.56L342,41.78c-5.67-1.61-8.07-4.67-8.07-8.68,0-5.84,5.34-8.62,10.57-8.62C348.14,24.48,351.82,25.87,353.65,28.43Z"/><path class="cls-1" d="M139.79,71.52a6.19,6.19,0,0,1,4.44,1.72,6.27,6.27,0,0,1,0,8.77,6.15,6.15,0,0,1-4.44,1.72h-2.32V89H133V71.52Zm0,8a1.77,1.77,0,0,0,1.77-1.87,1.75,1.75,0,0,0-1.77-1.85h-2.32V79.5Z"/><path class="cls-1" d="M168.43,84.78h6.75V89H164V71.52h11.09v4.16h-6.63V78.1h6v4.11h-6Z"/><path class="cls-1" d="M205.47,71.52v4.31h-4.31V89H196.7V75.83h-4.31V71.52Z"/><path class="cls-1" d="M247.05,86.75a8.91,8.91,0,0,1-2.57-6.51,8.87,8.87,0,0,1,9.09-9.09A8.91,8.91,0,0,1,258,72.27a8.34,8.34,0,0,1,3.16,3l-3.86,2.21a4.12,4.12,0,0,0-3.69-2,4.57,4.57,0,0,0-3.38,1.32,4.65,4.65,0,0,0-1.28,3.41,4.72,4.72,0,0,0,1.28,3.44,4.56,4.56,0,0,0,3.38,1.3,4,4,0,0,0,3.69-2l3.86,2.24a8.66,8.66,0,0,1-7.55,4.14A8.87,8.87,0,0,1,247.05,86.75Z"/><path class="cls-1" d="M289.57,89l-.75-2.51H283L282.27,89h-4.84l5.76-17.44h5.43L294.37,89Zm-5.41-6.35h3.51l-1.77-5.93Z"/><path class="cls-1" d="M321,89l-3-5.63h-1.6V89h-4.46V71.52h7a6.24,6.24,0,0,1,4.46,1.72,5.6,5.6,0,0,1,1.82,4.31,5.66,5.66,0,0,1-3,5L325.73,89Zm-4.64-13.33v3.92h2.47a1.81,1.81,0,0,0,1.87-2,1.84,1.84,0,0,0-1.87-2Z"/><path class="cls-1" d="M348,84.78h6.75V89H343.51V71.52h11.08v4.16H348V78.1h6v4.11h-6Z"/></g></g></svg>