<svg width="128" height="36" viewBox="0 0 128 36" fill="none" xmlns="http://www.w3.org/2000/svg">
<g id="logo">
<g id="Group">
<path id="Vector" d="M0.504624 13.3724C0.504624 9.45536 0.504624 5.5383 0.504624 1.62125C0.504624 0.721402 0.761097 0.464751 1.66825 0.466316C5.46468 0.472575 9.26112 0.449101 13.056 0.502309C14.7357 0.525784 16.3727 0.884156 17.8181 1.79495C20.052 3.2034 20.9433 5.27852 20.8578 7.84347C20.7992 9.62907 19.8367 10.8998 18.5543 12.0109C18.4767 12.0782 18.3912 12.1345 18.3137 12.1987C17.9226 12.5258 17.9305 12.7167 18.3802 12.9702C19.7892 13.7652 20.8752 14.845 21.3628 16.4037C22.156 18.9342 21.7792 23.3709 18.0683 25.2222C16.6165 25.9468 15.0587 26.2535 13.4628 26.2707C9.44951 26.313 5.4346 26.2926 1.41969 26.2926C0.865586 26.2926 0.536287 25.9781 0.510957 25.4272C0.491959 25.0344 0.504624 24.6416 0.504624 24.2488C0.504624 20.6228 0.504624 16.9968 0.504624 13.3709V13.3724ZM10.4659 19.8122C11.1198 19.8122 11.7736 19.8263 12.4274 19.8075C13.599 19.7746 14.4808 18.6212 14.1515 17.5743C13.865 16.6588 13.1161 16.1017 12.1456 16.097C10.9535 16.0907 9.7614 16.0939 8.56927 16.097C7.92809 16.0986 7.58929 16.4225 7.58138 17.0469C7.57346 17.6557 7.57346 18.2629 7.58138 18.8716C7.58929 19.4726 7.92967 19.8043 8.54394 19.8106C9.18512 19.8184 9.82631 19.8122 10.4675 19.8122H10.4659ZM10.1635 6.95614C9.59991 6.95614 9.03631 6.94832 8.4727 6.95771C7.94709 6.96553 7.60037 7.29104 7.58454 7.80747C7.56871 8.35208 7.56713 8.89668 7.58454 9.44128C7.60196 9.91859 7.93442 10.2582 8.41887 10.2644C9.55875 10.2801 10.7002 10.2926 11.8401 10.2597C12.7108 10.2347 13.3758 9.39902 13.3362 8.46319C13.3029 7.67758 12.5509 6.96397 11.7404 6.95614C11.2147 6.95145 10.6891 6.95614 10.1635 6.95614Z" fill="white"/>
<path id="Vector_2" d="M50.289 13.3505C50.289 10.8779 50.2921 8.40532 50.2842 5.9327C50.2842 5.66197 50.3523 5.44914 50.5233 5.241C53.7988 1.24569 58.0338 -0.599378 63.1791 0.17214C68.4716 0.964002 72.1493 4.01721 73.9636 8.98435C76.8545 16.8983 71.6015 25.2034 63.4989 26.5493C58.2238 27.4257 53.8748 25.6088 50.5074 21.5023C50.3444 21.3036 50.2826 21.0986 50.2842 20.8435C50.2921 18.3458 50.289 15.8482 50.289 13.3505ZM61.2825 20.0501C61.6228 20.0642 62.0171 20.0156 62.4065 19.9327C66.6621 19.0297 68.9212 14.2754 66.9534 10.3725C65.5364 7.56181 62.3179 6.1205 59.4476 7.01095C56.1419 8.03443 54.1408 11.5618 54.9625 14.9171C55.6955 17.9155 58.3014 20.0516 61.2825 20.0485V20.0501Z" fill="white"/>
<path id="Vector_3" d="M94.9659 17.831C96.1105 18.5023 97.2646 19.0751 98.4884 19.4992C99.9877 20.0188 101.52 20.2426 103.103 19.9703C103.536 19.8967 103.95 19.7652 104.311 19.5055C105.196 18.8638 105.09 17.7746 104.094 17.338C103.3 16.9875 102.434 16.9327 101.591 16.7731C99.5935 16.3928 97.5686 16.1361 95.6672 15.3474C95.2366 15.169 95.0909 14.9671 95.0925 14.4961C95.1147 10.2097 95.1115 5.92331 95.0957 1.63692C95.0957 1.26446 95.2239 1.11266 95.5548 0.990599C97.6367 0.226906 99.7914 0.0297228 101.987 0.137704C105.149 0.292634 107.943 1.42252 110.467 3.26759C111.228 3.82472 111.293 4.19561 110.756 4.94991C109.917 6.13301 109.078 7.31611 108.236 8.49764C107.821 9.0798 107.408 9.16587 106.795 8.78872C105.199 7.80907 103.51 7.07041 101.628 6.84662C100.748 6.74177 99.861 6.74334 98.9824 6.88262C98.6752 6.93113 98.3855 7.03285 98.1306 7.21126C97.5037 7.65257 97.4942 8.39279 98.1274 8.82471C98.6816 9.20187 99.3164 9.41157 99.9497 9.61971C101.208 10.0344 102.529 10.1627 103.813 10.4585C105.516 10.8498 107.191 11.3161 108.649 12.3286C110.731 13.7746 111.914 15.7073 111.977 18.2676C112.026 20.266 111.645 22.1268 110.323 23.7089C109.137 25.1283 107.565 25.9327 105.782 26.3083C101.078 27.3005 96.6108 26.7246 92.455 24.2253C92.1716 24.0548 92.1257 23.9687 92.3679 23.687C93.7199 22.1142 94.5067 20.277 94.8709 18.2535C94.8835 18.1784 94.901 18.1048 94.9168 18.0297C94.9279 17.9812 94.9421 17.9327 94.9674 17.831H94.9659Z" fill="white"/>
<path id="Vector_4" d="M108.801 26.2299C109.347 25.8825 109.894 25.5382 110.37 25.1C112.015 23.5852 112.775 21.6665 112.951 19.496C113.069 18.0249 112.93 16.5711 112.34 15.2049C111.453 13.1579 109.898 11.7323 107.9 10.7573C107.671 10.6462 107.576 10.5226 107.589 10.2675C107.598 10.0515 107.658 9.95293 107.883 9.91381C108.348 9.83243 108.698 9.55857 108.966 9.18141C109.895 7.87469 110.828 6.57109 111.746 5.2581C112.338 4.41303 112.151 3.31131 111.326 2.68376C110.37 1.9545 109.358 1.30974 108.276 0.777659C108.189 0.73384 108.076 0.719756 108.021 0.59769C108.17 0.45215 108.364 0.466235 108.549 0.466235C114.542 0.466235 120.532 0.463105 126.525 0.466235C127.196 0.466235 127.497 0.782354 127.498 1.46154C127.5 2.95763 127.5 4.45528 127.498 5.95137C127.498 6.63055 127.174 6.9545 126.487 6.9545C122.933 6.95606 119.378 6.9545 115.826 6.9545C114.928 6.9545 114.668 7.21584 114.667 8.11725C114.667 8.42085 114.667 8.72602 114.667 9.02962C114.667 9.84026 114.963 10.1376 115.773 10.1376C118.815 10.1376 121.854 10.1376 124.896 10.1376C125.011 10.1376 125.127 10.1345 125.242 10.1407C125.708 10.1658 126.05 10.4772 126.051 10.9373C126.062 12.5852 126.064 14.2346 126.051 15.8825C126.047 16.4036 125.684 16.6932 125.097 16.6947C122.223 16.6963 119.348 16.6947 116.475 16.6947C116.18 16.6947 115.884 16.69 115.59 16.6947C115.025 16.7057 114.686 17.0343 114.67 17.5961C114.659 17.9764 114.665 18.3567 114.668 18.737C114.675 19.4146 114.998 19.7323 115.691 19.7323C119.206 19.7338 122.722 19.7323 126.237 19.7323C126.352 19.7323 126.468 19.7307 126.583 19.7323C127.153 19.7448 127.494 20.0703 127.497 20.6352C127.503 22.2205 127.503 23.8058 127.497 25.3911C127.494 25.9561 127.155 26.2863 126.579 26.2863C120.716 26.2894 114.852 26.2878 108.99 26.2863C108.931 26.2863 108.863 26.3097 108.803 26.2221L108.801 26.2299Z" fill="white"/>
<path id="Vector_5" d="M94.1046 8.97502C94.1046 11.2458 94.1126 13.5149 94.1031 15.7857C94.092 18.324 93.4698 20.6839 91.8724 22.7184C90.2417 24.7966 88.0506 25.9828 85.4653 26.4649C82.6647 26.9875 79.9226 26.7935 77.3009 25.6088C75.6069 24.8436 74.2327 23.6933 73.1783 22.1691C73.0026 21.9156 72.9852 21.7387 73.1736 21.4695C76.8386 16.2348 76.5552 9.28645 72.4833 4.34122C72.2174 4.01728 71.9419 3.6949 71.6332 3.41164C71.383 3.18159 71.2928 2.9359 71.3134 2.60882C71.3371 2.21759 71.3134 1.82322 71.3197 1.43042C71.3292 0.823222 71.6633 0.494583 72.2791 0.493018C73.9604 0.489888 75.6402 0.491453 77.3215 0.493018C78.1004 0.493018 78.3949 0.780968 78.3949 1.5431C78.3949 6.2348 78.3949 10.9281 78.3949 15.6198C78.3949 16.5447 78.5374 17.4351 79.0234 18.2489C79.9163 19.7465 81.748 20.529 83.5655 20.1832C85.3909 19.8342 86.6511 18.5619 86.9456 16.7857C87.0168 16.3569 87.0295 15.9281 87.0295 15.4977C87.0295 10.8686 87.0295 6.2395 87.0295 1.61195C87.0295 1.34435 87.0295 1.07674 87.2005 0.848261C87.3904 0.594739 87.6501 0.493018 87.9683 0.493018C89.7003 0.496148 91.4323 0.493018 93.1642 0.496148C93.7848 0.496148 94.1031 0.820092 94.1031 1.44294C94.1062 3.95468 94.1031 6.46485 94.1031 8.97659L94.1046 8.97502Z" fill="white"/>
<g id="Group_2">
<path id="Vector_6" d="M22.4727 20.5942C22.9778 21.6271 23.6142 22.4956 24.3171 23.3188C24.477 23.5066 24.4897 23.6678 24.3124 23.8493C23.6886 24.4956 23.2152 25.2484 22.764 26.0152C22.6374 26.2312 22.4949 26.3141 22.2447 26.3C21.8236 26.2781 21.3993 26.2985 20.9766 26.2891C20.6347 26.2812 20.3734 26.1044 20.2674 25.7977C20.1534 25.4675 20.0473 25.0778 20.318 24.7914C21.3962 23.6521 22.1165 22.3407 22.3904 20.7977C22.3983 20.7492 22.4268 20.7053 22.4711 20.5942H22.4727Z" fill="white"/>
<g id="Group_3">
<path id="Vector_7" d="M22.2812 15.9685C21.8427 14.8402 21.2094 13.9153 20.3529 13.1453C20.2674 13.0686 20.25 12.9763 20.2516 12.8715C20.2516 12.7322 20.2642 12.5913 20.2484 12.4536C20.1977 11.992 20.3339 11.6195 20.6315 11.2376C22.0627 9.4004 22.0833 7.33311 21.5561 5.19226C21.3535 4.3691 20.9925 3.61636 20.4764 2.94187C20.3101 2.72591 20.2326 2.50995 20.2468 2.24391C20.2627 1.94031 20.2421 1.63514 20.2563 1.33154C20.2785 0.826067 20.6015 0.502123 21.116 0.498993C22.7704 0.491169 24.4264 0.483344 26.0808 0.502123C26.6856 0.508383 27.1352 0.827632 27.4756 1.32215C29.6619 4.49743 31.853 7.66801 34.0441 10.8386C34.0948 10.9121 34.1439 10.9857 34.1961 11.0577C34.5713 11.5788 34.9354 11.5772 35.3059 11.0436C37.5049 7.86206 39.7087 4.68522 41.895 1.4943C42.37 0.802593 42.9716 0.469259 43.8265 0.486474C45.3147 0.516208 46.8028 0.492734 48.291 0.495863C48.9544 0.495863 49.2868 0.819807 49.2868 1.47395C49.2868 9.42544 49.2868 17.3769 49.2868 25.3284C49.2868 25.9857 48.9623 26.2956 48.2879 26.2971C47.7876 26.2971 47.2366 26.4207 46.8013 26.2533C46.3722 26.089 46.2598 25.4943 45.9828 25.1046C45.4508 24.3535 44.8761 23.643 44.189 23.0264C43.9579 22.8198 43.9199 22.668 44.2587 22.5506C45.5949 22.0858 46.6398 20.1031 46.3311 18.7869C45.9115 17.0045 44.5025 15.6821 42.7864 15.679C39.9873 15.6743 38.401 18.438 39.3113 20.5976C39.3683 20.7337 39.4269 20.8683 39.495 21.0248C39.3034 20.981 39.2543 20.8448 39.2147 20.7197C39.0137 20.0874 38.5324 19.7948 37.9181 19.6696C33.4884 18.7697 29.4688 19.6164 25.9098 22.4239C25.3462 22.8683 25.3383 22.873 24.8902 22.2987C24.0781 21.258 23.3815 20.1563 23.0934 18.8495C22.9572 18.2345 22.9588 17.6132 23.0664 16.9966C23.2849 15.7603 24.2633 14.909 25.6929 14.6884C26.8154 14.5146 28.1294 15.1406 28.6376 16.1563C29.0366 16.956 29.0951 17.8276 28.6376 18.6054C28.1674 19.402 26.9151 19.9528 25.932 19.4505C25.256 19.1046 24.9203 18.2799 25.1467 17.5663C25.3225 17.0139 25.8401 16.6821 26.3816 16.7541C26.6175 16.7854 26.7568 16.9059 26.8075 17.1265C26.855 17.3331 26.7885 17.499 26.6064 17.6195C26.4797 17.704 26.3436 17.7822 26.2375 17.8887C26.1014 18.0279 26.084 18.2032 26.1789 18.3801C26.2755 18.56 26.4228 18.6132 26.627 18.5945C27.3917 18.5225 27.9933 17.9998 27.9078 17.0702C27.8444 16.3722 27.0307 15.6524 26.2787 15.668C24.781 15.6993 23.6554 17.1297 24.0448 18.5632C24.352 19.693 25.0913 20.4239 26.2755 20.6805C26.5747 20.7447 26.8898 20.7275 27.1494 20.6351C28.0455 20.3175 29.0049 20.0592 29.5733 19.211C29.8424 18.8089 29.92 18.3128 29.9358 17.8323C30.0165 15.4912 28.7833 13.8777 26.3927 13.6304C24.7493 13.4614 23.4701 14.211 22.544 15.5506C22.4648 15.6649 22.3983 15.7885 22.2859 15.9716L22.2812 15.9685Z" fill="white"/>
<path id="Vector_8" d="M44.2207 24.7026C44.4155 24.7261 44.5833 24.8091 44.588 25.0141C44.5912 25.2112 44.4456 25.3427 44.2461 25.3458C44.0292 25.349 43.8899 25.2363 43.8978 24.9968C43.9057 24.7871 44.0419 24.7245 44.2207 24.7042V24.7026Z" fill="white"/>
</g>
</g>
</g>
<g id="Group_4">
<path id="Vector_9" d="M33.0071 35.9137V31.0718H35.2979C36.3634 31.0718 36.9428 31.7838 36.9428 32.632C36.9428 33.4802 36.3555 34.186 35.2979 34.186H34.0504V35.9137H33.0071ZM35.8774 32.632C35.8774 32.2251 35.5607 31.9794 35.1507 31.9794H34.0488V33.2783H35.1507C35.5607 33.2783 35.8774 33.0311 35.8774 32.632Z" fill="white"/>
<path id="Vector_10" d="M41.4042 35.9137L40.4416 34.1938H39.677V35.9137H38.6353V31.0718H40.9261C41.9472 31.0718 42.5789 31.7322 42.5789 32.632C42.5789 33.4818 42.028 33.9466 41.4992 34.0702L42.609 35.9137H41.4042ZM41.5055 32.6258C41.5055 32.2267 41.1889 31.9794 40.7789 31.9794H39.677V33.2862H40.7789C41.1889 33.2862 41.5055 33.0405 41.5055 32.6258Z" fill="white"/>
<path id="Vector_11" d="M44.1604 33.4961C44.1604 32.0376 45.2401 30.9922 46.7235 30.9922C48.207 30.9922 49.2788 32.0376 49.2788 33.4961C49.2788 34.9546 48.1991 36 46.7235 36C45.248 36 44.1604 34.9546 44.1604 33.4961ZM48.2054 33.4961C48.2054 32.5884 47.6244 31.9061 46.722 31.9061C45.8196 31.9061 45.2306 32.5884 45.2306 33.4961C45.2306 34.4038 45.8101 35.0861 46.722 35.0861C47.6339 35.0861 48.2054 34.3959 48.2054 33.4961Z" fill="white"/>
<path id="Vector_12" d="M51.052 35.9137V31.0718H52.9835C54.5176 31.0718 55.583 32.0373 55.583 33.4896C55.583 34.9419 54.5176 35.9137 52.9914 35.9137H51.0536H51.052ZM54.5176 33.4896C54.5176 32.6399 53.9888 31.9794 52.9898 31.9794H52.0937V35.006H52.9835C53.9524 35.006 54.5176 34.3159 54.5176 33.4896Z" fill="white"/>
<path id="Vector_13" d="M57.3625 33.9749V31.0703H58.4201V33.9451C58.4201 34.6196 58.8159 35.0844 59.5726 35.0844C60.3294 35.0844 60.7189 34.6196 60.7189 33.9451V31.0703H61.7843V33.9749C61.7843 35.172 61.064 35.9999 59.5742 35.9999C58.0845 35.9999 57.3641 35.172 57.3641 33.9749H57.3625Z" fill="white"/>
<path id="Vector_14" d="M63.5559 33.4961C63.5559 32 64.6942 30.9922 66.1697 30.9922C67.2415 30.9922 67.8653 31.5665 68.2104 32.1753L67.3143 32.6103C67.1085 32.2191 66.6684 31.9061 66.1681 31.9061C65.2721 31.9061 64.6261 32.5806 64.6261 33.4961C64.6261 34.4116 65.2721 35.0861 66.1681 35.0861C66.6668 35.0861 67.1085 34.7747 67.3143 34.3819L68.2104 34.8091C67.8653 35.4116 67.2415 36 66.1697 36C64.6942 36 63.5559 34.9844 63.5559 33.4961Z" fill="white"/>
<path id="Vector_15" d="M71.0063 35.9137V31.9794H69.5735V31.0718H73.4807V31.9794H72.0559V35.9137H71.0063Z" fill="white"/>
<path id="Vector_16" d="M75.1873 35.9137V31.0718H76.229V35.9137H75.1873Z" fill="white"/>
<path id="Vector_17" d="M78.0007 33.4961C78.0007 32.0376 79.0805 30.9922 80.5639 30.9922C82.0473 30.9922 83.1191 32.0376 83.1191 33.4961C83.1191 34.9546 82.0394 36 80.5639 36C79.0884 36 78.0007 34.9546 78.0007 33.4961ZM82.0473 33.4961C82.0473 32.5884 81.4663 31.9061 80.5639 31.9061C79.6615 31.9061 79.0725 32.5884 79.0725 33.4961C79.0725 34.4038 79.652 35.0861 80.5639 35.0861C81.4758 35.0861 82.0473 34.3959 82.0473 33.4961Z" fill="white"/>
<path id="Vector_18" d="M88.2707 35.9137L85.9355 32.7557V35.9137H84.8938V31.0718H85.9656L88.2343 34.114V31.0718H89.276V35.9137H88.2707Z" fill="white"/>
<path id="Vector_19" d="M90.9478 35.2316L91.5209 34.4257C91.866 34.7809 92.4011 35.0861 93.0771 35.0861C93.6566 35.0861 93.9289 34.8326 93.9289 34.5493C93.9289 33.7074 91.1092 34.2958 91.1092 32.4742C91.1092 31.6682 91.8137 31 92.9663 31C93.7452 31 94.3911 31.2316 94.8756 31.6745L94.2962 32.4444C93.9004 32.0814 93.37 31.9139 92.8713 31.9139C92.4312 31.9139 92.181 32.1017 92.181 32.3928C92.181 33.1549 94.9943 32.6385 94.9943 34.446C94.9943 35.3318 94.3484 36 93.0328 36C92.086 36 91.41 35.6886 90.9478 35.2316Z" fill="white"/>
</g>
</g>
</svg>
