<svg width="357" height="177" viewBox="0 0 357 177" fill="none" xmlns="http://www.w3.org/2000/svg">
<g clip-path="url(#clip0_260_710)">
<path d="M12.4428 47.2473L14.6488 42.6453C17.7479 45.4177 23.053 47.4257 28.42 47.4257C35.6326 47.4257 38.7317 44.6533 38.7317 41.0527C38.7317 30.9619 13.457 37.3349 13.457 21.9923C13.457 15.614 18.4662 10.1864 29.4343 10.1864C34.3224 10.1864 39.3881 11.4861 42.8478 13.8456L40.8812 18.5675C37.244 16.2665 33.1306 15.2039 29.437 15.2039C22.3428 15.2039 19.3029 18.1547 19.3029 21.7553C19.3029 31.8461 44.5776 25.5317 44.5776 40.6985C44.5776 47.0129 39.45 52.4432 28.4227 52.4432C22.0442 52.4432 15.784 50.3179 12.4455 47.25L12.4428 47.2473Z" fill="white"/>
<path d="M70.7993 15.7924H56.4926V10.6578H91.0083V15.7924H76.7016V51.9664H70.7993V15.7924Z" fill="white"/>
<path d="M106.203 34.1444V10.6578H112.164V33.9101C112.164 43.0581 116.396 47.1887 123.907 47.1887C131.418 47.1887 135.712 43.0581 135.712 33.9101V10.6578H141.493V34.1444C141.493 46.1234 134.875 52.4378 123.848 52.4378C112.821 52.4378 106.203 46.1234 106.203 34.1444Z" fill="white"/>
<path d="M163.542 10.6578H181.128C194.542 10.6578 203.662 19.0388 203.662 31.3135C203.662 43.5881 194.542 51.9691 181.128 51.9691H163.542V10.6578ZM180.771 46.8318C191.082 46.8318 197.7 40.576 197.7 31.3108C197.7 22.0456 191.082 15.7898 180.771 15.7898H169.504V46.8318H180.771Z" fill="white"/>
<path d="M222.612 10.6578H228.573V51.9664H222.612V10.6578Z" fill="white"/>
<path d="M314.871 47.2473L317.077 42.6453C320.176 45.4177 325.481 47.4257 330.848 47.4257C338.06 47.4257 341.16 44.6533 341.16 41.0527C341.16 30.9619 315.885 37.3349 315.885 21.9923C315.885 15.6193 320.891 10.1891 331.859 10.1891C336.748 10.1891 341.816 11.4887 345.273 13.8483L343.306 18.5701C339.669 16.2691 335.556 15.2065 331.862 15.2065C324.768 15.2065 321.728 18.1573 321.728 21.758C321.728 31.8488 347.003 25.5344 347.003 40.7012C347.003 47.0156 341.875 52.4458 330.848 52.4458C324.469 52.4458 318.209 50.3206 314.871 47.2526V47.2473Z" fill="white"/>
<path d="M10.0108 107.243C10.0108 96.8997 10.0108 86.5532 10.0108 76.2094C10.0108 73.8312 10.686 73.1574 13.0777 73.1601C23.088 73.1787 33.0984 73.1121 43.106 73.2559C47.5368 73.3199 51.8493 74.2626 55.664 76.6701C61.5529 80.3879 63.9042 85.8688 63.6809 92.6439C63.5249 97.3577 60.988 100.716 57.6064 103.648C57.4019 103.824 57.1759 103.973 56.9688 104.146C55.9357 105.009 55.9573 105.515 57.141 106.184C60.8589 108.282 63.7186 111.137 65.0072 115.249C67.1002 121.934 66.1048 133.646 56.3204 138.539C52.4922 140.453 48.387 141.263 44.1767 141.308C33.5934 141.423 23.0073 141.367 12.4212 141.367C10.9631 141.367 10.0915 140.536 10.0242 139.079C9.97582 138.043 10.0081 137.005 10.0081 135.966C10.0081 126.392 10.0081 116.815 10.0081 107.241L10.0108 107.243ZM36.2809 124.251C38.0053 124.248 39.7298 124.288 41.4515 124.237C44.5399 124.149 46.8643 121.105 45.998 118.341C45.2421 115.925 43.2701 114.453 40.709 114.439C37.5668 114.423 34.422 114.429 31.2798 114.439C29.5903 114.445 28.6945 115.3 28.6729 116.948C28.6514 118.554 28.6514 120.16 28.6729 121.766C28.6945 123.35 29.5903 124.229 31.2125 124.248C32.902 124.267 34.5914 124.253 36.2836 124.253L36.2809 124.251ZM35.4819 90.303C33.9942 90.303 32.5092 90.2843 31.0215 90.3083C29.636 90.3296 28.7187 91.1898 28.6783 92.5507C28.6353 93.9888 28.6326 95.4296 28.681 96.8651C28.724 98.1247 29.6038 99.0222 30.8816 99.0409C33.8893 99.0835 36.897 99.1154 39.902 99.0276C42.1994 98.961 43.9508 96.7559 43.8485 94.2844C43.7624 92.2098 41.7797 90.3269 39.6383 90.303C38.2528 90.2897 36.8674 90.3003 35.4819 90.303Z" fill="white"/>
<path d="M141.291 107.188C141.291 100.657 141.302 94.13 141.278 87.5998C141.278 86.8861 141.458 86.3242 141.907 85.7729C150.543 75.2214 161.713 70.3504 175.283 72.3851C189.237 74.4783 198.938 82.5398 203.721 95.656C211.345 116.554 197.493 138.491 176.127 142.043C162.216 144.358 150.75 139.561 141.87 128.717C141.439 128.192 141.278 127.651 141.278 126.978C141.299 120.381 141.291 113.787 141.291 107.19V107.188ZM170.276 124.876C171.172 124.914 172.213 124.786 173.241 124.567C184.462 122.181 190.42 109.63 185.231 99.3205C181.494 91.8982 173.009 88.0952 165.436 90.4441C156.72 93.1473 151.444 102.463 153.607 111.323C155.542 119.241 162.412 124.882 170.273 124.874L170.276 124.876Z" fill="white"/>
<path d="M259.097 119.02C262.115 120.794 265.158 122.304 268.386 123.425C272.341 124.797 276.381 125.388 280.554 124.669C281.695 124.472 282.79 124.128 283.737 123.441C286.069 121.747 285.792 118.871 283.166 117.715C281.068 116.791 278.787 116.645 276.567 116.221C271.3 115.217 265.957 114.538 260.945 112.455C259.81 111.984 259.422 111.451 259.43 110.208C259.489 98.8891 259.481 87.5679 259.436 76.2494C259.433 75.264 259.775 74.8645 260.646 74.5449C266.134 72.5262 271.816 72.0096 277.611 72.2919C285.948 72.6993 293.316 75.6848 299.969 80.5584C301.976 82.0285 302.146 83.0085 300.733 85.0006C298.519 88.1245 296.308 91.2484 294.086 94.367C292.991 95.9063 291.904 96.13 290.287 95.1367C286.08 92.5507 281.625 90.5986 276.664 90.01C274.342 89.7357 272.007 89.7384 269.688 90.1059C268.881 90.2337 268.114 90.5001 267.442 90.9768C265.79 92.1432 265.766 94.098 267.434 95.2352C268.895 96.2312 270.571 96.7825 272.238 97.3338C275.556 98.4283 279.039 98.7692 282.426 99.5469C286.916 100.578 291.336 101.811 295.178 104.484C300.666 108.306 303.787 113.406 303.951 120.168C304.08 125.446 303.074 130.36 299.587 134.538C296.459 138.286 292.313 140.411 287.616 141.404C275.211 144.025 263.431 142.501 252.473 135.905C251.725 135.455 251.604 135.226 252.242 134.483C255.807 130.328 257.883 125.476 258.841 120.133C258.876 119.936 258.919 119.739 258.962 119.545C258.992 119.414 259.027 119.286 259.094 119.02H259.097Z" fill="white"/>
<path d="M295.582 141.199C297.021 140.283 298.463 139.372 299.719 138.214C304.056 134.211 306.063 129.148 306.523 123.412C306.835 119.526 306.469 115.686 304.911 112.082C302.574 106.679 298.474 102.91 293.203 100.338C292.601 100.042 292.348 99.7173 292.38 99.0435C292.407 98.4763 292.563 98.2126 293.158 98.1088C294.387 97.8957 295.307 97.1687 296.012 96.178C298.463 92.7291 300.922 89.2856 303.346 85.8182C304.906 83.5838 304.414 80.6782 302.24 79.0217C299.716 77.0962 297.05 75.3945 294.196 73.9883C293.965 73.8738 293.669 73.8365 293.524 73.5143C293.919 73.1281 294.43 73.1654 294.917 73.1654C310.717 73.1601 326.517 73.1601 342.314 73.1654C344.084 73.1654 344.877 73.999 344.88 75.794C344.885 79.7461 344.885 83.6983 344.88 87.6504C344.88 89.4454 344.022 90.2976 342.214 90.3003C332.844 90.3056 323.471 90.3003 314.101 90.3003C311.734 90.3003 311.048 90.9901 311.048 93.371C311.048 94.1752 311.048 94.9795 311.048 95.7811C311.05 97.9197 311.828 98.708 313.967 98.708C321.984 98.7106 330.003 98.708 338.02 98.708C338.324 98.708 338.631 98.6973 338.932 98.716C340.161 98.7799 341.06 99.6028 341.068 100.82C341.098 105.174 341.1 109.528 341.065 113.88C341.055 115.254 340.097 116.024 338.547 116.024C330.969 116.029 323.391 116.024 315.812 116.024C315.035 116.024 314.254 116.013 313.477 116.027C311.987 116.056 311.093 116.921 311.053 118.408C311.026 119.412 311.04 120.418 311.048 121.422C311.064 123.209 311.917 124.051 313.743 124.051C323.014 124.056 332.282 124.051 341.552 124.051C341.856 124.051 342.16 124.046 342.467 124.051C343.968 124.085 344.869 124.943 344.875 126.434C344.894 130.621 344.894 134.807 344.875 138.994C344.869 140.485 343.974 141.356 342.454 141.356C326.993 141.364 311.532 141.362 296.071 141.356C295.918 141.356 295.735 141.42 295.579 141.186L295.582 141.199Z" fill="white"/>
<path d="M256.829 95.632C256.829 101.627 256.85 107.622 256.823 113.616C256.794 120.32 255.153 126.552 250.943 131.926C246.644 137.412 240.862 140.547 234.051 141.82C226.663 143.199 219.437 142.688 212.523 139.559C208.055 137.535 204.431 134.501 201.652 130.477C201.189 129.809 201.141 129.34 201.639 128.632C211.305 114.807 210.557 96.4603 199.817 83.4C199.115 82.5451 198.389 81.6929 197.574 80.9472C196.915 80.34 196.678 79.6928 196.729 78.8273C196.791 77.794 196.729 76.7527 196.748 75.7141C196.772 74.1108 197.654 73.2426 199.277 73.2373C203.707 73.2293 208.141 73.232 212.572 73.2373C214.627 73.2373 215.402 73.9963 215.402 76.0097C215.402 88.4015 215.402 100.793 215.402 113.182C215.402 115.627 215.779 117.976 217.059 120.125C219.416 124.083 224.245 126.147 229.039 125.231C233.854 124.312 237.177 120.948 237.951 116.258C238.137 115.127 238.172 113.995 238.172 112.855C238.172 100.631 238.172 88.4068 238.172 76.1828C238.172 75.4744 238.172 74.7686 238.621 74.1641C239.124 73.493 239.808 73.2266 240.647 73.2266C245.215 73.2373 249.78 73.2266 254.348 73.2346C255.984 73.2373 256.823 74.0895 256.826 75.738C256.832 82.3693 256.826 89.0007 256.829 95.632Z" fill="white"/>
<path d="M67.9396 126.317C69.2685 129.044 70.9499 131.337 72.8035 133.513C73.2232 134.008 73.2581 134.435 72.7927 134.917C71.149 136.624 69.898 138.61 68.7117 140.637C68.3781 141.204 68.0041 141.425 67.3423 141.391C66.2313 141.332 65.1121 141.385 63.9984 141.362C63.0971 141.343 62.4058 140.874 62.126 140.062C61.8274 139.191 61.5476 138.16 62.2605 137.404C65.104 134.395 67.0034 130.933 67.7243 126.858C67.7459 126.73 67.8185 126.613 67.9369 126.32L67.9396 126.317Z" fill="#4DC0ED"/>
<path d="M67.4365 114.099C66.277 111.121 64.6117 108.676 62.3519 106.642C62.126 106.439 62.0802 106.194 62.0829 105.917C62.0856 105.55 62.1152 105.177 62.0749 104.812C61.9403 103.592 62.3008 102.61 63.0837 101.603C66.8608 96.7505 66.9119 91.291 65.521 85.6371C64.9857 83.4613 64.036 81.4745 62.6748 79.6955C62.239 79.1256 62.0345 78.5557 62.0722 77.8499C62.1152 77.0483 62.0614 76.2414 62.0964 75.4398C62.1556 74.1055 63.0084 73.2506 64.3642 73.2426C68.7278 73.2213 73.0914 73.2027 77.4549 73.2506C79.0502 73.2693 80.2366 74.1108 81.1352 75.4158C86.9003 83.7995 92.6789 92.1725 98.4549 100.548C98.5894 100.743 98.7185 100.937 98.8557 101.129C99.8457 102.506 100.806 102.503 101.78 101.089C107.58 92.6892 113.391 84.2975 119.154 75.8712C120.404 74.0442 121.992 73.1627 124.246 73.208C128.168 73.2879 132.094 73.2266 136.019 73.232C137.767 73.232 138.644 74.0895 138.644 75.8153C138.65 96.8145 138.647 117.811 138.644 138.81C138.644 140.544 137.789 141.364 136.008 141.37C134.69 141.372 133.237 141.697 132.088 141.255C130.956 140.821 130.66 139.25 129.931 138.222C128.529 136.24 127.014 134.36 125.198 132.733C124.59 132.187 124.488 131.787 125.381 131.476C128.906 130.248 131.66 125.012 130.845 121.539C129.74 116.831 126.024 113.34 121.497 113.332C114.115 113.318 109.934 120.618 112.334 126.323C112.484 126.679 112.64 127.036 112.818 127.452C112.312 127.335 112.186 126.978 112.081 126.647C111.551 124.978 110.284 124.205 108.662 123.875C96.9833 121.499 86.3811 123.737 76.9976 131.151C75.5126 132.323 75.491 132.336 74.3073 130.821C72.1659 128.072 70.3285 125.164 69.5672 121.71C69.2094 120.085 69.2094 118.445 69.4972 116.818C70.0729 113.553 72.6528 111.305 76.4219 110.722C79.3838 110.264 82.8488 111.915 84.1859 114.597C85.2378 116.708 85.3911 119.009 84.1832 121.063C82.9457 123.167 79.6421 124.621 77.0487 123.294C75.2677 122.384 74.38 120.205 74.9772 118.317C75.4399 116.86 76.8039 115.981 78.2324 116.173C78.8565 116.258 79.2197 116.575 79.3542 117.159C79.4807 117.704 79.3031 118.141 78.8242 118.461C78.4906 118.685 78.1302 118.89 77.8531 119.172C77.4926 119.539 77.4468 120.003 77.697 120.472C77.9499 120.948 78.34 121.087 78.878 121.036C80.8957 120.844 82.4803 119.465 82.2543 117.009C82.0848 115.169 79.9434 113.265 77.958 113.305C74.0087 113.387 71.0414 117.167 72.0691 120.948C72.8788 123.934 74.8292 125.862 77.9499 126.538C78.7408 126.709 79.5694 126.663 80.2554 126.418C82.6202 125.577 85.149 124.898 86.6447 122.658C87.355 121.595 87.5567 120.285 87.6025 119.015C87.8123 112.831 84.5652 108.572 78.2593 107.92C73.9253 107.473 70.5518 109.451 68.1117 112.991C67.9019 113.294 67.727 113.616 67.4311 114.104L67.4365 114.099Z" fill="#4DC0ED"/>
<path d="M125.29 137.167C125.804 137.231 126.248 137.449 126.258 137.99C126.269 138.512 125.882 138.858 125.357 138.863C124.787 138.871 124.418 138.576 124.44 137.939C124.459 137.385 124.819 137.22 125.293 137.164L125.29 137.167Z" fill="#4DC0ED"/>
<path d="M95.7189 166.771V153.985H101.758C104.567 153.985 106.095 155.865 106.095 158.108C106.095 160.35 104.546 162.209 101.758 162.209H98.4683V166.771H95.7189ZM103.289 158.108C103.289 157.034 102.455 156.382 101.371 156.382H98.4656V159.812H101.371C102.455 159.812 103.289 159.16 103.289 158.105V158.108Z" fill="#4DC0ED"/>
<path d="M117.859 166.771L115.323 162.228H113.308V166.771H110.558V153.985H116.598C119.288 153.985 120.956 155.729 120.956 158.108C120.956 160.35 119.503 161.578 118.11 161.903L121.034 166.771H117.859ZM118.131 158.089C118.131 157.034 117.297 156.382 116.213 156.382H113.308V159.831H116.213C117.297 159.831 118.131 159.181 118.131 158.086V158.089Z" fill="#4DC0ED"/>
<path d="M125.129 160.387C125.129 156.536 127.975 153.775 131.886 153.775C135.798 153.775 138.625 156.536 138.625 160.387C138.625 164.238 135.779 167 131.886 167C127.994 167 125.129 164.241 125.129 160.387ZM135.798 160.387C135.798 157.99 134.267 156.19 131.886 156.19C129.506 156.19 127.956 157.99 127.956 160.387C127.956 162.784 129.484 164.587 131.886 164.587C134.289 164.587 135.798 162.766 135.798 160.387Z" fill="#4DC0ED"/>
<path d="M143.301 166.771V153.985H148.394C152.44 153.985 155.248 156.536 155.248 160.369C155.248 164.201 152.44 166.771 148.412 166.771H143.301ZM152.44 160.369C152.44 158.126 151.046 156.382 148.412 156.382H146.048V164.374H148.391C150.947 164.374 152.437 162.552 152.437 160.369H152.44Z" fill="#4DC0ED"/>
<path d="M159.943 161.652V153.985H162.73V161.578C162.73 163.359 163.776 164.587 165.77 164.587C167.763 164.587 168.791 163.359 168.791 161.578V153.985H171.6V161.652C171.6 164.814 169.7 167 165.77 167C161.839 167 159.943 164.814 159.943 161.652Z" fill="#4DC0ED"/>
<path d="M176.275 160.387C176.275 156.438 179.275 153.775 183.168 153.775C185.995 153.775 187.641 155.29 188.551 156.899L186.189 158.049C185.645 157.013 184.483 156.19 183.168 156.19C180.803 156.19 179.103 157.972 179.103 160.387C179.103 162.803 180.806 164.587 183.168 164.587C184.483 164.587 185.645 163.764 186.189 162.728L188.551 163.857C187.641 165.45 185.995 167 183.168 167C179.275 167 176.275 164.318 176.275 160.387Z" fill="#4DC0ED"/>
<path d="M195.919 166.771V156.382H192.142V153.985H202.443V156.382H198.685V166.771H195.917H195.919Z" fill="#4DC0ED"/>
<path d="M206.944 166.771V153.985H209.693V166.771H206.944Z" fill="#4DC0ED"/>
<path d="M214.364 160.387C214.364 156.536 217.21 153.775 221.121 153.775C225.033 153.775 227.86 156.536 227.86 160.387C227.86 164.238 225.014 167 221.121 167C217.229 167 214.364 164.241 214.364 160.387ZM225.033 160.387C225.033 157.99 223.502 156.19 221.121 156.19C218.741 156.19 217.191 157.99 217.191 160.387C217.191 162.784 218.719 164.587 221.121 164.587C223.524 164.587 225.033 162.766 225.033 160.387Z" fill="#4DC0ED"/>
<path d="M241.443 166.771L235.285 158.433V166.771H232.536V153.985H235.363L241.347 162.017V153.985H244.096V166.771H241.443Z" fill="#4DC0ED"/>
<path d="M248.503 164.971L250.012 162.843C250.921 163.783 252.333 164.587 254.117 164.587C255.645 164.587 256.363 163.916 256.363 163.168C256.363 160.944 248.928 162.497 248.928 157.687C248.928 155.559 250.787 153.796 253.827 153.796C255.879 153.796 257.585 154.408 258.86 155.578L257.332 157.61C256.285 156.651 254.892 156.209 253.574 156.209C252.411 156.209 251.755 156.707 251.755 157.474C251.755 159.484 259.172 158.124 259.172 162.899C259.172 165.24 257.466 167 254.001 167C251.505 167 249.721 166.177 248.503 164.971Z" fill="#4DC0ED"/>
<path fill-rule="evenodd" clip-rule="evenodd" d="M272.478 47.0609C263.32 47.0609 255.893 39.7078 255.893 30.6423C255.893 21.5769 263.318 14.2238 272.478 14.2238C281.638 14.2238 289.066 21.5769 289.066 30.6423C289.066 39.7078 281.641 47.0609 272.478 47.0609ZM272.478 10C260.961 10 251.623 19.2412 251.623 30.6423C251.623 42.0434 260.964 51.2873 272.478 51.2873C283.992 51.2873 293.33 42.0408 293.33 30.6423C293.33 19.2439 283.992 10 272.478 10Z" fill="white"/>
<path fill-rule="evenodd" clip-rule="evenodd" d="M272.475 16.2345C274.791 16.2345 276.981 16.7698 278.924 17.7232V24.6102L266.492 17.5049C268.316 16.6899 270.342 16.2345 272.475 16.2345ZM268.225 23.3532L270.423 22.0962L264.399 18.6527C260.872 20.9856 258.432 24.802 257.994 29.1989L268.225 23.3505V23.3532ZM263.971 28.131V42.339C260.544 39.8916 258.233 36.006 257.948 31.5744L263.971 28.131ZM266.024 36.6744L278.456 43.7798C276.629 44.5974 274.606 45.0502 272.473 45.0502C270.156 45.0502 267.966 44.5149 266.024 43.5614V36.6744ZM276.726 37.9315L274.528 39.1885L280.551 42.632C284.078 40.299 286.518 36.4827 286.959 32.0858L276.728 37.9341L276.726 37.9315ZM280.976 33.1564V18.9483C284.404 21.3958 286.715 25.2813 287 29.7129L280.976 33.1564Z" fill="#4DC0ED"/>
</g>
<defs>
<clipPath id="clip0_260_710">
<rect width="357.005" height="177" fill="white" transform="translate(-0.00244141)"/>
</clipPath>
</defs>
</svg>
